<svg viewBox="0 0 1007.4000244140625 400" xmlns="http://www.w3.org/2000/svg"><g><g><g><g><g><line x1="40" y1="377" x2="35" y2="377" style="visibility: inherit;" fill="rgb(0, 0, 0)" stroke="rgb(204, 204, 204)" stroke-width="1px"></line><line x1="40" y1="335.11111111111114" x2="35" y2="335.11111111111114" style="visibility: inherit;" fill="rgb(0, 0, 0)" stroke="rgb(204, 204, 204)" stroke-width="1px"></line><line x1="40" y1="293.2222222222222" x2="35" y2="293.2222222222222" style="visibility: inherit;" fill="rgb(0, 0, 0)" stroke="rgb(204, 204, 204)" stroke-width="1px"></line><line x1="40" y1="251.33333333333337" x2="35" y2="251.33333333333337" style="visibility: inherit;" fill="rgb(0, 0, 0)" stroke="rgb(204, 204, 204)" stroke-width="1px"></line><line x1="40" y1="209.44444444444446" x2="35" y2="209.44444444444446" style="visibility: inherit;" fill="rgb(0, 0, 0)" stroke="rgb(204, 204, 204)" stroke-width="1px"></line><line x1="40" y1="167.5555555555556" x2="35" y2="167.5555555555556" style="visibility: inherit;" fill="rgb(0, 0, 0)" stroke="rgb(204, 204, 204)" stroke-width="1px"></line><line x1="40" y1="125.66666666666669" x2="35" y2="125.66666666666669" style="visibility: inherit;" fill="rgb(0, 0, 0)" stroke="rgb(204, 204, 204)" stroke-width="1px"></line><line x1="40" y1="83.77777777777777" x2="35" y2="83.77777777777777" style="visibility: inherit;" fill="rgb(0, 0, 0)" stroke="rgb(204, 204, 204)" stroke-width="1px"></line><line x1="40" y1="41.88888888888891" x2="35" y2="41.88888888888891" style="visibility: inherit;" fill="rgb(0, 0, 0)" stroke="rgb(204, 204, 204)" stroke-width="1px"></line><line x1="40" y1="0" x2="35" y2="0" style="visibility: inherit;" fill="rgb(0, 0, 0)" stroke="rgb(204, 204, 204)" stroke-width="1px"></line></g><g transform="translate(30, 0)"><text x="0" y="377" dx="0em" dy="0.3em" style="text-anchor: end; visibility: hidden; font-family: Roboto, sans-serif; font-size: 12px; font-weight: 200;" fill="rgb(33, 33, 33)" stroke="none" stroke-width="1px">0.9</text><text x="0" y="335.11111111111114" dx="0em" dy="0.3em" style="text-anchor: end; visibility: inherit; font-family: Roboto, sans-serif; font-size: 12px; font-weight: 200;" fill="rgb(33, 33, 33)" stroke="none" stroke-width="1px">1</text><text x="0" y="293.2222222222222" dx="0em" dy="0.3em" style="text-anchor: end; visibility: inherit; font-family: Roboto, sans-serif; font-size: 12px; font-weight: 200;" fill="rgb(33, 33, 33)" stroke="none" stroke-width="1px">1.1</text><text x="0" y="251.33333333333337" dx="0em" dy="0.3em" style="text-anchor: end; visibility: inherit; font-family: Roboto, sans-serif; font-size: 12px; font-weight: 200;" fill="rgb(33, 33, 33)" stroke="none" stroke-width="1px">1.2</text><text x="0" y="209.44444444444446" dx="0em" dy="0.3em" style="text-anchor: end; visibility: inherit; font-family: Roboto, sans-serif; font-size: 12px; font-weight: 200;" fill="rgb(33, 33, 33)" stroke="none" stroke-width="1px">1.3</text><text x="0" y="167.5555555555556" dx="0em" dy="0.3em" style="text-anchor: end; visibility: inherit; font-family: Roboto, sans-serif; font-size: 12px; font-weight: 200;" fill="rgb(33, 33, 33)" stroke="none" stroke-width="1px">1.4</text><text x="0" y="125.66666666666669" dx="0em" dy="0.3em" style="text-anchor: end; visibility: inherit; font-family: Roboto, sans-serif; font-size: 12px; font-weight: 200;" fill="rgb(33, 33, 33)" stroke="none" stroke-width="1px">1.5</text><text x="0" y="83.77777777777777" dx="0em" dy="0.3em" style="text-anchor: end; visibility: inherit; font-family: Roboto, sans-serif; font-size: 12px; font-weight: 200;" fill="rgb(33, 33, 33)" stroke="none" stroke-width="1px">1.6</text><text x="0" y="41.88888888888891" dx="0em" dy="0.3em" style="text-anchor: end; visibility: inherit; font-family: Roboto, sans-serif; font-size: 12px; font-weight: 200;" fill="rgb(33, 33, 33)" stroke="none" stroke-width="1px">1.7</text><text x="0" y="0" dx="0em" dy="0.3em" style="text-anchor: end; visibility: hidden; font-family: Roboto, sans-serif; font-size: 12px; font-weight: 200;" fill="rgb(33, 33, 33)" stroke="none" stroke-width="1px">1.8</text></g><line x1="40" y1="0" x2="40" y2="377" fill="rgb(0, 0, 0)" stroke="rgb(204, 204, 204)" stroke-width="1px"></line></g></g><g transform="translate(40, 0)" clip-path="url(#clip_0)"><clipPath id="clip_0"><rect width="967" height="377"></rect></clipPath><g><g><g><line x1="0" y1="0" x2="0" y2="377" fill="rgb(0, 0, 0)" stroke="rgb(66, 66, 66)" stroke-width="1px" opacity="0.25"></line><line x1="80.61666666666666" y1="0" x2="80.61666666666666" y2="377" fill="rgb(0, 0, 0)" stroke="rgb(66, 66, 66)" stroke-width="1px" opacity="0.25"></line><line x1="161.23333333333332" y1="0" x2="161.23333333333332" y2="377" fill="rgb(0, 0, 0)" stroke="rgb(66, 66, 66)" stroke-width="1px" opacity="0.25"></line><line x1="241.85" y1="0" x2="241.85" y2="377" fill="rgb(0, 0, 0)" stroke="rgb(66, 66, 66)" stroke-width="1px" opacity="0.25"></line><line x1="322.46666666666664" y1="0" x2="322.46666666666664" y2="377" fill="rgb(0, 0, 0)" stroke="rgb(66, 66, 66)" stroke-width="1px" opacity="0.25"></line><line x1="403.0833333333333" y1="0" x2="403.0833333333333" y2="377" fill="rgb(0, 0, 0)" stroke="rgb(66, 66, 66)" stroke-width="1px" opacity="0.25"></line><line x1="483.7" y1="0" x2="483.7" y2="377" fill="rgb(0, 0, 0)" stroke="rgb(66, 66, 66)" stroke-width="1px" opacity="0.25"></line><line x1="564.3166666666667" y1="0" x2="564.3166666666667" y2="377" fill="rgb(0, 0, 0)" stroke="rgb(66, 66, 66)" stroke-width="1px" opacity="0.25"></line><line x1="644.9333333333333" y1="0" x2="644.9333333333333" y2="377" fill="rgb(0, 0, 0)" stroke="rgb(66, 66, 66)" stroke-width="1px" opacity="0.25"></line><line x1="725.55" y1="0" x2="725.55" y2="377" fill="rgb(0, 0, 0)" stroke="rgb(66, 66, 66)" stroke-width="1px" opacity="0.25"></line><line x1="806.1666666666666" y1="0" x2="806.1666666666666" y2="377" fill="rgb(0, 0, 0)" stroke="rgb(66, 66, 66)" stroke-width="1px" opacity="0.25"></line><line x1="886.7833333333333" y1="0" x2="886.7833333333333" y2="377" fill="rgb(0, 0, 0)" stroke="rgb(66, 66, 66)" stroke-width="1px" opacity="0.25"></line><line x1="967.4" y1="0" x2="967.4" y2="377" fill="rgb(0, 0, 0)" stroke="rgb(66, 66, 66)" stroke-width="1px" opacity="0.25"></line></g><g><line x1="0" y1="377" x2="967.4" y2="377" fill="rgb(0, 0, 0)" stroke="rgb(66, 66, 66)" stroke-width="1px" opacity="0.25"></line><line x1="0" y1="335.11111111111114" x2="967.4" y2="335.11111111111114" fill="rgb(0, 0, 0)" stroke="rgb(66, 66, 66)" stroke-width="1px" opacity="0.25"></line><line x1="0" y1="293.2222222222222" x2="967.4" y2="293.2222222222222" fill="rgb(0, 0, 0)" stroke="rgb(66, 66, 66)" stroke-width="1px" opacity="0.25"></line><line x1="0" y1="251.33333333333337" x2="967.4" y2="251.33333333333337" fill="rgb(0, 0, 0)" stroke="rgb(66, 66, 66)" stroke-width="1px" opacity="0.25"></line><line x1="0" y1="209.44444444444446" x2="967.4" y2="209.44444444444446" fill="rgb(0, 0, 0)" stroke="rgb(66, 66, 66)" stroke-width="1px" opacity="0.25"></line><line x1="0" y1="167.5555555555556" x2="967.4" y2="167.5555555555556" fill="rgb(0, 0, 0)" stroke="rgb(66, 66, 66)" stroke-width="1px" opacity="0.25"></line><line x1="0" y1="125.66666666666669" x2="967.4" y2="125.66666666666669" fill="rgb(0, 0, 0)" stroke="rgb(66, 66, 66)" stroke-width="1px" opacity="0.25"></line><line x1="0" y1="83.77777777777777" x2="967.4" y2="83.77777777777777" fill="rgb(0, 0, 0)" stroke="rgb(66, 66, 66)" stroke-width="1px" opacity="0.25"></line><line x1="0" y1="41.88888888888891" x2="967.4" y2="41.88888888888891" fill="rgb(0, 0, 0)" stroke="rgb(66, 66, 66)" stroke-width="1px" opacity="0.25"></line><line x1="0" y1="0" x2="967.4" y2="0" fill="rgb(0, 0, 0)" stroke="rgb(66, 66, 66)" stroke-width="1px" opacity="0.25"></line></g></g></g><g><g><line x1="0" y1="754" x2="967.4" y2="754" fill="rgb(0, 0, 0)" stroke="rgb(153, 153, 153)" stroke-width="1.5px"></line></g></g><g><g><line x1="80.61666666666666" y1="0" x2="80.61666666666666" y2="377" fill="rgb(0, 0, 0)" stroke="rgb(153, 153, 153)" stroke-width="1.5px"></line></g></g><g><g><g><g><g><path stroke="rgb(255, 112, 67)" stroke-width="2px" d="M104.80166666666666,-10.064201898944665L108.8325,0.14322269173748348L112.86333333333333,10.684913261387285L116.89416666666666,17.518148696647877L120.925,24.710007143007353L124.95583333333335,30.280895539765776L128.98666666666665,35.55032646655073L133.0175,39.4429033303252L137.04833333333332,44.77113487252687L141.07916666666668,49.67718172503116L145.10999999999999,52.82928872638788L149.14083333333335,57.41214521969669L153.17166666666665,60.925739967096646L157.20250000000001,65.54288800946938L161.23333333333332,70.20300712310765L165.26416666666665,73.37986584284212L169.295,75.41129327470479L173.32583333333332,80.52973683337444L177.35666666666665,83.15034846119084L181.3875,86.59197740121972L185.41833333333335,90.79862459256243L189.44916666666666,94.33318437153156L193.48000000000002,96.31969231918235L197.51083333333332,98.75143411605475L201.54166666666666,102.3575235816443L205.5725,105.26138012945374L209.60333333333332,106.96911860518367L213.63416666666666,110.056135600583L217.665,111.85165902098369L221.69583333333333,114.36785298206479L225.72666666666666,116.81825329559406L229.7575,120.08952522914768L233.78833333333333,123.34240061489292L237.81916666666666,124.79509095944292L241.85,127.5547244633026L245.8808333333333,130.02642979186564L249.9116666666667,132.19886176758558L253.9425,134.03675007902433L257.9733333333333,136.81429797886585L262.00416666666666,138.99146659805643L266.035,141.51601290494284L270.06583333333333,144.0243761845401L274.09666666666664,144.7646627450867L278.1275,147.5874597564498L282.15833333333336,149.47962137737417L286.18916666666667,152.55491045986304L290.21999999999997,154.61870129563917L294.2508333333333,156.80796642100145L298.2816666666667,159.37069066031802L302.3125,160.7509885979871L306.3433333333333,164.72104575355027L310.37416666666667,167.056600132964L314.40500000000003,168.50467233885925L318.43583333333333,170.75870498370244L322.46666666666664,172.0428328535028L326.4975,174.1733314314791L330.5283333333333,175.12920738507492L334.55916666666667,176.57834103057297L338.59,178.89035640633475L342.62083333333334,180.16403239984473L346.65166666666664,182.22913628298213L350.6825,184.76328441388304L354.7133333333333,186.30324811669325L358.7441666666667,188.3585837962821L362.775,190.14387150435556L366.8058333333333,191.32889694800647L370.8366666666667,192.88553904525176L374.8675,195.4169792223544L378.8983333333333,196.31790216099648L382.9291666666666,196.4782674060814L386.96000000000004,199.34538452439165L390.99083333333334,201.33191059795615L395.02166666666665,202.40997342328785L399.05249999999995,204.59160703854096L403.0833333333333,204.68641680474218L407.1141666666667,205.95563544296962L411.145,208.29346888937792L415.1758333333333,209.505215808487L419.20666666666665,211.22116557509537L423.2375,212.89901738018295L427.2683333333333,213.8648013710012L431.2991666666667,215.33484049870754L435.33,216.8961658200341L439.36083333333335,218.6593127614026L443.39166666666665,218.60621713063372L447.4225,220.38609766042984L451.4533333333333,221.94760790910377L455.4841666666666,224.20099220475515L459.515,224.91688513769614L463.54583333333335,226.9332096047701L467.57666666666665,228.80904327503524L471.60749999999996,230.91827178004394L475.6383333333333,231.98969981407262L479.6691666666667,233.65673264928412L483.7,234.08664959908177L487.7308333333333,234.54224426757344L491.7616666666666,236.87236222750576L495.79249999999996,237.24599732434734L499.8233333333334,240.39184145482642L503.8541666666667,241.42942665363043L507.885,242.26983614040893L511.91583333333335,243.34354566829825L515.9466666666666,244.636472787908L519.9775,245.46096605579464L524.0083333333333,247.70613911859434L528.0391666666666,250.01016591125742L532.07,250.17253917535552L536.1008333333333,250.3968391171586L540.1316666666667,251.26447144192727L544.1625,252.98098481455148L548.1933333333333,255.29978664373576L552.2241666666666,256.78434715595307L556.255,257.98192679705755L560.2858333333334,257.56324471526864L564.3166666666667,260.15865554905054L568.3475,260.69362358150545L572.3783333333333,261.9144012047708L576.4091666666667,261.88786896086225L580.4399999999999,264.57098049067685L584.4708333333333,264.97199013715925L588.5016666666666,266.5426365388589L592.5325,268.0807742349202L596.5633333333334,269.8335040824086L600.5941666666666,270.9547520038038L604.625,271.5229958534833L608.6558333333332,272.8317310715077L612.6866666666666,275.11112066864445L616.7175,276.49009976044977L620.7483333333333,276.1837528303605L624.7791666666667,277.3081335345776L628.8100000000001,278.9100632050226L632.8408333333333,280.1831377824632L636.8716666666667,280.28909300383185L640.9024999999999,281.92994713488304L644.9333333333333,282.81884321989463L648.9641666666666,284.55196986516097L652.995,285.3457639702678L657.0258333333334,286.1109070062418L661.0566666666666,287.7463521104257L665.0875,288.67472754763764L669.1183333333333,289.7148083485661L673.1491666666666,290.06255401463966L677.18,291.35272329623496L681.2108333333333,293.2980108354986L685.2416666666667,294.81097634137006L689.2725,295.65561726590187L693.3033333333333,295.7282630457492L697.3341666666666,296.1751891049154L701.365,297.6169675605274L705.3958333333333,297.28536161151857L709.4266666666666,298.4366924731639L713.4575,300.7437016627415L717.4883333333333,301.4471272425586L721.5191666666667,303.0946983269228L725.55,304.3336372822017L729.5808333333333,303.7668742977607L733.6116666666666,305.91507984921174L737.6424999999999,308.59893990061244L741.6733333333334,309.7067055944033L745.7041666666667,310.4507823453402L749.735,311.3917291389207L753.7658333333334,312.14219689658415L757.7966666666666,310.70667538816406L761.8275,312.3200633578645L765.8583333333332,312.8254142633962L769.8891666666666,314.4999720221559L773.9200000000001,314.7432909839166L777.9508333333333,316.80886086023725L781.9816666666667,317.65940539689325L786.0124999999999,319.40936959972856L790.0433333333333,320.29212429703466L794.0741666666667,320.4754048819216L798.1049999999999,320.8477740189357L802.1358333333334,322.01996899120223L806.1666666666666,322.82427542226174L810.1975,323.7620308659804L814.2283333333334,325.03872107374L818.2591666666666,326.0160020869083L822.29,327.1631457628804L826.3208333333333,329.1900415049525L830.3516666666666,330.6165270264863L834.3825,331.54706184535075L838.4133333333333,331.8741816177763L842.4441666666667,332.972227728719L846.475,334.39051361926334L850.5058333333333,334.4768735914968L854.5366666666666,335.8953228840953L858.5674999999999,336.472965926909L862.5983333333334,336.4669875236917L866.6291666666667,337.9975172797383L870.66,338.91863151838965L874.6908333333333,339.52603929841206L878.7216666666667,339.60935738777664L882.7524999999999,340.7323111877574" style="fill: none;" fill="none"></path></g></g></g></g><g opacity="0.2"><g><g><g><path stroke="rgb(255, 112, 67)" stroke-width="2px" d="M100.77083333333333,-2.0698542330000045L104.80166666666666,8.72159531381396L108.8325,15.025745736228131L112.86333333333333,26.231859233644283L116.89416666666666,27.66470694541931L120.925,35.43256518575883L124.95583333333335,38.60691160625884L128.98666666666665,43.437267250484915L133.0175,45.274142662684135L137.04833333333332,52.75721904966569L141.07916666666668,57.032791879442016L145.10999999999999,57.556115362379316L149.14083333333335,64.28526637289262L153.17166666666665,66.19559682740106L157.20250000000001,72.46818804740906L161.23333333333332,77.19293022155762L165.26416666666665,78.14504938655432L169.295,78.45839431550769L173.32583333333332,88.20734153853526L177.35666666666665,87.08124727673002L181.3875,91.75440613428754L185.41833333333335,97.10858461591936L189.44916666666666,99.63501861360339L193.48000000000002,99.2994524108039L197.51083333333332,102.39904546737671L201.54166666666666,107.76665658420988L205.5725,109.61716437339783L209.60333333333332,109.53072611490887L213.63416666666666,114.68666087256537L217.665,114.54494407441882L221.69583333333333,118.14214385880365L225.72666666666666,120.4938537279765L229.7575,124.99643309911094L233.78833333333333,128.221713675393L237.81916666666666,126.97412647141351L241.85,131.69417471355865L245.8808333333333,133.73398778173663L249.9116666666667,135.45750972959735L253.9425,136.7935825453864L257.9733333333333,140.9806198279063L262.00416666666666,142.25721952650287L266.035,145.302832365036L270.06583333333333,147.7869211037954L274.09666666666664,145.8750925858816L278.1275,151.8216552734375L282.15833333333336,152.31786380873785L286.18916666666667,157.1678440835741L290.21999999999997,157.71438754929437L294.2508333333333,160.0918641090393L298.2816666666667,163.21477701928882L302.3125,162.8214355044895L306.3433333333333,170.6761314868927L310.37416666666667,170.55993170208404L314.40500000000003,170.67678064770172L318.43583333333333,174.13975395096674L322.46666666666664,173.96902465820312L326.4975,177.3690792984433L330.5283333333333,176.5630213154687L334.55916666666667,178.75204149882L338.59,182.35837946997748L342.62083333333334,182.07454639010962L346.65166666666664,185.32679210768805L350.6825,188.56450661023462L354.7133333333333,188.61319367090863L358.7441666666667,191.4415873156654L362.775,192.82180306646558L366.8058333333333,193.10643511348303L370.8366666666667,195.22050219111975L374.8675,199.2141394880083L378.8983333333333,197.6692865689596L382.9291666666666,196.7188152737088L386.96000000000004,203.6460602018568L390.99083333333334,204.31169970830285L395.02166666666665,204.0270676612854L399.05249999999995,207.8640574614207L403.0833333333333,204.82863145404394L407.1141666666667,207.85946340031097L411.145,211.80021905899048L415.1758333333333,211.32283618715076L419.20666666666665,213.7950902250078L423.2375,215.41579508781433L427.2683333333333,215.31347735722863L431.2991666666667,217.53989919026696L435.33,219.23815380202404L439.36083333333335,221.30403317345514L443.39166666666665,218.52657368448047L447.4225,223.0559184551239L451.4533333333333,224.28987328211468L455.4841666666666,227.58106864823236L459.515,225.99072453710767L463.54583333333335,229.95769630538098L467.57666666666665,231.62279378043286L471.60749999999996,234.082114537557L475.6383333333333,233.59684186511572L479.6691666666667,236.15728190210132L483.7,234.73152502377832L487.7308333333333,235.22563627031116L491.7616666666666,240.36753916740417L495.79249999999996,237.80644996960962L499.8233333333334,245.11060765054492L503.8541666666667,242.9858044518365L507.885,243.53045037057666L511.91583333333335,244.9541099601322L515.9466666666666,246.5758634673225L519.9775,246.69770595762463L524.0083333333333,251.073898712794L528.0391666666666,253.46620610025195L532.07,250.41609907150269L536.1008333333333,250.73328902986316L540.1316666666667,252.56591992908056L544.1625,255.55575487348767L548.1933333333333,258.7779893875122L552.2241666666666,259.0111879242791L556.255,259.7782962587145L560.2858333333334,256.93522159258526L564.3166666666667,264.0517717997233L568.3475,261.496075630188L572.3783333333333,263.7455676396688L576.4091666666667,261.8480705949995L580.4399999999999,268.5956477853987L584.4708333333333,265.57350460688275L588.5016666666666,268.8986061414083L592.5325,270.3879807790121L596.5633333333334,272.4625988536411L600.5941666666666,272.6366238858965L604.625,272.37536162800257L608.6558333333332,274.7948338985443L612.6866666666666,278.53020506434973L616.7175,278.5585683981578L620.7483333333333,275.72423243522644L624.7791666666667,278.99470459090344L628.8100000000001,281.31295771068994L632.8408333333333,282.092749648624L636.8716666666667,280.44802583588495L640.9024999999999,284.3912283314599L644.9333333333333,284.1521873474121L648.9641666666666,287.1516598330604L652.995,286.536455127928L657.0258333333334,287.25862156020276L661.0566666666666,290.1995197667016L665.0875,290.0672907034556L669.1183333333333,291.274929549959L673.1491666666666,290.5841725137499L677.18,293.28797721862793L681.2108333333333,296.2159421443939L685.2416666666667,297.08042460017737L689.2725,296.9225786526998L693.3033333333333,295.83723171552026L697.3341666666666,296.84557819366455L701.365,299.7796352439457L705.3958333333333,296.78795268800525L709.4266666666666,300.16368876563183L713.4575,304.20421544710797L717.4883333333333,302.50226561228436L721.5191666666667,305.5660549534692L725.55,306.1920457151201L729.5808333333333,302.9167298210992L733.6116666666666,309.13738817638824L737.6424999999999,312.6247299777137L741.6733333333334,311.3683541350895L745.7041666666667,311.56689747174585L749.735,312.80314932929144L753.7658333333334,313.26789853307935L757.7966666666666,308.55339312553406L761.8275,314.7401453124152L765.8583333333332,313.58344062169397L769.8891666666666,317.0118086602953L773.9200000000001,315.10826942655774L777.9508333333333,319.90721567471826L781.9816666666667,318.9352222018772L786.0124999999999,322.03431590398156L790.0433333333333,321.61625634299384L794.0741666666667,320.75032575925195L798.1049999999999,321.4063277244568L802.1358333333334,323.7782614496019L806.1666666666666,324.0307350688511L810.1975,325.1686640315586L814.2283333333334,326.9537563853794L818.2591666666666,327.48192360666064L822.29,328.8838612768385L826.3208333333333,332.23038511806067L830.3516666666666,332.75625530878705L834.3825,332.9428640736474L838.4133333333333,332.3648612764147L842.4441666666667,334.6192968951331L846.475,336.51794245507983L850.5058333333333,334.6064135498471L854.5366666666666,338.022996822993L858.5674999999999,337.3394304911296L862.5983333333334,336.45801991886566L866.6291666666667,340.2933119138082L870.66,340.3003028763665L874.6908333333333,340.4371509684457L878.7216666666667,339.7343345218235L882.7524999999999,342.4167418877284" style="fill: none;" fill="none"></path></g></g></g></g></g><g><g opacity="0.0344503"><span fill="rgb(0, 0, 0)" stroke="none" stroke-width="1px">Alt + Scroll to Zoom</span></g></g></g><g transform="translate(40, 377)" clip-path="url(#clip_1)"><clipPath id="clip_1"><rect width="967" height="23"></rect></clipPath><g><g><line x1="0" y1="0" x2="0" y2="5" style="visibility: inherit;" fill="rgb(0, 0, 0)" stroke="rgb(204, 204, 204)" stroke-width="1px"></line><line x1="80.61666666666666" y1="0" x2="80.61666666666666" y2="5" style="visibility: inherit;" fill="rgb(0, 0, 0)" stroke="rgb(204, 204, 204)" stroke-width="1px"></line><line x1="161.23333333333332" y1="0" x2="161.23333333333332" y2="5" style="visibility: inherit;" fill="rgb(0, 0, 0)" stroke="rgb(204, 204, 204)" stroke-width="1px"></line><line x1="241.85" y1="0" x2="241.85" y2="5" style="visibility: inherit;" fill="rgb(0, 0, 0)" stroke="rgb(204, 204, 204)" stroke-width="1px"></line><line x1="322.46666666666664" y1="0" x2="322.46666666666664" y2="5" style="visibility: inherit;" fill="rgb(0, 0, 0)" stroke="rgb(204, 204, 204)" stroke-width="1px"></line><line x1="403.0833333333333" y1="0" x2="403.0833333333333" y2="5" style="visibility: inherit;" fill="rgb(0, 0, 0)" stroke="rgb(204, 204, 204)" stroke-width="1px"></line><line x1="483.7" y1="0" x2="483.7" y2="5" style="visibility: inherit;" fill="rgb(0, 0, 0)" stroke="rgb(204, 204, 204)" stroke-width="1px"></line><line x1="564.3166666666667" y1="0" x2="564.3166666666667" y2="5" style="visibility: inherit;" fill="rgb(0, 0, 0)" stroke="rgb(204, 204, 204)" stroke-width="1px"></line><line x1="644.9333333333333" y1="0" x2="644.9333333333333" y2="5" style="visibility: inherit;" fill="rgb(0, 0, 0)" stroke="rgb(204, 204, 204)" stroke-width="1px"></line><line x1="725.55" y1="0" x2="725.55" y2="5" style="visibility: inherit;" fill="rgb(0, 0, 0)" stroke="rgb(204, 204, 204)" stroke-width="1px"></line><line x1="806.1666666666666" y1="0" x2="806.1666666666666" y2="5" style="visibility: inherit;" fill="rgb(0, 0, 0)" stroke="rgb(204, 204, 204)" stroke-width="1px"></line><line x1="886.7833333333333" y1="0" x2="886.7833333333333" y2="5" style="visibility: inherit;" fill="rgb(0, 0, 0)" stroke="rgb(204, 204, 204)" stroke-width="1px"></line><line x1="967.4" y1="0" x2="967.4" y2="5" style="visibility: inherit;" fill="rgb(0, 0, 0)" stroke="rgb(204, 204, 204)" stroke-width="1px"></line></g><g transform="translate(0, 8)"><text x="0" y="0" dx="0em" dy="0.95em" style="text-anchor: middle; visibility: hidden; font-family: Roboto, sans-serif; font-size: 12px; font-weight: 200;" fill="rgb(33, 33, 33)" stroke="none" stroke-width="1px">-20</text><text x="80.61666666666666" y="0" dx="0em" dy="0.95em" style="text-anchor: middle; visibility: inherit; font-family: Roboto, sans-serif; font-size: 12px; font-weight: 200;" fill="rgb(33, 33, 33)" stroke="none" stroke-width="1px">0</text><text x="161.23333333333332" y="0" dx="0em" dy="0.95em" style="text-anchor: middle; visibility: inherit; font-family: Roboto, sans-serif; font-size: 12px; font-weight: 200;" fill="rgb(33, 33, 33)" stroke="none" stroke-width="1px">20</text><text x="241.85" y="0" dx="0em" dy="0.95em" style="text-anchor: middle; visibility: inherit; font-family: Roboto, sans-serif; font-size: 12px; font-weight: 200;" fill="rgb(33, 33, 33)" stroke="none" stroke-width="1px">40</text><text x="322.46666666666664" y="0" dx="0em" dy="0.95em" style="text-anchor: middle; visibility: inherit; font-family: Roboto, sans-serif; font-size: 12px; font-weight: 200;" fill="rgb(33, 33, 33)" stroke="none" stroke-width="1px">60</text><text x="403.0833333333333" y="0" dx="0em" dy="0.95em" style="text-anchor: middle; visibility: inherit; font-family: Roboto, sans-serif; font-size: 12px; font-weight: 200;" fill="rgb(33, 33, 33)" stroke="none" stroke-width="1px">80</text><text x="483.7" y="0" dx="0em" dy="0.95em" style="text-anchor: middle; visibility: inherit; font-family: Roboto, sans-serif; font-size: 12px; font-weight: 200;" fill="rgb(33, 33, 33)" stroke="none" stroke-width="1px">100</text><text x="564.3166666666667" y="0" dx="0em" dy="0.95em" style="text-anchor: middle; visibility: inherit; font-family: Roboto, sans-serif; font-size: 12px; font-weight: 200;" fill="rgb(33, 33, 33)" stroke="none" stroke-width="1px">120</text><text x="644.9333333333333" y="0" dx="0em" dy="0.95em" style="text-anchor: middle; visibility: inherit; font-family: Roboto, sans-serif; font-size: 12px; font-weight: 200;" fill="rgb(33, 33, 33)" stroke="none" stroke-width="1px">140</text><text x="725.55" y="0" dx="0em" dy="0.95em" style="text-anchor: middle; visibility: inherit; font-family: Roboto, sans-serif; font-size: 12px; font-weight: 200;" fill="rgb(33, 33, 33)" stroke="none" stroke-width="1px">160</text><text x="806.1666666666666" y="0" dx="0em" dy="0.95em" style="text-anchor: middle; visibility: inherit; font-family: Roboto, sans-serif; font-size: 12px; font-weight: 200;" fill="rgb(33, 33, 33)" stroke="none" stroke-width="1px">180</text><text x="886.7833333333333" y="0" dx="0em" dy="0.95em" style="text-anchor: middle; visibility: inherit; font-family: Roboto, sans-serif; font-size: 12px; font-weight: 200;" fill="rgb(33, 33, 33)" stroke="none" stroke-width="1px">200</text><text x="967.4" y="0" dx="0em" dy="0.95em" style="text-anchor: middle; visibility: hidden; font-family: Roboto, sans-serif; font-size: 12px; font-weight: 200;" fill="rgb(33, 33, 33)" stroke="none" stroke-width="1px">220</text></g><line x1="0" y1="0" x2="967.4" y2="0" fill="rgb(0, 0, 0)" stroke="rgb(204, 204, 204)" stroke-width="1px"></line></g></g></g></g></svg>