<svg viewBox="0 0 330 200" xmlns="http://www.w3.org/2000/svg"><g><g><g><g><g><line x1="40" y1="177" x2="35" y2="177" style="visibility: inherit;" fill="rgb(0, 0, 0)" stroke="rgb(204, 204, 204)" stroke-width="1px"></line><line x1="40" y1="157.33333333333334" x2="35" y2="157.33333333333334" style="visibility: inherit;" fill="rgb(0, 0, 0)" stroke="rgb(204, 204, 204)" stroke-width="1px"></line><line x1="40" y1="137.66666666666666" x2="35" y2="137.66666666666666" style="visibility: inherit;" fill="rgb(0, 0, 0)" stroke="rgb(204, 204, 204)" stroke-width="1px"></line><line x1="40" y1="118.00000000000001" x2="35" y2="118.00000000000001" style="visibility: inherit;" fill="rgb(0, 0, 0)" stroke="rgb(204, 204, 204)" stroke-width="1px"></line><line x1="40" y1="98.33333333333334" x2="35" y2="98.33333333333334" style="visibility: inherit;" fill="rgb(0, 0, 0)" stroke="rgb(204, 204, 204)" stroke-width="1px"></line><line x1="40" y1="78.66666666666669" x2="35" y2="78.66666666666669" style="visibility: inherit;" fill="rgb(0, 0, 0)" stroke="rgb(204, 204, 204)" stroke-width="1px"></line><line x1="40" y1="59.00000000000001" x2="35" y2="59.00000000000001" style="visibility: inherit;" fill="rgb(0, 0, 0)" stroke="rgb(204, 204, 204)" stroke-width="1px"></line><line x1="40" y1="39.33333333333333" x2="35" y2="39.33333333333333" style="visibility: inherit;" fill="rgb(0, 0, 0)" stroke="rgb(204, 204, 204)" stroke-width="1px"></line><line x1="40" y1="19.666666666666675" x2="35" y2="19.666666666666675" style="visibility: inherit;" fill="rgb(0, 0, 0)" stroke="rgb(204, 204, 204)" stroke-width="1px"></line><line x1="40" y1="0" x2="35" y2="0" style="visibility: inherit;" fill="rgb(0, 0, 0)" stroke="rgb(204, 204, 204)" stroke-width="1px"></line></g><g transform="translate(30, 0)"><text x="0" y="177" dx="0em" dy="0.3em" style="text-anchor: end; visibility: hidden; font-family: Roboto, sans-serif; font-size: 12px; font-weight: 200;" fill="rgb(33, 33, 33)" stroke="none" stroke-width="1px">0.9</text><text x="0" y="157.33333333333334" dx="0em" dy="0.3em" style="text-anchor: end; visibility: inherit; font-family: Roboto, sans-serif; font-size: 12px; font-weight: 200;" fill="rgb(33, 33, 33)" stroke="none" stroke-width="1px">1</text><text x="0" y="137.66666666666666" dx="0em" dy="0.3em" style="text-anchor: end; visibility: hidden; font-family: Roboto, sans-serif; font-size: 12px; font-weight: 200;" fill="rgb(33, 33, 33)" stroke="none" stroke-width="1px">1.1</text><text x="0" y="118.00000000000001" dx="0em" dy="0.3em" style="text-anchor: end; visibility: inherit; font-family: Roboto, sans-serif; font-size: 12px; font-weight: 200;" fill="rgb(33, 33, 33)" stroke="none" stroke-width="1px">1.2</text><text x="0" y="98.33333333333334" dx="0em" dy="0.3em" style="text-anchor: end; visibility: hidden; font-family: Roboto, sans-serif; font-size: 12px; font-weight: 200;" fill="rgb(33, 33, 33)" stroke="none" stroke-width="1px">1.3</text><text x="0" y="78.66666666666669" dx="0em" dy="0.3em" style="text-anchor: end; visibility: inherit; font-family: Roboto, sans-serif; font-size: 12px; font-weight: 200;" fill="rgb(33, 33, 33)" stroke="none" stroke-width="1px">1.4</text><text x="0" y="59.00000000000001" dx="0em" dy="0.3em" style="text-anchor: end; visibility: hidden; font-family: Roboto, sans-serif; font-size: 12px; font-weight: 200;" fill="rgb(33, 33, 33)" stroke="none" stroke-width="1px">1.5</text><text x="0" y="39.33333333333333" dx="0em" dy="0.3em" style="text-anchor: end; visibility: inherit; font-family: Roboto, sans-serif; font-size: 12px; font-weight: 200;" fill="rgb(33, 33, 33)" stroke="none" stroke-width="1px">1.6</text><text x="0" y="19.666666666666675" dx="0em" dy="0.3em" style="text-anchor: end; visibility: hidden; font-family: Roboto, sans-serif; font-size: 12px; font-weight: 200;" fill="rgb(33, 33, 33)" stroke="none" stroke-width="1px">1.7</text><text x="0" y="0" dx="0em" dy="0.3em" style="text-anchor: end; visibility: hidden; font-family: Roboto, sans-serif; font-size: 12px; font-weight: 200;" fill="rgb(33, 33, 33)" stroke="none" stroke-width="1px">1.8</text></g><line x1="40" y1="0" x2="40" y2="177" fill="rgb(0, 0, 0)" stroke="rgb(204, 204, 204)" stroke-width="1px"></line></g></g><g transform="translate(40, 0)" clip-path="url(#clip_0)"><clipPath id="clip_0"><rect width="290" height="177"></rect></clipPath><g><g><g><line x1="0" y1="0" x2="0" y2="177" fill="rgb(0, 0, 0)" stroke="rgb(66, 66, 66)" stroke-width="1px" opacity="0.25"></line><line x1="24.166666666666664" y1="0" x2="24.166666666666664" y2="177" fill="rgb(0, 0, 0)" stroke="rgb(66, 66, 66)" stroke-width="1px" opacity="0.25"></line><line x1="48.33333333333333" y1="0" x2="48.33333333333333" y2="177" fill="rgb(0, 0, 0)" stroke="rgb(66, 66, 66)" stroke-width="1px" opacity="0.25"></line><line x1="72.5" y1="0" x2="72.5" y2="177" fill="rgb(0, 0, 0)" stroke="rgb(66, 66, 66)" stroke-width="1px" opacity="0.25"></line><line x1="96.66666666666666" y1="0" x2="96.66666666666666" y2="177" fill="rgb(0, 0, 0)" stroke="rgb(66, 66, 66)" stroke-width="1px" opacity="0.25"></line><line x1="120.83333333333334" y1="0" x2="120.83333333333334" y2="177" fill="rgb(0, 0, 0)" stroke="rgb(66, 66, 66)" stroke-width="1px" opacity="0.25"></line><line x1="145" y1="0" x2="145" y2="177" fill="rgb(0, 0, 0)" stroke="rgb(66, 66, 66)" stroke-width="1px" opacity="0.25"></line><line x1="169.16666666666669" y1="0" x2="169.16666666666669" y2="177" fill="rgb(0, 0, 0)" stroke="rgb(66, 66, 66)" stroke-width="1px" opacity="0.25"></line><line x1="193.33333333333331" y1="0" x2="193.33333333333331" y2="177" fill="rgb(0, 0, 0)" stroke="rgb(66, 66, 66)" stroke-width="1px" opacity="0.25"></line><line x1="217.5" y1="0" x2="217.5" y2="177" fill="rgb(0, 0, 0)" stroke="rgb(66, 66, 66)" stroke-width="1px" opacity="0.25"></line><line x1="241.66666666666669" y1="0" x2="241.66666666666669" y2="177" fill="rgb(0, 0, 0)" stroke="rgb(66, 66, 66)" stroke-width="1px" opacity="0.25"></line><line x1="265.8333333333333" y1="0" x2="265.8333333333333" y2="177" fill="rgb(0, 0, 0)" stroke="rgb(66, 66, 66)" stroke-width="1px" opacity="0.25"></line><line x1="290" y1="0" x2="290" y2="177" fill="rgb(0, 0, 0)" stroke="rgb(66, 66, 66)" stroke-width="1px" opacity="0.25"></line></g><g><line x1="0" y1="177" x2="290" y2="177" fill="rgb(0, 0, 0)" stroke="rgb(66, 66, 66)" stroke-width="1px" opacity="0.25"></line><line x1="0" y1="157.33333333333334" x2="290" y2="157.33333333333334" fill="rgb(0, 0, 0)" stroke="rgb(66, 66, 66)" stroke-width="1px" opacity="0.25"></line><line x1="0" y1="137.66666666666666" x2="290" y2="137.66666666666666" fill="rgb(0, 0, 0)" stroke="rgb(66, 66, 66)" stroke-width="1px" opacity="0.25"></line><line x1="0" y1="118.00000000000001" x2="290" y2="118.00000000000001" fill="rgb(0, 0, 0)" stroke="rgb(66, 66, 66)" stroke-width="1px" opacity="0.25"></line><line x1="0" y1="98.33333333333334" x2="290" y2="98.33333333333334" fill="rgb(0, 0, 0)" stroke="rgb(66, 66, 66)" stroke-width="1px" opacity="0.25"></line><line x1="0" y1="78.66666666666669" x2="290" y2="78.66666666666669" fill="rgb(0, 0, 0)" stroke="rgb(66, 66, 66)" stroke-width="1px" opacity="0.25"></line><line x1="0" y1="59.00000000000001" x2="290" y2="59.00000000000001" fill="rgb(0, 0, 0)" stroke="rgb(66, 66, 66)" stroke-width="1px" opacity="0.25"></line><line x1="0" y1="39.33333333333333" x2="290" y2="39.33333333333333" fill="rgb(0, 0, 0)" stroke="rgb(66, 66, 66)" stroke-width="1px" opacity="0.25"></line><line x1="0" y1="19.666666666666675" x2="290" y2="19.666666666666675" fill="rgb(0, 0, 0)" stroke="rgb(66, 66, 66)" stroke-width="1px" opacity="0.25"></line><line x1="0" y1="0" x2="290" y2="0" fill="rgb(0, 0, 0)" stroke="rgb(66, 66, 66)" stroke-width="1px" opacity="0.25"></line></g></g></g><g><g><line x1="0" y1="354" x2="290" y2="354" fill="rgb(0, 0, 0)" stroke="rgb(153, 153, 153)" stroke-width="1.5px"></line></g></g><g><g><line x1="24.166666666666664" y1="0" x2="24.166666666666664" y2="177" fill="rgb(0, 0, 0)" stroke="rgb(153, 153, 153)" stroke-width="1.5px"></line></g></g><g><g><g><g><g><path stroke="rgb(255, 112, 67)" stroke-width="2px" d="M31.416666666666668,-4.72510274831089L32.625,0.06724248391918985L33.833333333333336,5.016524263303845L35.041666666666664,8.224701112219295L36.25,11.601250037963664L37.458333333333336,14.216759974903296L38.666666666666664,16.69073682912329L39.875,18.518286178959045L41.083333333333336,21.019869688162483L42.29166666666667,23.323239165332932L43.5,24.80314086093012L44.708333333333336,26.954773750361575L45.916666666666664,28.604392504445904L47.125,30.772125139724352L48.33333333333333,32.96003252198953L49.541666666666664,34.451555050883435L50.75,35.40530214754044L51.958333333333336,37.808391033175795L53.166666666666664,39.03875776559889L54.375,40.6545888594586L55.583333333333336,42.62959297847095L56.791666666666664,44.28905473146176L58,45.22171230900604L59.208333333333336,46.36340540727239L60.41666666666667,48.05645006353061L61.625,49.41979915892125L62.833333333333336,50.22157557856104L64.04166666666667,51.67091777534003L65.25,52.51390887722577L66.45833333333333,53.69525193057153L67.66666666666667,54.84570512817015L68.875,56.38155428530276L70.08333333333333,57.90876633643514L71.29166666666666,58.590798673266306L72.5,59.886435623354274L73.70833333333333,61.04689144074329L74.91666666666667,62.066839609715245L76.125,62.92972085938278L77.33333333333333,64.23376854710678L78.54166666666666,65.25594055134215L79.75,66.44120499781135L80.95833333333333,67.61887157735701L82.16666666666667,67.96643317209642L83.375,69.29172513764354L84.58333333333334,70.18008749017301L85.79166666666667,71.62392347850333L87,72.59286506453086L88.20833333333333,73.6207163302845L89.41666666666667,74.82390516412808L90.625,75.4719495539621L91.83333333333333,77.33587559251563L93.04166666666667,78.43240908099372L94.25,79.11227322010103L95.45833333333333,80.17053257855525L96.66666666666666,80.77342550416444L97.875,81.77368610973953L99.08333333333333,82.22246606673279L100.29166666666667,82.90282854751038L101.5,83.98831056743037L102.70833333333334,84.58629637870695L103.91666666666667,85.55585443524625L105.125,86.74562689988674L106.33333333333333,87.4686337311796L107.54166666666667,88.43360565501838L108.75,89.27179113069212L109.95833333333333,89.82815586153089L111.16666666666667,90.55899313265135L112.375,91.7474942237579L113.58333333333333,92.17047395887633L114.79166666666666,92.2457648033857L116,93.59186488280457L117.20833333333333,94.52453097039322L118.41666666666667,95.0306771775118L119.625,96.05494547963329L120.83333333333334,96.09945828763757L122.04166666666667,96.69535138834384L123.25,97.79295488970793L124.45833333333333,98.36186524695545L125.66666666666667,99.16749683499174L126.875,99.9552415816774L128.08333333333334,100.4086733227247L129.29166666666669,101.09885084422078L130.5,101.83188687041388L131.70833333333334,102.65967734421288L132.91666666666666,102.63474915682274L134.125,103.47039598380923L135.33333333333334,104.20351883265614L136.54166666666666,105.26147379374446L137.75,105.59758267737989L138.95833333333334,106.54423899215998L140.16666666666666,107.42493543682026L141.375,108.41520982776599L142.58333333333331,108.9182410267662L143.79166666666666,109.70090631014135L145,109.90275060752644L146.20833333333334,110.11665049167242L147.41666666666666,111.21063160283427L148.625,111.3860517941896L149.83333333333334,112.86301309682833L151.04166666666669,113.35015521934373L152.25,113.74472412958191L153.45833333333334,114.24882648087211L154.66666666666666,114.85585061925653L155.875,115.24294692805212L157.08333333333331,116.29704674798725L158.29166666666666,117.37877815992722L159.5,117.45501176137381L160.70833333333334,117.56031969161027L161.91666666666666,117.96766961597116L163.125,118.77356581478942L164.33333333333334,119.86223404758947L165.54166666666666,120.55922930133606L166.75,121.1214881779289L167.95833333333334,120.92491860637281L169.16666666666669,122.1434536662651L170.375,122.39461902898267L171.58333333333334,122.96776926590034L172.79166666666666,122.95531248295124L174,124.21502267068914L175.20833333333331,124.40329510418353L176.41666666666666,125.14070734052527L177.625,125.86285686891479L178.83333333333334,126.6857565585844L180.04166666666666,127.21217799648082L181.25,127.47896622298816L182.45833333333334,128.0934122006813L183.66666666666666,129.16357654734767L184.875,129.81100174429605L186.08333333333334,129.6671730795061L187.29166666666669,130.19506534647277L188.5,130.94716495302123L189.70833333333334,131.5448684018461L190.91666666666666,131.5946139567062L192.125,132.36498844263738L193.33333333333331,132.78232161782853L194.54166666666666,133.5960176820517L195.75,133.9687008560674L196.95833333333334,134.32793246712149L198.16666666666666,135.0957674364598L199.375,135.53163601042937L200.58333333333334,136.01994980821274L201.79166666666666,136.1832150148308L203,136.78894435924028L204.20833333333334,137.7022491190537L205.41666666666669,138.41258040430372L206.625,138.80913595773112L207.83333333333334,138.84324286232788L209.04166666666666,139.05307286888598L210.25,139.7299821172768L211.45833333333331,139.5742944436042L212.66666666666666,140.11483970225467L213.875,141.1979713376797L215.08333333333334,141.52822684862832L216.29166666666666,142.30175491741468L217.5,142.8834318274528L218.70833333333334,142.61733886128286L219.91666666666666,143.62591282045219L221.125,144.88597443609655L222.33333333333334,145.40606602177553L223.54166666666669,145.75540709582287L224.75,146.19717787158876L225.95833333333334,146.5495194978658L227.16666666666666,145.87554786128658L228.375,146.6330270937454L229.58333333333331,146.87028733321256L230.79166666666666,147.65648553825355L232,147.77072282268765L233.20833333333334,148.7404996611724L234.41666666666666,149.13982693700294L235.625,149.9614281675118L236.83333333333334,150.37587798561043L238.04166666666666,150.46192749098176L239.25,150.63675331923505L240.45833333333334,151.18709419480848L241.66666666666669,151.56471286403269L242.875,152.00498531373617L244.08333333333334,152.60438628661004L245.29166666666666,153.06321583390655L246.5,153.60179522554333L247.70833333333331,154.55341471187424L248.91666666666666,155.22314398856255L250.125,155.66002638362622L251.33333333333334,155.81360781524245L252.54166666666666,156.32913609544633L253.75,156.99501567800957L254.95833333333334,157.03556134136588L256.1666666666667,157.70151764054341L257.375,157.97271875082998L258.58333333333337,157.96991191430618L259.7916666666667,158.68848954512913L261,159.12094901526515L262.2083333333333,159.40612455124386L263.4166666666667,159.4452420626962L264.625,159.9724644038012" style="fill: none;" fill="none"></path></g></g></g></g><g opacity="0.2"><g><g><g><path stroke="rgb(255, 112, 67)" stroke-width="2px" d="M30.208333333333336,-0.9717883268992062L31.416666666666668,4.09475429852804L32.625,7.054527839024879L33.833333333333336,12.315753539403284L35.041666666666664,12.98846983909607L36.25,16.635448376337703L37.458333333333336,18.125791390736907L38.666666666666664,20.393624146779388L39.875,21.256029844284065L41.083333333333336,24.76930443445843L42.29166666666667,26.77666886647543L43.5,27.02236715952557L44.708333333333336,30.18167678515118L45.916666666666664,31.078569332758587L47.125,34.02352595329285L48.33333333333333,36.24177360534668L49.541666666666664,36.68878976504009L50.75,36.83590396245321L51.958333333333336,41.412995894749976L53.166666666666664,40.88429911931357L54.375,43.07832860946656L55.583333333333336,45.59209410349529L56.791666666666664,46.77824481328329L58,46.62069781621297L59.208333333333336,48.07594442367554L60.41666666666667,50.59601648648581L61.625,51.46482253074646L62.833333333333336,51.424240112304695L64.04166666666667,53.844930966695145L65.25,53.77839549382528L66.45833333333333,55.467266480127975L67.66666666666667,56.571384906768806L68.875,58.6853280067444L70.08333333333333,60.19958440462749L71.29166666666666,59.61384717623393L72.5,61.829891045888274L73.70833333333333,62.78757516543072L74.91666666666667,63.59676186243694L76.125,64.22404273351033L77.33333333333333,66.18984007835388L78.54166666666666,66.78919855753583L79.75,68.21910166740417L80.95833333333333,69.38537144660951L82.16666666666667,68.48777556419374L83.375,71.2796630859375L84.58333333333334,71.5126310189565L85.79166666666667,73.78967746098837L87,74.04627744356792L88.20833333333333,75.16249322891235L89.41666666666667,76.62868841489157L90.625,76.44401613871257L91.83333333333333,80.13176465034485L93.04166666666667,80.07720931371054L94.25,80.13206942876181L95.45833333333333,81.75792161623637L96.66666666666666,81.67776489257812L97.875,83.27407701810202L99.08333333333333,82.8956360022227L100.29166666666667,83.92337226867676L101.5,85.61653359731038L102.70833333333334,85.48327509562175L103.91666666666667,87.01019152005513L105.125,88.53028559684755L106.33333333333333,88.5531439781189L107.54166666666667,89.8810635407766L108.75,90.52906934420267L109.95833333333333,90.66270295778911L111.16666666666667,91.65524903933208L112.375,93.5302458604177L113.58333333333333,92.80494356155397L114.79166666666666,92.35870107014975L116,95.61101500193277L117.20833333333333,95.92353010177614L118.41666666666667,95.7898964881897L119.625,97.59134793281555L120.83333333333334,96.16622749964397L122.04166666666667,97.58919103940329L123.25,99.43936014175415L124.45833333333333,99.21523078282675L125.66666666666667,100.37594421704611L126.875,101.13685870170593L128.08333333333334,101.08882093429567L129.29166666666669,102.13411712646486L130.5,102.9314409097036L131.70833333333334,103.9013630549113L132.91666666666666,102.59735687573752L134.125,104.72386622428894L135.33333333333334,105.30320310592651L136.54166666666666,106.848406235377L137.75,106.10174600283304L138.95833333333334,107.96422346433006L140.16666666666666,108.74598010381065L141.375,109.90062141418458L142.58333333333331,109.67278782526652L143.79166666666666,110.87490423520407L145,110.20551705360414L146.20833333333334,110.43750031789145L147.41666666666666,112.85160326957703L148.625,111.64918208122255L149.83333333333334,115.07845505078635L151.04166666666669,114.08086840311687L152.25,114.33657749493918L153.45833333333334,115.00498000780742L154.66666666666666,115.76638682683311L155.875,115.82359139124551L157.08333333333331,117.87819647789001L158.29166666666666,119.00137527783713L159.5,117.5693621635437L160.70833333333334,117.71828158696493L161.91666666666666,118.57869450251262L163.125,119.98241011301675L164.33333333333334,121.49523639678955L165.54166666666666,121.60472218195598L166.75,121.9648764928182L167.95833333333334,120.6300642490387L169.16666666666669,123.97125625610352L170.375,122.77136707305908L171.58333333333334,123.82749462127687L172.79166666666666,122.93662730852762L174,126.10458795229593L175.20833333333331,124.68570375442505L176.41666666666666,126.24682569503786L177.625,126.94608116149904L178.83333333333334,127.92010609308879L180.04166666666666,128.0018101533254L181.25,127.87914856274922L182.45833333333334,129.01508116722107L183.66666666666666,130.76882306734723L184.875,130.78213953971863L186.08333333333334,129.45143008232117L187.29166666666669,130.98690374692282L188.5,132.0753143628438L189.70833333333334,132.44142357508343L190.91666666666666,131.66923228899637L192.125,133.5205501715342L193.33333333333331,133.40832138061523L194.54166666666666,134.81656177838644L195.75,134.52772561709085L196.95833333333334,134.8667798837026L198.16666666666666,136.24751989046732L199.375,136.18543887138367L200.58333333333334,136.7524205048879L201.79166666666666,136.4281128247579L203,137.6975383758545L204.20833333333334,139.0722062587738L205.41666666666669,139.47807733217877L206.625,139.40396928787231L207.83333333333334,138.89440321922302L209.04166666666666,139.36781787872314L210.25,140.7453459898631L211.45833333333331,139.3407629330953L212.66666666666666,140.92565759023032L213.875,142.82266879081726L215.08333333333334,142.02361011505127L216.29166666666666,143.46204702059427L217.5,143.75594719250998L218.70833333333334,142.21819941202799L219.91666666666666,145.13877375920615L221.125,146.7760668595632L222.33333333333334,146.186203400294L223.54166666666669,146.27941870689392L224.75,146.85983403523764L225.95833333333334,147.07803193728128L227.16666666666666,144.86459040641785L228.375,147.76924594243368L229.58333333333331,147.22617769241333L230.79166666666666,148.83578284581503L232,147.94207874933878L233.20833333333334,150.19516491889954L234.41666666666666,149.73881785074872L235.625,151.19383001327515L236.83333333333334,150.9975527127584L238.04166666666666,150.5910017490387L239.25,150.898992061615L240.45833333333334,152.01260550816855L241.66666666666669,152.13114086786908L242.875,152.66539398829144L244.08333333333334,153.50348774592084L245.29166666666666,153.7514601548513L246.5,154.40966431299844L247.70833333333331,155.98084394137067L248.91666666666666,156.22773790359497L250.125,156.3153499762217L251.33333333333334,156.04397996266684L252.54166666666666,157.10242851575217L253.75,157.99383505185446L254.95833333333334,157.09637983640036L256.1666666666667,158.7004520893097L257.375,158.37952041625977L258.58333333333337,157.96570165952048L259.7916666666667,159.76635599136353L261,159.76963822046915L262.2083333333333,159.83388785521188L263.4166666666667,159.5039183298747L264.625,160.76329791545868" style="fill: none;" fill="none"></path></g></g></g></g></g></g><g transform="translate(40, 177)" clip-path="url(#clip_1)"><clipPath id="clip_1"><rect width="290" height="23"></rect></clipPath><g><g><line x1="0" y1="0" x2="0" y2="5" style="visibility: inherit;" fill="rgb(0, 0, 0)" stroke="rgb(204, 204, 204)" stroke-width="1px"></line><line x1="24.166666666666664" y1="0" x2="24.166666666666664" y2="5" style="visibility: inherit;" fill="rgb(0, 0, 0)" stroke="rgb(204, 204, 204)" stroke-width="1px"></line><line x1="48.33333333333333" y1="0" x2="48.33333333333333" y2="5" style="visibility: inherit;" fill="rgb(0, 0, 0)" stroke="rgb(204, 204, 204)" stroke-width="1px"></line><line x1="72.5" y1="0" x2="72.5" y2="5" style="visibility: inherit;" fill="rgb(0, 0, 0)" stroke="rgb(204, 204, 204)" stroke-width="1px"></line><line x1="96.66666666666666" y1="0" x2="96.66666666666666" y2="5" style="visibility: inherit;" fill="rgb(0, 0, 0)" stroke="rgb(204, 204, 204)" stroke-width="1px"></line><line x1="120.83333333333334" y1="0" x2="120.83333333333334" y2="5" style="visibility: inherit;" fill="rgb(0, 0, 0)" stroke="rgb(204, 204, 204)" stroke-width="1px"></line><line x1="145" y1="0" x2="145" y2="5" style="visibility: inherit;" fill="rgb(0, 0, 0)" stroke="rgb(204, 204, 204)" stroke-width="1px"></line><line x1="169.16666666666669" y1="0" x2="169.16666666666669" y2="5" style="visibility: inherit;" fill="rgb(0, 0, 0)" stroke="rgb(204, 204, 204)" stroke-width="1px"></line><line x1="193.33333333333331" y1="0" x2="193.33333333333331" y2="5" style="visibility: inherit;" fill="rgb(0, 0, 0)" stroke="rgb(204, 204, 204)" stroke-width="1px"></line><line x1="217.5" y1="0" x2="217.5" y2="5" style="visibility: inherit;" fill="rgb(0, 0, 0)" stroke="rgb(204, 204, 204)" stroke-width="1px"></line><line x1="241.66666666666669" y1="0" x2="241.66666666666669" y2="5" style="visibility: inherit;" fill="rgb(0, 0, 0)" stroke="rgb(204, 204, 204)" stroke-width="1px"></line><line x1="265.8333333333333" y1="0" x2="265.8333333333333" y2="5" style="visibility: inherit;" fill="rgb(0, 0, 0)" stroke="rgb(204, 204, 204)" stroke-width="1px"></line><line x1="290" y1="0" x2="290" y2="5" style="visibility: inherit;" fill="rgb(0, 0, 0)" stroke="rgb(204, 204, 204)" stroke-width="1px"></line></g><g transform="translate(0, 8)"><text x="0" y="0" dx="0em" dy="0.95em" style="text-anchor: middle; visibility: hidden; font-family: Roboto, sans-serif; font-size: 12px; font-weight: 200;" fill="rgb(33, 33, 33)" stroke="none" stroke-width="1px">-20</text><text x="24.166666666666664" y="0" dx="0em" dy="0.95em" style="text-anchor: middle; visibility: inherit; font-family: Roboto, sans-serif; font-size: 12px; font-weight: 200;" fill="rgb(33, 33, 33)" stroke="none" stroke-width="1px">0</text><text x="48.33333333333333" y="0" dx="0em" dy="0.95em" style="text-anchor: middle; visibility: hidden; font-family: Roboto, sans-serif; font-size: 12px; font-weight: 200;" fill="rgb(33, 33, 33)" stroke="none" stroke-width="1px">20</text><text x="72.5" y="0" dx="0em" dy="0.95em" style="text-anchor: middle; visibility: inherit; font-family: Roboto, sans-serif; font-size: 12px; font-weight: 200;" fill="rgb(33, 33, 33)" stroke="none" stroke-width="1px">40</text><text x="96.66666666666666" y="0" dx="0em" dy="0.95em" style="text-anchor: middle; visibility: hidden; font-family: Roboto, sans-serif; font-size: 12px; font-weight: 200;" fill="rgb(33, 33, 33)" stroke="none" stroke-width="1px">60</text><text x="120.83333333333334" y="0" dx="0em" dy="0.95em" style="text-anchor: middle; visibility: inherit; font-family: Roboto, sans-serif; font-size: 12px; font-weight: 200;" fill="rgb(33, 33, 33)" stroke="none" stroke-width="1px">80</text><text x="145" y="0" dx="0em" dy="0.95em" style="text-anchor: middle; visibility: hidden; font-family: Roboto, sans-serif; font-size: 12px; font-weight: 200;" fill="rgb(33, 33, 33)" stroke="none" stroke-width="1px">100</text><text x="169.16666666666669" y="0" dx="0em" dy="0.95em" style="text-anchor: middle; visibility: inherit; font-family: Roboto, sans-serif; font-size: 12px; font-weight: 200;" fill="rgb(33, 33, 33)" stroke="none" stroke-width="1px">120</text><text x="193.33333333333331" y="0" dx="0em" dy="0.95em" style="text-anchor: middle; visibility: hidden; font-family: Roboto, sans-serif; font-size: 12px; font-weight: 200;" fill="rgb(33, 33, 33)" stroke="none" stroke-width="1px">140</text><text x="217.5" y="0" dx="0em" dy="0.95em" style="text-anchor: middle; visibility: inherit; font-family: Roboto, sans-serif; font-size: 12px; font-weight: 200;" fill="rgb(33, 33, 33)" stroke="none" stroke-width="1px">160</text><text x="241.66666666666669" y="0" dx="0em" dy="0.95em" style="text-anchor: middle; visibility: hidden; font-family: Roboto, sans-serif; font-size: 12px; font-weight: 200;" fill="rgb(33, 33, 33)" stroke="none" stroke-width="1px">180</text><text x="265.8333333333333" y="0" dx="0em" dy="0.95em" style="text-anchor: middle; visibility: inherit; font-family: Roboto, sans-serif; font-size: 12px; font-weight: 200;" fill="rgb(33, 33, 33)" stroke="none" stroke-width="1px">200</text><text x="290" y="0" dx="0em" dy="0.95em" style="text-anchor: middle; visibility: hidden; font-family: Roboto, sans-serif; font-size: 12px; font-weight: 200;" fill="rgb(33, 33, 33)" stroke="none" stroke-width="1px">220</text></g><line x1="0" y1="0" x2="290" y2="0" fill="rgb(0, 0, 0)" stroke="rgb(204, 204, 204)" stroke-width="1px"></line></g></g></g></g></svg>