<svg viewBox="0 0 1007.4000244140625 400" xmlns="http://www.w3.org/2000/svg"><g><g><g><g><g><line x1="40" y1="377" x2="35" y2="377" style="visibility: inherit;" fill="rgb(0, 0, 0)" stroke="rgb(204, 204, 204)" stroke-width="1px"></line><line x1="40" y1="329.875" x2="35" y2="329.875" style="visibility: inherit;" fill="rgb(0, 0, 0)" stroke="rgb(204, 204, 204)" stroke-width="1px"></line><line x1="40" y1="282.75" x2="35" y2="282.75" style="visibility: inherit;" fill="rgb(0, 0, 0)" stroke="rgb(204, 204, 204)" stroke-width="1px"></line><line x1="40" y1="235.625" x2="35" y2="235.625" style="visibility: inherit;" fill="rgb(0, 0, 0)" stroke="rgb(204, 204, 204)" stroke-width="1px"></line><line x1="40" y1="188.5" x2="35" y2="188.5" style="visibility: inherit;" fill="rgb(0, 0, 0)" stroke="rgb(204, 204, 204)" stroke-width="1px"></line><line x1="40" y1="141.375" x2="35" y2="141.375" style="visibility: inherit;" fill="rgb(0, 0, 0)" stroke="rgb(204, 204, 204)" stroke-width="1px"></line><line x1="40" y1="94.25" x2="35" y2="94.25" style="visibility: inherit;" fill="rgb(0, 0, 0)" stroke="rgb(204, 204, 204)" stroke-width="1px"></line><line x1="40" y1="47.125" x2="35" y2="47.125" style="visibility: inherit;" fill="rgb(0, 0, 0)" stroke="rgb(204, 204, 204)" stroke-width="1px"></line><line x1="40" y1="0" x2="35" y2="0" style="visibility: inherit;" fill="rgb(0, 0, 0)" stroke="rgb(204, 204, 204)" stroke-width="1px"></line></g><g transform="translate(30, 0)"><text x="0" y="377" dx="0em" dy="0.3em" style="text-anchor: end; visibility: hidden; font-family: Roboto, sans-serif; font-size: 12px; font-weight: 200;" fill="rgb(33, 33, 33)" stroke="none" stroke-width="1px">0</text><text x="0" y="329.875" dx="0em" dy="0.3em" style="text-anchor: end; visibility: inherit; font-family: Roboto, sans-serif; font-size: 12px; font-weight: 200;" fill="rgb(33, 33, 33)" stroke="none" stroke-width="1px">0.5</text><text x="0" y="282.75" dx="0em" dy="0.3em" style="text-anchor: end; visibility: inherit; font-family: Roboto, sans-serif; font-size: 12px; font-weight: 200;" fill="rgb(33, 33, 33)" stroke="none" stroke-width="1px">1</text><text x="0" y="235.625" dx="0em" dy="0.3em" style="text-anchor: end; visibility: inherit; font-family: Roboto, sans-serif; font-size: 12px; font-weight: 200;" fill="rgb(33, 33, 33)" stroke="none" stroke-width="1px">1.5</text><text x="0" y="188.5" dx="0em" dy="0.3em" style="text-anchor: end; visibility: inherit; font-family: Roboto, sans-serif; font-size: 12px; font-weight: 200;" fill="rgb(33, 33, 33)" stroke="none" stroke-width="1px">2</text><text x="0" y="141.375" dx="0em" dy="0.3em" style="text-anchor: end; visibility: inherit; font-family: Roboto, sans-serif; font-size: 12px; font-weight: 200;" fill="rgb(33, 33, 33)" stroke="none" stroke-width="1px">2.5</text><text x="0" y="94.25" dx="0em" dy="0.3em" style="text-anchor: end; visibility: inherit; font-family: Roboto, sans-serif; font-size: 12px; font-weight: 200;" fill="rgb(33, 33, 33)" stroke="none" stroke-width="1px">3</text><text x="0" y="47.125" dx="0em" dy="0.3em" style="text-anchor: end; visibility: inherit; font-family: Roboto, sans-serif; font-size: 12px; font-weight: 200;" fill="rgb(33, 33, 33)" stroke="none" stroke-width="1px">3.5</text><text x="0" y="0" dx="0em" dy="0.3em" style="text-anchor: end; visibility: hidden; font-family: Roboto, sans-serif; font-size: 12px; font-weight: 200;" fill="rgb(33, 33, 33)" stroke="none" stroke-width="1px">4</text></g><line x1="40" y1="0" x2="40" y2="377" fill="rgb(0, 0, 0)" stroke="rgb(204, 204, 204)" stroke-width="1px"></line></g></g><g transform="translate(40, 0)" clip-path="url(#clip_0)"><clipPath id="clip_0"><rect width="967" height="377"></rect></clipPath><g><g><g><line x1="0" y1="0" x2="0" y2="377" fill="rgb(0, 0, 0)" stroke="rgb(66, 66, 66)" stroke-width="1px" opacity="0.25"></line><line x1="80.61666666666666" y1="0" x2="80.61666666666666" y2="377" fill="rgb(0, 0, 0)" stroke="rgb(66, 66, 66)" stroke-width="1px" opacity="0.25"></line><line x1="161.23333333333332" y1="0" x2="161.23333333333332" y2="377" fill="rgb(0, 0, 0)" stroke="rgb(66, 66, 66)" stroke-width="1px" opacity="0.25"></line><line x1="241.85" y1="0" x2="241.85" y2="377" fill="rgb(0, 0, 0)" stroke="rgb(66, 66, 66)" stroke-width="1px" opacity="0.25"></line><line x1="322.46666666666664" y1="0" x2="322.46666666666664" y2="377" fill="rgb(0, 0, 0)" stroke="rgb(66, 66, 66)" stroke-width="1px" opacity="0.25"></line><line x1="403.0833333333333" y1="0" x2="403.0833333333333" y2="377" fill="rgb(0, 0, 0)" stroke="rgb(66, 66, 66)" stroke-width="1px" opacity="0.25"></line><line x1="483.7" y1="0" x2="483.7" y2="377" fill="rgb(0, 0, 0)" stroke="rgb(66, 66, 66)" stroke-width="1px" opacity="0.25"></line><line x1="564.3166666666667" y1="0" x2="564.3166666666667" y2="377" fill="rgb(0, 0, 0)" stroke="rgb(66, 66, 66)" stroke-width="1px" opacity="0.25"></line><line x1="644.9333333333333" y1="0" x2="644.9333333333333" y2="377" fill="rgb(0, 0, 0)" stroke="rgb(66, 66, 66)" stroke-width="1px" opacity="0.25"></line><line x1="725.55" y1="0" x2="725.55" y2="377" fill="rgb(0, 0, 0)" stroke="rgb(66, 66, 66)" stroke-width="1px" opacity="0.25"></line><line x1="806.1666666666666" y1="0" x2="806.1666666666666" y2="377" fill="rgb(0, 0, 0)" stroke="rgb(66, 66, 66)" stroke-width="1px" opacity="0.25"></line><line x1="886.7833333333333" y1="0" x2="886.7833333333333" y2="377" fill="rgb(0, 0, 0)" stroke="rgb(66, 66, 66)" stroke-width="1px" opacity="0.25"></line><line x1="967.4" y1="0" x2="967.4" y2="377" fill="rgb(0, 0, 0)" stroke="rgb(66, 66, 66)" stroke-width="1px" opacity="0.25"></line></g><g><line x1="0" y1="377" x2="967.4" y2="377" fill="rgb(0, 0, 0)" stroke="rgb(66, 66, 66)" stroke-width="1px" opacity="0.25"></line><line x1="0" y1="329.875" x2="967.4" y2="329.875" fill="rgb(0, 0, 0)" stroke="rgb(66, 66, 66)" stroke-width="1px" opacity="0.25"></line><line x1="0" y1="282.75" x2="967.4" y2="282.75" fill="rgb(0, 0, 0)" stroke="rgb(66, 66, 66)" stroke-width="1px" opacity="0.25"></line><line x1="0" y1="235.625" x2="967.4" y2="235.625" fill="rgb(0, 0, 0)" stroke="rgb(66, 66, 66)" stroke-width="1px" opacity="0.25"></line><line x1="0" y1="188.5" x2="967.4" y2="188.5" fill="rgb(0, 0, 0)" stroke="rgb(66, 66, 66)" stroke-width="1px" opacity="0.25"></line><line x1="0" y1="141.375" x2="967.4" y2="141.375" fill="rgb(0, 0, 0)" stroke="rgb(66, 66, 66)" stroke-width="1px" opacity="0.25"></line><line x1="0" y1="94.25" x2="967.4" y2="94.25" fill="rgb(0, 0, 0)" stroke="rgb(66, 66, 66)" stroke-width="1px" opacity="0.25"></line><line x1="0" y1="47.125" x2="967.4" y2="47.125" fill="rgb(0, 0, 0)" stroke="rgb(66, 66, 66)" stroke-width="1px" opacity="0.25"></line><line x1="0" y1="0" x2="967.4" y2="0" fill="rgb(0, 0, 0)" stroke="rgb(66, 66, 66)" stroke-width="1px" opacity="0.25"></line></g></g></g><g><g><line x1="0" y1="377" x2="967.4" y2="377" fill="rgb(0, 0, 0)" stroke="rgb(153, 153, 153)" stroke-width="1.5px"></line></g></g><g><g><line x1="80.61666666666666" y1="0" x2="80.61666666666666" y2="377" fill="rgb(0, 0, 0)" stroke="rgb(153, 153, 153)" stroke-width="1.5px"></line></g></g><g><g><g><g><g><path stroke="rgb(255, 112, 67)" stroke-width="2px" d="M80.61666666666666,24.348736107349396L84.6475,27.856634147465186L88.67833333333333,34.0151751953728L92.70916666666668,39.0091489189688L96.74000000000001,42.22218291450092L100.77083333333333,44.451776066820976L104.80166666666666,46.05547513710057L108.8325,47.43921488030592L112.86333333333333,48.56085160043477L116.89416666666666,49.73887187336102L120.925,50.92178043098877L124.95583333333335,52.43076323350583L128.98666666666665,54.199968951495606L133.0175,56.604820104562805L137.04833333333332,59.88160080086277L141.07916666666668,64.17127546227681L145.10999999999999,69.59405065614834L149.14083333333335,75.8865072356868L153.17166666666665,82.94307028088755L157.20250000000001,90.34318544422695L161.23333333333332,97.79574698468501L165.26416666666665,105.49864344685601L169.295,112.62689891727723L173.32583333333332,119.39039149305411L177.35666666666665,125.87897644849697L181.3875,132.13786138077919L185.41833333333335,137.9195190773441L189.44916666666666,143.4705616532127L193.48000000000002,148.81953557515013L197.51083333333332,153.72068504075853L201.54166666666666,158.4571717797909L205.5725,163.26358198147497L209.60333333333332,167.58069709305664L213.63416666666666,171.79889659667634L217.665,175.84681217825002L221.69583333333333,179.54912511922322L225.72666666666666,183.22994721078362L229.7575,186.43805172528053L233.78833333333333,190.1187226406395L237.81916666666666,193.28339898005927L241.85,196.43850622081968L245.8808333333333,199.43185169545345L249.9116666666667,202.4115343045704L253.9425,205.25905594586067L257.9733333333333,207.73706867338387L262.00416666666666,210.29301719706004L266.035,212.75030868563758L270.06583333333333,215.19003563715754L274.09666666666664,217.42083233355748L278.1275,220.16922770597338L282.15833333333336,222.89033153450498L286.18916666666667,224.75274582384182L290.21999999999997,227.1983489494256L294.2508333333333,229.26512793903163L298.2816666666667,231.2209939968873L302.3125,233.53246955944917L306.3433333333333,235.74448372646518L310.37416666666667,237.37141426637402L314.40500000000003,239.64265439650214L318.43583333333333,241.6636670097161L322.46666666666664,243.5830713787347L326.4975,245.991613166253L330.5283333333333,247.9174817661764L334.55916666666667,249.22793114544876L338.59,251.180506052744L342.62083333333334,253.2933591378758L346.65166666666664,255.28639284211576L350.6825,256.99491028450836L354.7133333333333,258.3449372199947L358.7441666666667,259.9379401891097L362.775,261.4449319296279L366.8058333333333,263.00038906652924L370.8366666666667,264.6432825012159L374.8675,266.1020815183611L378.8983333333333,267.3162453418905L382.9291666666666,268.75397628819553L386.96000000000004,270.3082797186113L390.99083333333334,271.46238041261057L395.02166666666665,272.8468292733384L399.05249999999995,274.33074711444095L403.0833333333333,275.5879720490105L407.1141666666667,277.0490139270381L411.145,278.40269285109974L415.1758333333333,279.70570173065266L419.20666666666665,280.7788519275212L423.2375,282.1217167086616L427.2683333333333,282.945598847104L431.2991666666667,283.96269458319716L435.33,285.0110906290172L439.36083333333335,286.0410257534479L443.39166666666665,287.35703793503615L447.4225,288.36845824919806L451.4533333333333,289.3129881608645L455.4841666666666,290.4594409160709L459.515,291.3666402872143L463.54583333333335,292.47984799002035L467.57666666666665,293.6287251189615L471.60749999999996,294.8151268109837L475.6383333333333,295.66545629770513L479.6691666666667,296.47211100024555L483.7,297.59393502689943L487.7308333333333,298.05068137298554L491.7616666666666,298.6696110907228L495.79249999999996,299.55416499632787L499.8233333333334,300.1636625174176L503.8541666666667,301.3315020765955L507.885,302.2905520895776L511.91583333333335,302.99351373312817L515.9466666666666,304.12691203354564L519.9775,305.3882812595294L524.0083333333333,306.2864697954611L528.0391666666666,307.11973889360166L532.07,307.83581247740585L536.1008333333333,308.34142192491055L540.1316666666667,309.31353882722954L544.1625,310.07929331524906L548.1933333333333,310.7992068020328L552.2241666666666,311.5932787649527L556.255,311.8790379460272L560.2858333333334,312.41372064921956L564.3166666666667,313.0175339232308L568.3475,313.9117272764696L572.3783333333333,314.24304530443266L576.4091666666667,314.7868910576196L580.4399999999999,315.53369292290756L584.4708333333333,315.86179714007227L588.5016666666666,316.47015896202953L592.5325,316.98231808997286L596.5633333333334,317.59077374730765L600.5941666666666,317.84354182239923L604.625,318.3892352888379L608.6558333333332,318.8496861403819L612.6866666666666,319.4209148493788L616.7175,319.64354484125266L620.7483333333333,320.0466147055882L624.7791666666667,320.4295719498788L628.8100000000001,320.34590574111905L632.8408333333333,320.7626815915487L636.8716666666667,321.35375052573573L640.9024999999999,322.0066600554126L644.9333333333333,322.23542171793804L648.9641666666666,322.7475278858997L652.995,323.1214561572467L657.0258333333334,323.6379175073382L661.0566666666666,324.091626381068L665.0875,324.44786609720506L669.1183333333333,324.55639643973893L673.1491666666666,325.08574876491303L677.18,325.69558813753173L681.2108333333333,326.1726667915728L685.2416666666667,326.8603148302404L689.2725,327.2567110860924L693.3033333333333,327.7970617714275L697.3341666666666,327.9306421162336L701.365,328.50816235432916L705.3958333333333,328.7506856768721L709.4266666666666,328.85361047681533L713.4575,329.13805248198724L717.4883333333333,329.6727605751623L721.5191666666667,330.1024931425732L725.55,330.34563218682297L729.5808333333333,330.7017347313719L733.6116666666666,331.00538342879753L737.6424999999999,331.2280405830535L741.6733333333334,331.46811123020603L745.7041666666667,331.681739412708L749.735,331.8626713740605L753.7658333333334,331.890692415105L757.7966666666666,332.3061071290175L761.8275,332.543550843215L765.8583333333332,333.0452826376057L769.8891666666666,333.4973444822607L773.9200000000001,333.7902166207539L777.9508333333333,334.02255995928687L781.9816666666667,333.81114160930775L786.0124999999999,334.32894960293567L790.0433333333333,334.431872479614L794.0741666666667,334.54901597648643L798.1049999999999,335.07410738319027L802.1358333333334,335.22474789589563L806.1666666666666,335.37473527771186L810.1975,335.5754566888926L814.2283333333334,335.92656733101114L818.2591666666666,335.93696585896913L822.29,335.9720116114813L826.3208333333333,335.9580832514881L830.3516666666666,336.182415181024L834.3825,336.7203959993262L838.4133333333333,336.94316179285875L842.4441666666667,336.7025293781187L846.475,337.0521119936601L850.5058333333333,337.30894157614085L854.5366666666666,337.2844334651576L858.5674999999999,337.4121281391112L862.5983333333334,337.66444418643283L866.6291666666667,337.7083597499988L870.66,337.92914910428897L874.6908333333333,338.37449251003966L878.7216666666667,338.83564870290695L882.7524999999999,338.9517897202536" style="fill: none;" fill="none"></path></g></g></g></g><g opacity="0.2"><g><g><g><path stroke="rgb(255, 112, 67)" stroke-width="2px" d="M80.61666666666666,24.348736107349396L84.6475,29.96137297153473L88.67833333333333,39.927374601364136L92.70916666666668,44.88206201791763L96.74000000000001,46.41712009906769L100.77083333333333,47.536106050014496L104.80166666666666,48.34879046678543L108.8325,49.45672070980072L112.86333333333333,50.215047895908356L116.89416666666666,51.48809468746185L120.925,52.685414373874664L124.95583333333335,54.686025619506836L128.98666666666665,56.8480007648468L133.0175,60.2073854804039L137.04833333333332,64.79292011260986L141.07916666666668,70.6027620434761L145.10999999999999,77.72591871023178L149.14083333333335,85.32359445095062L153.17166666666665,93.52683985233307L157.20250000000001,101.4426817893982L161.23333333333332,108.97418057918549L165.26416666666665,117.05273467302322L169.295,123.31914138793945L173.32583333333332,129.53555023670197L177.35666666666665,135.6118077635765L181.3875,141.52616208791733L185.41833333333335,146.5919908285141L189.44916666666666,151.7971169948578L193.48000000000002,156.84299153089523L197.51083333333332,161.07240653038025L201.54166666666666,165.56190031766891L205.5725,170.4731963276863L209.60333333333332,174.05636924505234L213.63416666666666,178.1261955499649L217.665,181.91868537664413L221.69583333333333,185.102594435215L225.72666666666666,188.75118029117584L229.7575,191.2502084672451L233.78833333333333,195.6397289931774L237.81916666666666,198.0304134786129L241.85,201.171167075634L245.8808333333333,203.92186990380287L249.9116666666667,206.88105821609497L253.9425,209.5303384065628L257.9733333333333,211.45408776402473L262.00416666666666,214.12693998217583L266.035,216.43624591827393L270.06583333333333,218.84962606430054L274.09666666666664,220.76702737808228L278.1275,224.29182076454163L282.15833333333336,226.97198727726936L286.18916666666667,227.54636725783348L290.21999999999997,230.86675363779068L294.2508333333333,232.3652964234352L298.2816666666667,234.15479308366776L302.3125,236.9996829032898L306.3433333333333,239.06250497698784L310.37416666666667,239.81181007623672L314.40500000000003,243.04951459169388L318.43583333333333,244.69518592953682L322.46666666666664,246.46217793226242L326.4975,249.60442584753036L330.5283333333333,250.8062846660614L334.55916666666667,251.19360521435738L338.59,254.10936841368675L342.62083333333334,256.4626387655735L346.65166666666664,258.27594339847565L350.6825,259.55768644809723L354.7133333333333,260.36997762322426L358.7441666666667,262.3274446427822L362.775,263.7054195404053L366.8058333333333,265.3335747718811L370.8366666666667,267.1076226532459L374.8675,268.2902800440788L378.8983333333333,269.1374910771847L382.9291666666666,270.91057270765305L386.96000000000004,272.6397348642349L390.99083333333334,273.19353145360947L395.02166666666665,274.92350256443024L399.05249999999995,276.5566238760948L403.0833333333333,277.4738094508648L407.1141666666667,279.2405767440796L411.145,280.43321123719215L415.1758333333333,281.66021504998207L419.20666666666665,282.3885772228241L423.2375,284.13601388037205L427.2683333333333,284.1814220547676L431.2991666666667,285.4883381873369L435.33,286.58368469774723L439.36083333333335,287.585928440094L443.39166666666665,289.33105620741844L447.4225,289.88558872044086L451.4533333333333,290.7297830283642L455.4841666666666,292.1791200488806L459.515,292.7274393439293L463.54583333333335,294.1496595442295L467.57666666666665,295.35204081237316L471.60749999999996,296.59472934901714L475.6383333333333,296.9409505277872L479.6691666666667,297.68209305405617L483.7,299.2766710668802L487.7308333333333,298.73580089211464L491.7616666666666,299.59800566732883L495.79249999999996,300.8809958547354L499.8233333333334,301.07790879905224L503.8541666666667,303.08326141536236L507.885,303.72912710905075L511.91583333333335,304.0479561984539L515.9466666666666,305.82700948417187L519.9775,307.280335098505L524.0083333333333,307.63375259935856L528.0391666666666,308.3696425408125L532.07,308.9099228531122L536.1008333333333,309.09983609616756L540.1316666666667,310.77171418070793L544.1625,311.2279250472784L548.1933333333333,311.87907703220844L552.2241666666666,312.78438670933247L556.255,312.30767671763897L560.2858333333334,313.2157447040081L564.3166666666667,313.9232538342476L568.3475,315.2530173063278L572.3783333333333,314.7400223463774L576.4091666666667,315.60265968739986L580.4399999999999,316.6538957208395L584.4708333333333,316.35395346581936L588.5016666666666,317.38270169496536L592.5325,317.750556781888L596.5633333333334,318.50345723330975L600.5941666666666,318.22269393503666L604.625,319.2077754884958L608.6558333333332,319.5403624176979L612.6866666666666,320.2777579128742L616.7175,319.9774898290634L620.7483333333333,320.6512195020914L624.7791666666667,321.0040078163147L628.8100000000001,320.22040642797947L632.8408333333333,321.3878453671932L636.8716666666667,322.24035392701626L640.9024999999999,322.9860243499279L644.9333333333333,322.5785642117262L648.9641666666666,323.5156871378422L652.995,323.68234856426716L657.0258333333334,324.41260953247547L661.0566666666666,324.7721896916628L665.0875,324.98222567141056L669.1183333333333,324.71919195353985L673.1491666666666,325.8797772526741L677.18,326.61034719645977L681.2108333333333,326.8882847726345L685.2416666666667,327.89178688824177L689.2725,327.85130546987057L693.3033333333333,328.6075877994299L697.3341666666666,328.1310126334429L701.365,329.3744427114725L705.3958333333333,329.1144706606865L709.4266666666666,329.00799767673016L713.4575,329.56471548974514L717.4883333333333,330.4748227149248L721.5191666666667,330.74709199368954L725.55,330.71034075319767L729.5808333333333,331.23588854819536L733.6116666666666,331.460856474936L737.6424999999999,331.5620263144374L741.6733333333334,331.8282172009349L745.7041666666667,332.002181686461L749.735,332.13406931608915L753.7658333333334,331.9327239766717L757.7966666666666,332.9292291998863L761.8275,332.8997164145112L765.8583333333332,333.7978803291917L769.8891666666666,334.17543724924326L773.9200000000001,334.2295248284936L777.9508333333333,334.3710749670863L781.9816666666667,333.49401408433914L786.0124999999999,335.1056615933776L790.0433333333333,334.5862567946315L794.0741666666667,334.7247312217951L798.1049999999999,335.8617444932461L802.1358333333334,335.4507086649537L806.1666666666666,335.5997163504362L810.1975,335.8765388056636L814.2283333333334,336.453233294189L818.2591666666666,335.9525636509061L822.29,336.02458024024963L826.3208333333333,335.93719071149826L830.3516666666666,336.5189130753279L834.3825,337.52736722677946L838.4133333333333,337.27731048315763L842.4441666666667,336.3415807560086L846.475,337.57648591697216L850.5058333333333,337.694185949862L854.5366666666666,337.2476712986827L858.5674999999999,337.6036701500416L862.5983333333334,338.0429182574153L866.6291666666667,337.7742330953479L870.66,338.26033313572407L874.6908333333333,339.0425076186657L878.7216666666667,339.527382992208L882.7524999999999,339.1260012462735" style="fill: none;" fill="none"></path></g></g></g></g></g></g><g transform="translate(40, 377)" clip-path="url(#clip_1)"><clipPath id="clip_1"><rect width="967" height="23"></rect></clipPath><g><g><line x1="0" y1="0" x2="0" y2="5" style="visibility: inherit;" fill="rgb(0, 0, 0)" stroke="rgb(204, 204, 204)" stroke-width="1px"></line><line x1="80.61666666666666" y1="0" x2="80.61666666666666" y2="5" style="visibility: inherit;" fill="rgb(0, 0, 0)" stroke="rgb(204, 204, 204)" stroke-width="1px"></line><line x1="161.23333333333332" y1="0" x2="161.23333333333332" y2="5" style="visibility: inherit;" fill="rgb(0, 0, 0)" stroke="rgb(204, 204, 204)" stroke-width="1px"></line><line x1="241.85" y1="0" x2="241.85" y2="5" style="visibility: inherit;" fill="rgb(0, 0, 0)" stroke="rgb(204, 204, 204)" stroke-width="1px"></line><line x1="322.46666666666664" y1="0" x2="322.46666666666664" y2="5" style="visibility: inherit;" fill="rgb(0, 0, 0)" stroke="rgb(204, 204, 204)" stroke-width="1px"></line><line x1="403.0833333333333" y1="0" x2="403.0833333333333" y2="5" style="visibility: inherit;" fill="rgb(0, 0, 0)" stroke="rgb(204, 204, 204)" stroke-width="1px"></line><line x1="483.7" y1="0" x2="483.7" y2="5" style="visibility: inherit;" fill="rgb(0, 0, 0)" stroke="rgb(204, 204, 204)" stroke-width="1px"></line><line x1="564.3166666666667" y1="0" x2="564.3166666666667" y2="5" style="visibility: inherit;" fill="rgb(0, 0, 0)" stroke="rgb(204, 204, 204)" stroke-width="1px"></line><line x1="644.9333333333333" y1="0" x2="644.9333333333333" y2="5" style="visibility: inherit;" fill="rgb(0, 0, 0)" stroke="rgb(204, 204, 204)" stroke-width="1px"></line><line x1="725.55" y1="0" x2="725.55" y2="5" style="visibility: inherit;" fill="rgb(0, 0, 0)" stroke="rgb(204, 204, 204)" stroke-width="1px"></line><line x1="806.1666666666666" y1="0" x2="806.1666666666666" y2="5" style="visibility: inherit;" fill="rgb(0, 0, 0)" stroke="rgb(204, 204, 204)" stroke-width="1px"></line><line x1="886.7833333333333" y1="0" x2="886.7833333333333" y2="5" style="visibility: inherit;" fill="rgb(0, 0, 0)" stroke="rgb(204, 204, 204)" stroke-width="1px"></line><line x1="967.4" y1="0" x2="967.4" y2="5" style="visibility: inherit;" fill="rgb(0, 0, 0)" stroke="rgb(204, 204, 204)" stroke-width="1px"></line></g><g transform="translate(0, 8)"><text x="0" y="0" dx="0em" dy="0.95em" style="text-anchor: middle; visibility: hidden; font-family: Roboto, sans-serif; font-size: 12px; font-weight: 200;" fill="rgb(33, 33, 33)" stroke="none" stroke-width="1px">-20</text><text x="80.61666666666666" y="0" dx="0em" dy="0.95em" style="text-anchor: middle; visibility: inherit; font-family: Roboto, sans-serif; font-size: 12px; font-weight: 200;" fill="rgb(33, 33, 33)" stroke="none" stroke-width="1px">0</text><text x="161.23333333333332" y="0" dx="0em" dy="0.95em" style="text-anchor: middle; visibility: inherit; font-family: Roboto, sans-serif; font-size: 12px; font-weight: 200;" fill="rgb(33, 33, 33)" stroke="none" stroke-width="1px">20</text><text x="241.85" y="0" dx="0em" dy="0.95em" style="text-anchor: middle; visibility: inherit; font-family: Roboto, sans-serif; font-size: 12px; font-weight: 200;" fill="rgb(33, 33, 33)" stroke="none" stroke-width="1px">40</text><text x="322.46666666666664" y="0" dx="0em" dy="0.95em" style="text-anchor: middle; visibility: inherit; font-family: Roboto, sans-serif; font-size: 12px; font-weight: 200;" fill="rgb(33, 33, 33)" stroke="none" stroke-width="1px">60</text><text x="403.0833333333333" y="0" dx="0em" dy="0.95em" style="text-anchor: middle; visibility: inherit; font-family: Roboto, sans-serif; font-size: 12px; font-weight: 200;" fill="rgb(33, 33, 33)" stroke="none" stroke-width="1px">80</text><text x="483.7" y="0" dx="0em" dy="0.95em" style="text-anchor: middle; visibility: inherit; font-family: Roboto, sans-serif; font-size: 12px; font-weight: 200;" fill="rgb(33, 33, 33)" stroke="none" stroke-width="1px">100</text><text x="564.3166666666667" y="0" dx="0em" dy="0.95em" style="text-anchor: middle; visibility: inherit; font-family: Roboto, sans-serif; font-size: 12px; font-weight: 200;" fill="rgb(33, 33, 33)" stroke="none" stroke-width="1px">120</text><text x="644.9333333333333" y="0" dx="0em" dy="0.95em" style="text-anchor: middle; visibility: inherit; font-family: Roboto, sans-serif; font-size: 12px; font-weight: 200;" fill="rgb(33, 33, 33)" stroke="none" stroke-width="1px">140</text><text x="725.55" y="0" dx="0em" dy="0.95em" style="text-anchor: middle; visibility: inherit; font-family: Roboto, sans-serif; font-size: 12px; font-weight: 200;" fill="rgb(33, 33, 33)" stroke="none" stroke-width="1px">160</text><text x="806.1666666666666" y="0" dx="0em" dy="0.95em" style="text-anchor: middle; visibility: inherit; font-family: Roboto, sans-serif; font-size: 12px; font-weight: 200;" fill="rgb(33, 33, 33)" stroke="none" stroke-width="1px">180</text><text x="886.7833333333333" y="0" dx="0em" dy="0.95em" style="text-anchor: middle; visibility: inherit; font-family: Roboto, sans-serif; font-size: 12px; font-weight: 200;" fill="rgb(33, 33, 33)" stroke="none" stroke-width="1px">200</text><text x="967.4" y="0" dx="0em" dy="0.95em" style="text-anchor: middle; visibility: hidden; font-family: Roboto, sans-serif; font-size: 12px; font-weight: 200;" fill="rgb(33, 33, 33)" stroke="none" stroke-width="1px">220</text></g><line x1="0" y1="0" x2="967.4" y2="0" fill="rgb(0, 0, 0)" stroke="rgb(204, 204, 204)" stroke-width="1px"></line></g></g></g></g></svg>