<svg viewBox="0 0 330 200" xmlns="http://www.w3.org/2000/svg"><g><g><g><g><g><line x1="40" y1="177" x2="35" y2="177" style="visibility: inherit;" fill="rgb(0, 0, 0)" stroke="rgb(204, 204, 204)" stroke-width="1px"></line><line x1="40" y1="154.875" x2="35" y2="154.875" style="visibility: inherit;" fill="rgb(0, 0, 0)" stroke="rgb(204, 204, 204)" stroke-width="1px"></line><line x1="40" y1="132.75" x2="35" y2="132.75" style="visibility: inherit;" fill="rgb(0, 0, 0)" stroke="rgb(204, 204, 204)" stroke-width="1px"></line><line x1="40" y1="110.625" x2="35" y2="110.625" style="visibility: inherit;" fill="rgb(0, 0, 0)" stroke="rgb(204, 204, 204)" stroke-width="1px"></line><line x1="40" y1="88.5" x2="35" y2="88.5" style="visibility: inherit;" fill="rgb(0, 0, 0)" stroke="rgb(204, 204, 204)" stroke-width="1px"></line><line x1="40" y1="66.375" x2="35" y2="66.375" style="visibility: inherit;" fill="rgb(0, 0, 0)" stroke="rgb(204, 204, 204)" stroke-width="1px"></line><line x1="40" y1="44.25" x2="35" y2="44.25" style="visibility: inherit;" fill="rgb(0, 0, 0)" stroke="rgb(204, 204, 204)" stroke-width="1px"></line><line x1="40" y1="22.125" x2="35" y2="22.125" style="visibility: inherit;" fill="rgb(0, 0, 0)" stroke="rgb(204, 204, 204)" stroke-width="1px"></line><line x1="40" y1="0" x2="35" y2="0" style="visibility: inherit;" fill="rgb(0, 0, 0)" stroke="rgb(204, 204, 204)" stroke-width="1px"></line></g><g transform="translate(30, 0)"><text x="0" y="177" dx="0em" dy="0.3em" style="text-anchor: end; visibility: hidden; font-family: Roboto, sans-serif; font-size: 12px; font-weight: 200;" fill="rgb(33, 33, 33)" stroke="none" stroke-width="1px">0</text><text x="0" y="154.875" dx="0em" dy="0.3em" style="text-anchor: end; visibility: inherit; font-family: Roboto, sans-serif; font-size: 12px; font-weight: 200;" fill="rgb(33, 33, 33)" stroke="none" stroke-width="1px">0.5</text><text x="0" y="132.75" dx="0em" dy="0.3em" style="text-anchor: end; visibility: hidden; font-family: Roboto, sans-serif; font-size: 12px; font-weight: 200;" fill="rgb(33, 33, 33)" stroke="none" stroke-width="1px">1</text><text x="0" y="110.625" dx="0em" dy="0.3em" style="text-anchor: end; visibility: inherit; font-family: Roboto, sans-serif; font-size: 12px; font-weight: 200;" fill="rgb(33, 33, 33)" stroke="none" stroke-width="1px">1.5</text><text x="0" y="88.5" dx="0em" dy="0.3em" style="text-anchor: end; visibility: hidden; font-family: Roboto, sans-serif; font-size: 12px; font-weight: 200;" fill="rgb(33, 33, 33)" stroke="none" stroke-width="1px">2</text><text x="0" y="66.375" dx="0em" dy="0.3em" style="text-anchor: end; visibility: inherit; font-family: Roboto, sans-serif; font-size: 12px; font-weight: 200;" fill="rgb(33, 33, 33)" stroke="none" stroke-width="1px">2.5</text><text x="0" y="44.25" dx="0em" dy="0.3em" style="text-anchor: end; visibility: hidden; font-family: Roboto, sans-serif; font-size: 12px; font-weight: 200;" fill="rgb(33, 33, 33)" stroke="none" stroke-width="1px">3</text><text x="0" y="22.125" dx="0em" dy="0.3em" style="text-anchor: end; visibility: inherit; font-family: Roboto, sans-serif; font-size: 12px; font-weight: 200;" fill="rgb(33, 33, 33)" stroke="none" stroke-width="1px">3.5</text><text x="0" y="0" dx="0em" dy="0.3em" style="text-anchor: end; visibility: hidden; font-family: Roboto, sans-serif; font-size: 12px; font-weight: 200;" fill="rgb(33, 33, 33)" stroke="none" stroke-width="1px">4</text></g><line x1="40" y1="0" x2="40" y2="177" fill="rgb(0, 0, 0)" stroke="rgb(204, 204, 204)" stroke-width="1px"></line></g></g><g transform="translate(40, 0)" clip-path="url(#clip_0)"><clipPath id="clip_0"><rect width="290" height="177"></rect></clipPath><g><g><g><line x1="0" y1="0" x2="0" y2="177" fill="rgb(0, 0, 0)" stroke="rgb(66, 66, 66)" stroke-width="1px" opacity="0.25"></line><line x1="24.166666666666664" y1="0" x2="24.166666666666664" y2="177" fill="rgb(0, 0, 0)" stroke="rgb(66, 66, 66)" stroke-width="1px" opacity="0.25"></line><line x1="48.33333333333333" y1="0" x2="48.33333333333333" y2="177" fill="rgb(0, 0, 0)" stroke="rgb(66, 66, 66)" stroke-width="1px" opacity="0.25"></line><line x1="72.5" y1="0" x2="72.5" y2="177" fill="rgb(0, 0, 0)" stroke="rgb(66, 66, 66)" stroke-width="1px" opacity="0.25"></line><line x1="96.66666666666666" y1="0" x2="96.66666666666666" y2="177" fill="rgb(0, 0, 0)" stroke="rgb(66, 66, 66)" stroke-width="1px" opacity="0.25"></line><line x1="120.83333333333334" y1="0" x2="120.83333333333334" y2="177" fill="rgb(0, 0, 0)" stroke="rgb(66, 66, 66)" stroke-width="1px" opacity="0.25"></line><line x1="145" y1="0" x2="145" y2="177" fill="rgb(0, 0, 0)" stroke="rgb(66, 66, 66)" stroke-width="1px" opacity="0.25"></line><line x1="169.16666666666669" y1="0" x2="169.16666666666669" y2="177" fill="rgb(0, 0, 0)" stroke="rgb(66, 66, 66)" stroke-width="1px" opacity="0.25"></line><line x1="193.33333333333331" y1="0" x2="193.33333333333331" y2="177" fill="rgb(0, 0, 0)" stroke="rgb(66, 66, 66)" stroke-width="1px" opacity="0.25"></line><line x1="217.5" y1="0" x2="217.5" y2="177" fill="rgb(0, 0, 0)" stroke="rgb(66, 66, 66)" stroke-width="1px" opacity="0.25"></line><line x1="241.66666666666669" y1="0" x2="241.66666666666669" y2="177" fill="rgb(0, 0, 0)" stroke="rgb(66, 66, 66)" stroke-width="1px" opacity="0.25"></line><line x1="265.8333333333333" y1="0" x2="265.8333333333333" y2="177" fill="rgb(0, 0, 0)" stroke="rgb(66, 66, 66)" stroke-width="1px" opacity="0.25"></line><line x1="290" y1="0" x2="290" y2="177" fill="rgb(0, 0, 0)" stroke="rgb(66, 66, 66)" stroke-width="1px" opacity="0.25"></line></g><g><line x1="0" y1="177" x2="290" y2="177" fill="rgb(0, 0, 0)" stroke="rgb(66, 66, 66)" stroke-width="1px" opacity="0.25"></line><line x1="0" y1="154.875" x2="290" y2="154.875" fill="rgb(0, 0, 0)" stroke="rgb(66, 66, 66)" stroke-width="1px" opacity="0.25"></line><line x1="0" y1="132.75" x2="290" y2="132.75" fill="rgb(0, 0, 0)" stroke="rgb(66, 66, 66)" stroke-width="1px" opacity="0.25"></line><line x1="0" y1="110.625" x2="290" y2="110.625" fill="rgb(0, 0, 0)" stroke="rgb(66, 66, 66)" stroke-width="1px" opacity="0.25"></line><line x1="0" y1="88.5" x2="290" y2="88.5" fill="rgb(0, 0, 0)" stroke="rgb(66, 66, 66)" stroke-width="1px" opacity="0.25"></line><line x1="0" y1="66.375" x2="290" y2="66.375" fill="rgb(0, 0, 0)" stroke="rgb(66, 66, 66)" stroke-width="1px" opacity="0.25"></line><line x1="0" y1="44.25" x2="290" y2="44.25" fill="rgb(0, 0, 0)" stroke="rgb(66, 66, 66)" stroke-width="1px" opacity="0.25"></line><line x1="0" y1="22.125" x2="290" y2="22.125" fill="rgb(0, 0, 0)" stroke="rgb(66, 66, 66)" stroke-width="1px" opacity="0.25"></line><line x1="0" y1="0" x2="290" y2="0" fill="rgb(0, 0, 0)" stroke="rgb(66, 66, 66)" stroke-width="1px" opacity="0.25"></line></g></g></g><g><g><line x1="0" y1="177" x2="290" y2="177" fill="rgb(0, 0, 0)" stroke="rgb(153, 153, 153)" stroke-width="1.5px"></line></g></g><g><g><line x1="24.166666666666664" y1="0" x2="24.166666666666664" y2="177" fill="rgb(0, 0, 0)" stroke="rgb(153, 153, 153)" stroke-width="1.5px"></line></g></g><g><g><g><g><g><path stroke="rgb(255, 112, 67)" stroke-width="2px" d="M24.166666666666664,11.431634724140167L25.375,13.078578896820526L26.583333333333332,15.969989415334178L27.791666666666668,18.314640208640522L29,19.823146885587967L30.208333333333336,20.869931999541944L31.416666666666668,21.622862332272685L32.625,22.2725226361118L33.833333333333336,22.799126613466722L35.041666666666664,23.352202444522284L36.25,23.907573305795786L37.458333333333336,24.616034727667195L38.666666666666664,25.44666977298335L39.875,26.57573782097511L41.083333333333336,28.114173320298967L42.29166666666667,30.12815850616179L43.5,32.67412988365585L44.708333333333336,35.628413211449775L45.916666666666664,38.941441484660736L47.125,42.41576611041955L48.33333333333333,45.91471410156299L49.541666666666664,49.53119334242311L50.75,52.87788092402671L51.958333333333336,56.05331377790604L53.166666666666664,59.09967859783545L54.375,62.03820017081675L55.583333333333336,64.75266545541089L56.791666666666664,67.3588578584049L58,69.87017983236491L59.208333333333336,72.17125000587338L60.41666666666667,74.39501168441112L61.625,76.65160215045377L62.833333333333336,78.67847051849078L64.04166666666667,80.65889840215308L65.25,82.55937866193702L66.45833333333333,84.29759985703583L67.66666666666667,86.02573118384271L68.875,87.53192348905743L70.08333333333333,89.25998383923923L71.29166666666666,90.74578678904639L72.5,92.22709708510632L73.70833333333333,93.63246087558424L74.91666666666667,95.03141000506356L76.125,96.36831008598764L77.33333333333333,97.53172720209268L78.54166666666666,98.7317348644022L79.75,99.8854234412675L80.95833333333333,101.03086553786972L82.16666666666667,102.07821571098057L83.375,103.36857640306972L84.58333333333334,104.64612382389227L85.79166666666667,105.52051992259948L87,106.66872085954464L88.20833333333333,107.6390653719061L89.41666666666667,108.55733670410889L90.625,109.64256528387932L91.83333333333333,110.68109713417596L93.04166666666667,111.44493454946472L94.25,112.51127275379542L95.45833333333333,113.46013013453515L96.66666666666666,114.36128284890196L97.875,115.4920836350843L99.08333333333333,116.39627128014118L100.29166666666667,117.01152204971997L101.5,117.92824819982941L102.70833333333334,118.92022431672153L103.91666666666667,119.85594571101986L105.125,120.65808785240843L106.33333333333333,121.2919201271593L107.54166666666667,122.03982868295071L108.75,122.74735530913566L109.95833333333333,123.47763624608932L111.16666666666667,124.24896817696342L112.375,124.93386851127298L113.58333333333333,125.5039135955295L114.79166666666666,126.1789225544048L116,126.90866183075384L117.20833333333333,127.45050751467393L118.41666666666667,128.10050074636843L119.625,128.7971942685837L120.83333333333334,129.38745637314284L122.04166666666667,130.07340972171286L123.25,130.7089565905694L124.45833333333333,131.32071407513402L125.66666666666667,131.82455382273542L126.875,132.45502349451752L128.08333333333334,132.84183288047058L129.29166666666669,133.31935528176632L130.5,133.81157305394177L131.70833333333334,134.29512349697688L132.91666666666666,134.91298598010982L134.125,135.38784379339006L135.33333333333334,135.8312968288409L136.54166666666666,136.36955183592718L137.75,136.79547833113244L138.95833333333334,137.3181249183915L140.16666666666666,137.8575181593002L141.375,138.41452903327354L142.58333333333331,138.8137553440154L143.79166666666666,139.19247651735665L145,139.71916843437984L146.20833333333334,139.9336090265741L147.41666666666666,140.22419406646668L148.625,140.639488605703L149.83333333333334,140.92564526679817L151.04166666666669,141.4739412932557L152.25,141.92421145850196L153.45833333333334,142.25424915321932L154.66666666666666,142.786375145723L155.875,143.37858297861195L157.08333333333331,143.80027892253742L158.29166666666666,144.19149544872013L159.5,144.52768914721707L160.70833333333334,144.76507077111185L161.91666666666666,145.22147578891148L163.125,145.58099447426812L164.33333333333334,145.91899099193583L165.54166666666666,146.2918046190892L166.75,146.4259674176308L167.95833333333334,146.67699881939487L169.16666666666669,146.96048674910307L170.375,147.3803069706502L171.58333333333334,147.53585946653735L172.79166666666666,147.79119288381608L174,148.1418133882086L175.20833333333331,148.295857012713L176.41666666666666,148.58148046758416L177.625,148.82193714038516L178.83333333333334,149.10760465059272L180.04166666666666,149.2262782561397L181.25,149.48247916743847L182.45833333333334,149.69865901020583L183.66666666666666,149.9668486162866L184.875,150.07137251167566L186.08333333333334,150.26061220925493L187.29166666666669,150.44040911174682L188.5,150.40112815962354L189.70833333333334,150.59680276314091L190.91666666666666,150.87430727600855L192.125,151.18084570240856L193.33333333333331,151.28824839277198L194.54166666666666,151.52868020107226L195.75,151.70423803669144L196.95833333333334,151.9467145856734L198.16666666666666,152.15972909668182L199.375,152.32698222600874L200.58333333333334,152.37793679001007L201.79166666666666,152.62646560050294L203,152.9127827595308L204.20833333333334,153.13676928941217L205.41666666666669,153.45961730756645L206.625,153.64572377251554L207.83333333333334,153.89941626934393L209.04166666666666,153.96213170974363L210.25,154.2332751637036L211.45833333333331,154.34713889869062L212.66666666666666,154.39546168274885L213.875,154.52900607244496L215.08333333333334,154.78004939470483L216.29166666666666,154.981807125293L217.5,155.09595993917154L218.70833333333334,155.26314866698362L219.91666666666666,155.40571052227364L221.125,155.510247170293L222.33333333333334,155.62295938394288L223.54166666666669,155.72325696564806L224.75,155.8082038016146L225.95833333333334,155.82135956889545L227.16666666666666,156.0163951242337L228.375,156.12787400331314L229.58333333333331,156.3634350844992L230.79166666666666,156.5756763219102L232,156.71317862565897L233.20833333333334,156.82226289865721L234.41666666666666,156.7230028245291L235.625,156.96611161729342L236.83333333333334,157.0144334983864L238.04166666666666,157.06943190407983L239.25,157.3159602303042L240.45833333333334,157.38668535165394L241.66666666666669,157.45710383064988L242.875,157.5513417345729L244.08333333333334,157.71618678405562L245.29166666666666,157.72106885155844L246.5,157.7375226929236L247.70833333333331,157.73098338332466L248.91666666666666,157.8363063316744L250.125,158.08888618536002L251.33333333333334,158.19347383908752L252.54166666666666,158.0804978777905L253.75,158.2446255248749L254.95833333333334,158.36520599198127L256.1666666666667,158.35369953138698L257.375,158.4136516727392L258.58333333333337,158.53211305304671L259.7916666666667,158.5527312354106L261,158.65639095877756L262.2083333333333,158.86547791585417L263.4166666666667,159.0819889135664L264.625,159.1365166591111" style="fill: none;" fill="none"></path></g></g></g></g><g opacity="0.2"><g><g><g><path stroke="rgb(255, 112, 67)" stroke-width="2px" d="M24.166666666666664,11.431634724140167L25.375,14.066745400428772L26.583333333333332,18.7457435131073L27.791666666666668,21.071949541568756L29,21.79265320301056L30.208333333333336,22.31801265478134L31.416666666666668,22.69956475496292L32.625,23.219733595848083L33.833333333333336,23.575765192508698L35.041666666666664,24.173455595970154L36.25,24.735592424869537L37.458333333333336,25.67487144470215L38.666666666666664,26.689910173416138L39.875,28.26712793111801L41.083333333333336,30.420018196105957L42.29166666666667,33.147715866565704L43.5,36.492009580135345L44.708333333333336,40.05908811092377L45.916666666666664,43.91047918796539L47.125,47.62693548202515L48.33333333333333,51.162944197654724L49.541666666666664,54.95579320192337L50.75,57.89784622192383L51.958333333333336,60.81642544269562L53.166666666666664,63.66920417547226L54.375,66.44596999883652L55.583333333333336,68.82435643672943L56.791666666666664,71.26814246177673L58,73.63716048002243L59.208333333333336,75.6228539943695L60.41666666666667,77.73065346479416L61.625,80.03648740053177L62.833333333333336,81.71877282857895L64.04166666666667,83.62954008579254L65.25,85.41009896993637L66.45833333333333,86.90493160486221L67.66666666666667,88.61792814731598L68.875,89.79121193289757L70.08333333333333,91.85207435488701L71.29166666666666,92.97449120879173L72.5,94.44906252622604L73.70833333333333,95.74050655961037L74.91666666666667,97.1298336982727L76.125,98.37366020679474L77.33333333333333,99.27685287594795L78.54166666666666,100.53174635767937L79.75,101.61595630645752L80.95833333333333,102.74902868270874L82.16666666666667,103.64924097061157L83.375,105.30411744117737L84.58333333333334,106.56244495511055L85.79166666666667,106.83211407065392L87,108.39102226495743L88.20833333333333,109.09458214044571L89.41666666666667,109.93474370241165L90.625,111.27040815353394L91.83333333333333,112.23889490962029L93.04166666666667,112.59069067239761L94.25,114.11078006029129L95.45833333333333,114.88341620564461L96.66666666666666,115.71301192045212L97.875,117.18828481435776L99.08333333333333,117.75255274772644L100.29166666666667,117.93439820408821L101.5,119.30333742499352L102.70833333333334,120.40818849205971L103.91666666666667,121.25952780246735L105.125,121.86130106449127L106.33333333333333,122.24266853928566L107.54166666666667,123.1616915166378L108.75,123.80864524841309L109.95833333333333,124.57305765151978L111.16666666666667,125.40596607327461L112.375,125.96121901273727L113.58333333333333,126.35898122191429L114.79166666666666,127.19143599271774L116,128.0032707452774L117.20833333333333,128.26327604055405L118.41666666666667,129.07549059391022L119.625,129.84223455190659L120.83333333333334,130.2728495299816L122.04166666666667,131.10233974456787L123.25,131.66227689385414L124.45833333333333,132.23835030198097L125.66666666666667,132.58031344413757L126.875,133.4007280021906L128.08333333333334,133.42204695940018L129.29166666666669,134.0356388837099L130.5,134.54989971220493L131.70833333333334,135.02044916152954L132.91666666666666,135.8397797048092L134.125,136.10013051331043L135.33333333333334,136.49647638201714L136.54166666666666,137.17693434655666L137.75,137.43436807394028L138.95833333333334,138.10209479928017L140.16666666666666,138.66660802066326L141.375,139.2500453442335L142.58333333333331,139.4125948101282L143.79166666666666,139.76055827736855L145,140.5092063099146L146.20833333333334,140.2552699148655L147.41666666666666,140.66007162630558L148.625,141.26243041455746L149.83333333333334,141.35488025844097L151.04166666666669,142.296385332942L152.25,142.5996167063713L153.45833333333334,142.74930569529533L154.66666666666666,143.58456413447857L155.875,144.26689472794533L157.08333333333331,144.43282283842564L158.29166666666666,144.7783202379942L159.5,145.0319796949625L160.70833333333334,145.121143206954L161.91666666666666,145.90608331561089L163.125,146.12027250230312L164.33333333333334,146.42598576843739L165.54166666666666,146.85102505981922L166.75,146.62721161544323L167.95833333333334,147.05354592204094L169.16666666666669,147.3857186436653L170.375,148.0100373029709L171.58333333333334,147.76918821036816L172.79166666666666,148.17419300973415L174,148.66774414479733L175.20833333333331,148.52692244946957L176.41666666666666,149.0099156498909L177.625,149.18262214958668L178.83333333333334,149.53610591590405L180.04166666666666,149.40428866446018L181.25,149.86678053438663L182.45833333333334,150.02292877435684L183.66666666666666,150.3691330254078L184.875,150.22815835475922L186.08333333333334,150.54447175562382L187.29166666666669,150.71010446548462L188.5,150.34220673143864L189.70833333333334,150.89031466841698L190.91666666666666,151.29056404531002L192.125,151.6406533420086L193.33333333333331,151.44935242831707L194.54166666666666,151.88932791352272L195.75,151.96757479012012L196.95833333333334,152.3104294091463L198.16666666666666,152.47925086319447L199.375,152.57786191999912L200.58333333333334,152.45436863601208L201.79166666666666,152.99925881624222L203,153.34225849807262L204.20833333333334,153.47274908423424L205.41666666666669,153.94388933479786L206.625,153.92488346993923L207.83333333333334,154.27995501458645L209.04166666666666,154.0562048703432L210.25,154.6399903446436L211.45833333333331,154.5179345011711L212.66666666666666,154.46794585883617L213.875,154.7293226569891L215.08333333333334,155.15661437809467L216.29166666666666,155.2844437211752L217.5,155.26718915998936L218.70833333333334,155.5139317587018L219.91666666666666,155.61955330520868L221.125,155.66705214232206L222.33333333333334,155.7920277044177L223.54166666666669,155.87370333820581L224.75,155.9356240555644L225.95833333333334,155.84109321981668L227.16666666666666,156.30894845724106L228.375,156.29509232193232L229.58333333333331,156.71677670627832L230.79166666666666,156.89403817802668L232,156.91943208128214L233.20833333333334,156.98588930815458L234.41666666666666,156.57411271333694L235.625,157.33077480643988L236.83333333333334,157.08691632002592L238.04166666666666,157.15192951261997L239.25,157.68575271964073L240.45833333333334,157.49277303367853L241.66666666666669,157.5627315491438L242.875,157.69269859045744L244.08333333333334,157.9634543582797L245.29166666666666,157.72839195281267L246.5,157.7622034549713L247.70833333333331,157.72117441892624L248.91666666666666,157.99429075419903L250.125,158.4677559658885L251.33333333333334,158.35035531967878L252.54166666666666,157.9110339358449L253.75,158.49081699550152L254.95833333333334,158.54607669264078L256.1666666666667,158.3364398404956L257.375,158.50357988476753L258.58333333333337,158.70980512350798L259.7916666666667,158.58365850895643L261,158.811880543828L262.2083333333333,159.17910835146904L263.4166666666667,159.4067554101348L264.625,159.21830827742815" style="fill: none;" fill="none"></path></g></g></g></g></g></g><g transform="translate(40, 177)" clip-path="url(#clip_1)"><clipPath id="clip_1"><rect width="290" height="23"></rect></clipPath><g><g><line x1="0" y1="0" x2="0" y2="5" style="visibility: inherit;" fill="rgb(0, 0, 0)" stroke="rgb(204, 204, 204)" stroke-width="1px"></line><line x1="24.166666666666664" y1="0" x2="24.166666666666664" y2="5" style="visibility: inherit;" fill="rgb(0, 0, 0)" stroke="rgb(204, 204, 204)" stroke-width="1px"></line><line x1="48.33333333333333" y1="0" x2="48.33333333333333" y2="5" style="visibility: inherit;" fill="rgb(0, 0, 0)" stroke="rgb(204, 204, 204)" stroke-width="1px"></line><line x1="72.5" y1="0" x2="72.5" y2="5" style="visibility: inherit;" fill="rgb(0, 0, 0)" stroke="rgb(204, 204, 204)" stroke-width="1px"></line><line x1="96.66666666666666" y1="0" x2="96.66666666666666" y2="5" style="visibility: inherit;" fill="rgb(0, 0, 0)" stroke="rgb(204, 204, 204)" stroke-width="1px"></line><line x1="120.83333333333334" y1="0" x2="120.83333333333334" y2="5" style="visibility: inherit;" fill="rgb(0, 0, 0)" stroke="rgb(204, 204, 204)" stroke-width="1px"></line><line x1="145" y1="0" x2="145" y2="5" style="visibility: inherit;" fill="rgb(0, 0, 0)" stroke="rgb(204, 204, 204)" stroke-width="1px"></line><line x1="169.16666666666669" y1="0" x2="169.16666666666669" y2="5" style="visibility: inherit;" fill="rgb(0, 0, 0)" stroke="rgb(204, 204, 204)" stroke-width="1px"></line><line x1="193.33333333333331" y1="0" x2="193.33333333333331" y2="5" style="visibility: inherit;" fill="rgb(0, 0, 0)" stroke="rgb(204, 204, 204)" stroke-width="1px"></line><line x1="217.5" y1="0" x2="217.5" y2="5" style="visibility: inherit;" fill="rgb(0, 0, 0)" stroke="rgb(204, 204, 204)" stroke-width="1px"></line><line x1="241.66666666666669" y1="0" x2="241.66666666666669" y2="5" style="visibility: inherit;" fill="rgb(0, 0, 0)" stroke="rgb(204, 204, 204)" stroke-width="1px"></line><line x1="265.8333333333333" y1="0" x2="265.8333333333333" y2="5" style="visibility: inherit;" fill="rgb(0, 0, 0)" stroke="rgb(204, 204, 204)" stroke-width="1px"></line><line x1="290" y1="0" x2="290" y2="5" style="visibility: inherit;" fill="rgb(0, 0, 0)" stroke="rgb(204, 204, 204)" stroke-width="1px"></line></g><g transform="translate(0, 8)"><text x="0" y="0" dx="0em" dy="0.95em" style="text-anchor: middle; visibility: hidden; font-family: Roboto, sans-serif; font-size: 12px; font-weight: 200;" fill="rgb(33, 33, 33)" stroke="none" stroke-width="1px">-20</text><text x="24.166666666666664" y="0" dx="0em" dy="0.95em" style="text-anchor: middle; visibility: inherit; font-family: Roboto, sans-serif; font-size: 12px; font-weight: 200;" fill="rgb(33, 33, 33)" stroke="none" stroke-width="1px">0</text><text x="48.33333333333333" y="0" dx="0em" dy="0.95em" style="text-anchor: middle; visibility: hidden; font-family: Roboto, sans-serif; font-size: 12px; font-weight: 200;" fill="rgb(33, 33, 33)" stroke="none" stroke-width="1px">20</text><text x="72.5" y="0" dx="0em" dy="0.95em" style="text-anchor: middle; visibility: inherit; font-family: Roboto, sans-serif; font-size: 12px; font-weight: 200;" fill="rgb(33, 33, 33)" stroke="none" stroke-width="1px">40</text><text x="96.66666666666666" y="0" dx="0em" dy="0.95em" style="text-anchor: middle; visibility: hidden; font-family: Roboto, sans-serif; font-size: 12px; font-weight: 200;" fill="rgb(33, 33, 33)" stroke="none" stroke-width="1px">60</text><text x="120.83333333333334" y="0" dx="0em" dy="0.95em" style="text-anchor: middle; visibility: inherit; font-family: Roboto, sans-serif; font-size: 12px; font-weight: 200;" fill="rgb(33, 33, 33)" stroke="none" stroke-width="1px">80</text><text x="145" y="0" dx="0em" dy="0.95em" style="text-anchor: middle; visibility: hidden; font-family: Roboto, sans-serif; font-size: 12px; font-weight: 200;" fill="rgb(33, 33, 33)" stroke="none" stroke-width="1px">100</text><text x="169.16666666666669" y="0" dx="0em" dy="0.95em" style="text-anchor: middle; visibility: inherit; font-family: Roboto, sans-serif; font-size: 12px; font-weight: 200;" fill="rgb(33, 33, 33)" stroke="none" stroke-width="1px">120</text><text x="193.33333333333331" y="0" dx="0em" dy="0.95em" style="text-anchor: middle; visibility: hidden; font-family: Roboto, sans-serif; font-size: 12px; font-weight: 200;" fill="rgb(33, 33, 33)" stroke="none" stroke-width="1px">140</text><text x="217.5" y="0" dx="0em" dy="0.95em" style="text-anchor: middle; visibility: inherit; font-family: Roboto, sans-serif; font-size: 12px; font-weight: 200;" fill="rgb(33, 33, 33)" stroke="none" stroke-width="1px">160</text><text x="241.66666666666669" y="0" dx="0em" dy="0.95em" style="text-anchor: middle; visibility: hidden; font-family: Roboto, sans-serif; font-size: 12px; font-weight: 200;" fill="rgb(33, 33, 33)" stroke="none" stroke-width="1px">180</text><text x="265.8333333333333" y="0" dx="0em" dy="0.95em" style="text-anchor: middle; visibility: inherit; font-family: Roboto, sans-serif; font-size: 12px; font-weight: 200;" fill="rgb(33, 33, 33)" stroke="none" stroke-width="1px">200</text><text x="290" y="0" dx="0em" dy="0.95em" style="text-anchor: middle; visibility: hidden; font-family: Roboto, sans-serif; font-size: 12px; font-weight: 200;" fill="rgb(33, 33, 33)" stroke="none" stroke-width="1px">220</text></g><line x1="0" y1="0" x2="290" y2="0" fill="rgb(0, 0, 0)" stroke="rgb(204, 204, 204)" stroke-width="1px"></line></g></g></g></g></svg>