<svg viewBox="0 0 330 200" xmlns="http://www.w3.org/2000/svg"><g><g><g><g><g><line x1="40" y1="177" x2="35" y2="177" style="visibility: inherit;" fill="rgb(0, 0, 0)" stroke="rgb(204, 204, 204)" stroke-width="1px"></line><line x1="40" y1="163.3846153846154" x2="35" y2="163.3846153846154" style="visibility: inherit;" fill="rgb(0, 0, 0)" stroke="rgb(204, 204, 204)" stroke-width="1px"></line><line x1="40" y1="149.76923076923077" x2="35" y2="149.76923076923077" style="visibility: inherit;" fill="rgb(0, 0, 0)" stroke="rgb(204, 204, 204)" stroke-width="1px"></line><line x1="40" y1="136.15384615384616" x2="35" y2="136.15384615384616" style="visibility: inherit;" fill="rgb(0, 0, 0)" stroke="rgb(204, 204, 204)" stroke-width="1px"></line><line x1="40" y1="122.53846153846153" x2="35" y2="122.53846153846153" style="visibility: inherit;" fill="rgb(0, 0, 0)" stroke="rgb(204, 204, 204)" stroke-width="1px"></line><line x1="40" y1="108.92307692307693" x2="35" y2="108.92307692307693" style="visibility: inherit;" fill="rgb(0, 0, 0)" stroke="rgb(204, 204, 204)" stroke-width="1px"></line><line x1="40" y1="95.30769230769232" x2="35" y2="95.30769230769232" style="visibility: inherit;" fill="rgb(0, 0, 0)" stroke="rgb(204, 204, 204)" stroke-width="1px"></line><line x1="40" y1="81.6923076923077" x2="35" y2="81.6923076923077" style="visibility: inherit;" fill="rgb(0, 0, 0)" stroke="rgb(204, 204, 204)" stroke-width="1px"></line><line x1="40" y1="68.07692307692307" x2="35" y2="68.07692307692307" style="visibility: inherit;" fill="rgb(0, 0, 0)" stroke="rgb(204, 204, 204)" stroke-width="1px"></line><line x1="40" y1="54.46153846153847" x2="35" y2="54.46153846153847" style="visibility: inherit;" fill="rgb(0, 0, 0)" stroke="rgb(204, 204, 204)" stroke-width="1px"></line><line x1="40" y1="40.84615384615386" x2="35" y2="40.84615384615386" style="visibility: inherit;" fill="rgb(0, 0, 0)" stroke="rgb(204, 204, 204)" stroke-width="1px"></line><line x1="40" y1="27.230769230769234" x2="35" y2="27.230769230769234" style="visibility: inherit;" fill="rgb(0, 0, 0)" stroke="rgb(204, 204, 204)" stroke-width="1px"></line><line x1="40" y1="13.615384615384626" x2="35" y2="13.615384615384626" style="visibility: inherit;" fill="rgb(0, 0, 0)" stroke="rgb(204, 204, 204)" stroke-width="1px"></line><line x1="40" y1="0" x2="35" y2="0" style="visibility: inherit;" fill="rgb(0, 0, 0)" stroke="rgb(204, 204, 204)" stroke-width="1px"></line></g><g transform="translate(30, 0)"><text x="0" y="177" dx="0em" dy="0.3em" style="text-anchor: end; visibility: hidden; font-family: Roboto, sans-serif; font-size: 12px; font-weight: 200;" fill="rgb(33, 33, 33)" stroke="none" stroke-width="1px">0</text><text x="0" y="163.3846153846154" dx="0em" dy="0.3em" style="text-anchor: end; visibility: inherit; font-family: Roboto, sans-serif; font-size: 12px; font-weight: 200;" fill="rgb(33, 33, 33)" stroke="none" stroke-width="1px">0.1</text><text x="0" y="149.76923076923077" dx="0em" dy="0.3em" style="text-anchor: end; visibility: hidden; font-family: Roboto, sans-serif; font-size: 12px; font-weight: 200;" fill="rgb(33, 33, 33)" stroke="none" stroke-width="1px">0.2</text><text x="0" y="136.15384615384616" dx="0em" dy="0.3em" style="text-anchor: end; visibility: inherit; font-family: Roboto, sans-serif; font-size: 12px; font-weight: 200;" fill="rgb(33, 33, 33)" stroke="none" stroke-width="1px">0.3</text><text x="0" y="122.53846153846153" dx="0em" dy="0.3em" style="text-anchor: end; visibility: hidden; font-family: Roboto, sans-serif; font-size: 12px; font-weight: 200;" fill="rgb(33, 33, 33)" stroke="none" stroke-width="1px">0.4</text><text x="0" y="108.92307692307693" dx="0em" dy="0.3em" style="text-anchor: end; visibility: inherit; font-family: Roboto, sans-serif; font-size: 12px; font-weight: 200;" fill="rgb(33, 33, 33)" stroke="none" stroke-width="1px">0.5</text><text x="0" y="95.30769230769232" dx="0em" dy="0.3em" style="text-anchor: end; visibility: hidden; font-family: Roboto, sans-serif; font-size: 12px; font-weight: 200;" fill="rgb(33, 33, 33)" stroke="none" stroke-width="1px">0.6</text><text x="0" y="81.6923076923077" dx="0em" dy="0.3em" style="text-anchor: end; visibility: inherit; font-family: Roboto, sans-serif; font-size: 12px; font-weight: 200;" fill="rgb(33, 33, 33)" stroke="none" stroke-width="1px">0.7</text><text x="0" y="68.07692307692307" dx="0em" dy="0.3em" style="text-anchor: end; visibility: hidden; font-family: Roboto, sans-serif; font-size: 12px; font-weight: 200;" fill="rgb(33, 33, 33)" stroke="none" stroke-width="1px">0.8</text><text x="0" y="54.46153846153847" dx="0em" dy="0.3em" style="text-anchor: end; visibility: inherit; font-family: Roboto, sans-serif; font-size: 12px; font-weight: 200;" fill="rgb(33, 33, 33)" stroke="none" stroke-width="1px">0.9</text><text x="0" y="40.84615384615386" dx="0em" dy="0.3em" style="text-anchor: end; visibility: hidden; font-family: Roboto, sans-serif; font-size: 12px; font-weight: 200;" fill="rgb(33, 33, 33)" stroke="none" stroke-width="1px">1</text><text x="0" y="27.230769230769234" dx="0em" dy="0.3em" style="text-anchor: end; visibility: inherit; font-family: Roboto, sans-serif; font-size: 12px; font-weight: 200;" fill="rgb(33, 33, 33)" stroke="none" stroke-width="1px">1.1</text><text x="0" y="13.615384615384626" dx="0em" dy="0.3em" style="text-anchor: end; visibility: hidden; font-family: Roboto, sans-serif; font-size: 12px; font-weight: 200;" fill="rgb(33, 33, 33)" stroke="none" stroke-width="1px">1.2</text><text x="0" y="0" dx="0em" dy="0.3em" style="text-anchor: end; visibility: hidden; font-family: Roboto, sans-serif; font-size: 12px; font-weight: 200;" fill="rgb(33, 33, 33)" stroke="none" stroke-width="1px">1.3</text></g><line x1="40" y1="0" x2="40" y2="177" fill="rgb(0, 0, 0)" stroke="rgb(204, 204, 204)" stroke-width="1px"></line></g></g><g transform="translate(40, 0)" clip-path="url(#clip_0)"><clipPath id="clip_0"><rect width="290" height="177"></rect></clipPath><g><g><g><line x1="0" y1="0" x2="0" y2="177" fill="rgb(0, 0, 0)" stroke="rgb(66, 66, 66)" stroke-width="1px" opacity="0.25"></line><line x1="24.166666666666664" y1="0" x2="24.166666666666664" y2="177" fill="rgb(0, 0, 0)" stroke="rgb(66, 66, 66)" stroke-width="1px" opacity="0.25"></line><line x1="48.33333333333333" y1="0" x2="48.33333333333333" y2="177" fill="rgb(0, 0, 0)" stroke="rgb(66, 66, 66)" stroke-width="1px" opacity="0.25"></line><line x1="72.5" y1="0" x2="72.5" y2="177" fill="rgb(0, 0, 0)" stroke="rgb(66, 66, 66)" stroke-width="1px" opacity="0.25"></line><line x1="96.66666666666666" y1="0" x2="96.66666666666666" y2="177" fill="rgb(0, 0, 0)" stroke="rgb(66, 66, 66)" stroke-width="1px" opacity="0.25"></line><line x1="120.83333333333334" y1="0" x2="120.83333333333334" y2="177" fill="rgb(0, 0, 0)" stroke="rgb(66, 66, 66)" stroke-width="1px" opacity="0.25"></line><line x1="145" y1="0" x2="145" y2="177" fill="rgb(0, 0, 0)" stroke="rgb(66, 66, 66)" stroke-width="1px" opacity="0.25"></line><line x1="169.16666666666669" y1="0" x2="169.16666666666669" y2="177" fill="rgb(0, 0, 0)" stroke="rgb(66, 66, 66)" stroke-width="1px" opacity="0.25"></line><line x1="193.33333333333331" y1="0" x2="193.33333333333331" y2="177" fill="rgb(0, 0, 0)" stroke="rgb(66, 66, 66)" stroke-width="1px" opacity="0.25"></line><line x1="217.5" y1="0" x2="217.5" y2="177" fill="rgb(0, 0, 0)" stroke="rgb(66, 66, 66)" stroke-width="1px" opacity="0.25"></line><line x1="241.66666666666669" y1="0" x2="241.66666666666669" y2="177" fill="rgb(0, 0, 0)" stroke="rgb(66, 66, 66)" stroke-width="1px" opacity="0.25"></line><line x1="265.8333333333333" y1="0" x2="265.8333333333333" y2="177" fill="rgb(0, 0, 0)" stroke="rgb(66, 66, 66)" stroke-width="1px" opacity="0.25"></line><line x1="290" y1="0" x2="290" y2="177" fill="rgb(0, 0, 0)" stroke="rgb(66, 66, 66)" stroke-width="1px" opacity="0.25"></line></g><g><line x1="0" y1="177" x2="290" y2="177" fill="rgb(0, 0, 0)" stroke="rgb(66, 66, 66)" stroke-width="1px" opacity="0.25"></line><line x1="0" y1="163.3846153846154" x2="290" y2="163.3846153846154" fill="rgb(0, 0, 0)" stroke="rgb(66, 66, 66)" stroke-width="1px" opacity="0.25"></line><line x1="0" y1="149.76923076923077" x2="290" y2="149.76923076923077" fill="rgb(0, 0, 0)" stroke="rgb(66, 66, 66)" stroke-width="1px" opacity="0.25"></line><line x1="0" y1="136.15384615384616" x2="290" y2="136.15384615384616" fill="rgb(0, 0, 0)" stroke="rgb(66, 66, 66)" stroke-width="1px" opacity="0.25"></line><line x1="0" y1="122.53846153846153" x2="290" y2="122.53846153846153" fill="rgb(0, 0, 0)" stroke="rgb(66, 66, 66)" stroke-width="1px" opacity="0.25"></line><line x1="0" y1="108.92307692307693" x2="290" y2="108.92307692307693" fill="rgb(0, 0, 0)" stroke="rgb(66, 66, 66)" stroke-width="1px" opacity="0.25"></line><line x1="0" y1="95.30769230769232" x2="290" y2="95.30769230769232" fill="rgb(0, 0, 0)" stroke="rgb(66, 66, 66)" stroke-width="1px" opacity="0.25"></line><line x1="0" y1="81.6923076923077" x2="290" y2="81.6923076923077" fill="rgb(0, 0, 0)" stroke="rgb(66, 66, 66)" stroke-width="1px" opacity="0.25"></line><line x1="0" y1="68.07692307692307" x2="290" y2="68.07692307692307" fill="rgb(0, 0, 0)" stroke="rgb(66, 66, 66)" stroke-width="1px" opacity="0.25"></line><line x1="0" y1="54.46153846153847" x2="290" y2="54.46153846153847" fill="rgb(0, 0, 0)" stroke="rgb(66, 66, 66)" stroke-width="1px" opacity="0.25"></line><line x1="0" y1="40.84615384615386" x2="290" y2="40.84615384615386" fill="rgb(0, 0, 0)" stroke="rgb(66, 66, 66)" stroke-width="1px" opacity="0.25"></line><line x1="0" y1="27.230769230769234" x2="290" y2="27.230769230769234" fill="rgb(0, 0, 0)" stroke="rgb(66, 66, 66)" stroke-width="1px" opacity="0.25"></line><line x1="0" y1="13.615384615384626" x2="290" y2="13.615384615384626" fill="rgb(0, 0, 0)" stroke="rgb(66, 66, 66)" stroke-width="1px" opacity="0.25"></line><line x1="0" y1="0" x2="290" y2="0" fill="rgb(0, 0, 0)" stroke="rgb(66, 66, 66)" stroke-width="1px" opacity="0.25"></line></g></g></g><g><g><line x1="0" y1="177" x2="290" y2="177" fill="rgb(0, 0, 0)" stroke="rgb(153, 153, 153)" stroke-width="1.5px"></line></g></g><g><g><line x1="24.166666666666664" y1="0" x2="24.166666666666664" y2="177" fill="rgb(0, 0, 0)" stroke="rgb(153, 153, 153)" stroke-width="1.5px"></line></g></g><g><g><g><g><g><path stroke="rgb(255, 112, 67)" stroke-width="2px" d="M33.833333333333336,-20.156041590782195L35.041666666666664,1.265797363996395L36.25,19.861669518882508L37.458333333333336,36.665220174371065L38.666666666666664,51.089949722310195L39.875,63.107772507465796L41.083333333333336,73.54601574946943L42.29166666666667,82.95815972937953L43.5,90.94861797479922L44.708333333333336,96.86809513217653L45.916666666666664,102.09295287454306L47.125,106.82195373516076L48.33333333333333,110.86484216870718L49.541666666666664,114.91129912244L50.75,118.28568006038387L51.958333333333336,121.60091597476406L53.166666666666664,124.05177942766868L54.375,126.57319227498323L55.583333333333336,128.31946888222308L56.791666666666664,129.91045142935107L58,131.74257201908537L59.208333333333336,132.88039373025748L60.41666666666667,134.48771662696197L61.625,136.16375310068898L62.833333333333336,136.73975200881503L64.04166666666667,137.83267434784324L65.25,139.34802244871716L66.45833333333333,140.13583786750345L67.66666666666667,141.41273177049422L68.875,142.17355819992187L70.08333333333333,143.13341346637085L71.29166666666666,144.32441726180048L72.5,145.13658776581215L73.70833333333333,145.7036393081657L74.91666666666667,146.5167003136087L76.125,147.21804177221065L77.33333333333333,147.6787484540562L78.54166666666666,148.32777246379436L79.75,148.96290500031913L80.95833333333333,149.73286483008528L82.16666666666667,150.14140973510985L83.375,150.51456606585288L84.58333333333334,150.96230455297015L85.79166666666667,151.50612955311382L87,151.99278813566366L88.20833333333333,152.35786247691448L89.41666666666667,152.6562684057917L90.625,153.15201794653672L91.83333333333333,153.49792473414502L93.04166666666667,153.61409587662337L94.25,154.0720742725464L95.45833333333333,154.5024311248189L96.66666666666666,154.72058030985153L97.875,155.0975466523219L99.08333333333333,155.52974728986592L100.29166666666667,156.33367036451958L101.5,156.68373098956198L102.70833333333334,157.00552699512082L103.91666666666667,157.43640615485995L105.125,157.2284027453833L106.33333333333333,157.4935059827816L107.54166666666667,157.6395167363115L108.75,157.97668071564144L109.95833333333333,158.19951999631726L111.16666666666667,158.39672495943472L112.375,158.43144631582416L113.58333333333333,158.55829711353454L114.79166666666666,158.76054041052953L116,159.22675768505897L117.20833333333333,159.63540404513603L118.41666666666667,159.93549214747165L119.625,160.01761483426552L120.83333333333334,160.00456256755663L122.04166666666667,160.27878523750954L123.25,160.6217972157048L124.45833333333333,161.16040282171232L125.66666666666667,161.13122506754968L126.875,161.2701318257707L128.08333333333334,161.31557370890815L129.29166666666669,161.44239452834557L130.5,161.85347781485007L131.70833333333334,161.78610516088463L132.91666666666666,161.89183467693712L134.125,162.2781493213904L135.33333333333334,162.47005334364778L136.54166666666666,162.54984953095192L137.75,162.74125542510737L138.95833333333334,162.77458015794912L140.16666666666666,162.72862964973984L141.375,162.70283783508256L142.58333333333331,162.75674861872557L143.79166666666666,163.03935500413488L145,162.97869990449414L146.20833333333334,163.32749423905355L147.41666666666666,163.40255751601268L148.625,163.4896206837839L149.83333333333334,163.53368799808072L151.04166666666669,163.79301890776333L152.25,164.01164125689868L153.45833333333334,164.13994303151142L154.66666666666666,164.18399828876636L155.875,164.07537533488298L157.08333333333331,164.24993377300572L158.29166666666666,164.560143095641L159.5,164.39050611812576L160.70833333333334,164.41669732307616L161.91666666666666,164.542221951337L163.125,164.7812751005277L164.33333333333334,164.9192672363263L165.54166666666666,165.07130231301346L166.75,164.9151022112941L167.95833333333334,164.85687607662257L169.16666666666669,165.2091128174034L170.375,165.2853249034807L171.58333333333334,165.49333178391743L172.79166666666666,165.5625514975323L174,165.6323253291604L175.20833333333331,165.60165092216474L176.41666666666666,165.62746385531474L177.625,165.57363431791114L178.83333333333334,165.82522592352694L180.04166666666666,165.91217633728306L181.25,165.79697129605987L182.45833333333334,165.91228943890064L183.66666666666666,166.0393902075907L184.875,166.3285525499127L186.08333333333334,166.29664427068803L187.29166666666669,166.55917637272552L188.5,166.431187689034L189.70833333333334,166.5883428425267L190.91666666666666,166.72281447657608L192.125,166.8708707098377L193.33333333333331,166.80098139577078L194.54166666666666,166.67882787371076L195.75,166.90699168691137L196.95833333333334,167.1196679433668L198.16666666666666,167.1291560552959L199.375,167.21713787772003L200.58333333333334,167.34154782522214L201.79166666666666,167.28205797203248L203,167.12012371267826L204.20833333333334,167.1583637641014L205.41666666666669,167.29621295516236L206.625,167.28937996855106L207.83333333333334,167.20013257109176L209.04166666666666,167.55866921413846L210.25,167.53704424000512L211.45833333333331,167.7430580936292L212.66666666666666,167.6890421756022L213.875,167.75384418057877L215.08333333333334,167.91339613086316L216.29166666666666,167.91827700281252L217.5,167.8824841043919L218.70833333333334,167.99040398093555L219.91666666666666,168.06972751626714L221.125,168.03029531649508L222.33333333333334,168.186884747722L223.54166666666669,168.16117153434192L224.75,168.2911634882079L225.95833333333334,168.39944533942858L227.16666666666666,168.27789736284814L228.375,168.24777934937387L229.58333333333331,168.10809356701063L230.79166666666666,168.3136775227748L232,168.34593799077874L233.20833333333334,168.40226276641823L234.41666666666666,168.71598826694242L235.625,168.59366418903642L236.83333333333334,168.65608545212217L238.04166666666666,168.769134190627L239.25,168.7654488914437L240.45833333333334,168.7760971744792L241.66666666666669,168.62220777355327L242.875,168.86840364872265L244.08333333333334,168.99645958451353L245.29166666666666,168.9133503470985L246.5,169.04335111743754L247.70833333333331,168.99545431080463L248.91666666666666,169.02155240144137L250.125,169.14533153449364L251.33333333333334,169.2081700942027L252.54166666666666,169.19146169380224L253.75,169.10291507061922L254.95833333333334,169.35649612262424L256.1666666666667,169.3472744557901L257.375,169.29510447422984L258.58333333333337,169.38718073346257L259.7916666666667,169.61536610360994L261,169.58059072910305L262.2083333333333,169.59742195076265L263.4166666666667,169.59564744539662L264.625,169.6441491807419" style="fill: none;" fill="none"></path></g></g></g></g><g opacity="0.2"><g><g><g><path stroke="rgb(255, 112, 67)" stroke-width="2px" d="M32.625,-1.0626404285430908L33.833333333333336,18.644687285790088L35.041666666666664,33.07473162504344L36.25,47.58681455942302L37.458333333333336,61.779101976981536L38.666666666666664,72.67994479949658L39.875,81.1109625192789L41.083333333333336,89.1911108493805L42.29166666666667,97.06973752608666L43.5,102.93092404879057L44.708333333333336,105.7458079136335L45.916666666666664,109.92944353360397L47.125,113.91502277667706L48.33333333333333,116.92895309741681L49.541666666666664,120.98085140264952L50.75,123.34718484603441L51.958333333333336,126.57373057420438L53.166666666666664,127.72805718733714L54.375,130.35530079328095L55.583333333333336,130.93887932483966L56.791666666666664,132.29692280751007L58,134.4907512160448L59.208333333333336,134.5871256681589L60.41666666666667,136.89870043901297L61.625,138.67780747780432L62.833333333333336,137.6037503022414L64.04166666666667,139.47205777810169L65.25,141.6210445349033L66.45833333333333,141.3175609753682L67.66666666666667,143.32807260522475L68.875,143.3147978370006L70.08333333333333,144.57319636069812L71.29166666666666,146.1109229509647L72.5,146.35484352020117L73.70833333333333,146.55421662101378L74.91666666666667,147.73629182118637L76.125,148.27005395980981L77.33333333333333,148.36980847670483L78.54166666666666,149.3013084783004L79.75,149.9156038050468L80.95833333333333,150.88780457469133L82.16666666666667,150.7542270926329L83.375,151.07430056195992L84.58333333333334,151.63391228364063L85.79166666666667,152.32186705332535L87,152.72277600948627L88.20833333333333,152.9054739887898L89.41666666666667,153.10387729910704L90.625,153.89564225765375L91.83333333333333,154.01678491555728L93.04166666666667,153.78835259034085L94.25,154.7590418664309L95.45833333333333,155.14796640322757L96.66666666666666,155.04780408740044L97.875,155.6629961660275L99.08333333333333,156.17804824618193L100.29166666666667,157.5395549765L101.5,157.20882192712563L102.70833333333334,157.48822100345905L103.91666666666667,158.0827248944686L105.125,156.91639763116837L106.33333333333333,157.89116083887907L107.54166666666667,157.85853286660634L108.75,158.48242668463635L109.95833333333333,158.53377891733098L111.16666666666667,158.69253240411098L112.375,158.48352835040825L113.58333333333333,158.7485733101001L114.79166666666666,159.06390535602202L116,159.92608359685312L117.20833333333333,160.24837358525167L118.41666666666667,160.38562430097508L119.625,160.14079886445631L120.83333333333334,159.9849841674933L122.04166666666667,160.6901192424389L123.25,161.13631518299763L124.45833333333333,161.96831123072369L125.66666666666667,161.0874584363057L126.875,161.47849196310227L128.08333333333334,161.3837365336143L129.29166666666669,161.63262575750167L130.5,162.47010274460683L131.70833333333334,161.68504617993648L132.91666666666666,162.05042895101585L134.125,162.8576212880703L135.33333333333334,162.75790937703388L136.54166666666666,162.66954381190814L137.75,163.02836426634056L138.95833333333334,162.82456725721175L140.16666666666666,162.65970388742593L141.375,162.6641501130966L142.58333333333331,162.8376147941901L143.79166666666666,163.46326458224883L145,162.88771725503298L146.20833333333334,163.85068574089271L147.41666666666666,163.51515243145136L148.625,163.6202154354407L149.83333333333334,163.59978896952592L151.04166666666669,164.18201527228723L152.25,164.33957478060174L153.45833333333334,164.33239569343053L154.66666666666666,164.25008117464873L155.875,163.91244090405795L157.08333333333331,164.51177143018978L158.29166666666666,165.02545707959396L159.5,164.1360506518529L160.70833333333334,164.45598413050175L161.91666666666666,164.73050889372826L163.125,165.13985482431374L164.33333333333334,165.12625544002424L165.54166666666666,165.29935492804418L166.75,164.6808020587151L167.95833333333334,164.76953687461523L169.16666666666669,165.73746792857463L170.375,165.39964303259666L171.58333333333334,165.80534210457253L172.79166666666666,165.66638106795457L174,165.73698607660256L175.20833333333331,165.55563931167126L176.41666666666666,165.66618325503973L177.625,165.49289001180577L178.83333333333334,166.20261333195063L180.04166666666666,166.0426019579172L181.25,165.62416373422514L182.45833333333334,166.08526665316177L183.66666666666666,166.23004136062585L184.875,166.76229606339564L186.08333333333334,166.24878185185102L187.29166666666669,166.95297452578177L188.5,166.23920466349674L189.70833333333334,166.8240755727658L190.91666666666666,166.92452192765015L192.125,167.0929550597301L193.33333333333331,166.69614742467036L194.54166666666666,166.4955975906207L195.75,167.2492374067123L196.95833333333334,167.43868232804996L198.16666666666666,167.1433882231896L199.375,167.34911061135622L200.58333333333334,167.5281627464753L201.79166666666666,167.19282319224797L203,166.87722232364692L204.20833333333334,167.21572384123618L205.41666666666669,167.50298674175372L206.625,167.2791304886341L207.83333333333334,167.0662614749028L209.04166666666666,168.09647417870852L210.25,167.50460677880508L211.45833333333331,168.05207887406533L212.66666666666666,167.60801829856175L213.875,167.8510471880436L215.08333333333334,168.15272405628974L216.29166666666666,167.92559831073652L217.5,167.82879475676097L218.70833333333334,168.15228379575106L219.91666666666666,168.18871281926448L221.125,167.97114701683705L222.33333333333334,168.42176889456235L223.54166666666669,168.12260171427178L224.75,168.48615141900686L225.95833333333334,168.56186811625957L227.16666666666666,168.09557539797746L228.375,168.20260232916246L229.58333333333331,167.89856489346576L230.79166666666666,168.62205345642107L232,168.39432869278468L233.20833333333334,168.48674992987742L234.41666666666666,169.18657651772867L235.625,168.41017807217744L236.83333333333334,168.74971734675077L238.04166666666666,168.93870729838426L239.25,168.75992094266874L240.45833333333334,168.7920695990324L241.66666666666669,168.3913736721644L242.875,169.2376974614767L244.08333333333334,169.18854348819988L245.29166666666666,168.7886864909759L246.5,169.23835227294612L247.70833333333331,168.92360910085532L248.91666666666666,169.06069953739643L250.125,169.33100023407204L251.33333333333334,169.3024279337663L252.54166666666666,169.16639909320153L253.75,168.97009513584467L254.95833333333334,169.7368677006318L256.1666666666667,169.3334419555389L257.375,169.21684950188947L258.58333333333337,169.52529512231166L259.7916666666667,169.95764415883102L261,169.5284276673427L262.2083333333333,169.62266878325207L263.4166666666667,169.59298568734755L264.625,169.71690178375977" style="fill: none;" fill="none"></path></g></g></g></g></g></g><g transform="translate(40, 177)" clip-path="url(#clip_1)"><clipPath id="clip_1"><rect width="290" height="23"></rect></clipPath><g><g><line x1="0" y1="0" x2="0" y2="5" style="visibility: inherit;" fill="rgb(0, 0, 0)" stroke="rgb(204, 204, 204)" stroke-width="1px"></line><line x1="24.166666666666664" y1="0" x2="24.166666666666664" y2="5" style="visibility: inherit;" fill="rgb(0, 0, 0)" stroke="rgb(204, 204, 204)" stroke-width="1px"></line><line x1="48.33333333333333" y1="0" x2="48.33333333333333" y2="5" style="visibility: inherit;" fill="rgb(0, 0, 0)" stroke="rgb(204, 204, 204)" stroke-width="1px"></line><line x1="72.5" y1="0" x2="72.5" y2="5" style="visibility: inherit;" fill="rgb(0, 0, 0)" stroke="rgb(204, 204, 204)" stroke-width="1px"></line><line x1="96.66666666666666" y1="0" x2="96.66666666666666" y2="5" style="visibility: inherit;" fill="rgb(0, 0, 0)" stroke="rgb(204, 204, 204)" stroke-width="1px"></line><line x1="120.83333333333334" y1="0" x2="120.83333333333334" y2="5" style="visibility: inherit;" fill="rgb(0, 0, 0)" stroke="rgb(204, 204, 204)" stroke-width="1px"></line><line x1="145" y1="0" x2="145" y2="5" style="visibility: inherit;" fill="rgb(0, 0, 0)" stroke="rgb(204, 204, 204)" stroke-width="1px"></line><line x1="169.16666666666669" y1="0" x2="169.16666666666669" y2="5" style="visibility: inherit;" fill="rgb(0, 0, 0)" stroke="rgb(204, 204, 204)" stroke-width="1px"></line><line x1="193.33333333333331" y1="0" x2="193.33333333333331" y2="5" style="visibility: inherit;" fill="rgb(0, 0, 0)" stroke="rgb(204, 204, 204)" stroke-width="1px"></line><line x1="217.5" y1="0" x2="217.5" y2="5" style="visibility: inherit;" fill="rgb(0, 0, 0)" stroke="rgb(204, 204, 204)" stroke-width="1px"></line><line x1="241.66666666666669" y1="0" x2="241.66666666666669" y2="5" style="visibility: inherit;" fill="rgb(0, 0, 0)" stroke="rgb(204, 204, 204)" stroke-width="1px"></line><line x1="265.8333333333333" y1="0" x2="265.8333333333333" y2="5" style="visibility: inherit;" fill="rgb(0, 0, 0)" stroke="rgb(204, 204, 204)" stroke-width="1px"></line><line x1="290" y1="0" x2="290" y2="5" style="visibility: inherit;" fill="rgb(0, 0, 0)" stroke="rgb(204, 204, 204)" stroke-width="1px"></line></g><g transform="translate(0, 8)"><text x="0" y="0" dx="0em" dy="0.95em" style="text-anchor: middle; visibility: hidden; font-family: Roboto, sans-serif; font-size: 12px; font-weight: 200;" fill="rgb(33, 33, 33)" stroke="none" stroke-width="1px">-20</text><text x="24.166666666666664" y="0" dx="0em" dy="0.95em" style="text-anchor: middle; visibility: inherit; font-family: Roboto, sans-serif; font-size: 12px; font-weight: 200;" fill="rgb(33, 33, 33)" stroke="none" stroke-width="1px">0</text><text x="48.33333333333333" y="0" dx="0em" dy="0.95em" style="text-anchor: middle; visibility: hidden; font-family: Roboto, sans-serif; font-size: 12px; font-weight: 200;" fill="rgb(33, 33, 33)" stroke="none" stroke-width="1px">20</text><text x="72.5" y="0" dx="0em" dy="0.95em" style="text-anchor: middle; visibility: inherit; font-family: Roboto, sans-serif; font-size: 12px; font-weight: 200;" fill="rgb(33, 33, 33)" stroke="none" stroke-width="1px">40</text><text x="96.66666666666666" y="0" dx="0em" dy="0.95em" style="text-anchor: middle; visibility: hidden; font-family: Roboto, sans-serif; font-size: 12px; font-weight: 200;" fill="rgb(33, 33, 33)" stroke="none" stroke-width="1px">60</text><text x="120.83333333333334" y="0" dx="0em" dy="0.95em" style="text-anchor: middle; visibility: inherit; font-family: Roboto, sans-serif; font-size: 12px; font-weight: 200;" fill="rgb(33, 33, 33)" stroke="none" stroke-width="1px">80</text><text x="145" y="0" dx="0em" dy="0.95em" style="text-anchor: middle; visibility: hidden; font-family: Roboto, sans-serif; font-size: 12px; font-weight: 200;" fill="rgb(33, 33, 33)" stroke="none" stroke-width="1px">100</text><text x="169.16666666666669" y="0" dx="0em" dy="0.95em" style="text-anchor: middle; visibility: inherit; font-family: Roboto, sans-serif; font-size: 12px; font-weight: 200;" fill="rgb(33, 33, 33)" stroke="none" stroke-width="1px">120</text><text x="193.33333333333331" y="0" dx="0em" dy="0.95em" style="text-anchor: middle; visibility: hidden; font-family: Roboto, sans-serif; font-size: 12px; font-weight: 200;" fill="rgb(33, 33, 33)" stroke="none" stroke-width="1px">140</text><text x="217.5" y="0" dx="0em" dy="0.95em" style="text-anchor: middle; visibility: inherit; font-family: Roboto, sans-serif; font-size: 12px; font-weight: 200;" fill="rgb(33, 33, 33)" stroke="none" stroke-width="1px">160</text><text x="241.66666666666669" y="0" dx="0em" dy="0.95em" style="text-anchor: middle; visibility: hidden; font-family: Roboto, sans-serif; font-size: 12px; font-weight: 200;" fill="rgb(33, 33, 33)" stroke="none" stroke-width="1px">180</text><text x="265.8333333333333" y="0" dx="0em" dy="0.95em" style="text-anchor: middle; visibility: inherit; font-family: Roboto, sans-serif; font-size: 12px; font-weight: 200;" fill="rgb(33, 33, 33)" stroke="none" stroke-width="1px">200</text><text x="290" y="0" dx="0em" dy="0.95em" style="text-anchor: middle; visibility: hidden; font-family: Roboto, sans-serif; font-size: 12px; font-weight: 200;" fill="rgb(33, 33, 33)" stroke="none" stroke-width="1px">220</text></g><line x1="0" y1="0" x2="290" y2="0" fill="rgb(0, 0, 0)" stroke="rgb(204, 204, 204)" stroke-width="1px"></line></g></g></g></g></svg>