<svg viewBox="0 0 1007.4000244140625 400" xmlns="http://www.w3.org/2000/svg"><g><g><g><g><g><line x1="40" y1="377" x2="35" y2="377" style="visibility: inherit;" fill="rgb(0, 0, 0)" stroke="rgb(204, 204, 204)" stroke-width="1px"></line><line x1="40" y1="348" x2="35" y2="348" style="visibility: inherit;" fill="rgb(0, 0, 0)" stroke="rgb(204, 204, 204)" stroke-width="1px"></line><line x1="40" y1="319" x2="35" y2="319" style="visibility: inherit;" fill="rgb(0, 0, 0)" stroke="rgb(204, 204, 204)" stroke-width="1px"></line><line x1="40" y1="290" x2="35" y2="290" style="visibility: inherit;" fill="rgb(0, 0, 0)" stroke="rgb(204, 204, 204)" stroke-width="1px"></line><line x1="40" y1="261" x2="35" y2="261" style="visibility: inherit;" fill="rgb(0, 0, 0)" stroke="rgb(204, 204, 204)" stroke-width="1px"></line><line x1="40" y1="232" x2="35" y2="232" style="visibility: inherit;" fill="rgb(0, 0, 0)" stroke="rgb(204, 204, 204)" stroke-width="1px"></line><line x1="40" y1="203.00000000000003" x2="35" y2="203.00000000000003" style="visibility: inherit;" fill="rgb(0, 0, 0)" stroke="rgb(204, 204, 204)" stroke-width="1px"></line><line x1="40" y1="174" x2="35" y2="174" style="visibility: inherit;" fill="rgb(0, 0, 0)" stroke="rgb(204, 204, 204)" stroke-width="1px"></line><line x1="40" y1="145" x2="35" y2="145" style="visibility: inherit;" fill="rgb(0, 0, 0)" stroke="rgb(204, 204, 204)" stroke-width="1px"></line><line x1="40" y1="116" x2="35" y2="116" style="visibility: inherit;" fill="rgb(0, 0, 0)" stroke="rgb(204, 204, 204)" stroke-width="1px"></line><line x1="40" y1="87.00000000000003" x2="35" y2="87.00000000000003" style="visibility: inherit;" fill="rgb(0, 0, 0)" stroke="rgb(204, 204, 204)" stroke-width="1px"></line><line x1="40" y1="58" x2="35" y2="58" style="visibility: inherit;" fill="rgb(0, 0, 0)" stroke="rgb(204, 204, 204)" stroke-width="1px"></line><line x1="40" y1="29.00000000000002" x2="35" y2="29.00000000000002" style="visibility: inherit;" fill="rgb(0, 0, 0)" stroke="rgb(204, 204, 204)" stroke-width="1px"></line><line x1="40" y1="0" x2="35" y2="0" style="visibility: inherit;" fill="rgb(0, 0, 0)" stroke="rgb(204, 204, 204)" stroke-width="1px"></line></g><g transform="translate(30, 0)"><text x="0" y="377" dx="0em" dy="0.3em" style="text-anchor: end; visibility: hidden; font-family: Roboto, sans-serif; font-size: 12px; font-weight: 200;" fill="rgb(33, 33, 33)" stroke="none" stroke-width="1px">0</text><text x="0" y="348" dx="0em" dy="0.3em" style="text-anchor: end; visibility: inherit; font-family: Roboto, sans-serif; font-size: 12px; font-weight: 200;" fill="rgb(33, 33, 33)" stroke="none" stroke-width="1px">0.1</text><text x="0" y="319" dx="0em" dy="0.3em" style="text-anchor: end; visibility: inherit; font-family: Roboto, sans-serif; font-size: 12px; font-weight: 200;" fill="rgb(33, 33, 33)" stroke="none" stroke-width="1px">0.2</text><text x="0" y="290" dx="0em" dy="0.3em" style="text-anchor: end; visibility: inherit; font-family: Roboto, sans-serif; font-size: 12px; font-weight: 200;" fill="rgb(33, 33, 33)" stroke="none" stroke-width="1px">0.3</text><text x="0" y="261" dx="0em" dy="0.3em" style="text-anchor: end; visibility: inherit; font-family: Roboto, sans-serif; font-size: 12px; font-weight: 200;" fill="rgb(33, 33, 33)" stroke="none" stroke-width="1px">0.4</text><text x="0" y="232" dx="0em" dy="0.3em" style="text-anchor: end; visibility: inherit; font-family: Roboto, sans-serif; font-size: 12px; font-weight: 200;" fill="rgb(33, 33, 33)" stroke="none" stroke-width="1px">0.5</text><text x="0" y="203.00000000000003" dx="0em" dy="0.3em" style="text-anchor: end; visibility: inherit; font-family: Roboto, sans-serif; font-size: 12px; font-weight: 200;" fill="rgb(33, 33, 33)" stroke="none" stroke-width="1px">0.6</text><text x="0" y="174" dx="0em" dy="0.3em" style="text-anchor: end; visibility: inherit; font-family: Roboto, sans-serif; font-size: 12px; font-weight: 200;" fill="rgb(33, 33, 33)" stroke="none" stroke-width="1px">0.7</text><text x="0" y="145" dx="0em" dy="0.3em" style="text-anchor: end; visibility: inherit; font-family: Roboto, sans-serif; font-size: 12px; font-weight: 200;" fill="rgb(33, 33, 33)" stroke="none" stroke-width="1px">0.8</text><text x="0" y="116" dx="0em" dy="0.3em" style="text-anchor: end; visibility: inherit; font-family: Roboto, sans-serif; font-size: 12px; font-weight: 200;" fill="rgb(33, 33, 33)" stroke="none" stroke-width="1px">0.9</text><text x="0" y="87.00000000000003" dx="0em" dy="0.3em" style="text-anchor: end; visibility: inherit; font-family: Roboto, sans-serif; font-size: 12px; font-weight: 200;" fill="rgb(33, 33, 33)" stroke="none" stroke-width="1px">1</text><text x="0" y="58" dx="0em" dy="0.3em" style="text-anchor: end; visibility: inherit; font-family: Roboto, sans-serif; font-size: 12px; font-weight: 200;" fill="rgb(33, 33, 33)" stroke="none" stroke-width="1px">1.1</text><text x="0" y="29.00000000000002" dx="0em" dy="0.3em" style="text-anchor: end; visibility: inherit; font-family: Roboto, sans-serif; font-size: 12px; font-weight: 200;" fill="rgb(33, 33, 33)" stroke="none" stroke-width="1px">1.2</text><text x="0" y="0" dx="0em" dy="0.3em" style="text-anchor: end; visibility: hidden; font-family: Roboto, sans-serif; font-size: 12px; font-weight: 200;" fill="rgb(33, 33, 33)" stroke="none" stroke-width="1px">1.3</text></g><line x1="40" y1="0" x2="40" y2="377" fill="rgb(0, 0, 0)" stroke="rgb(204, 204, 204)" stroke-width="1px"></line></g></g><g transform="translate(40, 0)" clip-path="url(#clip_0)"><clipPath id="clip_0"><rect width="967" height="377"></rect></clipPath><g><g><g><line x1="0" y1="0" x2="0" y2="377" fill="rgb(0, 0, 0)" stroke="rgb(66, 66, 66)" stroke-width="1px" opacity="0.25"></line><line x1="80.61666666666666" y1="0" x2="80.61666666666666" y2="377" fill="rgb(0, 0, 0)" stroke="rgb(66, 66, 66)" stroke-width="1px" opacity="0.25"></line><line x1="161.23333333333332" y1="0" x2="161.23333333333332" y2="377" fill="rgb(0, 0, 0)" stroke="rgb(66, 66, 66)" stroke-width="1px" opacity="0.25"></line><line x1="241.85" y1="0" x2="241.85" y2="377" fill="rgb(0, 0, 0)" stroke="rgb(66, 66, 66)" stroke-width="1px" opacity="0.25"></line><line x1="322.46666666666664" y1="0" x2="322.46666666666664" y2="377" fill="rgb(0, 0, 0)" stroke="rgb(66, 66, 66)" stroke-width="1px" opacity="0.25"></line><line x1="403.0833333333333" y1="0" x2="403.0833333333333" y2="377" fill="rgb(0, 0, 0)" stroke="rgb(66, 66, 66)" stroke-width="1px" opacity="0.25"></line><line x1="483.7" y1="0" x2="483.7" y2="377" fill="rgb(0, 0, 0)" stroke="rgb(66, 66, 66)" stroke-width="1px" opacity="0.25"></line><line x1="564.3166666666667" y1="0" x2="564.3166666666667" y2="377" fill="rgb(0, 0, 0)" stroke="rgb(66, 66, 66)" stroke-width="1px" opacity="0.25"></line><line x1="644.9333333333333" y1="0" x2="644.9333333333333" y2="377" fill="rgb(0, 0, 0)" stroke="rgb(66, 66, 66)" stroke-width="1px" opacity="0.25"></line><line x1="725.55" y1="0" x2="725.55" y2="377" fill="rgb(0, 0, 0)" stroke="rgb(66, 66, 66)" stroke-width="1px" opacity="0.25"></line><line x1="806.1666666666666" y1="0" x2="806.1666666666666" y2="377" fill="rgb(0, 0, 0)" stroke="rgb(66, 66, 66)" stroke-width="1px" opacity="0.25"></line><line x1="886.7833333333333" y1="0" x2="886.7833333333333" y2="377" fill="rgb(0, 0, 0)" stroke="rgb(66, 66, 66)" stroke-width="1px" opacity="0.25"></line><line x1="967.4" y1="0" x2="967.4" y2="377" fill="rgb(0, 0, 0)" stroke="rgb(66, 66, 66)" stroke-width="1px" opacity="0.25"></line></g><g><line x1="0" y1="377" x2="967.4" y2="377" fill="rgb(0, 0, 0)" stroke="rgb(66, 66, 66)" stroke-width="1px" opacity="0.25"></line><line x1="0" y1="348" x2="967.4" y2="348" fill="rgb(0, 0, 0)" stroke="rgb(66, 66, 66)" stroke-width="1px" opacity="0.25"></line><line x1="0" y1="319" x2="967.4" y2="319" fill="rgb(0, 0, 0)" stroke="rgb(66, 66, 66)" stroke-width="1px" opacity="0.25"></line><line x1="0" y1="290" x2="967.4" y2="290" fill="rgb(0, 0, 0)" stroke="rgb(66, 66, 66)" stroke-width="1px" opacity="0.25"></line><line x1="0" y1="261" x2="967.4" y2="261" fill="rgb(0, 0, 0)" stroke="rgb(66, 66, 66)" stroke-width="1px" opacity="0.25"></line><line x1="0" y1="232" x2="967.4" y2="232" fill="rgb(0, 0, 0)" stroke="rgb(66, 66, 66)" stroke-width="1px" opacity="0.25"></line><line x1="0" y1="203.00000000000003" x2="967.4" y2="203.00000000000003" fill="rgb(0, 0, 0)" stroke="rgb(66, 66, 66)" stroke-width="1px" opacity="0.25"></line><line x1="0" y1="174" x2="967.4" y2="174" fill="rgb(0, 0, 0)" stroke="rgb(66, 66, 66)" stroke-width="1px" opacity="0.25"></line><line x1="0" y1="145" x2="967.4" y2="145" fill="rgb(0, 0, 0)" stroke="rgb(66, 66, 66)" stroke-width="1px" opacity="0.25"></line><line x1="0" y1="116" x2="967.4" y2="116" fill="rgb(0, 0, 0)" stroke="rgb(66, 66, 66)" stroke-width="1px" opacity="0.25"></line><line x1="0" y1="87.00000000000003" x2="967.4" y2="87.00000000000003" fill="rgb(0, 0, 0)" stroke="rgb(66, 66, 66)" stroke-width="1px" opacity="0.25"></line><line x1="0" y1="58" x2="967.4" y2="58" fill="rgb(0, 0, 0)" stroke="rgb(66, 66, 66)" stroke-width="1px" opacity="0.25"></line><line x1="0" y1="29.00000000000002" x2="967.4" y2="29.00000000000002" fill="rgb(0, 0, 0)" stroke="rgb(66, 66, 66)" stroke-width="1px" opacity="0.25"></line><line x1="0" y1="0" x2="967.4" y2="0" fill="rgb(0, 0, 0)" stroke="rgb(66, 66, 66)" stroke-width="1px" opacity="0.25"></line></g></g></g><g><g><line x1="0" y1="377" x2="967.4" y2="377" fill="rgb(0, 0, 0)" stroke="rgb(153, 153, 153)" stroke-width="1.5px"></line></g></g><g><g><line x1="80.61666666666666" y1="0" x2="80.61666666666666" y2="377" fill="rgb(0, 0, 0)" stroke="rgb(153, 153, 153)" stroke-width="1.5px"></line></g></g><g><g><g><g><g><path stroke="rgb(255, 112, 67)" stroke-width="2px" d="M112.86333333333333,-42.931229828954166L116.89416666666666,2.6960768713369543L120.925,42.30423394699834L124.95583333333335,78.09484749004459L128.98666666666665,108.8187064706833L133.0175,134.41599003002602L137.04833333333332,156.64885840423716L141.07916666666668,176.69619332189876L145.10999999999999,193.71541794632375L149.14083333333335,206.32356985779973L153.17166666666665,217.45222165933745L157.20250000000001,227.52472631726332L161.23333333333332,236.13585026894128L165.26416666666665,244.75457496700497L169.295,251.94181572183456L173.32583333333332,259.0030809180003L177.35666666666665,264.2232816058254L181.3875,269.5937485179021L185.41833333333335,273.3132190316277L189.44916666666666,276.7019219709907L193.48000000000002,280.6042353174869L197.51083333333332,283.027731278571L201.54166666666666,286.4512382393484L205.5725,290.0211012370607L209.60333333333332,291.247946369058L213.63416666666666,293.57580920416325L217.665,296.8034150461377L221.69583333333333,298.4814173788068L225.72666666666666,301.20112925127864L229.7575,302.82164656141555L233.78833333333333,304.86608404984077L237.81916666666666,307.40285484575577L241.85,309.1327321339615L245.8808333333333,310.3405198823642L249.9116666666667,312.0722938883078L253.9425,313.56611157131874L257.9733333333333,314.5473907750237L262.00416666666666,315.9297752477428L266.035,317.28257166734636L270.06583333333333,318.922542604193L274.09666666666664,319.7927201702622L278.1275,320.5875220724663L282.15833333333336,321.5411797540664L286.18916666666667,322.6994962797961L290.21999999999997,323.7360515657921L294.2508333333333,324.5136392869873L298.2816666666667,325.1492270564038L302.3125,326.20514556974206L306.3433333333333,326.94190748459135L310.37416666666667,327.1893454547288L314.40500000000003,328.1648135635593L318.43583333333333,329.0814493449532L322.46666666666664,329.54609478426005L326.4975,330.3490117961885L330.5283333333333,331.26957473604216L334.55916666666667,332.9818854656716L338.59,333.72749481957555L342.62083333333334,334.4129021308505L346.65166666666664,335.33065039763954L350.6825,334.8876148870594L354.7133333333333,335.4522698051337L358.7441666666667,335.76326446095726L362.775,336.48140468811766L366.8058333333333,336.9560397661673L370.8366666666667,337.3760751960842L374.8675,337.45002972353507L378.8983333333333,337.7202147559465L382.9291666666666,338.1509815523708L386.96000000000004,339.1439980071595L390.99083333333334,340.0143916667587L395.02166666666665,340.6535623706035L399.05249999999995,340.8284790537746L403.0833333333333,340.8006784631009L407.1141666666667,341.3847572572943L411.145,342.1153533916424L415.1758333333333,343.2625529027432L419.20666666666665,343.2004059348375L423.2375,343.4962694820088L427.2683333333333,343.59305812575354L431.2991666666667,343.86317930613717L435.33,344.7387634813473L439.36083333333335,344.5952635347656L443.39166666666665,344.8204614305384L447.4225,345.6432897975377L451.4533333333333,346.0520345229108L455.4841666666666,346.22199589360946L459.515,346.62967963426826L463.54583333333335,346.7006594324679L467.57666666666665,346.6027874460561L471.60749999999996,346.5478523380007L475.6383333333333,346.66267926135333L479.6691666666667,347.2646148958127L483.7,347.1354229604197L487.7308333333333,347.87833518713666L491.7616666666666,348.0382157261965L495.79249999999996,348.22365535472613L499.8233333333334,348.3175162444996L503.8541666666667,348.8698764306597L507.885,349.3355296827729L511.91583333333335,349.6088052140102L515.9466666666666,349.7026404229656L519.9775,349.4712796680841L524.0083333333333,349.84307927922686L528.0391666666666,350.50380761048956L532.07,350.14249043239215L536.1008333333333,350.1982762192074L540.1316666666667,350.4656365856161L544.1625,350.97480628756466L548.1933333333333,351.2687217406498L552.2241666666666,351.5925478644411L556.255,351.2598504726434L560.2858333333334,351.1358320954051L564.3166666666667,351.88607645288744L568.3475,352.0484038904645L572.3783333333333,352.49144679399365L576.4091666666667,352.638880873275L580.4399999999999,352.7874951926185L584.4708333333333,352.7221604387351L588.5016666666666,352.7771405279868L592.5325,352.6624866545339L596.5633333333334,353.19836256028054L600.5941666666666,353.3835620291283L604.625,353.13818180008235L608.6558333333332,353.38380292918384L612.6866666666666,353.65452038565934L616.7175,354.27041983794965L620.7483333333333,354.20245700592875L624.7791666666667,354.7616355509465L628.8100000000001,354.4890268856826L632.8408333333333,354.82375848379985L636.8716666666667,355.11017546705756L640.9024999999999,355.4255268791458L644.9333333333333,355.2766665887321L648.9641666666666,355.01648648807316L652.995,355.5024625195796L657.0258333333334,355.95545093022196L661.0566666666666,355.97566007257944L665.0875,356.16305638361837L669.1183333333333,356.42804254298727L673.1491666666666,356.30133251670196L677.18,355.95642169310565L681.2108333333333,356.03787084218214L685.2416666666667,356.33148183105203L689.2725,356.3169279556144L693.3033333333333,356.1268360412519L697.3341666666666,356.8904988346339L701.365,356.84443886147983L705.3958333333333,357.28323673049834L709.4266666666666,357.16818587684764L713.4575,357.3062104863175L717.4883333333333,357.64604712618876L721.5191666666667,357.6564431076854L725.55,357.5802062562471L729.5808333333333,357.81006949611697L733.6116666666666,357.9790241448176L737.6424999999999,357.895035787111L741.6733333333334,358.22856242876384L745.7041666666667,358.17379473698816L749.735,358.4506702545445L753.7658333333334,358.6813044800258L757.7966666666666,358.4224141570268L761.8275,358.3582644899093L765.8583333333332,358.0607416653277L769.8891666666666,358.49862387619265L773.9200000000001,358.56733685041576L777.9508333333333,358.6873054403371L781.9816666666667,359.3555230318491L786.0124999999999,359.09497965687416L790.0433333333333,359.2279334206218L794.0741666666667,359.4687208467027L798.1049999999999,359.46087136765124L802.1358333333334,359.4835516089189L806.1666666666666,359.1557758792632L810.1975,359.6801591840025L814.2283333333334,359.95291109243846L818.2591666666666,359.7758931121815L822.29,360.0527874083274L826.3208333333333,359.95076991623364L830.3516666666666,360.0063573748214L834.3825,360.26999993505143L838.4133333333333,360.4038425170306L842.4441666666667,360.36825456815507L846.475,360.17965526340924L850.5058333333333,360.71976857756687L854.5366666666666,360.7001269482083L858.5674999999999,360.5890078349416L862.5983333333334,360.7851250650587L866.6291666666667,361.2711470116438L870.66,361.1970774286545L874.6908333333333,361.232926979873L878.7216666666667,361.22914738369786L882.7524999999999,361.33245333977226" style="fill: none;" fill="none"></path></g></g></g></g><g opacity="0.2"><g><g><g><path stroke="rgb(255, 112, 67)" stroke-width="2px" d="M108.8325,-2.26336407661438L112.86333333333333,39.71213054656985L116.89416666666666,70.44730973243716L120.925,101.35722649097445L124.95583333333335,131.58599686622622L128.98666666666665,154.80417621135712L133.0175,172.76176762580874L137.04833333333332,189.97202706336975L141.07916666666668,206.75305676460266L145.10999999999999,219.2370529174805L149.14083333333335,225.2325965166092L153.17166666666665,234.14350402355194L157.20250000000001,242.6325626373291L161.23333333333332,249.05206394195557L165.26416666666665,257.68237841129303L169.295,262.7225349545479L173.32583333333332,269.5948950648308L177.35666666666665,272.05354553461075L181.3875,277.64942598342896L185.41833333333335,278.8924152851105L189.44916666666666,281.784971177578L193.48000000000002,286.4577017426491L197.51083333333332,286.6629738807678L201.54166666666666,291.5864975452423L205.5725,295.37589502334595L209.60333333333332,293.08821392059326L213.63416666666666,297.067603290081L217.665,301.64482367038727L221.69583333333333,300.9984208345413L225.72666666666666,305.2806970179081L229.7575,305.2524225115776L233.78833333333333,307.93274027109146L237.81916666666666,311.2080110311508L241.85,311.72754806280136L245.8808333333333,312.15220150351524L249.9116666666667,314.6699548959732L253.9425,315.80683809518814L257.9733333333333,316.0193095803261L262.00416666666666,318.0033519566059L266.035,319.31176629662514L270.06583333333333,321.3824990093708L274.09666666666664,321.0979865193367L278.1275,321.77972492575645L282.15833333333336,322.9716662764549L286.18916666666667,324.43697106838226L290.21999999999997,325.2908844947815L294.2508333333333,325.68002086877823L298.2816666666667,326.1026087105274L302.3125,327.7890233397484L306.3433333333333,328.04705035686493L310.37416666666667,327.560502409935L314.40500000000003,329.62801572680473L318.43583333333333,330.45640301704407L322.46666666666664,330.24306294322014L326.4975,331.5533873140812L330.5283333333333,332.6504191458225L334.55916666666667,335.5503515601158L338.59,334.84590885043144L342.62083333333334,335.44101309776306L346.65166666666664,336.70727279782295L350.6825,334.2230616211891L354.7133333333333,336.29925218224525L358.7441666666667,336.2297564446926L362.775,337.5586150288582L366.8058333333333,337.66799238324165L370.8366666666667,338.00612834095955L374.8675,337.5609615147114L378.8983333333333,338.1254923045635L382.9291666666666,338.79713174700737L386.96000000000004,340.6335226893425L390.99083333333334,341.3199821561575L395.02166666666665,341.6123184263706L399.05249999999995,341.09085407853127L403.0833333333333,340.75897757709026L407.1141666666667,342.26087544858456L411.145,343.21124759316444L415.1758333333333,344.9833521693945L419.20666666666665,343.1071854829788L423.2375,343.94006480276585L427.2683333333333,343.7382410913706L431.2991666666667,344.2683610767126L435.33,346.05213974416256L439.36083333333335,344.38001361489296L443.39166666666665,345.1582582741976L447.4225,346.87753234803677L451.4533333333333,346.6651516109705L455.4841666666666,346.47693794965744L459.515,347.2412052452564L463.54583333333335,346.8071291297674L467.57666666666665,346.4559794664383L471.60749999999996,346.4654496759176L475.6383333333333,346.83491964638233L479.6691666666667,348.16751834750175L483.7,346.94163505733013L487.7308333333333,348.99270352721214L491.7616666666666,348.2780365347862L495.79249999999996,348.50181479752064L499.8233333333334,348.45830757915974L503.8541666666667,349.6984167098999L507.885,350.03400956094265L511.91583333333335,350.01871851086617L515.9466666666666,349.8433932363987L519.9775,349.12423853576183L524.0083333333333,350.40077869594097L528.0391666666666,351.4949001073837L532.07,349.600514665246L536.1008333333333,350.2819548994303L540.1316666666667,350.8666771352291L544.1625,351.7385608404875L548.1933333333333,351.7095949202776L552.2241666666666,352.078287050128L556.255,350.7608043849468L560.2858333333334,350.9498045295477L564.3166666666667,353.01144298911095L568.3475,352.2918950468302L572.3783333333333,353.1560111492872L576.4091666666667,352.86003199219704L580.4399999999999,353.0104166716337L584.4708333333333,352.62415830790997L588.5016666666666,352.8596106618643L592.5325,352.49050584435463L596.5633333333334,354.0021764189005L600.5941666666666,353.66136123239994L604.625,352.7701114565134L608.6558333333332,353.7522346228361L612.6866666666666,354.0605965703726L616.7175,355.1942690163851L620.7483333333333,354.1005127578974L624.7791666666667,355.60040336847305L628.8100000000001,354.08011388778687L632.8408333333333,355.3258558809757L636.8716666666667,355.5398009419441L640.9024999999999,355.8985539972782L644.9333333333333,355.05337615311146L648.9641666666666,354.62621633708477L652.995,356.2314265668392L657.0258333333334,356.6349335461855L661.0566666666666,356.00597378611565L665.0875,356.4441508501768L669.1183333333333,356.8255217820406L673.1491666666666,356.11126747727394L677.18,355.4390554577112L681.2108333333333,356.16004456579685L685.2416666666667,356.7718983143568L689.2725,356.29509714245796L693.3033333333333,355.84169816970825L697.3341666666666,358.03599302470684L701.365,356.77534890174866L705.3958333333333,357.94143353402615L709.4266666666666,356.99560959637165L713.4575,357.51324740052223L717.4883333333333,358.1558020859957L721.5191666666667,357.6720370799303L725.55,357.46585097908974L729.5808333333333,358.15486435592175L733.6116666666666,358.2324561178684L737.6424999999999,357.7690532505512L741.6733333333334,358.728852391243L745.7041666666667,358.0916431993246L749.735,358.865983530879L753.7658333333334,359.0272558182478L757.7966666666666,358.03407867252827L761.8275,358.262039989233L765.8583333333332,357.61445742845535L769.8891666666666,359.1554471924901L773.9200000000001,358.6704063117504L777.9508333333333,358.86725832521915L781.9816666666667,360.357849419117L786.0124999999999,358.70416459441185L790.0433333333333,359.4273640662432L794.0741666666667,359.8299019858241L798.1049999999999,359.4490971490741L802.1358333333334,359.5175719708204L806.1666666666666,358.66411228477955L810.1975,360.4667341411114L814.2283333333334,360.36203895509243L818.2591666666666,359.5103661417961L822.29,360.4681288525462L826.3208333333333,359.79774367809296L830.3516666666666,360.08973856270313L834.3825,360.66546377539635L838.4133333333333,360.6046063899994L842.4441666666667,360.31487264484167L846.475,359.8967563062906L850.5058333333333,361.52993854880333L854.5366666666666,360.6706645041704L858.5674999999999,360.42232916504145L862.5983333333334,361.07930091023445L866.6291666666667,362.0001799315214L870.66,361.0859730541706L874.6908333333333,361.2867013067007L878.7216666666667,361.2234779894352L882.7524999999999,361.4874122738838" style="fill: none;" fill="none"></path></g></g></g></g></g><g><g><span fill="rgb(0, 0, 0)" stroke="none" stroke-width="1px">Alt + Scroll to Zoom</span></g></g></g><g transform="translate(40, 377)" clip-path="url(#clip_1)"><clipPath id="clip_1"><rect width="967" height="23"></rect></clipPath><g><g><line x1="0" y1="0" x2="0" y2="5" style="visibility: inherit;" fill="rgb(0, 0, 0)" stroke="rgb(204, 204, 204)" stroke-width="1px"></line><line x1="80.61666666666666" y1="0" x2="80.61666666666666" y2="5" style="visibility: inherit;" fill="rgb(0, 0, 0)" stroke="rgb(204, 204, 204)" stroke-width="1px"></line><line x1="161.23333333333332" y1="0" x2="161.23333333333332" y2="5" style="visibility: inherit;" fill="rgb(0, 0, 0)" stroke="rgb(204, 204, 204)" stroke-width="1px"></line><line x1="241.85" y1="0" x2="241.85" y2="5" style="visibility: inherit;" fill="rgb(0, 0, 0)" stroke="rgb(204, 204, 204)" stroke-width="1px"></line><line x1="322.46666666666664" y1="0" x2="322.46666666666664" y2="5" style="visibility: inherit;" fill="rgb(0, 0, 0)" stroke="rgb(204, 204, 204)" stroke-width="1px"></line><line x1="403.0833333333333" y1="0" x2="403.0833333333333" y2="5" style="visibility: inherit;" fill="rgb(0, 0, 0)" stroke="rgb(204, 204, 204)" stroke-width="1px"></line><line x1="483.7" y1="0" x2="483.7" y2="5" style="visibility: inherit;" fill="rgb(0, 0, 0)" stroke="rgb(204, 204, 204)" stroke-width="1px"></line><line x1="564.3166666666667" y1="0" x2="564.3166666666667" y2="5" style="visibility: inherit;" fill="rgb(0, 0, 0)" stroke="rgb(204, 204, 204)" stroke-width="1px"></line><line x1="644.9333333333333" y1="0" x2="644.9333333333333" y2="5" style="visibility: inherit;" fill="rgb(0, 0, 0)" stroke="rgb(204, 204, 204)" stroke-width="1px"></line><line x1="725.55" y1="0" x2="725.55" y2="5" style="visibility: inherit;" fill="rgb(0, 0, 0)" stroke="rgb(204, 204, 204)" stroke-width="1px"></line><line x1="806.1666666666666" y1="0" x2="806.1666666666666" y2="5" style="visibility: inherit;" fill="rgb(0, 0, 0)" stroke="rgb(204, 204, 204)" stroke-width="1px"></line><line x1="886.7833333333333" y1="0" x2="886.7833333333333" y2="5" style="visibility: inherit;" fill="rgb(0, 0, 0)" stroke="rgb(204, 204, 204)" stroke-width="1px"></line><line x1="967.4" y1="0" x2="967.4" y2="5" style="visibility: inherit;" fill="rgb(0, 0, 0)" stroke="rgb(204, 204, 204)" stroke-width="1px"></line></g><g transform="translate(0, 8)"><text x="0" y="0" dx="0em" dy="0.95em" style="text-anchor: middle; visibility: hidden; font-family: Roboto, sans-serif; font-size: 12px; font-weight: 200;" fill="rgb(33, 33, 33)" stroke="none" stroke-width="1px">-20</text><text x="80.61666666666666" y="0" dx="0em" dy="0.95em" style="text-anchor: middle; visibility: inherit; font-family: Roboto, sans-serif; font-size: 12px; font-weight: 200;" fill="rgb(33, 33, 33)" stroke="none" stroke-width="1px">0</text><text x="161.23333333333332" y="0" dx="0em" dy="0.95em" style="text-anchor: middle; visibility: inherit; font-family: Roboto, sans-serif; font-size: 12px; font-weight: 200;" fill="rgb(33, 33, 33)" stroke="none" stroke-width="1px">20</text><text x="241.85" y="0" dx="0em" dy="0.95em" style="text-anchor: middle; visibility: inherit; font-family: Roboto, sans-serif; font-size: 12px; font-weight: 200;" fill="rgb(33, 33, 33)" stroke="none" stroke-width="1px">40</text><text x="322.46666666666664" y="0" dx="0em" dy="0.95em" style="text-anchor: middle; visibility: inherit; font-family: Roboto, sans-serif; font-size: 12px; font-weight: 200;" fill="rgb(33, 33, 33)" stroke="none" stroke-width="1px">60</text><text x="403.0833333333333" y="0" dx="0em" dy="0.95em" style="text-anchor: middle; visibility: inherit; font-family: Roboto, sans-serif; font-size: 12px; font-weight: 200;" fill="rgb(33, 33, 33)" stroke="none" stroke-width="1px">80</text><text x="483.7" y="0" dx="0em" dy="0.95em" style="text-anchor: middle; visibility: inherit; font-family: Roboto, sans-serif; font-size: 12px; font-weight: 200;" fill="rgb(33, 33, 33)" stroke="none" stroke-width="1px">100</text><text x="564.3166666666667" y="0" dx="0em" dy="0.95em" style="text-anchor: middle; visibility: inherit; font-family: Roboto, sans-serif; font-size: 12px; font-weight: 200;" fill="rgb(33, 33, 33)" stroke="none" stroke-width="1px">120</text><text x="644.9333333333333" y="0" dx="0em" dy="0.95em" style="text-anchor: middle; visibility: inherit; font-family: Roboto, sans-serif; font-size: 12px; font-weight: 200;" fill="rgb(33, 33, 33)" stroke="none" stroke-width="1px">140</text><text x="725.55" y="0" dx="0em" dy="0.95em" style="text-anchor: middle; visibility: inherit; font-family: Roboto, sans-serif; font-size: 12px; font-weight: 200;" fill="rgb(33, 33, 33)" stroke="none" stroke-width="1px">160</text><text x="806.1666666666666" y="0" dx="0em" dy="0.95em" style="text-anchor: middle; visibility: inherit; font-family: Roboto, sans-serif; font-size: 12px; font-weight: 200;" fill="rgb(33, 33, 33)" stroke="none" stroke-width="1px">180</text><text x="886.7833333333333" y="0" dx="0em" dy="0.95em" style="text-anchor: middle; visibility: inherit; font-family: Roboto, sans-serif; font-size: 12px; font-weight: 200;" fill="rgb(33, 33, 33)" stroke="none" stroke-width="1px">200</text><text x="967.4" y="0" dx="0em" dy="0.95em" style="text-anchor: middle; visibility: hidden; font-family: Roboto, sans-serif; font-size: 12px; font-weight: 200;" fill="rgb(33, 33, 33)" stroke="none" stroke-width="1px">220</text></g><line x1="0" y1="0" x2="967.4" y2="0" fill="rgb(0, 0, 0)" stroke="rgb(204, 204, 204)" stroke-width="1px"></line></g></g></g></g></svg>