<svg viewBox="0 0 330 200" xmlns="http://www.w3.org/2000/svg"><g><g><g><g><g><line x1="50" y1="177" x2="45" y2="177" style="visibility: inherit;" fill="rgb(0, 0, 0)" stroke="rgb(204, 204, 204)" stroke-width="1px"></line><line x1="50" y1="154.875" x2="45" y2="154.875" style="visibility: inherit;" fill="rgb(0, 0, 0)" stroke="rgb(204, 204, 204)" stroke-width="1px"></line><line x1="50" y1="132.75" x2="45" y2="132.75" style="visibility: inherit;" fill="rgb(0, 0, 0)" stroke="rgb(204, 204, 204)" stroke-width="1px"></line><line x1="50" y1="110.625" x2="45" y2="110.625" style="visibility: inherit;" fill="rgb(0, 0, 0)" stroke="rgb(204, 204, 204)" stroke-width="1px"></line><line x1="50" y1="88.5" x2="45" y2="88.5" style="visibility: inherit;" fill="rgb(0, 0, 0)" stroke="rgb(204, 204, 204)" stroke-width="1px"></line><line x1="50" y1="66.375" x2="45" y2="66.375" style="visibility: inherit;" fill="rgb(0, 0, 0)" stroke="rgb(204, 204, 204)" stroke-width="1px"></line><line x1="50" y1="44.25000000000002" x2="45" y2="44.25000000000002" style="visibility: inherit;" fill="rgb(0, 0, 0)" stroke="rgb(204, 204, 204)" stroke-width="1px"></line><line x1="50" y1="22.12500000000002" x2="45" y2="22.12500000000002" style="visibility: inherit;" fill="rgb(0, 0, 0)" stroke="rgb(204, 204, 204)" stroke-width="1px"></line><line x1="50" y1="0" x2="45" y2="0" style="visibility: inherit;" fill="rgb(0, 0, 0)" stroke="rgb(204, 204, 204)" stroke-width="1px"></line></g><g transform="translate(40, 0)"><text x="0" y="177" dx="0em" dy="0.3em" style="text-anchor: end; visibility: hidden; font-family: Roboto, sans-serif; font-size: 12px; font-weight: 200;" fill="rgb(33, 33, 33)" stroke="none" stroke-width="1px">0</text><text x="0" y="154.875" dx="0em" dy="0.3em" style="text-anchor: end; visibility: inherit; font-family: Roboto, sans-serif; font-size: 12px; font-weight: 200;" fill="rgb(33, 33, 33)" stroke="none" stroke-width="1px">0.05</text><text x="0" y="132.75" dx="0em" dy="0.3em" style="text-anchor: end; visibility: hidden; font-family: Roboto, sans-serif; font-size: 12px; font-weight: 200;" fill="rgb(33, 33, 33)" stroke="none" stroke-width="1px">0.1</text><text x="0" y="110.625" dx="0em" dy="0.3em" style="text-anchor: end; visibility: inherit; font-family: Roboto, sans-serif; font-size: 12px; font-weight: 200;" fill="rgb(33, 33, 33)" stroke="none" stroke-width="1px">0.15</text><text x="0" y="88.5" dx="0em" dy="0.3em" style="text-anchor: end; visibility: hidden; font-family: Roboto, sans-serif; font-size: 12px; font-weight: 200;" fill="rgb(33, 33, 33)" stroke="none" stroke-width="1px">0.2</text><text x="0" y="66.375" dx="0em" dy="0.3em" style="text-anchor: end; visibility: inherit; font-family: Roboto, sans-serif; font-size: 12px; font-weight: 200;" fill="rgb(33, 33, 33)" stroke="none" stroke-width="1px">0.25</text><text x="0" y="44.25000000000002" dx="0em" dy="0.3em" style="text-anchor: end; visibility: hidden; font-family: Roboto, sans-serif; font-size: 12px; font-weight: 200;" fill="rgb(33, 33, 33)" stroke="none" stroke-width="1px">0.3</text><text x="0" y="22.12500000000002" dx="0em" dy="0.3em" style="text-anchor: end; visibility: inherit; font-family: Roboto, sans-serif; font-size: 12px; font-weight: 200;" fill="rgb(33, 33, 33)" stroke="none" stroke-width="1px">0.35</text><text x="0" y="0" dx="0em" dy="0.3em" style="text-anchor: end; visibility: hidden; font-family: Roboto, sans-serif; font-size: 12px; font-weight: 200;" fill="rgb(33, 33, 33)" stroke="none" stroke-width="1px">0.4</text></g><line x1="50" y1="0" x2="50" y2="177" fill="rgb(0, 0, 0)" stroke="rgb(204, 204, 204)" stroke-width="1px"></line></g></g><g transform="translate(50, 0)" clip-path="url(#clip_0)"><clipPath id="clip_0"><rect width="280" height="177"></rect></clipPath><g><g><g><line x1="0" y1="0" x2="0" y2="177" fill="rgb(0, 0, 0)" stroke="rgb(66, 66, 66)" stroke-width="1px" opacity="0.25"></line><line x1="23.333333333333332" y1="0" x2="23.333333333333332" y2="177" fill="rgb(0, 0, 0)" stroke="rgb(66, 66, 66)" stroke-width="1px" opacity="0.25"></line><line x1="46.666666666666664" y1="0" x2="46.666666666666664" y2="177" fill="rgb(0, 0, 0)" stroke="rgb(66, 66, 66)" stroke-width="1px" opacity="0.25"></line><line x1="70" y1="0" x2="70" y2="177" fill="rgb(0, 0, 0)" stroke="rgb(66, 66, 66)" stroke-width="1px" opacity="0.25"></line><line x1="93.33333333333333" y1="0" x2="93.33333333333333" y2="177" fill="rgb(0, 0, 0)" stroke="rgb(66, 66, 66)" stroke-width="1px" opacity="0.25"></line><line x1="116.66666666666667" y1="0" x2="116.66666666666667" y2="177" fill="rgb(0, 0, 0)" stroke="rgb(66, 66, 66)" stroke-width="1px" opacity="0.25"></line><line x1="140" y1="0" x2="140" y2="177" fill="rgb(0, 0, 0)" stroke="rgb(66, 66, 66)" stroke-width="1px" opacity="0.25"></line><line x1="163.33333333333334" y1="0" x2="163.33333333333334" y2="177" fill="rgb(0, 0, 0)" stroke="rgb(66, 66, 66)" stroke-width="1px" opacity="0.25"></line><line x1="186.66666666666666" y1="0" x2="186.66666666666666" y2="177" fill="rgb(0, 0, 0)" stroke="rgb(66, 66, 66)" stroke-width="1px" opacity="0.25"></line><line x1="210" y1="0" x2="210" y2="177" fill="rgb(0, 0, 0)" stroke="rgb(66, 66, 66)" stroke-width="1px" opacity="0.25"></line><line x1="233.33333333333334" y1="0" x2="233.33333333333334" y2="177" fill="rgb(0, 0, 0)" stroke="rgb(66, 66, 66)" stroke-width="1px" opacity="0.25"></line><line x1="256.66666666666663" y1="0" x2="256.66666666666663" y2="177" fill="rgb(0, 0, 0)" stroke="rgb(66, 66, 66)" stroke-width="1px" opacity="0.25"></line><line x1="280" y1="0" x2="280" y2="177" fill="rgb(0, 0, 0)" stroke="rgb(66, 66, 66)" stroke-width="1px" opacity="0.25"></line></g><g><line x1="0" y1="177" x2="280" y2="177" fill="rgb(0, 0, 0)" stroke="rgb(66, 66, 66)" stroke-width="1px" opacity="0.25"></line><line x1="0" y1="154.875" x2="280" y2="154.875" fill="rgb(0, 0, 0)" stroke="rgb(66, 66, 66)" stroke-width="1px" opacity="0.25"></line><line x1="0" y1="132.75" x2="280" y2="132.75" fill="rgb(0, 0, 0)" stroke="rgb(66, 66, 66)" stroke-width="1px" opacity="0.25"></line><line x1="0" y1="110.625" x2="280" y2="110.625" fill="rgb(0, 0, 0)" stroke="rgb(66, 66, 66)" stroke-width="1px" opacity="0.25"></line><line x1="0" y1="88.5" x2="280" y2="88.5" fill="rgb(0, 0, 0)" stroke="rgb(66, 66, 66)" stroke-width="1px" opacity="0.25"></line><line x1="0" y1="66.375" x2="280" y2="66.375" fill="rgb(0, 0, 0)" stroke="rgb(66, 66, 66)" stroke-width="1px" opacity="0.25"></line><line x1="0" y1="44.25000000000002" x2="280" y2="44.25000000000002" fill="rgb(0, 0, 0)" stroke="rgb(66, 66, 66)" stroke-width="1px" opacity="0.25"></line><line x1="0" y1="22.12500000000002" x2="280" y2="22.12500000000002" fill="rgb(0, 0, 0)" stroke="rgb(66, 66, 66)" stroke-width="1px" opacity="0.25"></line><line x1="0" y1="0" x2="280" y2="0" fill="rgb(0, 0, 0)" stroke="rgb(66, 66, 66)" stroke-width="1px" opacity="0.25"></line></g></g></g><g><g><line x1="0" y1="177" x2="280" y2="177" fill="rgb(0, 0, 0)" stroke="rgb(153, 153, 153)" stroke-width="1.5px"></line></g></g><g><g><line x1="23.333333333333332" y1="0" x2="23.333333333333332" y2="177" fill="rgb(0, 0, 0)" stroke="rgb(153, 153, 153)" stroke-width="1.5px"></line></g></g><g><g><g><g><g><path stroke="rgb(255, 112, 67)" stroke-width="2px" d="M32.666666666666664,-18.762198601098845L33.833333333333336,2.94383829613386L35,20.44669258061882L36.16666666666667,34.81812502458041L37.333333333333336,47.413278817352555L38.5,55.711772831715656L39.666666666666664,64.57062049593955L40.833333333333336,70.3276915621263L42,75.87747819595828L43.16666666666667,80.28158090463636L44.33333333333333,86.09541540965058L45.5,90.03165223338739L46.666666666666664,94.05277006625643L47.833333333333336,96.63883686942192L49,98.77649769884708L50.166666666666664,101.31067009740784L51.33333333333333,103.72964521514824L52.5,106.9258231698114L53.66666666666667,108.74416624319478L54.833333333333336,111.62565053811812L56,113.4708751194294L57.166666666666664,114.36347732325086L58.333333333333336,116.25753076094396L59.5,117.77852946237934L60.66666666666667,119.4785585572476L61.83333333333333,120.1972752342005L63,121.77963002984225L64.16666666666666,122.86916432887263L65.33333333333333,124.66784979687625L66.5,124.90943282954095L67.66666666666667,126.23028284225407L68.83333333333333,127.94308974175259L70,128.40009680771888L71.16666666666666,129.17361908821175L72.33333333333334,129.72971018668918L73.5,129.6548811764403L74.66666666666667,130.53623615040905L75.83333333333333,132.06392918587036L77,132.31203626133123L78.16666666666667,133.63970195378135L79.33333333333333,134.40470537171961L80.5,134.9499208845314L81.66666666666667,134.6591314400788L82.83333333333333,135.66394715908794L84,136.24859955849527L85.16666666666666,136.92202913726805L86.33333333333334,137.6062044782371L87.5,138.59196546423058L88.66666666666666,138.43951493947276L89.83333333333334,138.96483320563186L91,140.34638215791682L92.16666666666667,140.7820449482888L93.33333333333333,140.67836570063176L94.5,141.82172500532238L95.66666666666667,141.93059371525865L96.83333333333333,142.38262863972676L98,142.21667514007623L99.16666666666667,142.8094851673325L100.33333333333333,143.0606442019749L101.5,143.86826312544395L102.66666666666666,144.57412910611896L103.83333333333334,144.73752339274566L105,144.0938182404094L106.16666666666666,144.7079574781926L107.33333333333334,144.75726724524924L108.5,145.846180827079L109.66666666666667,146.01169990936384L110.83333333333333,146.47096096986215L112,147.421655722044L113.16666666666667,147.15020190780285L114.33333333333333,147.5118780380781L115.5,147.6180425462899L116.66666666666667,147.524770109521L117.83333333333333,148.11525925318398L119,148.30389365446567L120.16666666666666,148.1860987045884L121.33333333333334,148.26115710279464L122.5,149.03648775140118L123.66666666666666,148.8241960291247L124.83333333333334,149.9160468308139L126,150.52610476109433L127.16666666666667,150.70929774518638L128.33333333333331,150.77726269141334L129.5,150.7518218077749L130.66666666666666,150.9506376671809L131.83333333333334,150.72059287208427L133,151.32208298342292L134.16666666666669,150.98601357607166L135.33333333333334,151.30470166038344L136.5,151.53539928752704L137.66666666666666,151.89820694377138L138.83333333333334,151.90692461177775L140,152.09909369212428L141.16666666666666,151.69405815846946L142.33333333333331,152.188979235871L143.5,153.0110836305221L144.66666666666669,152.87284238356352L145.83333333333334,153.14705149065256L147,153.29292781267048L148.16666666666666,153.26018005677153L149.33333333333334,153.4897736978119L150.5,153.68442615175755L151.66666666666666,153.697917741862L152.83333333333331,153.7326633705658L154,153.97059393742455L155.16666666666669,153.99815328907238L156.33333333333334,154.01061461339154L157.5,154.6001585474298L158.66666666666666,155.26507891048107L159.83333333333331,155.60455471920437L161,155.41629171682874L162.16666666666669,155.4144058670907L163.33333333333334,155.84767415576033L164.5,155.89161946968943L165.66666666666666,155.915287830512L166.83333333333334,156.00232883726375L168,156.52968489712367L169.16666666666666,156.5151291733139L170.33333333333331,156.5215765614899L171.5,156.71604433161568L172.66666666666669,156.5752160973999L173.83333333333334,156.68895407260376L175,157.13190331230115L176.16666666666666,156.58876573469968L177.33333333333331,156.61621859477003L178.5,157.10542757097505L179.66666666666669,157.43050279786362L180.83333333333334,157.59252108973368L182,157.6273708840734L183.16666666666666,157.6200640671269L184.33333333333334,157.5188775895724L185.5,157.4309057646209L186.66666666666666,157.2331759156712L187.83333333333331,158.13630237412025L189,158.18841523144584L190.16666666666669,157.80907015033927L191.33333333333334,158.15624215396264L192.5,158.62805853376997L193.66666666666666,158.93213894942528L194.83333333333331,158.6431146225579L196,159.11249309323713L197.16666666666669,159.37869208703927L198.33333333333334,159.36729012444908L199.5,159.42677495786722L200.66666666666666,159.29042071273432L201.83333333333334,159.2351678463549L203,159.3833729849893L204.16666666666666,159.58091645846596L205.33333333333331,159.28190102001923L206.5,159.2740179729217L207.66666666666669,159.35665221850596L208.83333333333334,159.82695907631827L210,160.05803294944354L211.16666666666666,159.48043033684843L212.33333333333331,159.9382242155406L213.5,159.98438838227588L214.66666666666669,160.33013510244487L215.83333333333334,159.9769899057591L217,159.96964793546462L218.16666666666666,160.68586794894017L219.33333333333334,160.98830998382613L220.5,160.85107420201092L221.66666666666666,160.85164140054576L222.83333333333331,161.00844448217148L224,160.63406578620314L225.16666666666669,160.47171732735657L226.33333333333334,160.83916200817836L227.5,160.6484977513326L228.66666666666666,160.23818624226885L229.83333333333331,160.2138320145526L231,160.6656115591537L232.16666666666669,160.79623871013587L233.33333333333334,161.22725080901424L234.5,161.08750703605435L235.66666666666666,161.3238005342926L236.83333333333334,161.41371997760805L238,161.26753508637591L239.16666666666666,161.4549304848328L240.33333333333331,161.58337936061113L241.5,162.1478906989544L242.66666666666669,161.69866382452543L243.83333333333334,161.7865024462205L245,161.9434497284807L246.16666666666666,162.0505425343166L247.33333333333331,162.10208412240448L248.5,162.40202145192328L249.66666666666669,162.24102559708535L250.83333333333334,162.33584768562307L252,162.17674572014087L253.16666666666666,162.39786301102205L254.33333333333334,162.3007024723051L255.5,162.5297716079806" style="fill: none;" fill="none"></path></g></g></g></g><g opacity="0.2"><g><g><g><path stroke="rgb(255, 112, 67)" stroke-width="2px" d="M30.333333333333336,-12.702361151576042L31.5,5.4768567234277725L32.666666666666664,23.86592772603035L33.833333333333336,35.17477338016033L35,46.542224407196045L36.16666666666667,56.29706498980522L37.333333333333336,66.26488414406776L38.5,68.14325623959303L39.666666666666664,77.84847874939442L40.833333333333336,78.95923782885075L42,84.19980966299772L43.16666666666667,86.88661676645279L44.33333333333333,94.81528148800135L45.5,95.93564768135548L46.666666666666664,100.0842262879014L47.833333333333336,100.51785197854042L49,101.98294673860073L50.166666666666664,105.11189867556095L51.33333333333333,107.35809069871902L52.5,111.72007647156715L53.66666666666667,111.47167620062828L54.833333333333336,115.947872556746L56,116.23871029168367L57.166666666666664,115.7023801356554L58.333333333333336,119.09861028939486L59.5,120.06002721190453L60.66666666666667,122.02860199660063L61.83333333333333,121.27535019814968L63,124.15316215530038L64.16666666666666,124.50346574932337L65.33333333333333,127.36587797105312L66.5,125.27180737629533L67.66666666666667,128.21155785396695L68.83333333333333,130.51230008527637L70,129.08560740575194L71.16666666666666,130.3339025080204L72.33333333333334,130.56384683400393L73.5,129.54263766109943L74.66666666666667,131.8582686111331L75.83333333333333,134.35546873882413L77,132.68419687449932L78.16666666666667,135.63120049238205L79.33333333333333,135.5522104986012L80.5,135.76774415373802L81.66666666666667,134.2229472734034L82.83333333333333,137.17117073759437L84,137.12557815760374L85.16666666666666,137.93217350542545L86.33333333333334,138.6324674896896L87.5,140.0706069432199L88.66666666666666,138.21083915233612L89.83333333333334,139.75281060487032L91,142.418705586344L92.16666666666667,141.43553913384676L93.33333333333333,140.52284682914615L94.5,143.53676396235824L95.66666666666667,142.09389678016305L96.83333333333333,143.06068102642894L98,141.96774489060044L99.16666666666667,143.6987002082169L100.33333333333333,143.43738275393844L101.5,145.07969151064754L102.66666666666666,145.6329280771315L103.83333333333334,144.98261482268572L105,143.12826051190495L106.16666666666666,145.62916633486748L107.33333333333334,144.8312318958342L108.5,147.47955119982362L109.66666666666667,146.25997853279114L110.83333333333333,147.15985256060958L112,148.84769785031676L113.16666666666667,146.74302118644118L114.33333333333333,148.05439223349094L115.5,147.77728930860758L116.66666666666667,147.38486145436764L117.83333333333333,149.00099296867847L119,148.5868452563882L120.16666666666666,148.00940627977252L121.33333333333334,148.373744700104L122.5,150.199483724311L123.66666666666666,148.50575844570994L124.83333333333334,151.55382303334773L126,151.441191656515L127.16666666666667,150.98408722132444L128.33333333333331,150.87921011075377L129.5,150.7136604823172L130.66666666666666,151.2488614562899L131.83333333333334,150.3755256794393L133,152.22431815043092L134.16666666666669,150.48190946504474L135.33333333333334,151.78273378685117L136.5,151.8814457282424L137.66666666666666,152.4424184281379L138.83333333333334,151.9200011137873L140,152.38734731264412L141.16666666666666,151.08650485798717L142.33333333333331,152.9313608519733L143.5,154.24424022249877L144.66666666666669,152.66548051312566L145.83333333333334,153.55836515128613L147,153.51174229569733L148.16666666666666,153.2110584229231L149.33333333333334,153.83416415937245L150.5,153.97640483267605L151.66666666666666,153.7181551270187L152.83333333333331,153.78478181362152L154,154.3274897877127L155.16666666666669,154.03949231654406L156.33333333333334,154.02930659987032L157.5,155.48447444848716L158.66666666666666,156.26245945505798L159.83333333333331,156.11376843228936L161,155.1338972132653L162.16666666666669,155.41157709248364L163.33333333333334,156.4975765887648L164.5,155.9575374405831L165.66666666666666,155.95079037174582L166.83333333333334,156.13289034739137L168,157.32071898691356L169.16666666666666,156.49329558759928L170.33333333333331,156.5312476437539L171.5,157.00774598680437L172.66666666666669,156.36397374607623L173.83333333333334,156.85956103540957L175,157.79632717184722L176.16666666666666,155.77405936829746L177.33333333333331,156.65739788487554L178.5,157.8392410352826L179.66666666666669,157.91811563819647L180.83333333333334,157.83554852753878L182,157.67964557558298L183.16666666666666,157.6091038417071L184.33333333333334,157.3670978732407L185.5,157.29894802719355L186.66666666666666,156.93658114224672L187.83333333333331,159.4909920617938L189,158.26658451743424L190.16666666666669,157.24005252867937L191.33333333333334,158.67700015939772L192.5,159.33578310348094L193.66666666666666,159.38825957290828L194.83333333333331,158.20957813225687L196,159.81656079925597L197.16666666666669,159.77799057774246L198.33333333333334,159.3501871805638L199.5,159.51600220799446L200.66666666666666,159.08588934503496L201.83333333333334,159.1522885467857L203,159.60568069294095L204.16666666666666,159.8772316686809L205.33333333333331,158.83337786234915L206.5,159.26219340227544L207.66666666666669,159.48060358688235L208.83333333333334,160.53241936303675L210,160.40464375913143L211.16666666666666,158.61402641795576L212.33333333333331,160.62491503357887L213.5,160.05363463237882L214.66666666666669,160.84875518269837L215.83333333333334,159.4472721107304L217,159.9586349800229L218.16666666666666,161.76019796915352L219.33333333333334,161.4419730361551L220.5,160.64522052928805L221.66666666666666,160.85249219834805L222.83333333333331,161.24364910461009L224,160.07249774225056L225.16666666666669,160.22819463908672L226.33333333333334,161.39032902941108L227.5,160.36250136606395L228.66666666666666,159.62271897867322L229.83333333333331,160.17730067297816L231,161.34328087605536L232.16666666666669,160.99217943660915L233.33333333333334,161.87376895733178L234.5,160.87789137661457L235.66666666666666,161.67824078164995L236.83333333333334,161.54859914258122L238,161.0482577495277L239.16666666666666,161.7360235825181L240.33333333333331,161.77605267427862L241.5,162.9946577064693L242.66666666666669,161.024823512882L243.83333333333334,161.91826037876308L245,162.17887065187097L246.16666666666666,162.21118174307048L247.33333333333331,162.17939650453627L248.5,162.85192744620144L249.66666666666669,161.99953181482852L250.83333333333334,162.4780808184296L252,161.93809277191758L253.16666666666666,162.72953894734383L254.33333333333334,162.15496166422963L255.5,162.87337531149387" style="fill: none;" fill="none"></path></g></g></g></g></g></g><g transform="translate(50, 177)" clip-path="url(#clip_1)"><clipPath id="clip_1"><rect width="280" height="23"></rect></clipPath><g><g><line x1="0" y1="0" x2="0" y2="5" style="visibility: inherit;" fill="rgb(0, 0, 0)" stroke="rgb(204, 204, 204)" stroke-width="1px"></line><line x1="23.333333333333332" y1="0" x2="23.333333333333332" y2="5" style="visibility: inherit;" fill="rgb(0, 0, 0)" stroke="rgb(204, 204, 204)" stroke-width="1px"></line><line x1="46.666666666666664" y1="0" x2="46.666666666666664" y2="5" style="visibility: inherit;" fill="rgb(0, 0, 0)" stroke="rgb(204, 204, 204)" stroke-width="1px"></line><line x1="70" y1="0" x2="70" y2="5" style="visibility: inherit;" fill="rgb(0, 0, 0)" stroke="rgb(204, 204, 204)" stroke-width="1px"></line><line x1="93.33333333333333" y1="0" x2="93.33333333333333" y2="5" style="visibility: inherit;" fill="rgb(0, 0, 0)" stroke="rgb(204, 204, 204)" stroke-width="1px"></line><line x1="116.66666666666667" y1="0" x2="116.66666666666667" y2="5" style="visibility: inherit;" fill="rgb(0, 0, 0)" stroke="rgb(204, 204, 204)" stroke-width="1px"></line><line x1="140" y1="0" x2="140" y2="5" style="visibility: inherit;" fill="rgb(0, 0, 0)" stroke="rgb(204, 204, 204)" stroke-width="1px"></line><line x1="163.33333333333334" y1="0" x2="163.33333333333334" y2="5" style="visibility: inherit;" fill="rgb(0, 0, 0)" stroke="rgb(204, 204, 204)" stroke-width="1px"></line><line x1="186.66666666666666" y1="0" x2="186.66666666666666" y2="5" style="visibility: inherit;" fill="rgb(0, 0, 0)" stroke="rgb(204, 204, 204)" stroke-width="1px"></line><line x1="210" y1="0" x2="210" y2="5" style="visibility: inherit;" fill="rgb(0, 0, 0)" stroke="rgb(204, 204, 204)" stroke-width="1px"></line><line x1="233.33333333333334" y1="0" x2="233.33333333333334" y2="5" style="visibility: inherit;" fill="rgb(0, 0, 0)" stroke="rgb(204, 204, 204)" stroke-width="1px"></line><line x1="256.66666666666663" y1="0" x2="256.66666666666663" y2="5" style="visibility: inherit;" fill="rgb(0, 0, 0)" stroke="rgb(204, 204, 204)" stroke-width="1px"></line><line x1="280" y1="0" x2="280" y2="5" style="visibility: inherit;" fill="rgb(0, 0, 0)" stroke="rgb(204, 204, 204)" stroke-width="1px"></line></g><g transform="translate(0, 8)"><text x="0" y="0" dx="0em" dy="0.95em" style="text-anchor: middle; visibility: hidden; font-family: Roboto, sans-serif; font-size: 12px; font-weight: 200;" fill="rgb(33, 33, 33)" stroke="none" stroke-width="1px">-20</text><text x="23.333333333333332" y="0" dx="0em" dy="0.95em" style="text-anchor: middle; visibility: inherit; font-family: Roboto, sans-serif; font-size: 12px; font-weight: 200;" fill="rgb(33, 33, 33)" stroke="none" stroke-width="1px">0</text><text x="46.666666666666664" y="0" dx="0em" dy="0.95em" style="text-anchor: middle; visibility: hidden; font-family: Roboto, sans-serif; font-size: 12px; font-weight: 200;" fill="rgb(33, 33, 33)" stroke="none" stroke-width="1px">20</text><text x="70" y="0" dx="0em" dy="0.95em" style="text-anchor: middle; visibility: inherit; font-family: Roboto, sans-serif; font-size: 12px; font-weight: 200;" fill="rgb(33, 33, 33)" stroke="none" stroke-width="1px">40</text><text x="93.33333333333333" y="0" dx="0em" dy="0.95em" style="text-anchor: middle; visibility: hidden; font-family: Roboto, sans-serif; font-size: 12px; font-weight: 200;" fill="rgb(33, 33, 33)" stroke="none" stroke-width="1px">60</text><text x="116.66666666666667" y="0" dx="0em" dy="0.95em" style="text-anchor: middle; visibility: inherit; font-family: Roboto, sans-serif; font-size: 12px; font-weight: 200;" fill="rgb(33, 33, 33)" stroke="none" stroke-width="1px">80</text><text x="140" y="0" dx="0em" dy="0.95em" style="text-anchor: middle; visibility: hidden; font-family: Roboto, sans-serif; font-size: 12px; font-weight: 200;" fill="rgb(33, 33, 33)" stroke="none" stroke-width="1px">100</text><text x="163.33333333333334" y="0" dx="0em" dy="0.95em" style="text-anchor: middle; visibility: inherit; font-family: Roboto, sans-serif; font-size: 12px; font-weight: 200;" fill="rgb(33, 33, 33)" stroke="none" stroke-width="1px">120</text><text x="186.66666666666666" y="0" dx="0em" dy="0.95em" style="text-anchor: middle; visibility: hidden; font-family: Roboto, sans-serif; font-size: 12px; font-weight: 200;" fill="rgb(33, 33, 33)" stroke="none" stroke-width="1px">140</text><text x="210" y="0" dx="0em" dy="0.95em" style="text-anchor: middle; visibility: inherit; font-family: Roboto, sans-serif; font-size: 12px; font-weight: 200;" fill="rgb(33, 33, 33)" stroke="none" stroke-width="1px">160</text><text x="233.33333333333334" y="0" dx="0em" dy="0.95em" style="text-anchor: middle; visibility: hidden; font-family: Roboto, sans-serif; font-size: 12px; font-weight: 200;" fill="rgb(33, 33, 33)" stroke="none" stroke-width="1px">180</text><text x="256.66666666666663" y="0" dx="0em" dy="0.95em" style="text-anchor: middle; visibility: inherit; font-family: Roboto, sans-serif; font-size: 12px; font-weight: 200;" fill="rgb(33, 33, 33)" stroke="none" stroke-width="1px">200</text><text x="280" y="0" dx="0em" dy="0.95em" style="text-anchor: middle; visibility: hidden; font-family: Roboto, sans-serif; font-size: 12px; font-weight: 200;" fill="rgb(33, 33, 33)" stroke="none" stroke-width="1px">220</text></g><line x1="0" y1="0" x2="280" y2="0" fill="rgb(0, 0, 0)" stroke="rgb(204, 204, 204)" stroke-width="1px"></line></g></g></g></g></svg>