<svg viewBox="0 0 1007.4000244140625 400" xmlns="http://www.w3.org/2000/svg"><g><g><g><g><g><line x1="50" y1="377" x2="45" y2="377" style="visibility: inherit;" fill="rgb(0, 0, 0)" stroke="rgb(204, 204, 204)" stroke-width="1px"></line><line x1="50" y1="329.875" x2="45" y2="329.875" style="visibility: inherit;" fill="rgb(0, 0, 0)" stroke="rgb(204, 204, 204)" stroke-width="1px"></line><line x1="50" y1="282.75" x2="45" y2="282.75" style="visibility: inherit;" fill="rgb(0, 0, 0)" stroke="rgb(204, 204, 204)" stroke-width="1px"></line><line x1="50" y1="235.625" x2="45" y2="235.625" style="visibility: inherit;" fill="rgb(0, 0, 0)" stroke="rgb(204, 204, 204)" stroke-width="1px"></line><line x1="50" y1="188.5" x2="45" y2="188.5" style="visibility: inherit;" fill="rgb(0, 0, 0)" stroke="rgb(204, 204, 204)" stroke-width="1px"></line><line x1="50" y1="141.375" x2="45" y2="141.375" style="visibility: inherit;" fill="rgb(0, 0, 0)" stroke="rgb(204, 204, 204)" stroke-width="1px"></line><line x1="50" y1="94.25000000000004" x2="45" y2="94.25000000000004" style="visibility: inherit;" fill="rgb(0, 0, 0)" stroke="rgb(204, 204, 204)" stroke-width="1px"></line><line x1="50" y1="47.12500000000004" x2="45" y2="47.12500000000004" style="visibility: inherit;" fill="rgb(0, 0, 0)" stroke="rgb(204, 204, 204)" stroke-width="1px"></line><line x1="50" y1="0" x2="45" y2="0" style="visibility: inherit;" fill="rgb(0, 0, 0)" stroke="rgb(204, 204, 204)" stroke-width="1px"></line></g><g transform="translate(40, 0)"><text x="0" y="377" dx="0em" dy="0.3em" style="text-anchor: end; visibility: hidden; font-family: Roboto, sans-serif; font-size: 12px; font-weight: 200;" fill="rgb(33, 33, 33)" stroke="none" stroke-width="1px">0</text><text x="0" y="329.875" dx="0em" dy="0.3em" style="text-anchor: end; visibility: inherit; font-family: Roboto, sans-serif; font-size: 12px; font-weight: 200;" fill="rgb(33, 33, 33)" stroke="none" stroke-width="1px">0.05</text><text x="0" y="282.75" dx="0em" dy="0.3em" style="text-anchor: end; visibility: inherit; font-family: Roboto, sans-serif; font-size: 12px; font-weight: 200;" fill="rgb(33, 33, 33)" stroke="none" stroke-width="1px">0.1</text><text x="0" y="235.625" dx="0em" dy="0.3em" style="text-anchor: end; visibility: inherit; font-family: Roboto, sans-serif; font-size: 12px; font-weight: 200;" fill="rgb(33, 33, 33)" stroke="none" stroke-width="1px">0.15</text><text x="0" y="188.5" dx="0em" dy="0.3em" style="text-anchor: end; visibility: inherit; font-family: Roboto, sans-serif; font-size: 12px; font-weight: 200;" fill="rgb(33, 33, 33)" stroke="none" stroke-width="1px">0.2</text><text x="0" y="141.375" dx="0em" dy="0.3em" style="text-anchor: end; visibility: inherit; font-family: Roboto, sans-serif; font-size: 12px; font-weight: 200;" fill="rgb(33, 33, 33)" stroke="none" stroke-width="1px">0.25</text><text x="0" y="94.25000000000004" dx="0em" dy="0.3em" style="text-anchor: end; visibility: inherit; font-family: Roboto, sans-serif; font-size: 12px; font-weight: 200;" fill="rgb(33, 33, 33)" stroke="none" stroke-width="1px">0.3</text><text x="0" y="47.12500000000004" dx="0em" dy="0.3em" style="text-anchor: end; visibility: inherit; font-family: Roboto, sans-serif; font-size: 12px; font-weight: 200;" fill="rgb(33, 33, 33)" stroke="none" stroke-width="1px">0.35</text><text x="0" y="0" dx="0em" dy="0.3em" style="text-anchor: end; visibility: hidden; font-family: Roboto, sans-serif; font-size: 12px; font-weight: 200;" fill="rgb(33, 33, 33)" stroke="none" stroke-width="1px">0.4</text></g><line x1="50" y1="0" x2="50" y2="377" fill="rgb(0, 0, 0)" stroke="rgb(204, 204, 204)" stroke-width="1px"></line></g></g><g transform="translate(50, 0)" clip-path="url(#clip_0)"><clipPath id="clip_0"><rect width="957" height="377"></rect></clipPath><g><g><g><line x1="0" y1="0" x2="0" y2="377" fill="rgb(0, 0, 0)" stroke="rgb(66, 66, 66)" stroke-width="1px" opacity="0.25"></line><line x1="79.78333333333333" y1="0" x2="79.78333333333333" y2="377" fill="rgb(0, 0, 0)" stroke="rgb(66, 66, 66)" stroke-width="1px" opacity="0.25"></line><line x1="159.56666666666666" y1="0" x2="159.56666666666666" y2="377" fill="rgb(0, 0, 0)" stroke="rgb(66, 66, 66)" stroke-width="1px" opacity="0.25"></line><line x1="239.35" y1="0" x2="239.35" y2="377" fill="rgb(0, 0, 0)" stroke="rgb(66, 66, 66)" stroke-width="1px" opacity="0.25"></line><line x1="319.1333333333333" y1="0" x2="319.1333333333333" y2="377" fill="rgb(0, 0, 0)" stroke="rgb(66, 66, 66)" stroke-width="1px" opacity="0.25"></line><line x1="398.9166666666667" y1="0" x2="398.9166666666667" y2="377" fill="rgb(0, 0, 0)" stroke="rgb(66, 66, 66)" stroke-width="1px" opacity="0.25"></line><line x1="478.7" y1="0" x2="478.7" y2="377" fill="rgb(0, 0, 0)" stroke="rgb(66, 66, 66)" stroke-width="1px" opacity="0.25"></line><line x1="558.4833333333333" y1="0" x2="558.4833333333333" y2="377" fill="rgb(0, 0, 0)" stroke="rgb(66, 66, 66)" stroke-width="1px" opacity="0.25"></line><line x1="638.2666666666667" y1="0" x2="638.2666666666667" y2="377" fill="rgb(0, 0, 0)" stroke="rgb(66, 66, 66)" stroke-width="1px" opacity="0.25"></line><line x1="718.05" y1="0" x2="718.05" y2="377" fill="rgb(0, 0, 0)" stroke="rgb(66, 66, 66)" stroke-width="1px" opacity="0.25"></line><line x1="797.8333333333334" y1="0" x2="797.8333333333334" y2="377" fill="rgb(0, 0, 0)" stroke="rgb(66, 66, 66)" stroke-width="1px" opacity="0.25"></line><line x1="877.6166666666666" y1="0" x2="877.6166666666666" y2="377" fill="rgb(0, 0, 0)" stroke="rgb(66, 66, 66)" stroke-width="1px" opacity="0.25"></line><line x1="957.4" y1="0" x2="957.4" y2="377" fill="rgb(0, 0, 0)" stroke="rgb(66, 66, 66)" stroke-width="1px" opacity="0.25"></line></g><g><line x1="0" y1="377" x2="957.4" y2="377" fill="rgb(0, 0, 0)" stroke="rgb(66, 66, 66)" stroke-width="1px" opacity="0.25"></line><line x1="0" y1="329.875" x2="957.4" y2="329.875" fill="rgb(0, 0, 0)" stroke="rgb(66, 66, 66)" stroke-width="1px" opacity="0.25"></line><line x1="0" y1="282.75" x2="957.4" y2="282.75" fill="rgb(0, 0, 0)" stroke="rgb(66, 66, 66)" stroke-width="1px" opacity="0.25"></line><line x1="0" y1="235.625" x2="957.4" y2="235.625" fill="rgb(0, 0, 0)" stroke="rgb(66, 66, 66)" stroke-width="1px" opacity="0.25"></line><line x1="0" y1="188.5" x2="957.4" y2="188.5" fill="rgb(0, 0, 0)" stroke="rgb(66, 66, 66)" stroke-width="1px" opacity="0.25"></line><line x1="0" y1="141.375" x2="957.4" y2="141.375" fill="rgb(0, 0, 0)" stroke="rgb(66, 66, 66)" stroke-width="1px" opacity="0.25"></line><line x1="0" y1="94.25000000000004" x2="957.4" y2="94.25000000000004" fill="rgb(0, 0, 0)" stroke="rgb(66, 66, 66)" stroke-width="1px" opacity="0.25"></line><line x1="0" y1="47.12500000000004" x2="957.4" y2="47.12500000000004" fill="rgb(0, 0, 0)" stroke="rgb(66, 66, 66)" stroke-width="1px" opacity="0.25"></line><line x1="0" y1="0" x2="957.4" y2="0" fill="rgb(0, 0, 0)" stroke="rgb(66, 66, 66)" stroke-width="1px" opacity="0.25"></line></g></g></g><g><g><line x1="0" y1="377" x2="957.4" y2="377" fill="rgb(0, 0, 0)" stroke="rgb(153, 153, 153)" stroke-width="1.5px"></line></g></g><g><g><line x1="79.78333333333333" y1="0" x2="79.78333333333333" y2="377" fill="rgb(0, 0, 0)" stroke="rgb(153, 153, 153)" stroke-width="1.5px"></line></g></g><g><g><g><g><g><path stroke="rgb(255, 112, 67)" stroke-width="2px" d="M111.69666666666667,-39.962423009120144L115.68583333333333,6.270209252217318L119.675,43.5503000163463L123.66416666666667,74.16063917664867L127.65333333333332,100.98760516464358L131.6425,118.66292857376725L135.63166666666666,137.5317735986961L139.62083333333334,149.79400971142155L143.60999999999999,161.61474169421624L147.59916666666666,170.99523164433845L151.5883333333333,183.37837067479248L155.57750000000001,191.76233272309065L159.56666666666666,200.32708652530323L163.55583333333334,205.83526271057664L167.545,210.38835950545396L171.53416666666666,215.78600354080652L175.5233333333333,220.9382838763327L179.5125,227.74596234473952L183.50166666666667,231.61893035979907L187.4908333333333,237.7563291122629L191.48000000000002,241.68655322047957L195.46916666666667,243.58774548511624L199.45833333333334,247.62197229873377L203.4475,250.8616136006611L207.43666666666667,254.48257952588895L211.42583333333332,256.01340544233665L215.415,259.38373175847755L219.40416666666664,261.7043782598021L223.39333333333335,265.53547668600197L227.3825,266.05003489681883L231.37166666666667,268.86337079960333L235.36083333333332,272.51155272678375L239.35,273.48495195768373L243.33916666666664,275.1325107133097L247.32833333333335,276.3169533354905L251.3175,276.15757177128813L255.30666666666664,278.0348080717752L259.2958333333333,281.2887079269668L263.285,281.81716198034957L267.27416666666664,284.6450148959072L271.2633333333333,286.2744289555836L275.2525,287.4357071947363L279.2416666666667,286.8163421068345L283.23083333333335,288.95654281907434L287.21999999999997,290.20181939860294L291.20916666666665,291.6361863545201L295.1983333333333,293.0934411768101L299.1875,295.19305638426516L303.1766666666666,294.86834537955497L307.16583333333335,295.98724360747576L311.15500000000003,298.9298648222296L315.14416666666665,299.857801952005L319.1333333333333,299.6369710120801L323.1225,302.07226173450016L327.1116666666667,302.3041459358899L331.1008333333333,303.26695478631063L335.09,302.913483207959L339.07916666666665,304.1761350739229L343.0683333333333,304.7110896279352L347.0575,306.4312723067365L351.0466666666666,307.93472696614043L355.03583333333336,308.2827475653396L359.025,306.9116919583861L363.01416666666665,308.2197738377323L367.00333333333333,308.3248008557004L370.9925,310.6441252644564L374.9816666666666,310.99667155836255L378.9708333333333,311.9748716702714L382.96000000000004,313.99979778085077L386.94916666666666,313.42161649289085L390.93833333333333,314.19196621669744L394.92749999999995,314.4180906211937L398.9166666666667,314.21942560050513L402.9058333333333,315.4771341155388L406.895,315.8789147329579L410.88416666666666,315.62801814480133L414.87333333333333,315.7878882923931L418.8625,317.4392987699336L422.85166666666663,316.9871293953673L426.84083333333336,319.3127099164793L430.83,320.6120988414269L434.81916666666666,321.00228954765686L438.8083333333333,321.14705104329283L442.7975,321.092863398481L446.7866666666667,321.51632994648133L450.7758333333333,321.02634752980657L454.765,322.30748748446575L458.75416666666666,321.59167863377974L462.74333333333334,322.2704662483873L466.73249999999996,322.76183916043897L470.72166666666664,323.5345989706317L474.7108333333333,323.5531671109616L478.7,323.9624763950896L482.68916666666667,323.09977359176827L486.6783333333333,324.15392752499076L490.66749999999996,325.9049634390216L494.6566666666667,325.61051739323983L498.64583333333337,326.19456729929954L502.635,326.5052756235976L506.62416666666667,326.4355247536885L510.6133333333333,326.9245462377123L514.6025,327.33914496730284L518.5916666666666,327.36788129198857L522.5808333333333,327.44188751809776L526.57,327.94866618310203L530.5591666666667,328.00736604508637L534.5483333333333,328.0339079618566L538.5375,329.2896032337912L542.5266666666666,330.70584604096814L546.5158333333333,331.42891033412457L550.505,331.0279207753923L554.4941666666667,331.02390402199546L558.4833333333333,331.9467409984274L562.4725,332.0403420343103L566.4616666666667,332.0907543056668L570.4508333333333,332.27614673247706L574.4399999999999,333.399385345851L578.4291666666667,333.3683824764935L582.4183333333333,333.3821150490491L586.4075,333.79632041253734L590.3966666666666,333.4963642300552L594.3858333333334,333.7386196913651L598.375,334.68207654653975L602.3641666666666,333.52522419198743L606.3533333333332,333.5836972329283L610.3425,334.62568471331974L614.3316666666667,335.31807658076036L618.3208333333333,335.6631663888678L622.3100000000001,335.73739448189644L626.2991666666667,335.7218313746149L630.2883333333333,335.506309894174L634.2774999999999,335.31893487718685L638.2666666666667,334.8977814701019L642.2558333333333,336.8213898025047L646.245,336.932387244379L650.2341666666666,336.12440365354746L654.2233333333334,336.8638604070278L658.2125,337.8688026397247L662.2016666666666,338.51647674538606L666.1908333333333,337.90087125821657L670.18,338.90062088220566L674.1691666666667,339.467609699513L678.1583333333333,339.4433241633746L682.1475,339.5700234978302L686.1366666666667,339.2795966593268L690.1258333333333,339.16191117556946L694.115,339.4775797476891L698.1041666666666,339.89833618554616L702.0933333333332,339.2614501951822L706.0825,339.2446597502344L710.0716666666667,339.4206660247274L714.0608333333333,340.4223930608587L718.05,340.9145673555944L722.0391666666667,339.6843064236828L726.0283333333333,340.6593815212362L730.0174999999999,340.75770858823734L734.0066666666667,341.4941295684843L737.9958333333334,340.7419502512496L741.985,340.72631226932293L745.9741666666666,342.2518204336184L749.9633333333333,342.8960048808048L753.9525,342.6037004189724L757.9416666666666,342.6049085198065L761.9308333333332,342.93889022473815L765.9200000000001,342.1414847536643L769.9091666666667,341.7956917085504L773.8983333333333,342.57832811911436L777.8874999999999,342.1722240240248L781.8766666666667,341.2982836911602L785.8658333333333,341.2464105620696L789.8549999999999,342.2086754678019L793.8441666666668,342.48690391932894L797.8333333333334,343.4049353389738L801.8225,343.1072889976977L805.8116666666666,343.61058079903L809.8008333333333,343.8021041330974L813.79,343.4907385738063L817.7791666666666,343.8898801852088L821.7683333333333,344.163469033618L825.7575,345.36584629099326L829.7466666666667,344.40901842850894L833.7358333333333,344.59610973008546L837.725,344.93039857422156L841.7141666666666,345.15850020021105L845.7033333333333,345.2682808708841L849.6924999999999,345.9071304371473L853.6816666666667,345.56421836215355L857.6708333333333,345.76618405355873L861.66,345.4273058558932L865.6491666666667,345.8982731929679L869.6383333333333,345.6913267347967L873.6274999999999,346.17923105202647" style="fill: none;" fill="none"></path></g></g></g></g><g opacity="0.2"><g><g><g><path stroke="rgb(255, 112, 67)" stroke-width="2px" d="M103.71833333333333,-27.055311605334282L107.7075,11.665395393967628L111.69666666666667,50.833077698946L115.68583333333333,74.9202800244093L119.675,99.13230848312378L123.66416666666667,119.90956780314445L127.65333333333332,141.14045944809914L131.6425,145.1412858888507L135.63166666666666,165.81286151707172L139.62083333333334,168.17871560156345L143.60999999999999,179.34083753079176L147.59916666666666,185.06358486413956L151.5883333333333,201.95119277387857L155.57750000000001,204.33750946819782L159.56666666666666,213.17374751716852L163.55583333333334,214.09734573960304L167.545,217.21791480481625L171.53416666666666,223.88240565359592L175.5233333333333,228.6666677594185L179.5125,237.95745101571083L183.50166666666667,237.42837247252464L187.4908333333333,246.9624178186059L191.48000000000002,247.58188576251268L195.46916666666667,246.43953283131123L199.45833333333334,253.67331118136644L203.4475,255.7210749089718L207.43666666666667,259.9140279814601L211.42583333333332,258.30964420735836L215.415,264.4392210878432L219.40416666666664,265.18534795194864L223.39333333333335,271.2821242660284L227.3825,266.82187220826745L231.37166666666667,273.0833746381104L235.36083333333332,277.98382560536265L239.35,274.9450508020818L243.33916666666664,277.6038488447666L247.32833333333335,278.09361726790667L251.3175,275.9184994250536L255.30666666666664,280.85066252201796L259.2958333333333,286.1695577092469L263.285,282.60984306037426L267.27416666666664,288.88679426908493L271.2633333333333,288.71855004504323L275.2525,289.177624553442L279.2416666666667,285.8872944749892L283.23083333333335,292.1668438874185L287.21999999999997,292.06973426789045L291.20916666666665,293.78773678839207L295.1983333333333,295.2793234102428L299.1875,298.3424791954458L303.1766666666666,294.38127887248993L307.16583333333335,297.66559094935656L311.15500000000003,303.3437966443598L315.14416666666665,301.24970764666796L319.1333333333333,299.30572460219264L323.1225,305.72519781813025L327.1116666666667,302.6519722379744L331.1008333333333,304.71116806194186L335.09,302.38327584043145L339.07916666666665,306.0701128728688L343.0683333333333,305.5135214589536L347.0575,309.01154632493854L351.0466666666666,310.1899089552462L355.03583333333336,308.8047784641385L359.025,304.85510854795575L363.01416666666665,310.18189665675163L367.00333333333333,308.4823413826525L370.9925,314.1231118775904L374.9816666666666,311.5254909992218L378.9708333333333,313.4421718381345L382.96000000000004,317.0371869467199L386.94916666666666,312.554344560951L390.93833333333333,315.34749080240726L394.92749999999995,314.7572772279382L398.9166666666667,313.9214280694723L402.9058333333333,317.3636968880892L406.895,316.4815856590867L410.88416666666666,315.2516732625663L414.87333333333333,316.02769351378083L418.8625,319.9164144862443L422.85166666666663,316.3088753335178L426.84083333333336,322.8010806981474L430.83,322.56118222884834L434.81916666666666,321.5875756070018L438.8083333333333,321.36419328674674L442.7975,321.0115819312632L446.7866666666667,322.15152976848185L450.7758333333333,320.29137390479445L454.765,324.22919741645455L458.75416666666666,320.51796535775065L462.74333333333334,323.2886476702988L466.73249999999996,323.4988985285163L470.72166666666664,324.69373868592083L474.7108333333333,323.58101932145655L478.7,324.57644032128155L482.68916666666667,321.8057193867862L486.6783333333333,325.7351584248245L490.66749999999996,328.531517310068L494.6566666666667,325.1688483245671L498.64583333333337,327.0706421583891L502.635,326.9713381100446L506.62416666666667,326.3308984488249L510.6133333333333,327.6580784637481L514.6025,327.96104306168854L518.5916666666666,327.4109857790172L522.5808333333333,327.55289685726166L526.57,328.7088341806084L530.5591666666667,328.09541583806276L534.5483333333333,328.07372083701193L538.5375,331.173146141693L542.5266666666666,332.83021025173366L546.5158333333333,332.51350677385926L550.505,330.4264364372939L554.4941666666667,331.0178788919002L558.4833333333333,333.3309964630753L562.4725,332.18074358813465L566.4616666666667,332.16637271270156L570.4508333333333,332.55423537269235L574.4399999999999,335.08424326591194L578.4291666666667,333.3218781724572L582.4183333333333,333.40271390788257L586.4075,334.41762845776975L590.3966666666666,333.04642995633185L594.3858333333334,334.10200288333L598.375,336.0972618293017L602.3641666666666,331.789945660159L606.3533333333332,333.6714067943394L610.3425,336.18866593390703L614.3316666666667,336.3566643819213L618.3208333333333,336.1808011010289L622.3100000000001,335.84873662143946L626.2991666666667,335.69848671369255L630.2883333333333,335.1830276735127L634.2774999999999,335.037872351706L638.2666666666667,334.26605135947466L642.2558333333333,339.70680230110884L646.245,337.09888340719044L650.2341666666666,334.91242826730013L654.2233333333334,337.97304553724825L658.2125,339.3762159887701L662.2016666666666,339.4879879038781L666.1908333333333,336.97746302746236L670.18,340.40024531818926L674.1691666666667,340.31809292547405L678.1583333333333,339.406895859167L682.1475,339.7600724995136L686.1366666666667,338.84395640157163L690.1258333333333,338.9853829499334L694.115,339.9510826058686L698.1041666666666,340.52947084233165L702.0933333333332,338.30612120963633L706.0825,339.21947408281267L710.0716666666667,339.68467543646693L714.0608333333333,341.9249836150557L718.05,341.652828797698L722.0391666666667,337.83891502581537L726.0283333333333,342.1219941675663L730.0174999999999,340.90519918873906L734.0066666666667,342.5987610388547L737.9958333333334,339.61368127539754L741.985,340.702855296433L745.9741666666666,344.54008268006146L749.9633333333333,343.8622815515846L753.9525,342.1652437262237L757.9416666666666,342.6067206710577L761.9308333333332,343.4398627821356L765.9200000000001,340.94537654705346L769.9091666666667,341.27700214087963L773.8983333333333,343.7522827349603L777.8874999999999,341.56306788139045L781.8766666666667,339.9873731918633L785.8658333333333,341.1686008684337L789.8549999999999,343.6520728264004L793.8441666666668,342.9042465966195L797.8333333333334,344.78198246844113L801.8225,342.6608194857836L805.8116666666666,344.3655185010284L809.8008333333333,344.0893891341984L813.79,343.0236902348697L817.7791666666666,344.48859260231256L821.7683333333333,344.57385230623186L825.7575,347.1694121770561L829.7466666666667,342.97377663478255L833.7358333333333,344.8767466824502L837.725,345.43183184042573L841.7141666666666,345.5006526391953L845.7033333333333,345.43295187689364L849.6924999999999,346.86540478654206L853.6816666666667,345.049850249663L857.6708333333333,346.0691325906664L861.66,344.9189885593951L865.6491666666667,346.6047241985798L869.6383333333333,345.38090704753995L873.6274999999999,346.91108752787113" style="fill: none;" fill="none"></path></g></g></g></g></g></g><g transform="translate(50, 377)" clip-path="url(#clip_1)"><clipPath id="clip_1"><rect width="957" height="23"></rect></clipPath><g><g><line x1="0" y1="0" x2="0" y2="5" style="visibility: inherit;" fill="rgb(0, 0, 0)" stroke="rgb(204, 204, 204)" stroke-width="1px"></line><line x1="79.78333333333333" y1="0" x2="79.78333333333333" y2="5" style="visibility: inherit;" fill="rgb(0, 0, 0)" stroke="rgb(204, 204, 204)" stroke-width="1px"></line><line x1="159.56666666666666" y1="0" x2="159.56666666666666" y2="5" style="visibility: inherit;" fill="rgb(0, 0, 0)" stroke="rgb(204, 204, 204)" stroke-width="1px"></line><line x1="239.35" y1="0" x2="239.35" y2="5" style="visibility: inherit;" fill="rgb(0, 0, 0)" stroke="rgb(204, 204, 204)" stroke-width="1px"></line><line x1="319.1333333333333" y1="0" x2="319.1333333333333" y2="5" style="visibility: inherit;" fill="rgb(0, 0, 0)" stroke="rgb(204, 204, 204)" stroke-width="1px"></line><line x1="398.9166666666667" y1="0" x2="398.9166666666667" y2="5" style="visibility: inherit;" fill="rgb(0, 0, 0)" stroke="rgb(204, 204, 204)" stroke-width="1px"></line><line x1="478.7" y1="0" x2="478.7" y2="5" style="visibility: inherit;" fill="rgb(0, 0, 0)" stroke="rgb(204, 204, 204)" stroke-width="1px"></line><line x1="558.4833333333333" y1="0" x2="558.4833333333333" y2="5" style="visibility: inherit;" fill="rgb(0, 0, 0)" stroke="rgb(204, 204, 204)" stroke-width="1px"></line><line x1="638.2666666666667" y1="0" x2="638.2666666666667" y2="5" style="visibility: inherit;" fill="rgb(0, 0, 0)" stroke="rgb(204, 204, 204)" stroke-width="1px"></line><line x1="718.05" y1="0" x2="718.05" y2="5" style="visibility: inherit;" fill="rgb(0, 0, 0)" stroke="rgb(204, 204, 204)" stroke-width="1px"></line><line x1="797.8333333333334" y1="0" x2="797.8333333333334" y2="5" style="visibility: inherit;" fill="rgb(0, 0, 0)" stroke="rgb(204, 204, 204)" stroke-width="1px"></line><line x1="877.6166666666666" y1="0" x2="877.6166666666666" y2="5" style="visibility: inherit;" fill="rgb(0, 0, 0)" stroke="rgb(204, 204, 204)" stroke-width="1px"></line><line x1="957.4" y1="0" x2="957.4" y2="5" style="visibility: inherit;" fill="rgb(0, 0, 0)" stroke="rgb(204, 204, 204)" stroke-width="1px"></line></g><g transform="translate(0, 8)"><text x="0" y="0" dx="0em" dy="0.95em" style="text-anchor: middle; visibility: hidden; font-family: Roboto, sans-serif; font-size: 12px; font-weight: 200;" fill="rgb(33, 33, 33)" stroke="none" stroke-width="1px">-20</text><text x="79.78333333333333" y="0" dx="0em" dy="0.95em" style="text-anchor: middle; visibility: inherit; font-family: Roboto, sans-serif; font-size: 12px; font-weight: 200;" fill="rgb(33, 33, 33)" stroke="none" stroke-width="1px">0</text><text x="159.56666666666666" y="0" dx="0em" dy="0.95em" style="text-anchor: middle; visibility: inherit; font-family: Roboto, sans-serif; font-size: 12px; font-weight: 200;" fill="rgb(33, 33, 33)" stroke="none" stroke-width="1px">20</text><text x="239.35" y="0" dx="0em" dy="0.95em" style="text-anchor: middle; visibility: inherit; font-family: Roboto, sans-serif; font-size: 12px; font-weight: 200;" fill="rgb(33, 33, 33)" stroke="none" stroke-width="1px">40</text><text x="319.1333333333333" y="0" dx="0em" dy="0.95em" style="text-anchor: middle; visibility: inherit; font-family: Roboto, sans-serif; font-size: 12px; font-weight: 200;" fill="rgb(33, 33, 33)" stroke="none" stroke-width="1px">60</text><text x="398.9166666666667" y="0" dx="0em" dy="0.95em" style="text-anchor: middle; visibility: inherit; font-family: Roboto, sans-serif; font-size: 12px; font-weight: 200;" fill="rgb(33, 33, 33)" stroke="none" stroke-width="1px">80</text><text x="478.7" y="0" dx="0em" dy="0.95em" style="text-anchor: middle; visibility: inherit; font-family: Roboto, sans-serif; font-size: 12px; font-weight: 200;" fill="rgb(33, 33, 33)" stroke="none" stroke-width="1px">100</text><text x="558.4833333333333" y="0" dx="0em" dy="0.95em" style="text-anchor: middle; visibility: inherit; font-family: Roboto, sans-serif; font-size: 12px; font-weight: 200;" fill="rgb(33, 33, 33)" stroke="none" stroke-width="1px">120</text><text x="638.2666666666667" y="0" dx="0em" dy="0.95em" style="text-anchor: middle; visibility: inherit; font-family: Roboto, sans-serif; font-size: 12px; font-weight: 200;" fill="rgb(33, 33, 33)" stroke="none" stroke-width="1px">140</text><text x="718.05" y="0" dx="0em" dy="0.95em" style="text-anchor: middle; visibility: inherit; font-family: Roboto, sans-serif; font-size: 12px; font-weight: 200;" fill="rgb(33, 33, 33)" stroke="none" stroke-width="1px">160</text><text x="797.8333333333334" y="0" dx="0em" dy="0.95em" style="text-anchor: middle; visibility: inherit; font-family: Roboto, sans-serif; font-size: 12px; font-weight: 200;" fill="rgb(33, 33, 33)" stroke="none" stroke-width="1px">180</text><text x="877.6166666666666" y="0" dx="0em" dy="0.95em" style="text-anchor: middle; visibility: inherit; font-family: Roboto, sans-serif; font-size: 12px; font-weight: 200;" fill="rgb(33, 33, 33)" stroke="none" stroke-width="1px">200</text><text x="957.4" y="0" dx="0em" dy="0.95em" style="text-anchor: middle; visibility: hidden; font-family: Roboto, sans-serif; font-size: 12px; font-weight: 200;" fill="rgb(33, 33, 33)" stroke="none" stroke-width="1px">220</text></g><line x1="0" y1="0" x2="957.4" y2="0" fill="rgb(0, 0, 0)" stroke="rgb(204, 204, 204)" stroke-width="1px"></line></g></g></g></g></svg>