<svg viewBox="0 0 1391 400" xmlns="http://www.w3.org/2000/svg"><g><g><g><g><g><line x1="51.5625" y1="377" x2="46.5625" y2="377" style="visibility: inherit;" fill="rgb(0, 0, 0)" stroke="rgb(204, 204, 204)" stroke-width="1px"></line><line x1="51.5625" y1="329.875" x2="46.5625" y2="329.875" style="visibility: inherit;" fill="rgb(0, 0, 0)" stroke="rgb(204, 204, 204)" stroke-width="1px"></line><line x1="51.5625" y1="282.75" x2="46.5625" y2="282.75" style="visibility: inherit;" fill="rgb(0, 0, 0)" stroke="rgb(204, 204, 204)" stroke-width="1px"></line><line x1="51.5625" y1="235.625" x2="46.5625" y2="235.625" style="visibility: inherit;" fill="rgb(0, 0, 0)" stroke="rgb(204, 204, 204)" stroke-width="1px"></line><line x1="51.5625" y1="188.5" x2="46.5625" y2="188.5" style="visibility: inherit;" fill="rgb(0, 0, 0)" stroke="rgb(204, 204, 204)" stroke-width="1px"></line><line x1="51.5625" y1="141.375" x2="46.5625" y2="141.375" style="visibility: inherit;" fill="rgb(0, 0, 0)" stroke="rgb(204, 204, 204)" stroke-width="1px"></line><line x1="51.5625" y1="94.25000000000004" x2="46.5625" y2="94.25000000000004" style="visibility: inherit;" fill="rgb(0, 0, 0)" stroke="rgb(204, 204, 204)" stroke-width="1px"></line><line x1="51.5625" y1="47.12500000000004" x2="46.5625" y2="47.12500000000004" style="visibility: inherit;" fill="rgb(0, 0, 0)" stroke="rgb(204, 204, 204)" stroke-width="1px"></line><line x1="51.5625" y1="0" x2="46.5625" y2="0" style="visibility: inherit;" fill="rgb(0, 0, 0)" stroke="rgb(204, 204, 204)" stroke-width="1px"></line></g><g transform="translate(41.5625, 0)"><text x="0" y="377" dx="0em" dy="0.3em" style="text-anchor: end; visibility: hidden; font-family: Roboto, sans-serif; font-size: 12px; font-weight: 200;" fill="rgb(33, 33, 33)" stroke="none" stroke-width="1px">0</text><text x="0" y="329.875" dx="0em" dy="0.3em" style="text-anchor: end; visibility: inherit; font-family: Roboto, sans-serif; font-size: 12px; font-weight: 200;" fill="rgb(33, 33, 33)" stroke="none" stroke-width="1px">0.05</text><text x="0" y="282.75" dx="0em" dy="0.3em" style="text-anchor: end; visibility: inherit; font-family: Roboto, sans-serif; font-size: 12px; font-weight: 200;" fill="rgb(33, 33, 33)" stroke="none" stroke-width="1px">0.1</text><text x="0" y="235.625" dx="0em" dy="0.3em" style="text-anchor: end; visibility: inherit; font-family: Roboto, sans-serif; font-size: 12px; font-weight: 200;" fill="rgb(33, 33, 33)" stroke="none" stroke-width="1px">0.15</text><text x="0" y="188.5" dx="0em" dy="0.3em" style="text-anchor: end; visibility: inherit; font-family: Roboto, sans-serif; font-size: 12px; font-weight: 200;" fill="rgb(33, 33, 33)" stroke="none" stroke-width="1px">0.2</text><text x="0" y="141.375" dx="0em" dy="0.3em" style="text-anchor: end; visibility: inherit; font-family: Roboto, sans-serif; font-size: 12px; font-weight: 200;" fill="rgb(33, 33, 33)" stroke="none" stroke-width="1px">0.25</text><text x="0" y="94.25000000000004" dx="0em" dy="0.3em" style="text-anchor: end; visibility: inherit; font-family: Roboto, sans-serif; font-size: 12px; font-weight: 200;" fill="rgb(33, 33, 33)" stroke="none" stroke-width="1px">0.3</text><text x="0" y="47.12500000000004" dx="0em" dy="0.3em" style="text-anchor: end; visibility: inherit; font-family: Roboto, sans-serif; font-size: 12px; font-weight: 200;" fill="rgb(33, 33, 33)" stroke="none" stroke-width="1px">0.35</text><text x="0" y="0" dx="0em" dy="0.3em" style="text-anchor: end; visibility: hidden; font-family: Roboto, sans-serif; font-size: 12px; font-weight: 200;" fill="rgb(33, 33, 33)" stroke="none" stroke-width="1px">0.4</text></g><line x1="51.5625" y1="0" x2="51.5625" y2="377" fill="rgb(0, 0, 0)" stroke="rgb(204, 204, 204)" stroke-width="1px"></line></g></g><g transform="translate(51, 0)" clip-path="url(#clip_0)"><clipPath id="clip_0"><rect width="1339" height="377"></rect></clipPath><g><g><g><line x1="0" y1="0" x2="0" y2="377" fill="rgb(0, 0, 0)" stroke="rgb(66, 66, 66)" stroke-width="1px" opacity="0.25"></line><line x1="111.61979166666666" y1="0" x2="111.61979166666666" y2="377" fill="rgb(0, 0, 0)" stroke="rgb(66, 66, 66)" stroke-width="1px" opacity="0.25"></line><line x1="223.23958333333331" y1="0" x2="223.23958333333331" y2="377" fill="rgb(0, 0, 0)" stroke="rgb(66, 66, 66)" stroke-width="1px" opacity="0.25"></line><line x1="334.859375" y1="0" x2="334.859375" y2="377" fill="rgb(0, 0, 0)" stroke="rgb(66, 66, 66)" stroke-width="1px" opacity="0.25"></line><line x1="446.47916666666663" y1="0" x2="446.47916666666663" y2="377" fill="rgb(0, 0, 0)" stroke="rgb(66, 66, 66)" stroke-width="1px" opacity="0.25"></line><line x1="558.0989583333334" y1="0" x2="558.0989583333334" y2="377" fill="rgb(0, 0, 0)" stroke="rgb(66, 66, 66)" stroke-width="1px" opacity="0.25"></line><line x1="669.71875" y1="0" x2="669.71875" y2="377" fill="rgb(0, 0, 0)" stroke="rgb(66, 66, 66)" stroke-width="1px" opacity="0.25"></line><line x1="781.3385416666667" y1="0" x2="781.3385416666667" y2="377" fill="rgb(0, 0, 0)" stroke="rgb(66, 66, 66)" stroke-width="1px" opacity="0.25"></line><line x1="892.9583333333333" y1="0" x2="892.9583333333333" y2="377" fill="rgb(0, 0, 0)" stroke="rgb(66, 66, 66)" stroke-width="1px" opacity="0.25"></line><line x1="1004.578125" y1="0" x2="1004.578125" y2="377" fill="rgb(0, 0, 0)" stroke="rgb(66, 66, 66)" stroke-width="1px" opacity="0.25"></line><line x1="1116.1979166666667" y1="0" x2="1116.1979166666667" y2="377" fill="rgb(0, 0, 0)" stroke="rgb(66, 66, 66)" stroke-width="1px" opacity="0.25"></line><line x1="1227.8177083333333" y1="0" x2="1227.8177083333333" y2="377" fill="rgb(0, 0, 0)" stroke="rgb(66, 66, 66)" stroke-width="1px" opacity="0.25"></line><line x1="1339.4375" y1="0" x2="1339.4375" y2="377" fill="rgb(0, 0, 0)" stroke="rgb(66, 66, 66)" stroke-width="1px" opacity="0.25"></line></g><g><line x1="0" y1="377" x2="1339.4375" y2="377" fill="rgb(0, 0, 0)" stroke="rgb(66, 66, 66)" stroke-width="1px" opacity="0.25"></line><line x1="0" y1="329.875" x2="1339.4375" y2="329.875" fill="rgb(0, 0, 0)" stroke="rgb(66, 66, 66)" stroke-width="1px" opacity="0.25"></line><line x1="0" y1="282.75" x2="1339.4375" y2="282.75" fill="rgb(0, 0, 0)" stroke="rgb(66, 66, 66)" stroke-width="1px" opacity="0.25"></line><line x1="0" y1="235.625" x2="1339.4375" y2="235.625" fill="rgb(0, 0, 0)" stroke="rgb(66, 66, 66)" stroke-width="1px" opacity="0.25"></line><line x1="0" y1="188.5" x2="1339.4375" y2="188.5" fill="rgb(0, 0, 0)" stroke="rgb(66, 66, 66)" stroke-width="1px" opacity="0.25"></line><line x1="0" y1="141.375" x2="1339.4375" y2="141.375" fill="rgb(0, 0, 0)" stroke="rgb(66, 66, 66)" stroke-width="1px" opacity="0.25"></line><line x1="0" y1="94.25000000000004" x2="1339.4375" y2="94.25000000000004" fill="rgb(0, 0, 0)" stroke="rgb(66, 66, 66)" stroke-width="1px" opacity="0.25"></line><line x1="0" y1="47.12500000000004" x2="1339.4375" y2="47.12500000000004" fill="rgb(0, 0, 0)" stroke="rgb(66, 66, 66)" stroke-width="1px" opacity="0.25"></line><line x1="0" y1="0" x2="1339.4375" y2="0" fill="rgb(0, 0, 0)" stroke="rgb(66, 66, 66)" stroke-width="1px" opacity="0.25"></line></g></g></g><g><g><line x1="0" y1="377" x2="1339.4375" y2="377" fill="rgb(0, 0, 0)" stroke="rgb(153, 153, 153)" stroke-width="1.5px"></line></g></g><g><g><line x1="111.61979166666666" y1="0" x2="111.61979166666666" y2="377" fill="rgb(0, 0, 0)" stroke="rgb(153, 153, 153)" stroke-width="1.5px"></line></g></g><g><g><g><g><g><path stroke="rgb(255, 112, 67)" stroke-width="2px" d="M156.26770833333333,-39.44092972948024L161.84869791666668,10.843095837821856L167.4296875,47.124350154978124L173.01067708333335,76.25680921509047L178.59166666666667,102.94338053866548L184.17265625000002,122.60076169196466L189.75364583333334,137.02811975194336L195.33463541666669,149.340832469853L200.915625,163.71947589343557L206.49661458333335,172.55581317894095L212.07760416666665,181.5956880864369L217.65859375,191.3302453434379L223.23958333333331,200.08671390205623L228.82057291666666,206.54888586851249L234.40156249999998,212.3744376343624L239.98255208333333,216.07376521688795L245.56354166666665,221.9172792202695L251.14453125,228.4920827168153L256.72552083333335,232.39394257473987L262.30651041666664,236.442995325765L267.8875,240.694539302115L273.46848958333334,244.11883209860105L279.0494791666667,246.90593792343208L284.63046875,249.8466696179506L290.2114583333333,252.8730153626882L295.7924479166667,256.5270224075387L301.3734375,259.29849456013426L306.9544270833333,261.2198078056333L312.53541666666666,264.23992055110523L318.11640625,265.62674228886567L323.69739583333336,269.4938294007495L329.27838541666665,269.9679132610409L334.859375,273.73089770439174L340.4403645833333,272.15378742865073L346.0213541666667,274.7921098520109L351.60234375,276.8853764716287L357.18333333333334,278.7672479323615L362.76432291666663,281.7481176212542L368.34531250000003,282.09592283250873L373.9263020833333,283.3496737166447L379.5072916666667,285.3528202986512L385.08828124999997,286.6361542100291L390.66927083333337,286.0126072901207L396.25026041666666,288.59710567670135L401.83125,289.16925939307947L407.4122395833333,291.55017252496935L412.9932291666667,292.6761293857227L418.57421875,294.7729939668741L424.1552083333333,294.8070497884969L429.7361979166667,295.8773120715989L435.3171875,298.2933319374786L440.89817708333334,299.6008572244565L446.47916666666663,299.7549723350358L452.06015625000003,300.8051617630334L457.6411458333333,301.7054408558018L463.2221354166667,303.3438591923003L468.80312499999997,304.99566255156304L474.38411458333337,306.1869775944597L479.96510416666666,304.7983985241441L485.54609375,305.3204179642313L491.1270833333333,306.5172688819595L496.7080729166667,309.1865630124585L502.2890625,309.93790892360073L507.8700520833333,310.49669219909583L513.4510416666667,310.7037035933642L519.03203125,311.6955026156609L524.6130208333333,311.5922438557091L530.1940104166666,311.7079973074879L535.775,311.47570102084194L541.3559895833333,312.47137592982364L546.9369791666667,314.24996922761864L552.51796875,316.0416855751018L558.0989583333334,315.0708743267381L563.6799479166667,316.2782016401365L569.2609375,316.7463421109244L574.8419270833333,317.73326508077525L580.4229166666667,319.7060116261098L586.00390625,319.2733254465373L591.5848958333333,319.67191598462534L597.1658854166667,318.149417964503L602.746875,319.4376636678784L608.3278645833333,319.3125567211097L613.9088541666666,318.72782188942347L619.48984375,319.46317620599456L625.0708333333333,320.36832686081044L630.6518229166667,320.7458260063202L636.2328125,319.74668959998314L641.8138020833334,320.5410302920534L647.3947916666667,322.36180065458376L652.97578125,322.772484385284L658.5567708333333,323.5957492177559L664.1377604166667,323.5825893109961L669.71875,323.8812350594058L675.2997395833333,324.3258535959157L680.8807291666666,324.604111587127L686.4617187499999,325.25137593902343L692.0427083333334,326.31924908865807L697.6236979166667,324.776664473917L703.2046875,324.184016632024L708.7856770833333,325.67329301058265L714.3666666666667,325.5402762464822L719.94765625,327.7552867872799L725.5286458333333,328.2502177539935L731.1096354166666,329.09844775026863L736.6906250000001,328.9467369774033L742.2716145833334,328.97175893166957L747.8526041666667,328.74568548339187L753.43359375,328.26425701476677L759.0145833333333,328.5480299888405L764.5955729166666,329.6333614609154L770.1765624999999,329.7757056569464L775.7575520833334,329.46522317173526L781.3385416666667,331.6209741746929L786.91953125,331.9288348177401L792.5005208333333,332.6880070235925L798.0815104166667,331.55088168928603L803.6625,331.2067002053534L809.2434895833333,332.10923387008756L814.8244791666666,333.09946806444435L820.4054687500001,333.2991408658845L825.9864583333334,333.6294355632557L831.5674479166667,333.3207379470285L837.1484375,334.76105393409824L842.7294270833333,334.2241460200554L848.3104166666666,334.7267539935652L853.8914062499999,335.6975809447374L859.4723958333334,336.18491825535335L865.0533854166667,336.3742253226008L870.634375,335.42193932261864L876.2153645833333,334.5459922383833L881.7963541666667,334.93008741173793L887.37734375,335.0556374761978L892.9583333333333,335.3414444870364L898.5393229166666,335.97246104756664L904.1203125000001,336.2591872649173L909.7013020833334,337.0589419915843L915.2822916666667,337.0776417562108L920.86328125,338.04214677266725L926.4442708333333,337.70726236881285L932.0252604166666,337.80809412855785L937.6062499999999,337.49017675047446L943.1872395833334,337.86159334227636L948.7682291666667,337.3942564615321L954.34921875,338.1111263775058L959.9302083333333,338.438908593698L965.5111979166667,339.24750264992934L971.0921875,338.4039629817642L976.6731770833333,339.1683453505121L982.2541666666666,339.5471298648347L987.8351562500001,339.3577835226613L993.4161458333334,339.8288923354183L998.9971354166667,339.3121380896112L1004.578125,340.01117730681545L1010.1591145833333,340.5325697998371L1015.7401041666666,340.57547861353555L1021.3210937499999,339.31745003992916L1026.9020833333334,339.2796809447384L1032.4830729166667,339.5778765803621L1038.0640625,340.7669488832978L1043.6450520833334,341.39090310681627L1049.2260416666666,341.94814704968786L1054.80703125,341.3843323095993L1060.3880208333333,342.3758181731019L1065.9690104166666,342.5791674129732L1071.55,342.2018330997269L1077.1309895833333,342.4665871117139L1082.7119791666667,342.6294112595096L1088.29296875,342.20112960068434L1093.8739583333333,342.4113710025135L1099.4549479166667,342.8778383977224L1105.0359375,343.10395146665036L1110.6169270833334,343.13072507907185L1116.1979166666667,343.5481822279348L1121.77890625,344.3262716397496L1127.3598958333334,344.77977332859354L1132.9408854166666,344.7475657001979L1138.521875,344.4197837821154L1144.1028645833333,344.502986113668L1149.6838541666666,344.0476748618129L1155.26484375,343.7232599599745L1160.8458333333333,344.1142110261968L1166.4268229166667,343.86746091596194L1172.0078125,344.2087607514972L1177.5888020833333,345.5584152460613L1183.1697916666667,344.57166031944865L1188.75078125,344.8745649543292L1194.3317708333334,345.04337570291085L1199.9127604166667,345.618324521013L1205.49375,346.4159198595303L1211.0747395833334,345.79176499579654L1216.6557291666666,345.92237973367753L1222.23671875,345.34400413352597" style="fill: none;" fill="none"></path></g></g></g></g><g opacity="0.2"><g><g><g><path stroke="rgb(255, 112, 67)" stroke-width="2px" d="M145.10572916666666,-32.90907862782478L150.68671875,18.050291433930397L156.26770833333333,50.636175990104675L161.84869791666668,85.5090135037899L167.4296875,101.21716332435608L173.01067708333335,119.79696024954319L178.59166666666667,142.88610123842955L184.17265625000002,152.0483225658536L189.75364583333334,158.6521980240941L195.33463541666669,167.80121766775846L200.915625,185.28135646879673L206.49661458333335,185.80807556211948L212.07760416666665,195.154123313725L217.65859375,205.93119145184755L223.23958333333331,213.2209365144372L228.82057291666666,216.24193117767572L234.40156249999998,221.11265026777983L239.98255208333333,221.6227127686143L245.56354166666665,230.68250869214535L251.14453125,238.35425992310047L256.72552083333335,238.2467223778367L262.30651041666664,242.516568236053L267.8875,247.07185135036707L273.46848958333334,249.25526940077543L279.0494791666667,251.086595736444L284.63046875,254.2577665746212L290.2114583333333,257.41253361850977L295.7924479166667,262.0080327130854L301.3734375,263.45570266991854L306.9544270833333,264.10177762433887L312.53541666666666,268.77008962258697L318.11640625,267.7069748826325L323.69739583333336,275.2944600470364L329.27838541666665,270.6790390498936L334.859375,279.3753743618727L340.4403645833333,269.78812201693654L346.0213541666667,278.74959348514676L351.60234375,280.02527640014887L357.18333333333334,281.59005512297153L362.76432291666663,286.21942215412855L368.34531250000003,282.61763064935803L373.9263020833333,285.23030004277825L379.5072916666667,288.3575401715934L385.08828124999997,288.56115507707L390.66927083333337,285.0772869102657L396.25026041666666,292.4738532565534L401.83125,290.0274899676442L407.4122395833333,295.12154222279787L412.9932291666667,294.36506467685103L418.57421875,297.9182908385992L424.1552083333333,294.858133520931L429.7361979166667,297.4827054962516L435.3171875,301.9173617362976L440.89817708333334,301.5621451549232L446.47916666666663,299.9861450009048L452.06015625000003,302.3804459050298L457.6411458333333,303.05585949495435L463.2221354166667,305.80148669704795L468.80312499999997,307.4733675904572L474.38411458333337,307.97395015880466L479.96510416666666,302.71552991867065L485.54609375,306.103447124362L491.1270833333333,308.31254525855184L496.7080729166667,313.19050420820713L502.2890625,311.06492779031396L507.8700520833333,311.33486711233854L513.4510416666667,311.01422068476677L519.03203125,313.183201149106L524.6130208333333,311.43735571578145L530.1940104166666,311.88162748515606L535.775,311.127256590873L541.3559895833333,313.9648882932961L546.9369791666667,316.91785917431116L552.51796875,318.72926009632647L558.0989583333334,313.61465745419264L563.6799479166667,318.089192610234L569.2609375,317.44855281710625L574.8419270833333,319.21364953555167L580.4229166666667,322.66513144411147L586.00390625,318.6242961771786L591.5848958333333,320.26980179175735L597.1658854166667,315.8656709343195L602.746875,321.3700322229415L608.3278645833333,319.1248963009566L613.9088541666666,317.8507196418941L619.48984375,320.5662076808512L625.0708333333333,321.72605284303427L630.6518229166667,321.3120747245848L636.2328125,318.24798499047756L641.8138020833334,321.7325413301587L647.3947916666667,325.0929561983794L652.97578125,323.3885099813342L658.5567708333333,324.8306464664638L664.1377604166667,323.56284945085645L669.71875,324.3292036820203L675.2997395833333,324.99278140068054L680.8807291666666,325.021498573944L686.4617187499999,326.22227246686816L692.0427083333334,327.92105881311L697.6236979166667,322.4627875518054L703.2046875,323.2950448691845L708.7856770833333,327.90720757842064L714.3666666666667,325.34075110033154L719.94765625,331.0778025984764L725.5286458333333,328.992614204064L731.1096354166666,330.37079274468124L736.6906250000001,328.71917081810534L742.2716145833334,329.00929186306894L747.8526041666667,328.4065753109753L753.43359375,327.5421143118292L759.0145833333333,328.97368944995105L764.5955729166666,331.2613586690277L770.1765624999999,329.98922195099294L775.7575520833334,328.99949944391847L781.3385416666667,334.85460067912936L786.91953125,332.39062578231096L792.5005208333333,333.826765332371L798.0815104166667,329.8451936878264L803.6625,330.6904279794544L809.2434895833333,333.4630343671888L814.8244791666666,334.58481935597956L820.4054687500001,333.59865006804466L825.9864583333334,334.12487760931253L831.5674479166667,332.8576915226877L837.1484375,336.9215279147029L842.7294270833333,333.4187841489911L848.3104166666666,335.4806659538299L853.8914062499999,337.1538213714957L859.4723958333334,336.91592422127724L865.0533854166667,336.65818592347205L870.634375,333.9935103226453L876.2153645833333,333.23207161203027L881.7963541666667,335.50623017176986L887.37734375,335.24396257288754L892.9583333333333,335.77015500329435L898.5393229166666,336.91898588836193L904.1203125000001,336.68927659094334L909.7013020833334,338.2585740815848L915.2822916666667,337.10569140315056L920.86328125,339.48890429735184L926.4442708333333,337.20493576303124L932.0252604166666,337.95934176817536L937.6062499999999,337.01330068334937L943.1872395833334,338.4187182299793L948.7682291666667,336.69325114041567L954.34921875,339.1864312514663L959.9302083333333,338.9305819179863L965.5111979166667,340.4603937342763L971.0921875,337.1386534795165L976.6731770833333,340.31491890363395L982.2541666666666,340.11530663631856L987.8351562500001,339.0737640094012L993.4161458333334,340.53555555455387L998.9971354166667,338.53700672090054L1004.578125,341.05973613262177L1010.1591145833333,341.3146585393697L1015.7401041666666,340.6398418340832L1021.3210937499999,337.43040717951953L1026.9020833333334,339.22302730195224L1032.4830729166667,340.0251700337976L1038.0640625,342.5505573377013L1043.6450520833334,342.32683444209397L1049.2260416666666,342.78401296399534L1054.80703125,340.53861019946635L1060.3880208333333,343.8630469683558L1065.9690104166666,342.8841912727803L1071.55,341.6358316298574L1077.1309895833333,342.86371812969446L1082.7119791666667,342.8736474812031L1088.29296875,341.5587071124464L1093.8739583333333,342.72673310525715L1099.4549479166667,343.57753949053586L1105.0359375,343.44312107004225L1110.6169270833334,343.17088549770415L1116.1979166666667,344.1743679512292L1121.77890625,345.4934057574719L1127.3598958333334,345.4600258618593L1132.9408854166666,344.6992542576045L1138.521875,343.9281109049916L1144.1028645833333,344.62778961099684L1149.6838541666666,343.36470798403025L1155.26484375,343.23663760721684L1160.8458333333333,344.70063762553036L1166.4268229166667,343.49733575060964L1172.0078125,344.7207105048001L1177.5888020833333,347.5828969879076L1183.1697916666667,343.09152792952955L1188.75078125,345.32892190665007L1194.3317708333334,345.29659182578325L1199.9127604166667,346.4807477481663L1205.49375,347.6123128673062L1211.0747395833334,344.8555327001959L1216.6557291666666,346.11830184049904L1222.23671875,344.47644073329866" style="fill: none;" fill="none"></path></g></g></g></g></g></g><g transform="translate(51, 377)" clip-path="url(#clip_1)"><clipPath id="clip_1"><rect width="1339" height="23"></rect></clipPath><g><g><line x1="0" y1="0" x2="0" y2="5" style="visibility: inherit;" fill="rgb(0, 0, 0)" stroke="rgb(204, 204, 204)" stroke-width="1px"></line><line x1="111.61979166666666" y1="0" x2="111.61979166666666" y2="5" style="visibility: inherit;" fill="rgb(0, 0, 0)" stroke="rgb(204, 204, 204)" stroke-width="1px"></line><line x1="223.23958333333331" y1="0" x2="223.23958333333331" y2="5" style="visibility: inherit;" fill="rgb(0, 0, 0)" stroke="rgb(204, 204, 204)" stroke-width="1px"></line><line x1="334.859375" y1="0" x2="334.859375" y2="5" style="visibility: inherit;" fill="rgb(0, 0, 0)" stroke="rgb(204, 204, 204)" stroke-width="1px"></line><line x1="446.47916666666663" y1="0" x2="446.47916666666663" y2="5" style="visibility: inherit;" fill="rgb(0, 0, 0)" stroke="rgb(204, 204, 204)" stroke-width="1px"></line><line x1="558.0989583333334" y1="0" x2="558.0989583333334" y2="5" style="visibility: inherit;" fill="rgb(0, 0, 0)" stroke="rgb(204, 204, 204)" stroke-width="1px"></line><line x1="669.71875" y1="0" x2="669.71875" y2="5" style="visibility: inherit;" fill="rgb(0, 0, 0)" stroke="rgb(204, 204, 204)" stroke-width="1px"></line><line x1="781.3385416666667" y1="0" x2="781.3385416666667" y2="5" style="visibility: inherit;" fill="rgb(0, 0, 0)" stroke="rgb(204, 204, 204)" stroke-width="1px"></line><line x1="892.9583333333333" y1="0" x2="892.9583333333333" y2="5" style="visibility: inherit;" fill="rgb(0, 0, 0)" stroke="rgb(204, 204, 204)" stroke-width="1px"></line><line x1="1004.578125" y1="0" x2="1004.578125" y2="5" style="visibility: inherit;" fill="rgb(0, 0, 0)" stroke="rgb(204, 204, 204)" stroke-width="1px"></line><line x1="1116.1979166666667" y1="0" x2="1116.1979166666667" y2="5" style="visibility: inherit;" fill="rgb(0, 0, 0)" stroke="rgb(204, 204, 204)" stroke-width="1px"></line><line x1="1227.8177083333333" y1="0" x2="1227.8177083333333" y2="5" style="visibility: inherit;" fill="rgb(0, 0, 0)" stroke="rgb(204, 204, 204)" stroke-width="1px"></line><line x1="1339.4375" y1="0" x2="1339.4375" y2="5" style="visibility: inherit;" fill="rgb(0, 0, 0)" stroke="rgb(204, 204, 204)" stroke-width="1px"></line></g><g transform="translate(0, 8)"><text x="0" y="0" dx="0em" dy="0.95em" style="text-anchor: middle; visibility: hidden; font-family: Roboto, sans-serif; font-size: 12px; font-weight: 200;" fill="rgb(33, 33, 33)" stroke="none" stroke-width="1px">-20</text><text x="111.61979166666666" y="0" dx="0em" dy="0.95em" style="text-anchor: middle; visibility: inherit; font-family: Roboto, sans-serif; font-size: 12px; font-weight: 200;" fill="rgb(33, 33, 33)" stroke="none" stroke-width="1px">0</text><text x="223.23958333333331" y="0" dx="0em" dy="0.95em" style="text-anchor: middle; visibility: inherit; font-family: Roboto, sans-serif; font-size: 12px; font-weight: 200;" fill="rgb(33, 33, 33)" stroke="none" stroke-width="1px">20</text><text x="334.859375" y="0" dx="0em" dy="0.95em" style="text-anchor: middle; visibility: inherit; font-family: Roboto, sans-serif; font-size: 12px; font-weight: 200;" fill="rgb(33, 33, 33)" stroke="none" stroke-width="1px">40</text><text x="446.47916666666663" y="0" dx="0em" dy="0.95em" style="text-anchor: middle; visibility: inherit; font-family: Roboto, sans-serif; font-size: 12px; font-weight: 200;" fill="rgb(33, 33, 33)" stroke="none" stroke-width="1px">60</text><text x="558.0989583333334" y="0" dx="0em" dy="0.95em" style="text-anchor: middle; visibility: inherit; font-family: Roboto, sans-serif; font-size: 12px; font-weight: 200;" fill="rgb(33, 33, 33)" stroke="none" stroke-width="1px">80</text><text x="669.71875" y="0" dx="0em" dy="0.95em" style="text-anchor: middle; visibility: inherit; font-family: Roboto, sans-serif; font-size: 12px; font-weight: 200;" fill="rgb(33, 33, 33)" stroke="none" stroke-width="1px">100</text><text x="781.3385416666667" y="0" dx="0em" dy="0.95em" style="text-anchor: middle; visibility: inherit; font-family: Roboto, sans-serif; font-size: 12px; font-weight: 200;" fill="rgb(33, 33, 33)" stroke="none" stroke-width="1px">120</text><text x="892.9583333333333" y="0" dx="0em" dy="0.95em" style="text-anchor: middle; visibility: inherit; font-family: Roboto, sans-serif; font-size: 12px; font-weight: 200;" fill="rgb(33, 33, 33)" stroke="none" stroke-width="1px">140</text><text x="1004.578125" y="0" dx="0em" dy="0.95em" style="text-anchor: middle; visibility: inherit; font-family: Roboto, sans-serif; font-size: 12px; font-weight: 200;" fill="rgb(33, 33, 33)" stroke="none" stroke-width="1px">160</text><text x="1116.1979166666667" y="0" dx="0em" dy="0.95em" style="text-anchor: middle; visibility: inherit; font-family: Roboto, sans-serif; font-size: 12px; font-weight: 200;" fill="rgb(33, 33, 33)" stroke="none" stroke-width="1px">180</text><text x="1227.8177083333333" y="0" dx="0em" dy="0.95em" style="text-anchor: middle; visibility: inherit; font-family: Roboto, sans-serif; font-size: 12px; font-weight: 200;" fill="rgb(33, 33, 33)" stroke="none" stroke-width="1px">200</text><text x="1339.4375" y="0" dx="0em" dy="0.95em" style="text-anchor: middle; visibility: hidden; font-family: Roboto, sans-serif; font-size: 12px; font-weight: 200;" fill="rgb(33, 33, 33)" stroke="none" stroke-width="1px">220</text></g><line x1="0" y1="0" x2="1339.4375" y2="0" fill="rgb(0, 0, 0)" stroke="rgb(204, 204, 204)" stroke-width="1px"></line></g></g></g></g></svg>