<svg viewBox="0 0 330 200" xmlns="http://www.w3.org/2000/svg"><g><g><g><g><g><line x1="51.5625" y1="177" x2="46.5625" y2="177" style="visibility: inherit;" fill="rgb(0, 0, 0)" stroke="rgb(204, 204, 204)" stroke-width="1px"></line><line x1="51.5625" y1="154.875" x2="46.5625" y2="154.875" style="visibility: inherit;" fill="rgb(0, 0, 0)" stroke="rgb(204, 204, 204)" stroke-width="1px"></line><line x1="51.5625" y1="132.75" x2="46.5625" y2="132.75" style="visibility: inherit;" fill="rgb(0, 0, 0)" stroke="rgb(204, 204, 204)" stroke-width="1px"></line><line x1="51.5625" y1="110.625" x2="46.5625" y2="110.625" style="visibility: inherit;" fill="rgb(0, 0, 0)" stroke="rgb(204, 204, 204)" stroke-width="1px"></line><line x1="51.5625" y1="88.5" x2="46.5625" y2="88.5" style="visibility: inherit;" fill="rgb(0, 0, 0)" stroke="rgb(204, 204, 204)" stroke-width="1px"></line><line x1="51.5625" y1="66.375" x2="46.5625" y2="66.375" style="visibility: inherit;" fill="rgb(0, 0, 0)" stroke="rgb(204, 204, 204)" stroke-width="1px"></line><line x1="51.5625" y1="44.25000000000002" x2="46.5625" y2="44.25000000000002" style="visibility: inherit;" fill="rgb(0, 0, 0)" stroke="rgb(204, 204, 204)" stroke-width="1px"></line><line x1="51.5625" y1="22.12500000000002" x2="46.5625" y2="22.12500000000002" style="visibility: inherit;" fill="rgb(0, 0, 0)" stroke="rgb(204, 204, 204)" stroke-width="1px"></line><line x1="51.5625" y1="0" x2="46.5625" y2="0" style="visibility: inherit;" fill="rgb(0, 0, 0)" stroke="rgb(204, 204, 204)" stroke-width="1px"></line></g><g transform="translate(41.5625, 0)"><text x="0" y="177" dx="0em" dy="0.3em" style="text-anchor: end; visibility: hidden; font-family: Roboto, sans-serif; font-size: 12px; font-weight: 200;" fill="rgb(33, 33, 33)" stroke="none" stroke-width="1px">0</text><text x="0" y="154.875" dx="0em" dy="0.3em" style="text-anchor: end; visibility: inherit; font-family: Roboto, sans-serif; font-size: 12px; font-weight: 200;" fill="rgb(33, 33, 33)" stroke="none" stroke-width="1px">0.05</text><text x="0" y="132.75" dx="0em" dy="0.3em" style="text-anchor: end; visibility: hidden; font-family: Roboto, sans-serif; font-size: 12px; font-weight: 200;" fill="rgb(33, 33, 33)" stroke="none" stroke-width="1px">0.1</text><text x="0" y="110.625" dx="0em" dy="0.3em" style="text-anchor: end; visibility: inherit; font-family: Roboto, sans-serif; font-size: 12px; font-weight: 200;" fill="rgb(33, 33, 33)" stroke="none" stroke-width="1px">0.15</text><text x="0" y="88.5" dx="0em" dy="0.3em" style="text-anchor: end; visibility: hidden; font-family: Roboto, sans-serif; font-size: 12px; font-weight: 200;" fill="rgb(33, 33, 33)" stroke="none" stroke-width="1px">0.2</text><text x="0" y="66.375" dx="0em" dy="0.3em" style="text-anchor: end; visibility: inherit; font-family: Roboto, sans-serif; font-size: 12px; font-weight: 200;" fill="rgb(33, 33, 33)" stroke="none" stroke-width="1px">0.25</text><text x="0" y="44.25000000000002" dx="0em" dy="0.3em" style="text-anchor: end; visibility: hidden; font-family: Roboto, sans-serif; font-size: 12px; font-weight: 200;" fill="rgb(33, 33, 33)" stroke="none" stroke-width="1px">0.3</text><text x="0" y="22.12500000000002" dx="0em" dy="0.3em" style="text-anchor: end; visibility: inherit; font-family: Roboto, sans-serif; font-size: 12px; font-weight: 200;" fill="rgb(33, 33, 33)" stroke="none" stroke-width="1px">0.35</text><text x="0" y="0" dx="0em" dy="0.3em" style="text-anchor: end; visibility: hidden; font-family: Roboto, sans-serif; font-size: 12px; font-weight: 200;" fill="rgb(33, 33, 33)" stroke="none" stroke-width="1px">0.4</text></g><line x1="51.5625" y1="0" x2="51.5625" y2="177" fill="rgb(0, 0, 0)" stroke="rgb(204, 204, 204)" stroke-width="1px"></line></g></g><g transform="translate(51, 0)" clip-path="url(#clip_0)"><clipPath id="clip_0"><rect width="278" height="177"></rect></clipPath><g><g><g><line x1="0" y1="0" x2="0" y2="177" fill="rgb(0, 0, 0)" stroke="rgb(66, 66, 66)" stroke-width="1px" opacity="0.25"></line><line x1="23.203125" y1="0" x2="23.203125" y2="177" fill="rgb(0, 0, 0)" stroke="rgb(66, 66, 66)" stroke-width="1px" opacity="0.25"></line><line x1="46.40625" y1="0" x2="46.40625" y2="177" fill="rgb(0, 0, 0)" stroke="rgb(66, 66, 66)" stroke-width="1px" opacity="0.25"></line><line x1="69.609375" y1="0" x2="69.609375" y2="177" fill="rgb(0, 0, 0)" stroke="rgb(66, 66, 66)" stroke-width="1px" opacity="0.25"></line><line x1="92.8125" y1="0" x2="92.8125" y2="177" fill="rgb(0, 0, 0)" stroke="rgb(66, 66, 66)" stroke-width="1px" opacity="0.25"></line><line x1="116.015625" y1="0" x2="116.015625" y2="177" fill="rgb(0, 0, 0)" stroke="rgb(66, 66, 66)" stroke-width="1px" opacity="0.25"></line><line x1="139.21875" y1="0" x2="139.21875" y2="177" fill="rgb(0, 0, 0)" stroke="rgb(66, 66, 66)" stroke-width="1px" opacity="0.25"></line><line x1="162.421875" y1="0" x2="162.421875" y2="177" fill="rgb(0, 0, 0)" stroke="rgb(66, 66, 66)" stroke-width="1px" opacity="0.25"></line><line x1="185.625" y1="0" x2="185.625" y2="177" fill="rgb(0, 0, 0)" stroke="rgb(66, 66, 66)" stroke-width="1px" opacity="0.25"></line><line x1="208.828125" y1="0" x2="208.828125" y2="177" fill="rgb(0, 0, 0)" stroke="rgb(66, 66, 66)" stroke-width="1px" opacity="0.25"></line><line x1="232.03125" y1="0" x2="232.03125" y2="177" fill="rgb(0, 0, 0)" stroke="rgb(66, 66, 66)" stroke-width="1px" opacity="0.25"></line><line x1="255.234375" y1="0" x2="255.234375" y2="177" fill="rgb(0, 0, 0)" stroke="rgb(66, 66, 66)" stroke-width="1px" opacity="0.25"></line><line x1="278.4375" y1="0" x2="278.4375" y2="177" fill="rgb(0, 0, 0)" stroke="rgb(66, 66, 66)" stroke-width="1px" opacity="0.25"></line></g><g><line x1="0" y1="177" x2="278.4375" y2="177" fill="rgb(0, 0, 0)" stroke="rgb(66, 66, 66)" stroke-width="1px" opacity="0.25"></line><line x1="0" y1="154.875" x2="278.4375" y2="154.875" fill="rgb(0, 0, 0)" stroke="rgb(66, 66, 66)" stroke-width="1px" opacity="0.25"></line><line x1="0" y1="132.75" x2="278.4375" y2="132.75" fill="rgb(0, 0, 0)" stroke="rgb(66, 66, 66)" stroke-width="1px" opacity="0.25"></line><line x1="0" y1="110.625" x2="278.4375" y2="110.625" fill="rgb(0, 0, 0)" stroke="rgb(66, 66, 66)" stroke-width="1px" opacity="0.25"></line><line x1="0" y1="88.5" x2="278.4375" y2="88.5" fill="rgb(0, 0, 0)" stroke="rgb(66, 66, 66)" stroke-width="1px" opacity="0.25"></line><line x1="0" y1="66.375" x2="278.4375" y2="66.375" fill="rgb(0, 0, 0)" stroke="rgb(66, 66, 66)" stroke-width="1px" opacity="0.25"></line><line x1="0" y1="44.25000000000002" x2="278.4375" y2="44.25000000000002" fill="rgb(0, 0, 0)" stroke="rgb(66, 66, 66)" stroke-width="1px" opacity="0.25"></line><line x1="0" y1="22.12500000000002" x2="278.4375" y2="22.12500000000002" fill="rgb(0, 0, 0)" stroke="rgb(66, 66, 66)" stroke-width="1px" opacity="0.25"></line><line x1="0" y1="0" x2="278.4375" y2="0" fill="rgb(0, 0, 0)" stroke="rgb(66, 66, 66)" stroke-width="1px" opacity="0.25"></line></g></g></g><g><g><line x1="0" y1="177" x2="278.4375" y2="177" fill="rgb(0, 0, 0)" stroke="rgb(153, 153, 153)" stroke-width="1.5px"></line></g></g><g><g><line x1="23.203125" y1="0" x2="23.203125" y2="177" fill="rgb(0, 0, 0)" stroke="rgb(153, 153, 153)" stroke-width="1.5px"></line></g></g><g><g><g><g><g><path stroke="rgb(255, 112, 67)" stroke-width="2px" d="M32.484375,-18.517359581214862L33.64453125,5.09079035356623L34.8046875,22.12469490034782L35.96484375000001,35.80226851742974L37.125,48.33150757385621L38.28515625,57.56056981293831L39.4453125,64.33415701881691L40.60546875,70.11492665030234L41.765625,76.86564252821776L42.92578125,81.01426772592188L44.0859375,85.25845302731918L45.24609375,89.82878892782098L46.40625,93.9399160760317L47.56640625,96.97388010272337L48.7265625,99.70895347820198L49.88671875,101.4457730593877L51.04687499999999,104.18927963391964L52.20703125,107.27612371585228L53.36718750000001,109.10803139450651L54.52734375,111.00904555082336L55.6875,113.00512853176221L56.84765625,114.61282037520526L58.0078125,115.92135547068297L59.16796875,117.30201730073543L60.328125,118.72287458672628L61.48828125,120.43841635579405L62.6484375,121.7396115043601L63.80859375,122.64166042863953L64.96875,124.05959134627486L66.12890625,124.71069863429501L67.2890625,126.52628064703624L68.44921875,126.74886113316775L69.609375,128.51556735723432L70.76953125,127.77512035774848L71.92968750000001,129.013802238212L73.08984375,129.99658258747556L74.25,130.88011375073737L75.41015625,132.27962020944827L76.5703125,132.4429133722919L77.73046875,133.031544423995L78.890625,133.97201377416778L80.05078125,134.57453393945661L81.2109375,134.28178114151555L82.37109375,135.4951928508651L83.53125,135.76381674423095L84.69140624999999,136.88164598652406L85.8515625,137.4102782527133L87.01171875,138.39474783060137L88.171875,138.41073690335264L89.33203125000001,138.91322078693105L90.4921875,140.04753250115044L91.65234375,140.6614104210313L92.8125,140.7337668522582L93.97265625,141.22682661023055L95.1328125,141.649504062273L96.29296875,142.4187349523532L97.453125,143.19425005736514L98.61328125,143.75356773002483L99.7734375,143.1016353813621L100.93359375,143.3467214314826L102.09374999999999,143.9086381753497L103.25390625,145.16186114908533L104.4140625,145.5146150649266L105.57421875,145.77696158949593L106.73437500000001,145.87415261545218L107.89453125,146.3397983102705L109.0546875,146.291318733317L110.21484375,146.34566451836966L111.375,146.23660233604514L112.53515625,146.7040677442408L113.6953125,147.53911022092439L114.85546875,148.38031391722285L116.015625,147.92452189876033L117.17578125,148.49135726871128L118.3359375,148.71114735711834L119.49609374999999,149.17450376471413L120.65625,150.10070041862448L121.81640625,149.89755597887824L122.9765625,150.0846926506066L124.13671875000001,149.36988588784357L125.296875,149.9747121199323L126.45703125,149.9159749061974L127.6171875,149.64144422925187L128.77734375,149.98669015506906L129.9375,150.41165478610995L131.09765625,150.5888891329408L132.2578125,150.1197985655093L133.41796875,150.49273835992958L134.578125,151.34758280069317L135.73828125,151.54039717823676L136.8984375,151.92691674149282L138.05859375,151.9207382176295L139.21875,152.06095120826214L140.37890625,152.26969784211428L141.5390625,152.4003388618607L142.69921875,152.7042268997537L143.85937500000003,153.20558909467502L145.01953125,152.48135175565864L146.1796875,152.20310595190517L147.33984375,152.90231528613563L148.5,152.83986444463488L149.66015625,153.87980308050012L150.8203125,154.1121712001508L151.98046874999997,154.51041180848156L153.140625,154.43918420424507L154.30078125,154.45093191221622L155.4609375,154.34479132774632L156.62109375,154.11876257722471L157.78125,154.25199285948213L158.94140625,154.76155166732633L160.1015625,154.82838170100666L161.26171875000003,154.6826114095415L162.421875,155.69472792817146L163.58203125,155.83926727517243L164.7421875,156.19569560524104L165.90234375,155.6618197851555L167.0625,155.50022794787148L168.22265625,155.9239639124814L169.38281249999997,156.38887492680809L170.54296875,156.48262051263012L171.703125,156.637692558876L172.86328125,156.49276025629717L174.0234375,157.16898288152623L175.18359375,156.9169067521215L176.34375,157.15287919591788L177.50390625,157.6086785867865L178.66406250000003,157.83748151511284L179.82421875,157.92636042997438L180.984375,157.4792659419191L182.14453125,157.0680122710712L183.3046875,157.24834342673105L184.46484375,157.3072886824589L185.625,157.44147393688448L186.78515624999997,157.73773370137744L187.9453125,157.8723505196031L189.10546875,158.24783218172524L190.265625,158.25661164681514L191.42578125,158.70944291448833L192.5859375,158.55221601931L193.74609375,158.5995561293229L194.90625,158.45029518523603L196.06640625000003,158.62467379730217L197.2265625,158.4052609912233L198.38671875,158.74182856450537L199.546875,158.89572101083434L200.70703125,159.2753527030172L201.8671875,158.8793141850723L203.02734375,159.2381886658903L204.18749999999997,159.41602648826455L205.34765625,159.32712913398157L206.5078125,159.54831284713273L207.66796875,159.3056987847777L208.828125,159.63389491593193L209.98828125,159.87868661689967L211.1484375,159.89883213420634L212.30859375,159.30819272431688L213.46875000000003,159.29046028439973L214.62890625,159.43046194887026L215.7890625,159.98872666404168L216.94921875,160.2816706894071L218.109375,160.54329450343437L219.26953125,160.2785857262575L220.4296875,160.744084394268L221.58984374999997,160.83955605330573L222.75,160.66239909456675L223.91015625,160.78670004979674L225.0703125,160.86314533934535L226.23046875,160.66206880456534L227.390625,160.76077630621984L228.55078125,160.97978089229937L229.7109375,161.08594007850692L230.87109375000003,161.0985101830125L232.03125,161.29450465343356L233.19140625,161.65981453643417L234.3515625,161.872731774963L235.51171875,161.85761042157833L236.671875,161.70371811521068L237.83203125,161.74278127883085L238.99218749999997,161.52901445766813L240.15234375,161.37670295203046L241.3125,161.56025292211362L242.47265625,161.44440472712273L243.6328125,161.60464364194962L244.79296875,162.2383010571694L245.953125,161.77502354520533L247.11328125,161.9172360660909L248.27343750000003,161.99649204088917L249.43359375,162.26642822339338L250.59375,162.640896061371L251.75390625,162.34785783622277L252.9140625,162.40918093597062L254.07421875,162.13763589292864" style="fill: none;" fill="none"></path></g></g></g></g><g opacity="0.2"><g><g><g><path stroke="rgb(255, 112, 67)" stroke-width="2px" d="M30.1640625,-15.45068147778511L31.32421875,8.474540010094643L32.484375,23.773483157157898L33.64453125,40.14614161849022L34.8046875,47.521055459976196L35.96484375000001,56.24419619143009L37.125,67.08445601910353L38.28515625,71.3860824778676L39.4453125,74.48657573014498L40.60546875,78.78200405091047L41.765625,86.98885966837406L42.92578125,87.23615218698978L44.0859375,91.62408442050219L45.24609375,96.68387503176928L46.40625,100.10638133436441L47.56640625,101.52472630888224L48.7265625,103.81150954216719L49.88671875,104.05098185688257L51.04687499999999,108.30451999604702L52.20703125,111.90637667477131L53.36718750000001,111.85588822513819L54.52734375,113.86056386679411L55.6875,115.99925116449594L56.84765625,117.02435725182295L58.0078125,117.88415767997503L59.16796875,119.37300977110863L60.328125,120.8541603460908L61.48828125,123.0117288865149L62.6484375,123.69140417128801L63.80859375,123.99473379179835L64.96875,126.18648770079017L66.12890625,125.68735956028104L67.2890625,129.24965365603566L68.44921875,127.08273186162114L69.609375,131.16562668979168L70.76953125,126.66444985941052L71.92968750000001,130.8718250580132L73.08984375,131.47075311094522L74.25,132.20541049540043L75.41015625,134.37887989729643L76.5703125,132.6878531165421L77.73046875,133.91449100151658L78.890625,135.38271779939532L80.05078125,135.4783141873777L81.2109375,133.8426519446075L82.37109375,137.3153104148805L83.53125,136.16675258427858L84.69140624999999,138.5583898499608L85.8515625,138.20322665199637L87.01171875,139.87145219743252L88.171875,138.43472051247954L89.33203125000001,139.6669466122985L90.4921875,141.74900007247925L91.65234375,141.58222730085254L92.8125,140.84230149909854L93.97265625,141.96641624718904L95.1328125,142.28352024033666L96.29296875,143.57258128747344L97.453125,144.3575227148831L98.61328125,144.5925442390144L99.7734375,142.12373685836792L100.93359375,143.71435050666332L102.09374999999999,144.75151329115033L103.25390625,147.04169560968876L104.4140625,146.04374593868852L105.57421875,146.17048137634993L106.73437500000001,146.01993915438652L107.89453125,147.03826685249805L109.0546875,146.21859936788678L110.21484375,146.4271831959486L111.375,146.0730090625584L112.53515625,147.40526585653424L113.6953125,148.7916739359498L114.85546875,149.64211946167052L116.015625,147.24083387106657L117.17578125,149.34161032363772L118.3359375,149.04083248972893L119.49609374999999,149.8695383761078L120.65625,151.48999539949L121.81640625,149.59283931925893L122.9765625,150.36539765819907L124.13671875000001,148.29767574369907L125.296875,150.88195146806538L126.45703125,149.827869085595L127.6171875,149.22964821383357L128.77734375,150.50455904379487L129.9375,151.04910173267126L131.09765625,150.85474065318704L132.2578125,149.41616271436214L133.41796875,151.05214805155993L134.578125,152.6298494618386L135.73828125,151.82961874455214L136.8984375,152.5066960863769L138.05859375,151.91147043183446L139.21875,152.27127069421113L140.37890625,152.58281779289246L141.5390625,152.59630039148033L142.69921875,153.16005895659328L143.85937500000003,153.95763238705695L145.01953125,151.3949957471341L146.1796875,151.78573724627495L147.33984375,153.9511292874813L148.5,152.74618818238378L149.66015625,155.43971103429794L150.8203125,154.46072337962687L151.98046874999997,155.10777272097766L153.140625,154.3323427978903L154.30078125,154.46855347417295L155.4609375,154.18558045104146L156.62109375,153.77971945144236L157.78125,154.45183828286827L158.94140625,155.52588987909257L160.1015625,154.9286267515272L161.26171875000003,154.46395597234368L162.421875,157.21290270611644L163.58203125,156.05607629567385L164.7421875,156.73033810034394L165.90234375,154.86100605502725L167.0625,155.25784019194543L168.22265625,156.55956785939634L169.38281249999997,157.0862414482981L170.54296875,156.62323889136314L171.703125,156.87030062824488L172.86328125,156.27536180242896L174.0234375,158.1833168193698L175.18359375,156.5387925580144L176.34375,157.50683786161244L177.50390625,158.2923776730895L178.66406250000003,158.1806859076023L179.82421875,158.05967880226672L180.984375,156.80862420983613L182.14453125,156.45113176479936L183.3046875,157.51884016022086L184.46484375,157.39570656605065L185.625,157.6427518185228L186.78515624999997,158.18212334811687L187.9453125,158.07427574694157L189.10546875,158.81105467490852L190.265625,158.26978084445L191.42578125,159.38868981599808L192.5859375,158.31637567654252L193.74609375,158.67056629434228L194.90625,158.22640376910567L196.06640625000003,158.8862417154014L197.2265625,158.07614178210497L198.38671875,159.24667992442846L199.546875,159.12655968032777L200.70703125,159.84480024129152L201.8671875,158.28525640815496L203.02734375,159.77650038711727L204.18749999999997,159.68278322182596L205.34765625,159.19378310255706L206.5078125,159.8800884168595L207.66796875,158.94177769124508L208.828125,160.12618911266327L209.98828125,160.2458741683513L211.1484375,159.92905041016638L212.30859375,158.42223360948265L213.46875000000003,159.263861624524L214.62890625,159.64046444557607L215.7890625,160.82612373679876L216.94921875,160.72108672745526L218.109375,160.93573022447526L219.26953125,159.88152256049216L220.4296875,161.44233239628375L221.58984374999997,160.98276354186237L222.75,160.39666365645826L223.91015625,160.9731514826417L225.0703125,160.9778132736683L226.23046875,160.36045400239527L227.390625,160.90883755870163L228.55078125,161.3082877714187L229.7109375,161.24517885781825L230.87109375000003,161.1173653397709L232.03125,161.58849635906518L233.19140625,162.2077793609351L234.3515625,162.19210763275623L235.51171875,161.8349283915013L236.671875,161.4728796556592L237.83203125,161.80137602426112L238.99218749999997,161.20836422592402L240.15234375,161.14823569357395L241.3125,161.8355778772384L242.47265625,161.27063243463635L243.6328125,161.84500201418996L244.79296875,163.18878717999905L245.953125,161.08010727725923L247.11328125,162.13055484741926L248.27343750000003,162.11537600308657L249.43359375,162.6713324971497L250.59375,163.20259781833738L251.75390625,161.90830049850047L252.9140625,162.5011655855924L254.07421875,161.73031832836568" style="fill: none;" fill="none"></path></g></g></g></g></g></g><g transform="translate(51, 177)" clip-path="url(#clip_1)"><clipPath id="clip_1"><rect width="278" height="23"></rect></clipPath><g><g><line x1="0" y1="0" x2="0" y2="5" style="visibility: inherit;" fill="rgb(0, 0, 0)" stroke="rgb(204, 204, 204)" stroke-width="1px"></line><line x1="23.203125" y1="0" x2="23.203125" y2="5" style="visibility: inherit;" fill="rgb(0, 0, 0)" stroke="rgb(204, 204, 204)" stroke-width="1px"></line><line x1="46.40625" y1="0" x2="46.40625" y2="5" style="visibility: inherit;" fill="rgb(0, 0, 0)" stroke="rgb(204, 204, 204)" stroke-width="1px"></line><line x1="69.609375" y1="0" x2="69.609375" y2="5" style="visibility: inherit;" fill="rgb(0, 0, 0)" stroke="rgb(204, 204, 204)" stroke-width="1px"></line><line x1="92.8125" y1="0" x2="92.8125" y2="5" style="visibility: inherit;" fill="rgb(0, 0, 0)" stroke="rgb(204, 204, 204)" stroke-width="1px"></line><line x1="116.015625" y1="0" x2="116.015625" y2="5" style="visibility: inherit;" fill="rgb(0, 0, 0)" stroke="rgb(204, 204, 204)" stroke-width="1px"></line><line x1="139.21875" y1="0" x2="139.21875" y2="5" style="visibility: inherit;" fill="rgb(0, 0, 0)" stroke="rgb(204, 204, 204)" stroke-width="1px"></line><line x1="162.421875" y1="0" x2="162.421875" y2="5" style="visibility: inherit;" fill="rgb(0, 0, 0)" stroke="rgb(204, 204, 204)" stroke-width="1px"></line><line x1="185.625" y1="0" x2="185.625" y2="5" style="visibility: inherit;" fill="rgb(0, 0, 0)" stroke="rgb(204, 204, 204)" stroke-width="1px"></line><line x1="208.828125" y1="0" x2="208.828125" y2="5" style="visibility: inherit;" fill="rgb(0, 0, 0)" stroke="rgb(204, 204, 204)" stroke-width="1px"></line><line x1="232.03125" y1="0" x2="232.03125" y2="5" style="visibility: inherit;" fill="rgb(0, 0, 0)" stroke="rgb(204, 204, 204)" stroke-width="1px"></line><line x1="255.234375" y1="0" x2="255.234375" y2="5" style="visibility: inherit;" fill="rgb(0, 0, 0)" stroke="rgb(204, 204, 204)" stroke-width="1px"></line><line x1="278.4375" y1="0" x2="278.4375" y2="5" style="visibility: inherit;" fill="rgb(0, 0, 0)" stroke="rgb(204, 204, 204)" stroke-width="1px"></line></g><g transform="translate(0, 8)"><text x="0" y="0" dx="0em" dy="0.95em" style="text-anchor: middle; visibility: hidden; font-family: Roboto, sans-serif; font-size: 12px; font-weight: 200;" fill="rgb(33, 33, 33)" stroke="none" stroke-width="1px">-20</text><text x="23.203125" y="0" dx="0em" dy="0.95em" style="text-anchor: middle; visibility: inherit; font-family: Roboto, sans-serif; font-size: 12px; font-weight: 200;" fill="rgb(33, 33, 33)" stroke="none" stroke-width="1px">0</text><text x="46.40625" y="0" dx="0em" dy="0.95em" style="text-anchor: middle; visibility: hidden; font-family: Roboto, sans-serif; font-size: 12px; font-weight: 200;" fill="rgb(33, 33, 33)" stroke="none" stroke-width="1px">20</text><text x="69.609375" y="0" dx="0em" dy="0.95em" style="text-anchor: middle; visibility: inherit; font-family: Roboto, sans-serif; font-size: 12px; font-weight: 200;" fill="rgb(33, 33, 33)" stroke="none" stroke-width="1px">40</text><text x="92.8125" y="0" dx="0em" dy="0.95em" style="text-anchor: middle; visibility: hidden; font-family: Roboto, sans-serif; font-size: 12px; font-weight: 200;" fill="rgb(33, 33, 33)" stroke="none" stroke-width="1px">60</text><text x="116.015625" y="0" dx="0em" dy="0.95em" style="text-anchor: middle; visibility: inherit; font-family: Roboto, sans-serif; font-size: 12px; font-weight: 200;" fill="rgb(33, 33, 33)" stroke="none" stroke-width="1px">80</text><text x="139.21875" y="0" dx="0em" dy="0.95em" style="text-anchor: middle; visibility: hidden; font-family: Roboto, sans-serif; font-size: 12px; font-weight: 200;" fill="rgb(33, 33, 33)" stroke="none" stroke-width="1px">100</text><text x="162.421875" y="0" dx="0em" dy="0.95em" style="text-anchor: middle; visibility: inherit; font-family: Roboto, sans-serif; font-size: 12px; font-weight: 200;" fill="rgb(33, 33, 33)" stroke="none" stroke-width="1px">120</text><text x="185.625" y="0" dx="0em" dy="0.95em" style="text-anchor: middle; visibility: hidden; font-family: Roboto, sans-serif; font-size: 12px; font-weight: 200;" fill="rgb(33, 33, 33)" stroke="none" stroke-width="1px">140</text><text x="208.828125" y="0" dx="0em" dy="0.95em" style="text-anchor: middle; visibility: inherit; font-family: Roboto, sans-serif; font-size: 12px; font-weight: 200;" fill="rgb(33, 33, 33)" stroke="none" stroke-width="1px">160</text><text x="232.03125" y="0" dx="0em" dy="0.95em" style="text-anchor: middle; visibility: hidden; font-family: Roboto, sans-serif; font-size: 12px; font-weight: 200;" fill="rgb(33, 33, 33)" stroke="none" stroke-width="1px">180</text><text x="255.234375" y="0" dx="0em" dy="0.95em" style="text-anchor: middle; visibility: inherit; font-family: Roboto, sans-serif; font-size: 12px; font-weight: 200;" fill="rgb(33, 33, 33)" stroke="none" stroke-width="1px">200</text><text x="278.4375" y="0" dx="0em" dy="0.95em" style="text-anchor: middle; visibility: hidden; font-family: Roboto, sans-serif; font-size: 12px; font-weight: 200;" fill="rgb(33, 33, 33)" stroke="none" stroke-width="1px">220</text></g><line x1="0" y1="0" x2="278.4375" y2="0" fill="rgb(0, 0, 0)" stroke="rgb(204, 204, 204)" stroke-width="1px"></line></g></g></g></g></svg>