<svg viewBox="0 0 1391 400" xmlns="http://www.w3.org/2000/svg"><g><g><g><g><g><line x1="50" y1="377" x2="45" y2="377" style="visibility: inherit;" fill="rgb(0, 0, 0)" stroke="rgb(204, 204, 204)" stroke-width="1px"></line><line x1="50" y1="329.875" x2="45" y2="329.875" style="visibility: inherit;" fill="rgb(0, 0, 0)" stroke="rgb(204, 204, 204)" stroke-width="1px"></line><line x1="50" y1="282.75" x2="45" y2="282.75" style="visibility: inherit;" fill="rgb(0, 0, 0)" stroke="rgb(204, 204, 204)" stroke-width="1px"></line><line x1="50" y1="235.625" x2="45" y2="235.625" style="visibility: inherit;" fill="rgb(0, 0, 0)" stroke="rgb(204, 204, 204)" stroke-width="1px"></line><line x1="50" y1="188.5" x2="45" y2="188.5" style="visibility: inherit;" fill="rgb(0, 0, 0)" stroke="rgb(204, 204, 204)" stroke-width="1px"></line><line x1="50" y1="141.375" x2="45" y2="141.375" style="visibility: inherit;" fill="rgb(0, 0, 0)" stroke="rgb(204, 204, 204)" stroke-width="1px"></line><line x1="50" y1="94.25000000000004" x2="45" y2="94.25000000000004" style="visibility: inherit;" fill="rgb(0, 0, 0)" stroke="rgb(204, 204, 204)" stroke-width="1px"></line><line x1="50" y1="47.12500000000004" x2="45" y2="47.12500000000004" style="visibility: inherit;" fill="rgb(0, 0, 0)" stroke="rgb(204, 204, 204)" stroke-width="1px"></line><line x1="50" y1="0" x2="45" y2="0" style="visibility: inherit;" fill="rgb(0, 0, 0)" stroke="rgb(204, 204, 204)" stroke-width="1px"></line></g><g transform="translate(40, 0)"><text x="0" y="377" dx="0em" dy="0.3em" style="text-anchor: end; visibility: hidden; font-family: Roboto, sans-serif; font-size: 12px; font-weight: 200;" fill="rgb(33, 33, 33)" stroke="none" stroke-width="1px">0</text><text x="0" y="329.875" dx="0em" dy="0.3em" style="text-anchor: end; visibility: inherit; font-family: Roboto, sans-serif; font-size: 12px; font-weight: 200;" fill="rgb(33, 33, 33)" stroke="none" stroke-width="1px">0.05</text><text x="0" y="282.75" dx="0em" dy="0.3em" style="text-anchor: end; visibility: inherit; font-family: Roboto, sans-serif; font-size: 12px; font-weight: 200;" fill="rgb(33, 33, 33)" stroke="none" stroke-width="1px">0.1</text><text x="0" y="235.625" dx="0em" dy="0.3em" style="text-anchor: end; visibility: inherit; font-family: Roboto, sans-serif; font-size: 12px; font-weight: 200;" fill="rgb(33, 33, 33)" stroke="none" stroke-width="1px">0.15</text><text x="0" y="188.5" dx="0em" dy="0.3em" style="text-anchor: end; visibility: inherit; font-family: Roboto, sans-serif; font-size: 12px; font-weight: 200;" fill="rgb(33, 33, 33)" stroke="none" stroke-width="1px">0.2</text><text x="0" y="141.375" dx="0em" dy="0.3em" style="text-anchor: end; visibility: inherit; font-family: Roboto, sans-serif; font-size: 12px; font-weight: 200;" fill="rgb(33, 33, 33)" stroke="none" stroke-width="1px">0.25</text><text x="0" y="94.25000000000004" dx="0em" dy="0.3em" style="text-anchor: end; visibility: inherit; font-family: Roboto, sans-serif; font-size: 12px; font-weight: 200;" fill="rgb(33, 33, 33)" stroke="none" stroke-width="1px">0.3</text><text x="0" y="47.12500000000004" dx="0em" dy="0.3em" style="text-anchor: end; visibility: inherit; font-family: Roboto, sans-serif; font-size: 12px; font-weight: 200;" fill="rgb(33, 33, 33)" stroke="none" stroke-width="1px">0.35</text><text x="0" y="0" dx="0em" dy="0.3em" style="text-anchor: end; visibility: hidden; font-family: Roboto, sans-serif; font-size: 12px; font-weight: 200;" fill="rgb(33, 33, 33)" stroke="none" stroke-width="1px">0.4</text></g><line x1="50" y1="0" x2="50" y2="377" fill="rgb(0, 0, 0)" stroke="rgb(204, 204, 204)" stroke-width="1px"></line></g></g><g transform="translate(50, 0)" clip-path="url(#clip_0)"><clipPath id="clip_0"><rect width="1341" height="377"></rect></clipPath><g><g><g><line x1="0" y1="0" x2="0" y2="377" fill="rgb(0, 0, 0)" stroke="rgb(66, 66, 66)" stroke-width="1px" opacity="0.25"></line><line x1="111.75" y1="0" x2="111.75" y2="377" fill="rgb(0, 0, 0)" stroke="rgb(66, 66, 66)" stroke-width="1px" opacity="0.25"></line><line x1="223.5" y1="0" x2="223.5" y2="377" fill="rgb(0, 0, 0)" stroke="rgb(66, 66, 66)" stroke-width="1px" opacity="0.25"></line><line x1="335.25" y1="0" x2="335.25" y2="377" fill="rgb(0, 0, 0)" stroke="rgb(66, 66, 66)" stroke-width="1px" opacity="0.25"></line><line x1="447" y1="0" x2="447" y2="377" fill="rgb(0, 0, 0)" stroke="rgb(66, 66, 66)" stroke-width="1px" opacity="0.25"></line><line x1="558.75" y1="0" x2="558.75" y2="377" fill="rgb(0, 0, 0)" stroke="rgb(66, 66, 66)" stroke-width="1px" opacity="0.25"></line><line x1="670.5" y1="0" x2="670.5" y2="377" fill="rgb(0, 0, 0)" stroke="rgb(66, 66, 66)" stroke-width="1px" opacity="0.25"></line><line x1="782.25" y1="0" x2="782.25" y2="377" fill="rgb(0, 0, 0)" stroke="rgb(66, 66, 66)" stroke-width="1px" opacity="0.25"></line><line x1="894" y1="0" x2="894" y2="377" fill="rgb(0, 0, 0)" stroke="rgb(66, 66, 66)" stroke-width="1px" opacity="0.25"></line><line x1="1005.75" y1="0" x2="1005.75" y2="377" fill="rgb(0, 0, 0)" stroke="rgb(66, 66, 66)" stroke-width="1px" opacity="0.25"></line><line x1="1117.5" y1="0" x2="1117.5" y2="377" fill="rgb(0, 0, 0)" stroke="rgb(66, 66, 66)" stroke-width="1px" opacity="0.25"></line><line x1="1229.25" y1="0" x2="1229.25" y2="377" fill="rgb(0, 0, 0)" stroke="rgb(66, 66, 66)" stroke-width="1px" opacity="0.25"></line><line x1="1341" y1="0" x2="1341" y2="377" fill="rgb(0, 0, 0)" stroke="rgb(66, 66, 66)" stroke-width="1px" opacity="0.25"></line></g><g><line x1="0" y1="377" x2="1341" y2="377" fill="rgb(0, 0, 0)" stroke="rgb(66, 66, 66)" stroke-width="1px" opacity="0.25"></line><line x1="0" y1="329.875" x2="1341" y2="329.875" fill="rgb(0, 0, 0)" stroke="rgb(66, 66, 66)" stroke-width="1px" opacity="0.25"></line><line x1="0" y1="282.75" x2="1341" y2="282.75" fill="rgb(0, 0, 0)" stroke="rgb(66, 66, 66)" stroke-width="1px" opacity="0.25"></line><line x1="0" y1="235.625" x2="1341" y2="235.625" fill="rgb(0, 0, 0)" stroke="rgb(66, 66, 66)" stroke-width="1px" opacity="0.25"></line><line x1="0" y1="188.5" x2="1341" y2="188.5" fill="rgb(0, 0, 0)" stroke="rgb(66, 66, 66)" stroke-width="1px" opacity="0.25"></line><line x1="0" y1="141.375" x2="1341" y2="141.375" fill="rgb(0, 0, 0)" stroke="rgb(66, 66, 66)" stroke-width="1px" opacity="0.25"></line><line x1="0" y1="94.25000000000004" x2="1341" y2="94.25000000000004" fill="rgb(0, 0, 0)" stroke="rgb(66, 66, 66)" stroke-width="1px" opacity="0.25"></line><line x1="0" y1="47.12500000000004" x2="1341" y2="47.12500000000004" fill="rgb(0, 0, 0)" stroke="rgb(66, 66, 66)" stroke-width="1px" opacity="0.25"></line><line x1="0" y1="0" x2="1341" y2="0" fill="rgb(0, 0, 0)" stroke="rgb(66, 66, 66)" stroke-width="1px" opacity="0.25"></line></g></g></g><g><g><line x1="0" y1="377" x2="1341" y2="377" fill="rgb(0, 0, 0)" stroke="rgb(153, 153, 153)" stroke-width="1.5px"></line></g></g><g><g><line x1="111.75" y1="0" x2="111.75" y2="377" fill="rgb(0, 0, 0)" stroke="rgb(153, 153, 153)" stroke-width="1.5px"></line></g></g><g><g><g><g><g><path stroke="rgb(255, 112, 67)" stroke-width="2px" d="M156.45,-45.18192747957856L162.0375,5.049289357137037L167.625,43.6496712951231L173.2125,73.25391078592256L178.8,99.07376061033558L184.38750000000002,119.8725701287441L189.975,138.60119703547755L195.5625,152.68408146066076L201.15,164.04380063946004L206.7375,174.4924468697378L212.325,184.10620189840262L217.9125,192.6429675358031L223.5,199.29194717015844L229.0875,207.10015697093112L234.67499999999998,212.37736164230228L240.2625,219.10579228751865L245.85,224.88171043906635L251.4375,229.45147524016406L257.02500000000003,236.1782474089432L262.6125,240.1096196963118L268.2,243.0882467601675L273.7875,243.13290077385903L279.375,247.48562710167946L284.9625,250.5450805308406L290.55,255.15151071681998L296.1375,257.7538250156844L301.725,260.1849376794557L307.3125,263.143336203623L312.9,264.43832836769457L318.4875,267.37080751835873L324.075,269.7523948572264L329.66249999999997,272.56820099117374L335.25,274.95697785844476L340.8375,277.09437965662863L346.425,277.85874733983644L352.0125,280.61850288653005L357.6,282.68718971866195L363.1875,282.96585020161115L368.77500000000003,282.77175011327995L374.3625,284.38612068502437L379.95,287.6746243555293L385.53749999999997,288.4946914982234L391.125,289.87065473327317L396.7125,292.2330912404086L402.3,291.83918663131084L407.8875,292.77110299478204L413.475,294.2301947415494L419.0625,296.12033120337935L424.65,296.05985451217776L430.2375,299.53787918523767L435.825,300.21079646727935L441.4125,301.46661721278133L447,301.7969591802889L452.58750000000003,302.68685955921023L458.175,304.69270325970183L463.7625,304.3839481787177L469.34999999999997,304.9914646665032L474.9375,306.5036587235198L480.525,307.8246176163474L486.1125,307.265287166543L491.7,308.94270691615765L497.2875,309.6164819529201L502.875,309.7171138662425L508.4625,310.54138176073593L514.0500000000001,311.6739180784223L519.6375,311.60562627916323L525.225,312.69046551081414L530.8125,313.95207613165894L536.4,312.3194590953334L541.9875,311.2821694268193L547.575,312.53574646135604L553.1625,314.66502491903566L558.75,316.1232177117304L564.3375,316.9217855221829L569.925,316.47479579072007L575.5124999999999,317.440320365702L581.1,318.2118052798956L586.6875,319.0978663702875L592.275,319.53574017227106L597.8625000000001,320.9714452909852L603.45,319.26550883277804L609.0375,319.23188785448406L614.625,319.89644868439274L620.2125,319.696320291703L625.8,322.3283392832249L631.3875,322.3089812626285L636.975,323.09579445301546L642.5625,323.2141811706367L648.15,324.0803435918834L653.7375,323.9714653433648L659.3249999999999,325.1890372934215L664.9125,324.87579916803674L670.5,325.5368748330393L676.0875,326.5679145052027L681.675,327.07454870605414L687.2624999999999,327.8581913394567L692.85,327.0733967726133L698.4375,328.1430863055409L704.025,328.9300862446619L709.6125,327.75344225288586L715.2,328.3537090973327L720.7875,328.7876258876186L726.375,329.042703714893L731.9625,330.4808149483357L737.5500000000001,330.4612460350427L743.1375,330.2741835178693L748.725,330.7545035831189L754.3125,331.5404314020011L759.9,332.07254730649197L765.4875,331.5281219690287L771.0749999999999,331.9742849072363L776.6625,332.110514966431L782.25,331.4661182621317L787.8375,332.3863008705793L793.425,332.5406240418862L799.0125,332.5661491778678L804.6,333.1012608954124L810.1875,333.70336368449404L815.775,334.83254061798976L821.3625000000001,335.9185855219407L826.95,334.82616611150763L832.5375,333.99478938923994L838.125,334.33761282859274L843.7125,335.01248911528603L849.3,335.442179279827L854.8874999999999,335.70873317408734L860.475,335.8504205028008L866.0625,337.05431913613023L871.65,337.812988226287L877.2375,336.9070553561583L882.825,335.8859542171976L888.4125,337.28495065634377L894,336.981627626806L899.5875,336.3578057556388L905.1750000000001,336.35952046179995L910.7625,337.07695831679837L916.35,337.27030193626007L921.9375,337.95211822953297L927.525,337.77311653147024L933.1125,338.179652848094L938.6999999999999,339.09046050205785L944.2875,338.89549078372096L949.875,338.73874239147887L955.4625,339.4223062360059L961.05,340.1142260559661L966.6375,340.33854339589254L972.225,339.49253379669534L977.8125,340.2965349807843L983.4,340.5717043670717L988.9875000000001,341.3986092145862L994.575,340.62940725002414L1000.1625,340.7883034128769L1005.75,340.9346150586798L1011.3375,341.06328794165216L1016.925,341.77625386374456L1022.5124999999999,341.88539392624654L1028.1000000000001,341.5161591574511L1033.6875,342.1233666340984L1039.275,341.80138754549483L1044.8625,341.2039982420377L1050.45,342.27022717175913L1056.0375,342.0428203584434L1061.625,342.877632571261L1067.2124999999999,343.40272953987176L1072.8,343.10433075654544L1078.3875,343.6426442977967L1083.975,343.5457907903005L1089.5625,343.5097156666403L1095.15,343.82308157549414L1100.7375,343.5363924481935L1106.325,343.79683523422284L1111.9125000000001,343.6737294020998L1117.5,344.5711657411008L1123.0875,345.1177760731369L1128.675,344.96321230433523L1134.2625,344.23828894527037L1139.85,344.54896462414433L1145.4375,345.6117132482157L1151.0249999999999,345.6178388134972L1156.6125,345.43064448975537L1162.2,346.02844927381284L1167.7875,346.4257217894245L1173.375,346.0738661065846L1178.9625,345.6855060480624L1184.55,344.9651582835668L1190.1375,345.57408356136403L1195.7250000000001,346.15282709280444L1201.3125,346.9151804954099L1206.9,346.8014385423236L1212.4875,346.9423543875618L1218.075,348.2300927126529L1223.6625,347.8376983513905" style="fill: none;" fill="none"></path></g></g></g></g><g opacity="0.2"><g><g><g><path stroke="rgb(255, 112, 67)" stroke-width="2px" d="M145.275,-36.30932676792145L150.8625,12.796863958239555L156.45,40.888811096549034L162.0375,79.63679221272469L167.625,101.20014157891273L173.2125,117.49916505813599L178.8,137.71922905743122L184.38750000000002,151.03003737330437L189.975,166.6721225976944L195.5625,173.79847575724125L201.15,181.07857235521078L206.7375,190.1627633050084L212.325,198.52536988258362L217.9125,205.4473356977105L223.5,209.2650519758463L229.0875,218.81221473962069L234.67499999999998,220.29306446015835L240.2625,229.19835855066776L245.85,233.54554661363363L251.4375,236.30610295385122L257.02500000000003,246.26838845014572L262.6125,246.0066720917821L268.2,247.55618461221457L273.7875,243.19988176971674L279.375,254.01471514999866L284.9625,255.1342600658536L290.55,262.06115544587374L296.1375,261.65729627758265L301.725,263.83160657063127L307.3125,267.5809339135885L312.9,266.3808165937662L318.4875,271.7695262171328L324.075,273.324775852263L329.66249999999997,276.79191018268466L335.25,278.5401431545615L340.8375,280.3004823513329L346.425,279.0052988640964L352.0125,284.7581362053752L357.6,285.7902199663222L363.1875,283.38384092599154L368.77500000000003,282.48059998080134L374.3625,286.8076765425503L379.95,292.607379861176L385.53749999999997,289.72479221224785L391.125,291.93459958583117L396.7125,295.7767460010946L402.3,291.2483297176659L407.8875,294.1689775399864L413.475,296.41883236169815L419.0625,298.95553589612246L424.65,295.9691394753754L430.2375,304.75491619482636L435.825,301.22017239034176L441.4125,303.3503483310342L447,302.2924721315503L452.58750000000003,304.0217101275921L458.175,307.7014688104391L463.7625,303.92081555724144L469.34999999999997,305.90273939818144L474.9375,308.7719498090446L480.525,309.8060559555888L486.1125,306.4262914918363L491.7,311.4588365405798L497.2875,310.6271445080638L502.875,309.8680617362261L508.4625,311.7777836024761L514.0500000000001,313.3727225549519L519.6375,311.5031885802746L525.225,314.31772435829043L530.8125,315.8444920629263L536.4,309.8705335408449L541.9875,309.7262349240482L547.575,314.4161120131612L553.1625,317.85894260555506L558.75,318.31050690077245L564.3375,318.11963723786175L569.925,315.8043111935258L575.5124999999999,318.8886072281748L581.1,319.369032651186L586.6875,320.42695800587535L592.275,320.1925508752465L597.8625000000001,323.12500296905637L603.45,316.7066041454673L609.0375,319.181456387043L614.625,320.89328992925584L620.2125,319.3961277026683L625.8,326.27636777050793L631.3875,322.2799442317337L636.975,324.27601423859596L642.5625,323.39176124706864L648.15,325.37958722375333L653.7375,323.808147970587L659.3249999999999,327.01539521850646L664.9125,324.4059419799596L670.5,326.52848833054304L676.0875,328.11447401344776L681.675,327.83450000733137L687.2624999999999,329.03365528956056L692.85,325.89620492234826L698.4375,329.7476206049323L704.025,330.1105861533433L709.6125,325.98847626522183L715.2,329.25410936400294L720.7875,329.4385010730475L726.375,329.42532045580447L731.9625,332.6379817984998L737.5500000000001,330.4318926651031L743.1375,329.9935897421092L748.725,331.4749836809933L754.3125,332.7193231303245L759.9,332.87072116322815L765.4875,330.7114839628339L771.0749999999999,332.6435293145478L776.6625,332.3148600552231L782.25,330.49952320568264L787.8375,333.7665747832507L793.425,332.7721087988466L799.0125,332.60443688184023L804.6,333.90392847172916L810.1875,334.6065178681165L815.775,336.5263060182333L821.3625000000001,337.5476528778672L826.95,333.18753699585795L832.5375,332.74772430583835L838.125,334.851847987622L843.7125,336.024803545326L849.3,336.0867145266384L854.8874999999999,336.1085640154779L860.475,336.06295149587095L866.0625,338.8601670861244L871.65,338.9509918615222L877.2375,335.5481560509652L882.825,334.3543025087565L888.4125,339.383445315063L894,336.5266430824995L899.5875,335.42207294888794L905.1750000000001,336.36209252104163L910.7625,338.153115099296L916.35,337.56031736545265L921.9375,338.9748426694423L927.525,337.5046139843762L933.1125,338.78945732302964L938.6999999999999,340.4566719830036L944.2875,338.6030362062156L949.875,338.5036198031157L955.4625,340.44765200279653L961.05,341.1521057859063L966.6375,340.6750194057822L972.225,338.2235193978995L977.8125,341.50253675691783L983.4,340.9844584465027L988.9875000000001,342.63896648585796L994.575,339.47560430318117L1000.1625,341.026647657156L1005.75,341.15408252738416L1011.3375,341.2562972661108L1016.925,342.84570274688303L1022.5124999999999,342.0491040199995L1028.1000000000001,340.96230700425804L1033.6875,343.03417784906924L1039.275,341.31841891258955L1044.8625,340.3079142868519L1050.45,343.8695705663413L1056.0375,341.70171013846993L1061.625,344.12985089048743L1067.2124999999999,344.19037499278784L1072.8,342.65673258155584L1078.3875,344.4501146096736L1083.975,343.4005105290562L1089.5625,343.45560298115015L1095.15,344.2931304387748L1100.7375,343.10635875724256L1106.325,344.1874994132668L1111.9125000000001,343.4890706539154L1117.5,345.9173202496022L1123.0875,345.93769157119095L1128.675,344.7313666511327L1134.2625,343.1509039066732L1139.85,345.0149781424552L1145.4375,347.20583618432283L1151.0249999999999,345.6270271614194L1156.6125,345.14985300414264L1162.2,346.9251564498991L1167.7875,347.0216305628419L1173.375,345.54608258232474L1178.9625,345.1029659602791L1184.55,343.8846366368234L1190.1375,346.4874714780599L1195.7250000000001,347.02094238996506L1201.3125,348.05871059931815L1206.9,346.630825612694L1212.4875,347.15372815541923L1218.075,350.1617002002895L1223.6625,347.2491068094969" style="fill: none;" fill="none"></path></g></g></g></g></g></g><g transform="translate(50, 377)" clip-path="url(#clip_1)"><clipPath id="clip_1"><rect width="1341" height="23"></rect></clipPath><g><g><line x1="0" y1="0" x2="0" y2="5" style="visibility: inherit;" fill="rgb(0, 0, 0)" stroke="rgb(204, 204, 204)" stroke-width="1px"></line><line x1="111.75" y1="0" x2="111.75" y2="5" style="visibility: inherit;" fill="rgb(0, 0, 0)" stroke="rgb(204, 204, 204)" stroke-width="1px"></line><line x1="223.5" y1="0" x2="223.5" y2="5" style="visibility: inherit;" fill="rgb(0, 0, 0)" stroke="rgb(204, 204, 204)" stroke-width="1px"></line><line x1="335.25" y1="0" x2="335.25" y2="5" style="visibility: inherit;" fill="rgb(0, 0, 0)" stroke="rgb(204, 204, 204)" stroke-width="1px"></line><line x1="447" y1="0" x2="447" y2="5" style="visibility: inherit;" fill="rgb(0, 0, 0)" stroke="rgb(204, 204, 204)" stroke-width="1px"></line><line x1="558.75" y1="0" x2="558.75" y2="5" style="visibility: inherit;" fill="rgb(0, 0, 0)" stroke="rgb(204, 204, 204)" stroke-width="1px"></line><line x1="670.5" y1="0" x2="670.5" y2="5" style="visibility: inherit;" fill="rgb(0, 0, 0)" stroke="rgb(204, 204, 204)" stroke-width="1px"></line><line x1="782.25" y1="0" x2="782.25" y2="5" style="visibility: inherit;" fill="rgb(0, 0, 0)" stroke="rgb(204, 204, 204)" stroke-width="1px"></line><line x1="894" y1="0" x2="894" y2="5" style="visibility: inherit;" fill="rgb(0, 0, 0)" stroke="rgb(204, 204, 204)" stroke-width="1px"></line><line x1="1005.75" y1="0" x2="1005.75" y2="5" style="visibility: inherit;" fill="rgb(0, 0, 0)" stroke="rgb(204, 204, 204)" stroke-width="1px"></line><line x1="1117.5" y1="0" x2="1117.5" y2="5" style="visibility: inherit;" fill="rgb(0, 0, 0)" stroke="rgb(204, 204, 204)" stroke-width="1px"></line><line x1="1229.25" y1="0" x2="1229.25" y2="5" style="visibility: inherit;" fill="rgb(0, 0, 0)" stroke="rgb(204, 204, 204)" stroke-width="1px"></line><line x1="1341" y1="0" x2="1341" y2="5" style="visibility: inherit;" fill="rgb(0, 0, 0)" stroke="rgb(204, 204, 204)" stroke-width="1px"></line></g><g transform="translate(0, 8)"><text x="0" y="0" dx="0em" dy="0.95em" style="text-anchor: middle; visibility: hidden; font-family: Roboto, sans-serif; font-size: 12px; font-weight: 200;" fill="rgb(33, 33, 33)" stroke="none" stroke-width="1px">-20</text><text x="111.75" y="0" dx="0em" dy="0.95em" style="text-anchor: middle; visibility: inherit; font-family: Roboto, sans-serif; font-size: 12px; font-weight: 200;" fill="rgb(33, 33, 33)" stroke="none" stroke-width="1px">0</text><text x="223.5" y="0" dx="0em" dy="0.95em" style="text-anchor: middle; visibility: inherit; font-family: Roboto, sans-serif; font-size: 12px; font-weight: 200;" fill="rgb(33, 33, 33)" stroke="none" stroke-width="1px">20</text><text x="335.25" y="0" dx="0em" dy="0.95em" style="text-anchor: middle; visibility: inherit; font-family: Roboto, sans-serif; font-size: 12px; font-weight: 200;" fill="rgb(33, 33, 33)" stroke="none" stroke-width="1px">40</text><text x="447" y="0" dx="0em" dy="0.95em" style="text-anchor: middle; visibility: inherit; font-family: Roboto, sans-serif; font-size: 12px; font-weight: 200;" fill="rgb(33, 33, 33)" stroke="none" stroke-width="1px">60</text><text x="558.75" y="0" dx="0em" dy="0.95em" style="text-anchor: middle; visibility: inherit; font-family: Roboto, sans-serif; font-size: 12px; font-weight: 200;" fill="rgb(33, 33, 33)" stroke="none" stroke-width="1px">80</text><text x="670.5" y="0" dx="0em" dy="0.95em" style="text-anchor: middle; visibility: inherit; font-family: Roboto, sans-serif; font-size: 12px; font-weight: 200;" fill="rgb(33, 33, 33)" stroke="none" stroke-width="1px">100</text><text x="782.25" y="0" dx="0em" dy="0.95em" style="text-anchor: middle; visibility: inherit; font-family: Roboto, sans-serif; font-size: 12px; font-weight: 200;" fill="rgb(33, 33, 33)" stroke="none" stroke-width="1px">120</text><text x="894" y="0" dx="0em" dy="0.95em" style="text-anchor: middle; visibility: inherit; font-family: Roboto, sans-serif; font-size: 12px; font-weight: 200;" fill="rgb(33, 33, 33)" stroke="none" stroke-width="1px">140</text><text x="1005.75" y="0" dx="0em" dy="0.95em" style="text-anchor: middle; visibility: inherit; font-family: Roboto, sans-serif; font-size: 12px; font-weight: 200;" fill="rgb(33, 33, 33)" stroke="none" stroke-width="1px">160</text><text x="1117.5" y="0" dx="0em" dy="0.95em" style="text-anchor: middle; visibility: inherit; font-family: Roboto, sans-serif; font-size: 12px; font-weight: 200;" fill="rgb(33, 33, 33)" stroke="none" stroke-width="1px">180</text><text x="1229.25" y="0" dx="0em" dy="0.95em" style="text-anchor: middle; visibility: inherit; font-family: Roboto, sans-serif; font-size: 12px; font-weight: 200;" fill="rgb(33, 33, 33)" stroke="none" stroke-width="1px">200</text><text x="1341" y="0" dx="0em" dy="0.95em" style="text-anchor: middle; visibility: hidden; font-family: Roboto, sans-serif; font-size: 12px; font-weight: 200;" fill="rgb(33, 33, 33)" stroke="none" stroke-width="1px">220</text></g><line x1="0" y1="0" x2="1341" y2="0" fill="rgb(0, 0, 0)" stroke="rgb(204, 204, 204)" stroke-width="1px"></line></g></g></g></g></svg>