<svg viewBox="0 0 330 200" xmlns="http://www.w3.org/2000/svg"><g><g><g><g><g><line x1="50" y1="177" x2="45" y2="177" style="visibility: inherit;" fill="rgb(0, 0, 0)" stroke="rgb(204, 204, 204)" stroke-width="1px"></line><line x1="50" y1="154.875" x2="45" y2="154.875" style="visibility: inherit;" fill="rgb(0, 0, 0)" stroke="rgb(204, 204, 204)" stroke-width="1px"></line><line x1="50" y1="132.75" x2="45" y2="132.75" style="visibility: inherit;" fill="rgb(0, 0, 0)" stroke="rgb(204, 204, 204)" stroke-width="1px"></line><line x1="50" y1="110.625" x2="45" y2="110.625" style="visibility: inherit;" fill="rgb(0, 0, 0)" stroke="rgb(204, 204, 204)" stroke-width="1px"></line><line x1="50" y1="88.5" x2="45" y2="88.5" style="visibility: inherit;" fill="rgb(0, 0, 0)" stroke="rgb(204, 204, 204)" stroke-width="1px"></line><line x1="50" y1="66.375" x2="45" y2="66.375" style="visibility: inherit;" fill="rgb(0, 0, 0)" stroke="rgb(204, 204, 204)" stroke-width="1px"></line><line x1="50" y1="44.25000000000002" x2="45" y2="44.25000000000002" style="visibility: inherit;" fill="rgb(0, 0, 0)" stroke="rgb(204, 204, 204)" stroke-width="1px"></line><line x1="50" y1="22.12500000000002" x2="45" y2="22.12500000000002" style="visibility: inherit;" fill="rgb(0, 0, 0)" stroke="rgb(204, 204, 204)" stroke-width="1px"></line><line x1="50" y1="0" x2="45" y2="0" style="visibility: inherit;" fill="rgb(0, 0, 0)" stroke="rgb(204, 204, 204)" stroke-width="1px"></line></g><g transform="translate(40, 0)"><text x="0" y="177" dx="0em" dy="0.3em" style="text-anchor: end; visibility: hidden; font-family: Roboto, sans-serif; font-size: 12px; font-weight: 200;" fill="rgb(33, 33, 33)" stroke="none" stroke-width="1px">0</text><text x="0" y="154.875" dx="0em" dy="0.3em" style="text-anchor: end; visibility: inherit; font-family: Roboto, sans-serif; font-size: 12px; font-weight: 200;" fill="rgb(33, 33, 33)" stroke="none" stroke-width="1px">0.05</text><text x="0" y="132.75" dx="0em" dy="0.3em" style="text-anchor: end; visibility: hidden; font-family: Roboto, sans-serif; font-size: 12px; font-weight: 200;" fill="rgb(33, 33, 33)" stroke="none" stroke-width="1px">0.1</text><text x="0" y="110.625" dx="0em" dy="0.3em" style="text-anchor: end; visibility: inherit; font-family: Roboto, sans-serif; font-size: 12px; font-weight: 200;" fill="rgb(33, 33, 33)" stroke="none" stroke-width="1px">0.15</text><text x="0" y="88.5" dx="0em" dy="0.3em" style="text-anchor: end; visibility: hidden; font-family: Roboto, sans-serif; font-size: 12px; font-weight: 200;" fill="rgb(33, 33, 33)" stroke="none" stroke-width="1px">0.2</text><text x="0" y="66.375" dx="0em" dy="0.3em" style="text-anchor: end; visibility: inherit; font-family: Roboto, sans-serif; font-size: 12px; font-weight: 200;" fill="rgb(33, 33, 33)" stroke="none" stroke-width="1px">0.25</text><text x="0" y="44.25000000000002" dx="0em" dy="0.3em" style="text-anchor: end; visibility: hidden; font-family: Roboto, sans-serif; font-size: 12px; font-weight: 200;" fill="rgb(33, 33, 33)" stroke="none" stroke-width="1px">0.3</text><text x="0" y="22.12500000000002" dx="0em" dy="0.3em" style="text-anchor: end; visibility: inherit; font-family: Roboto, sans-serif; font-size: 12px; font-weight: 200;" fill="rgb(33, 33, 33)" stroke="none" stroke-width="1px">0.35</text><text x="0" y="0" dx="0em" dy="0.3em" style="text-anchor: end; visibility: hidden; font-family: Roboto, sans-serif; font-size: 12px; font-weight: 200;" fill="rgb(33, 33, 33)" stroke="none" stroke-width="1px">0.4</text></g><line x1="50" y1="0" x2="50" y2="177" fill="rgb(0, 0, 0)" stroke="rgb(204, 204, 204)" stroke-width="1px"></line></g></g><g transform="translate(50, 0)" clip-path="url(#clip_0)"><clipPath id="clip_0"><rect width="280" height="177"></rect></clipPath><g><g><g><line x1="0" y1="0" x2="0" y2="177" fill="rgb(0, 0, 0)" stroke="rgb(66, 66, 66)" stroke-width="1px" opacity="0.25"></line><line x1="23.333333333333332" y1="0" x2="23.333333333333332" y2="177" fill="rgb(0, 0, 0)" stroke="rgb(66, 66, 66)" stroke-width="1px" opacity="0.25"></line><line x1="46.666666666666664" y1="0" x2="46.666666666666664" y2="177" fill="rgb(0, 0, 0)" stroke="rgb(66, 66, 66)" stroke-width="1px" opacity="0.25"></line><line x1="70" y1="0" x2="70" y2="177" fill="rgb(0, 0, 0)" stroke="rgb(66, 66, 66)" stroke-width="1px" opacity="0.25"></line><line x1="93.33333333333333" y1="0" x2="93.33333333333333" y2="177" fill="rgb(0, 0, 0)" stroke="rgb(66, 66, 66)" stroke-width="1px" opacity="0.25"></line><line x1="116.66666666666667" y1="0" x2="116.66666666666667" y2="177" fill="rgb(0, 0, 0)" stroke="rgb(66, 66, 66)" stroke-width="1px" opacity="0.25"></line><line x1="140" y1="0" x2="140" y2="177" fill="rgb(0, 0, 0)" stroke="rgb(66, 66, 66)" stroke-width="1px" opacity="0.25"></line><line x1="163.33333333333334" y1="0" x2="163.33333333333334" y2="177" fill="rgb(0, 0, 0)" stroke="rgb(66, 66, 66)" stroke-width="1px" opacity="0.25"></line><line x1="186.66666666666666" y1="0" x2="186.66666666666666" y2="177" fill="rgb(0, 0, 0)" stroke="rgb(66, 66, 66)" stroke-width="1px" opacity="0.25"></line><line x1="210" y1="0" x2="210" y2="177" fill="rgb(0, 0, 0)" stroke="rgb(66, 66, 66)" stroke-width="1px" opacity="0.25"></line><line x1="233.33333333333334" y1="0" x2="233.33333333333334" y2="177" fill="rgb(0, 0, 0)" stroke="rgb(66, 66, 66)" stroke-width="1px" opacity="0.25"></line><line x1="256.66666666666663" y1="0" x2="256.66666666666663" y2="177" fill="rgb(0, 0, 0)" stroke="rgb(66, 66, 66)" stroke-width="1px" opacity="0.25"></line><line x1="280" y1="0" x2="280" y2="177" fill="rgb(0, 0, 0)" stroke="rgb(66, 66, 66)" stroke-width="1px" opacity="0.25"></line></g><g><line x1="0" y1="177" x2="280" y2="177" fill="rgb(0, 0, 0)" stroke="rgb(66, 66, 66)" stroke-width="1px" opacity="0.25"></line><line x1="0" y1="154.875" x2="280" y2="154.875" fill="rgb(0, 0, 0)" stroke="rgb(66, 66, 66)" stroke-width="1px" opacity="0.25"></line><line x1="0" y1="132.75" x2="280" y2="132.75" fill="rgb(0, 0, 0)" stroke="rgb(66, 66, 66)" stroke-width="1px" opacity="0.25"></line><line x1="0" y1="110.625" x2="280" y2="110.625" fill="rgb(0, 0, 0)" stroke="rgb(66, 66, 66)" stroke-width="1px" opacity="0.25"></line><line x1="0" y1="88.5" x2="280" y2="88.5" fill="rgb(0, 0, 0)" stroke="rgb(66, 66, 66)" stroke-width="1px" opacity="0.25"></line><line x1="0" y1="66.375" x2="280" y2="66.375" fill="rgb(0, 0, 0)" stroke="rgb(66, 66, 66)" stroke-width="1px" opacity="0.25"></line><line x1="0" y1="44.25000000000002" x2="280" y2="44.25000000000002" fill="rgb(0, 0, 0)" stroke="rgb(66, 66, 66)" stroke-width="1px" opacity="0.25"></line><line x1="0" y1="22.12500000000002" x2="280" y2="22.12500000000002" fill="rgb(0, 0, 0)" stroke="rgb(66, 66, 66)" stroke-width="1px" opacity="0.25"></line><line x1="0" y1="0" x2="280" y2="0" fill="rgb(0, 0, 0)" stroke="rgb(66, 66, 66)" stroke-width="1px" opacity="0.25"></line></g></g></g><g><g><line x1="0" y1="177" x2="280" y2="177" fill="rgb(0, 0, 0)" stroke="rgb(153, 153, 153)" stroke-width="1.5px"></line></g></g><g><g><line x1="23.333333333333332" y1="0" x2="23.333333333333332" y2="177" fill="rgb(0, 0, 0)" stroke="rgb(153, 153, 153)" stroke-width="1.5px"></line></g></g><g><g><g><g><g><path stroke="rgb(255, 112, 67)" stroke-width="2px" d="M32.666666666666664,-21.21273518271991L33.833333333333336,2.3706212631651344L35,20.493347000628084L36.16666666666667,34.39241965280714L37.333333333333336,46.514736413871084L38.5,56.27969472887986L39.666666666666664,65.07271054450803L40.833333333333336,71.6845687494349L42,77.0179117060595L43.16666666666667,81.9235095383119L44.33333333333333,86.43712927325534L45.5,90.44510677410383L46.666666666666664,93.56677625760754L47.833333333333336,97.23269969192256L49,99.71032628829576L50.166666666666664,102.86929770528064L51.33333333333333,105.58106829632558L52.5,107.72655468835288L53.66666666666667,110.8847474572492L54.833333333333336,112.73051110410394L56,114.12896465928289L57.166666666666664,114.14992954104257L58.333333333333336,116.1935172334145L59.5,117.62991844551404L60.66666666666667,119.79261908985977L61.83333333333333,121.01439529914096L63,122.15579302191951L64.16666666666666,123.54474935819967L65.33333333333333,124.15274302674253L66.5,125.52953032029043L67.66666666666667,126.64767610007712L68.83333333333333,127.9696858764927L70,129.0912071112592L71.16666666666666,130.09470875125535L72.33333333333334,130.45357633727068L73.5,131.7492705859836L74.66666666666667,132.72051082282007L75.83333333333333,132.851340810836L77,132.76021159164603L78.16666666666667,133.51815215185493L79.33333333333333,135.0620915409249L80.5,135.44710980155315L81.66666666666667,136.09311906575425L82.83333333333333,137.20227360623957L84,137.0173369595279L85.16666666666666,137.4548679842876L86.33333333333334,138.13990575399004L87.5,139.02731730238233L88.66666666666666,138.99892373648663L89.83333333333334,140.63184248219383L91,140.94777446872266L92.16666666666667,141.53737731210157L93.33333333333333,141.69247155148844L94.5,142.1102762386743L95.66666666666667,143.05201187524463L96.83333333333333,142.90705259319105L98,143.192279167032L99.16666666666667,143.90224826011405L100.33333333333333,144.52243320449202L101.5,144.25982978376155L102.66666666666666,145.04737168212176L103.83333333333334,145.3637063810792L105,145.41095266399185L106.16666666666666,145.79794316087603L107.33333333333334,146.3296644559171L108.5,146.297601727883L109.66666666666667,146.80692943080663L110.83333333333333,147.39925059762237L112,146.63274339489126L113.16666666666667,146.14574002267113L114.33333333333333,146.7342894526791L115.5,147.73397721662948L116.66666666666667,148.41859293097156L117.83333333333333,148.79351734065352L119,148.58365744020546L120.16666666666666,149.03696738654975L121.33333333333334,149.399176484195L122.5,149.815178640692L123.66666666666666,150.02075864851986L124.83333333333334,150.69481648940152L126,149.89388610981888L127.16666666666667,149.8781011942803L128.33333333333331,150.19010985978122L129.5,150.09615037568017L130.66666666666666,151.33187281997564L131.83333333333334,151.3227843063269L133,151.69218996865712L134.16666666666669,151.74777206154562L135.33333333333334,152.15443187205133L136.5,152.10331396757445L137.66666666666666,152.67495915367533L138.83333333333334,152.52789510011274L140,152.8382674945569L141.16666666666666,153.32233651835776L142.33333333333331,153.56019925987155L143.5,153.92811635831256L144.66666666666669,153.5596584317044L145.83333333333334,154.06187341135475L147,154.43136675147255L148.16666666666666,153.8789370789411L149.33333333333334,154.16075997407927L150.5,154.36448218065914L151.66666666666666,154.4842402056659L152.83333333333331,155.1594277078393L154,155.1502401809086L155.16666666666669,155.0624150733763L156.33333333333334,155.28792343292318L157.5,155.65691341685462L158.66666666666666,155.90673971684106L159.83333333333331,155.65113418705062L161,155.860605911355L162.16666666666669,155.9245653821175L163.33333333333334,155.62202369336157L164.5,156.0540457668237L165.66666666666666,156.12649988173436L166.83333333333334,156.13848383151884L168,156.3897166538143L169.16666666666666,156.6724015176537L170.33333333333331,157.20254559518352L171.5,157.71243935645492L172.66666666666669,157.19955278975291L173.83333333333334,156.80922472651318L175,156.97017896727033L176.16666666666666,157.28703069868868L177.33333333333331,157.48876852129808L178.5,157.61391451409406L179.66666666666669,157.68043615118233L180.83333333333334,158.2456617694829L182,158.60185388873424L183.16666666666666,158.17652201071624L184.33333333333334,157.6971190887108L185.5,158.3539423505911L186.66666666666666,158.2115333950787L187.83333333333331,157.91865150861557L189,157.91945655633577L190.16666666666669,158.25629077473025L191.33333333333334,158.34706483479584L192.5,158.66717487169055L193.66666666666666,158.58313428665844L194.83333333333331,158.7740014697948L196,159.2016220394277L197.16666666666669,159.1100845324101L198.33333333333334,159.0364917859198L199.5,159.3574222911752L200.66666666666666,159.68227589364986L201.83333333333334,159.787591992236L203,159.39039385149886L204.16666666666666,159.76786920848494L205.33333333333331,159.89706014050847L206.5,160.28528867634418L207.66666666666669,159.9241514144676L208.83333333333334,159.99875253071409L210,160.06744526627674L211.16666666666666,160.1278566728712L212.33333333333331,160.46259133655911L213.5,160.5138321616595L214.66666666666669,160.34047790681393L215.83333333333334,160.62555940115496L217,160.4743915001395L218.16666666666666,160.19391959904686L219.33333333333334,160.69450983926092L220.5,160.58774324521085L221.66666666666666,160.9796842575947L222.83333333333331,161.22621519511222L224,161.08611815360354L225.16666666666669,161.33885421938996L226.33333333333334,161.29338188297928L227.5,161.27644475595582L228.66666666666666,161.4235688033487L229.83333333333331,161.28896939875398L231,161.41124625055025L232.16666666666669,161.3534485521795L233.33333333333334,161.77479134263885L234.5,162.0314227186876L235.66666666666666,161.95885564421042L236.83333333333334,161.61850701143993L238,161.7643680065611L239.16666666666666,162.26332425711985L240.33333333333331,162.26620018564722L241.5,162.17831319545544L242.66666666666669,162.4589801630368L243.83333333333334,162.6454980284566L245,162.48030318531954L246.16666666666666,162.29796968304254L247.33333333333331,161.95976927371703L248.5,162.24565726886323L249.66666666666669,162.5173750541814L250.83333333333334,162.87529694346833L252,162.82189554904846L253.16666666666666,162.88805497771472L254.33333333333334,163.49264299771767L255.5,163.30841540635575" style="fill: none;" fill="none"></path></g></g></g></g><g opacity="0.2"><g><g><g><path stroke="rgb(255, 112, 67)" stroke-width="2px" d="M30.333333333333336,-17.04708445072174L31.5,6.008076712489128L32.666666666666664,19.197134122252464L33.833333333333336,37.389157086610794L35,47.513063818216324L36.16666666666667,55.165390491485596L37.333333333333336,64.65863008797169L38.5,70.90800163149834L39.666666666666664,78.2518984079361L40.833333333333336,81.59769286215305L42,85.01566924899817L43.16666666666667,89.28066075593233L44.33333333333333,93.20687127113342L45.5,96.45670668035746L46.666666666666664,98.24910928308964L47.833333333333336,102.73146421462297L49,103.42671726644039L50.166666666666664,107.60771740972996L51.33333333333333,109.6487049087882L52.5,110.94477512687445L53.66666666666667,115.62202852964401L54.833333333333336,115.49915374070406L56,116.22664370387793L57.166666666666664,114.18137685209513L58.333333333333336,119.25889809429646L59.5,119.7845199778676L60.66666666666667,123.03666979819536L61.83333333333333,122.84705952554941L63,123.86788955703378L64.16666666666666,125.62818382680416L65.33333333333333,125.06473352015018L66.5,127.59471124783158L67.66666666666667,128.3248947635293L68.83333333333333,129.9527005366981L70,130.77348896116018L71.16666666666666,131.59996121004224L72.33333333333334,130.99187771603465L73.5,133.6928119584918L74.66666666666667,134.17737117782235L75.83333333333333,133.04758579283953L77,132.6235177628696L78.16666666666667,134.65506299212575L79.33333333333333,137.37800062447786L80.5,136.02463719248772L81.66666666666667,137.06213296204805L82.83333333333333,138.86600541695952L84,136.73993198946118L85.16666666666666,138.11116452142596L86.33333333333334,139.16746240854263L87.5,140.35843462496996L88.66666666666666,138.9563333876431L89.83333333333334,143.08122060075402L91,141.4216724485159L92.16666666666667,142.4217815771699L93.33333333333333,141.9251129105687L94.5,142.73698326945305L95.66666666666667,144.46461533010006L96.83333333333333,142.6896136701107L98,143.6201190277934L99.16666666666667,144.96720189973712L100.33333333333333,145.45271062105894L101.5,143.86592465266585L102.66666666666666,146.22868452966213L103.83333333333334,145.83820842951536L105,145.4818220883608L106.16666666666666,146.37842890620232L107.33333333333334,147.12724639847875L108.5,146.24950763583183L109.66666666666667,147.57092098519206L110.83333333333333,148.28773234784603L112,145.48298259079456L113.16666666666667,145.41523496434093L114.33333333333333,147.61711359769106L115.5,149.23350886255503L116.66666666666667,149.44551650248468L117.83333333333333,149.35590395517647L119,148.26886758953333L120.16666666666666,149.71693230606616L121.33333333333334,149.94249013066292L122.5,150.4391818754375L123.66666666666666,150.32912866026163L124.83333333333334,151.70590325072408L126,148.69249054044485L127.16666666666667,149.85442382097244L128.33333333333331,150.65812285803258L129.5,149.95521114952862L130.66666666666666,153.18545648641884L131.83333333333334,151.30915153585374L133,152.24629846215248L134.16666666666669,151.83114520087838L135.33333333333334,152.76442158780992L136.5,152.02663711085916L137.66666666666666,153.53242693282664L138.83333333333334,152.30729901976883L140,153.30382608622313L141.16666666666666,154.04844005405903L142.33333333333331,153.91699337214231L143.5,154.47999200597405L144.66666666666669,153.00697154179215L145.83333333333334,154.8151958808303L147,154.98560676164925L148.16666666666666,153.05029257014394L149.33333333333334,154.58349431678653L150.5,154.67006549052894L151.66666666666666,154.6638772431761L152.83333333333331,156.1722089610994L154,155.13645889051259L155.16666666666669,154.93067741207778L156.33333333333334,155.62618597224355L157.5,156.2103983927518L158.66666666666666,156.28147916682065L159.83333333333331,155.26772589236498L161,156.17481349781156L162.16666666666669,156.02050458826125L163.33333333333334,155.16821116022766L164.5,156.7020788770169L165.66666666666666,156.2351810541004L166.83333333333334,156.15645975619555L168,156.76656588725746L169.16666666666666,157.09642881341279L170.33333333333331,157.99776171147823L171.5,158.47727999836206L172.66666666666669,156.4302229396999L173.83333333333334,156.22373263165355L175,157.2116103284061L176.16666666666666,157.76230829581618L177.33333333333331,157.7913752552122L178.5,157.80163350328803L179.66666666666669,157.78021860681474L180.83333333333334,159.09350019693375L182,159.13614206761122L183.16666666666666,157.53852419368923L184.33333333333334,156.97801470570266L185.5,159.33917724341154L186.66666666666666,157.9979199618101L187.83333333333331,157.47932867892087L189,157.9206641279161L190.16666666666669,158.76154210232198L191.33333333333334,158.4832259248942L192.5,159.1473399270326L193.66666666666666,158.4570734091103L194.83333333333331,159.06030224449933L196,159.84305289387703L197.16666666666669,158.97277827188373L198.33333333333334,158.9261026661843L199.5,159.83881804905832L200.66666666666666,160.16955629736185L201.83333333333334,159.94556614011526L203,158.79459664039314L204.16666666666666,160.33408224396408L205.33333333333331,160.0908465385437L206.5,160.86763148009777L207.66666666666669,159.3824455216527L208.83333333333334,160.11065420508385L210,160.17048436962068L211.16666666666666,160.21847378276289L212.33333333333331,160.96469333209097L213.5,160.5906933993101L214.66666666666669,160.08044652454555L215.83333333333334,161.05318164266646L217,160.2476396486163L218.16666666666666,159.7732117474079L219.33333333333334,161.44539519958198L220.5,160.42759335413575L221.66666666666666,161.5675957761705L222.83333333333331,161.59601160138845L224,160.87597259134054L225.16666666666669,161.71795831806958L226.33333333333334,161.22517337836325L227.5,161.25103906542063L228.66666666666666,161.64425487443805L229.83333333333331,161.0870702918619L231,161.59466152824461L232.16666666666669,161.2667520046234L233.33333333333334,162.40680552832782L234.5,162.41636978276074L235.66666666666666,161.85000503249466L236.83333333333334,161.10798406228423L238,161.9831594992429L239.16666666666666,163.01175863295794L240.33333333333331,162.27051407843828L241.5,162.04648271016777L242.66666666666669,162.87998061440885L243.83333333333334,162.92527482658625L245,162.232510920614L246.16666666666666,162.02446942962706L247.33333333333331,161.45246865972877L248.5,162.6744892615825L249.66666666666669,162.92495173215866L250.83333333333334,163.4121797773987L252,162.74179345741868L253.16666666666666,162.98729412071407L254.33333333333334,164.39952502772212L255.5,163.03207401931286" style="fill: none;" fill="none"></path></g></g></g></g></g></g><g transform="translate(50, 177)" clip-path="url(#clip_1)"><clipPath id="clip_1"><rect width="280" height="23"></rect></clipPath><g><g><line x1="0" y1="0" x2="0" y2="5" style="visibility: inherit;" fill="rgb(0, 0, 0)" stroke="rgb(204, 204, 204)" stroke-width="1px"></line><line x1="23.333333333333332" y1="0" x2="23.333333333333332" y2="5" style="visibility: inherit;" fill="rgb(0, 0, 0)" stroke="rgb(204, 204, 204)" stroke-width="1px"></line><line x1="46.666666666666664" y1="0" x2="46.666666666666664" y2="5" style="visibility: inherit;" fill="rgb(0, 0, 0)" stroke="rgb(204, 204, 204)" stroke-width="1px"></line><line x1="70" y1="0" x2="70" y2="5" style="visibility: inherit;" fill="rgb(0, 0, 0)" stroke="rgb(204, 204, 204)" stroke-width="1px"></line><line x1="93.33333333333333" y1="0" x2="93.33333333333333" y2="5" style="visibility: inherit;" fill="rgb(0, 0, 0)" stroke="rgb(204, 204, 204)" stroke-width="1px"></line><line x1="116.66666666666667" y1="0" x2="116.66666666666667" y2="5" style="visibility: inherit;" fill="rgb(0, 0, 0)" stroke="rgb(204, 204, 204)" stroke-width="1px"></line><line x1="140" y1="0" x2="140" y2="5" style="visibility: inherit;" fill="rgb(0, 0, 0)" stroke="rgb(204, 204, 204)" stroke-width="1px"></line><line x1="163.33333333333334" y1="0" x2="163.33333333333334" y2="5" style="visibility: inherit;" fill="rgb(0, 0, 0)" stroke="rgb(204, 204, 204)" stroke-width="1px"></line><line x1="186.66666666666666" y1="0" x2="186.66666666666666" y2="5" style="visibility: inherit;" fill="rgb(0, 0, 0)" stroke="rgb(204, 204, 204)" stroke-width="1px"></line><line x1="210" y1="0" x2="210" y2="5" style="visibility: inherit;" fill="rgb(0, 0, 0)" stroke="rgb(204, 204, 204)" stroke-width="1px"></line><line x1="233.33333333333334" y1="0" x2="233.33333333333334" y2="5" style="visibility: inherit;" fill="rgb(0, 0, 0)" stroke="rgb(204, 204, 204)" stroke-width="1px"></line><line x1="256.66666666666663" y1="0" x2="256.66666666666663" y2="5" style="visibility: inherit;" fill="rgb(0, 0, 0)" stroke="rgb(204, 204, 204)" stroke-width="1px"></line><line x1="280" y1="0" x2="280" y2="5" style="visibility: inherit;" fill="rgb(0, 0, 0)" stroke="rgb(204, 204, 204)" stroke-width="1px"></line></g><g transform="translate(0, 8)"><text x="0" y="0" dx="0em" dy="0.95em" style="text-anchor: middle; visibility: hidden; font-family: Roboto, sans-serif; font-size: 12px; font-weight: 200;" fill="rgb(33, 33, 33)" stroke="none" stroke-width="1px">-20</text><text x="23.333333333333332" y="0" dx="0em" dy="0.95em" style="text-anchor: middle; visibility: inherit; font-family: Roboto, sans-serif; font-size: 12px; font-weight: 200;" fill="rgb(33, 33, 33)" stroke="none" stroke-width="1px">0</text><text x="46.666666666666664" y="0" dx="0em" dy="0.95em" style="text-anchor: middle; visibility: hidden; font-family: Roboto, sans-serif; font-size: 12px; font-weight: 200;" fill="rgb(33, 33, 33)" stroke="none" stroke-width="1px">20</text><text x="70" y="0" dx="0em" dy="0.95em" style="text-anchor: middle; visibility: inherit; font-family: Roboto, sans-serif; font-size: 12px; font-weight: 200;" fill="rgb(33, 33, 33)" stroke="none" stroke-width="1px">40</text><text x="93.33333333333333" y="0" dx="0em" dy="0.95em" style="text-anchor: middle; visibility: hidden; font-family: Roboto, sans-serif; font-size: 12px; font-weight: 200;" fill="rgb(33, 33, 33)" stroke="none" stroke-width="1px">60</text><text x="116.66666666666667" y="0" dx="0em" dy="0.95em" style="text-anchor: middle; visibility: inherit; font-family: Roboto, sans-serif; font-size: 12px; font-weight: 200;" fill="rgb(33, 33, 33)" stroke="none" stroke-width="1px">80</text><text x="140" y="0" dx="0em" dy="0.95em" style="text-anchor: middle; visibility: hidden; font-family: Roboto, sans-serif; font-size: 12px; font-weight: 200;" fill="rgb(33, 33, 33)" stroke="none" stroke-width="1px">100</text><text x="163.33333333333334" y="0" dx="0em" dy="0.95em" style="text-anchor: middle; visibility: inherit; font-family: Roboto, sans-serif; font-size: 12px; font-weight: 200;" fill="rgb(33, 33, 33)" stroke="none" stroke-width="1px">120</text><text x="186.66666666666666" y="0" dx="0em" dy="0.95em" style="text-anchor: middle; visibility: hidden; font-family: Roboto, sans-serif; font-size: 12px; font-weight: 200;" fill="rgb(33, 33, 33)" stroke="none" stroke-width="1px">140</text><text x="210" y="0" dx="0em" dy="0.95em" style="text-anchor: middle; visibility: inherit; font-family: Roboto, sans-serif; font-size: 12px; font-weight: 200;" fill="rgb(33, 33, 33)" stroke="none" stroke-width="1px">160</text><text x="233.33333333333334" y="0" dx="0em" dy="0.95em" style="text-anchor: middle; visibility: hidden; font-family: Roboto, sans-serif; font-size: 12px; font-weight: 200;" fill="rgb(33, 33, 33)" stroke="none" stroke-width="1px">180</text><text x="256.66666666666663" y="0" dx="0em" dy="0.95em" style="text-anchor: middle; visibility: inherit; font-family: Roboto, sans-serif; font-size: 12px; font-weight: 200;" fill="rgb(33, 33, 33)" stroke="none" stroke-width="1px">200</text><text x="280" y="0" dx="0em" dy="0.95em" style="text-anchor: middle; visibility: hidden; font-family: Roboto, sans-serif; font-size: 12px; font-weight: 200;" fill="rgb(33, 33, 33)" stroke="none" stroke-width="1px">220</text></g><line x1="0" y1="0" x2="280" y2="0" fill="rgb(0, 0, 0)" stroke="rgb(204, 204, 204)" stroke-width="1px"></line></g></g></g></g></svg>