<svg viewBox="0 0 330 200" xmlns="http://www.w3.org/2000/svg"><g><g><g><g><g><line x1="40" y1="177" x2="35" y2="177" style="visibility: inherit;" fill="rgb(0, 0, 0)" stroke="rgb(204, 204, 204)" stroke-width="1px"></line><line x1="40" y1="162.25" x2="35" y2="162.25" style="visibility: inherit;" fill="rgb(0, 0, 0)" stroke="rgb(204, 204, 204)" stroke-width="1px"></line><line x1="40" y1="147.5" x2="35" y2="147.5" style="visibility: inherit;" fill="rgb(0, 0, 0)" stroke="rgb(204, 204, 204)" stroke-width="1px"></line><line x1="40" y1="132.75" x2="35" y2="132.75" style="visibility: inherit;" fill="rgb(0, 0, 0)" stroke="rgb(204, 204, 204)" stroke-width="1px"></line><line x1="40" y1="118" x2="35" y2="118" style="visibility: inherit;" fill="rgb(0, 0, 0)" stroke="rgb(204, 204, 204)" stroke-width="1px"></line><line x1="40" y1="103.24999999999999" x2="35" y2="103.24999999999999" style="visibility: inherit;" fill="rgb(0, 0, 0)" stroke="rgb(204, 204, 204)" stroke-width="1px"></line><line x1="40" y1="88.5" x2="35" y2="88.5" style="visibility: inherit;" fill="rgb(0, 0, 0)" stroke="rgb(204, 204, 204)" stroke-width="1px"></line><line x1="40" y1="73.75" x2="35" y2="73.75" style="visibility: inherit;" fill="rgb(0, 0, 0)" stroke="rgb(204, 204, 204)" stroke-width="1px"></line><line x1="40" y1="58.999999999999986" x2="35" y2="58.999999999999986" style="visibility: inherit;" fill="rgb(0, 0, 0)" stroke="rgb(204, 204, 204)" stroke-width="1px"></line><line x1="40" y1="44.25" x2="35" y2="44.25" style="visibility: inherit;" fill="rgb(0, 0, 0)" stroke="rgb(204, 204, 204)" stroke-width="1px"></line><line x1="40" y1="29.499999999999993" x2="35" y2="29.499999999999993" style="visibility: inherit;" fill="rgb(0, 0, 0)" stroke="rgb(204, 204, 204)" stroke-width="1px"></line><line x1="40" y1="14.749999999999988" x2="35" y2="14.749999999999988" style="visibility: inherit;" fill="rgb(0, 0, 0)" stroke="rgb(204, 204, 204)" stroke-width="1px"></line><line x1="40" y1="0" x2="35" y2="0" style="visibility: inherit;" fill="rgb(0, 0, 0)" stroke="rgb(204, 204, 204)" stroke-width="1px"></line></g><g transform="translate(30, 0)"><text x="0" y="177" dx="0em" dy="0.3em" style="text-anchor: end; visibility: hidden; font-family: Roboto, sans-serif; font-size: 12px; font-weight: 200;" fill="rgb(33, 33, 33)" stroke="none" stroke-width="1px">0</text><text x="0" y="162.25" dx="0em" dy="0.3em" style="text-anchor: end; visibility: inherit; font-family: Roboto, sans-serif; font-size: 12px; font-weight: 200;" fill="rgb(33, 33, 33)" stroke="none" stroke-width="1px">0.1</text><text x="0" y="147.5" dx="0em" dy="0.3em" style="text-anchor: end; visibility: hidden; font-family: Roboto, sans-serif; font-size: 12px; font-weight: 200;" fill="rgb(33, 33, 33)" stroke="none" stroke-width="1px">0.2</text><text x="0" y="132.75" dx="0em" dy="0.3em" style="text-anchor: end; visibility: inherit; font-family: Roboto, sans-serif; font-size: 12px; font-weight: 200;" fill="rgb(33, 33, 33)" stroke="none" stroke-width="1px">0.3</text><text x="0" y="118" dx="0em" dy="0.3em" style="text-anchor: end; visibility: hidden; font-family: Roboto, sans-serif; font-size: 12px; font-weight: 200;" fill="rgb(33, 33, 33)" stroke="none" stroke-width="1px">0.4</text><text x="0" y="103.24999999999999" dx="0em" dy="0.3em" style="text-anchor: end; visibility: inherit; font-family: Roboto, sans-serif; font-size: 12px; font-weight: 200;" fill="rgb(33, 33, 33)" stroke="none" stroke-width="1px">0.5</text><text x="0" y="88.5" dx="0em" dy="0.3em" style="text-anchor: end; visibility: hidden; font-family: Roboto, sans-serif; font-size: 12px; font-weight: 200;" fill="rgb(33, 33, 33)" stroke="none" stroke-width="1px">0.6</text><text x="0" y="73.75" dx="0em" dy="0.3em" style="text-anchor: end; visibility: inherit; font-family: Roboto, sans-serif; font-size: 12px; font-weight: 200;" fill="rgb(33, 33, 33)" stroke="none" stroke-width="1px">0.7</text><text x="0" y="58.999999999999986" dx="0em" dy="0.3em" style="text-anchor: end; visibility: hidden; font-family: Roboto, sans-serif; font-size: 12px; font-weight: 200;" fill="rgb(33, 33, 33)" stroke="none" stroke-width="1px">0.8</text><text x="0" y="44.25" dx="0em" dy="0.3em" style="text-anchor: end; visibility: inherit; font-family: Roboto, sans-serif; font-size: 12px; font-weight: 200;" fill="rgb(33, 33, 33)" stroke="none" stroke-width="1px">0.9</text><text x="0" y="29.499999999999993" dx="0em" dy="0.3em" style="text-anchor: end; visibility: hidden; font-family: Roboto, sans-serif; font-size: 12px; font-weight: 200;" fill="rgb(33, 33, 33)" stroke="none" stroke-width="1px">1</text><text x="0" y="14.749999999999988" dx="0em" dy="0.3em" style="text-anchor: end; visibility: inherit; font-family: Roboto, sans-serif; font-size: 12px; font-weight: 200;" fill="rgb(33, 33, 33)" stroke="none" stroke-width="1px">1.1</text><text x="0" y="0" dx="0em" dy="0.3em" style="text-anchor: end; visibility: hidden; font-family: Roboto, sans-serif; font-size: 12px; font-weight: 200;" fill="rgb(33, 33, 33)" stroke="none" stroke-width="1px">1.2</text></g><line x1="40" y1="0" x2="40" y2="177" fill="rgb(0, 0, 0)" stroke="rgb(204, 204, 204)" stroke-width="1px"></line></g></g><g transform="translate(40, 0)" clip-path="url(#clip_0)"><clipPath id="clip_0"><rect width="290" height="177"></rect></clipPath><g><g><g><line x1="0" y1="0" x2="0" y2="177" fill="rgb(0, 0, 0)" stroke="rgb(66, 66, 66)" stroke-width="1px" opacity="0.25"></line><line x1="24.166666666666664" y1="0" x2="24.166666666666664" y2="177" fill="rgb(0, 0, 0)" stroke="rgb(66, 66, 66)" stroke-width="1px" opacity="0.25"></line><line x1="48.33333333333333" y1="0" x2="48.33333333333333" y2="177" fill="rgb(0, 0, 0)" stroke="rgb(66, 66, 66)" stroke-width="1px" opacity="0.25"></line><line x1="72.5" y1="0" x2="72.5" y2="177" fill="rgb(0, 0, 0)" stroke="rgb(66, 66, 66)" stroke-width="1px" opacity="0.25"></line><line x1="96.66666666666666" y1="0" x2="96.66666666666666" y2="177" fill="rgb(0, 0, 0)" stroke="rgb(66, 66, 66)" stroke-width="1px" opacity="0.25"></line><line x1="120.83333333333334" y1="0" x2="120.83333333333334" y2="177" fill="rgb(0, 0, 0)" stroke="rgb(66, 66, 66)" stroke-width="1px" opacity="0.25"></line><line x1="145" y1="0" x2="145" y2="177" fill="rgb(0, 0, 0)" stroke="rgb(66, 66, 66)" stroke-width="1px" opacity="0.25"></line><line x1="169.16666666666669" y1="0" x2="169.16666666666669" y2="177" fill="rgb(0, 0, 0)" stroke="rgb(66, 66, 66)" stroke-width="1px" opacity="0.25"></line><line x1="193.33333333333331" y1="0" x2="193.33333333333331" y2="177" fill="rgb(0, 0, 0)" stroke="rgb(66, 66, 66)" stroke-width="1px" opacity="0.25"></line><line x1="217.5" y1="0" x2="217.5" y2="177" fill="rgb(0, 0, 0)" stroke="rgb(66, 66, 66)" stroke-width="1px" opacity="0.25"></line><line x1="241.66666666666669" y1="0" x2="241.66666666666669" y2="177" fill="rgb(0, 0, 0)" stroke="rgb(66, 66, 66)" stroke-width="1px" opacity="0.25"></line><line x1="265.8333333333333" y1="0" x2="265.8333333333333" y2="177" fill="rgb(0, 0, 0)" stroke="rgb(66, 66, 66)" stroke-width="1px" opacity="0.25"></line><line x1="290" y1="0" x2="290" y2="177" fill="rgb(0, 0, 0)" stroke="rgb(66, 66, 66)" stroke-width="1px" opacity="0.25"></line></g><g><line x1="0" y1="177" x2="290" y2="177" fill="rgb(0, 0, 0)" stroke="rgb(66, 66, 66)" stroke-width="1px" opacity="0.25"></line><line x1="0" y1="162.25" x2="290" y2="162.25" fill="rgb(0, 0, 0)" stroke="rgb(66, 66, 66)" stroke-width="1px" opacity="0.25"></line><line x1="0" y1="147.5" x2="290" y2="147.5" fill="rgb(0, 0, 0)" stroke="rgb(66, 66, 66)" stroke-width="1px" opacity="0.25"></line><line x1="0" y1="132.75" x2="290" y2="132.75" fill="rgb(0, 0, 0)" stroke="rgb(66, 66, 66)" stroke-width="1px" opacity="0.25"></line><line x1="0" y1="118" x2="290" y2="118" fill="rgb(0, 0, 0)" stroke="rgb(66, 66, 66)" stroke-width="1px" opacity="0.25"></line><line x1="0" y1="103.24999999999999" x2="290" y2="103.24999999999999" fill="rgb(0, 0, 0)" stroke="rgb(66, 66, 66)" stroke-width="1px" opacity="0.25"></line><line x1="0" y1="88.5" x2="290" y2="88.5" fill="rgb(0, 0, 0)" stroke="rgb(66, 66, 66)" stroke-width="1px" opacity="0.25"></line><line x1="0" y1="73.75" x2="290" y2="73.75" fill="rgb(0, 0, 0)" stroke="rgb(66, 66, 66)" stroke-width="1px" opacity="0.25"></line><line x1="0" y1="58.999999999999986" x2="290" y2="58.999999999999986" fill="rgb(0, 0, 0)" stroke="rgb(66, 66, 66)" stroke-width="1px" opacity="0.25"></line><line x1="0" y1="44.25" x2="290" y2="44.25" fill="rgb(0, 0, 0)" stroke="rgb(66, 66, 66)" stroke-width="1px" opacity="0.25"></line><line x1="0" y1="29.499999999999993" x2="290" y2="29.499999999999993" fill="rgb(0, 0, 0)" stroke="rgb(66, 66, 66)" stroke-width="1px" opacity="0.25"></line><line x1="0" y1="14.749999999999988" x2="290" y2="14.749999999999988" fill="rgb(0, 0, 0)" stroke="rgb(66, 66, 66)" stroke-width="1px" opacity="0.25"></line><line x1="0" y1="0" x2="290" y2="0" fill="rgb(0, 0, 0)" stroke="rgb(66, 66, 66)" stroke-width="1px" opacity="0.25"></line></g></g></g><g><g><line x1="0" y1="177" x2="290" y2="177" fill="rgb(0, 0, 0)" stroke="rgb(153, 153, 153)" stroke-width="1.5px"></line></g></g><g><g><line x1="24.166666666666664" y1="0" x2="24.166666666666664" y2="177" fill="rgb(0, 0, 0)" stroke="rgb(153, 153, 153)" stroke-width="1.5px"></line></g></g><g><g><g><g><g><path stroke="rgb(255, 112, 67)" stroke-width="2px" d="M35.041666666666664,-7.62790654286857L36.25,11.773566760091825L37.458333333333336,28.622447272832527L38.666666666666664,42.87366692440457L39.875,54.15548359948164L41.083333333333336,64.1336972982459L42.29166666666667,73.03372176981833L43.5,80.28520375307356L44.708333333333336,86.67873410435416L45.916666666666664,92.76872698212482L47.125,97.36281667330522L48.33333333333333,101.87918090372621L49.541666666666664,107.00783650208291L50.75,110.48751010604774L51.958333333333336,113.25775095440274L53.166666666666664,116.41256646159079L54.375,118.94394724545023L55.583333333333336,121.12907610650412L56.791666666666664,124.11812876624712L58,126.20376325780146L59.208333333333336,127.16588640701286L60.41666666666667,128.92398033509366L61.625,130.82734499802729L62.833333333333336,132.51558057043405L64.04166666666667,133.61775395197546L65.25,134.80201201640617L66.45833333333333,136.22934414430267L67.66666666666667,137.53274081848323L68.875,138.42650355255037L70.08333333333333,139.64617931730342L71.29166666666666,140.59787712752956L72.5,141.54055199257724L73.70833333333333,142.3683645236434L74.91666666666667,143.2046968169208L76.125,143.55397803951567L77.33333333333333,144.40076723029634L78.54166666666666,145.21395969294863L79.75,145.66292097214566L80.95833333333333,146.44283177284385L82.16666666666667,147.08174136179346L83.375,147.62201781510348L84.58333333333334,148.39000553452766L85.79166666666667,148.8995770726445L87,149.4364243843471L88.20833333333333,149.32465783645588L89.41666666666667,149.99052728646964L90.625,150.49603623708487L91.83333333333333,151.2401997778441L93.04166666666667,151.5407735129372L94.25,152.08776882709125L95.45833333333333,152.44330903542675L96.66666666666666,152.8504379460373L97.875,152.9057907711958L99.08333333333333,153.43970475801797L100.29166666666667,153.45509333139043L101.5,153.97024575308194L102.70833333333334,154.20558375975625L103.91666666666667,154.64673688030922L105.125,155.2527632893126L106.33333333333333,155.35642571038014L107.54166666666667,155.6411776380897L108.75,155.76733362598182L109.95833333333333,156.0803930456815L111.16666666666667,156.23570034178363L112.375,156.66224168105285L113.58333333333333,156.85684272267437L114.79166666666666,157.17988880943068L116,157.57498275024182L117.20833333333333,157.61451984216265L118.41666666666667,157.95172721308165L119.625,158.07501262820776L120.83333333333334,158.3296310269655L122.04166666666667,158.67046368353493L123.25,159.00399664183215L124.45833333333333,159.10918687814328L125.66666666666667,159.32056927254112L126.875,159.48706855070776L128.08333333333334,159.7390844907891L129.29166666666669,159.68219442883318L130.5,159.65728506725543L131.70833333333334,159.91775041539378L132.91666666666666,160.30963271837774L134.125,160.6610057606181L135.33333333333334,160.62112941020015L136.54166666666666,160.95676637693217L137.75,161.20918956401331L138.95833333333334,161.5449211523079L140.16666666666666,161.46190073789018L141.375,161.64709067166362L142.58333333333331,161.6579526070983L143.79166666666666,161.73498919333403L145,162.11716121420494L146.20833333333334,162.2271480723335L147.41666666666666,162.3516835787364L148.625,162.4433508556168L149.83333333333334,162.49900048769L151.04166666666669,162.29028967795662L152.25,162.8316711755269L153.45833333333334,162.97829041908224L154.66666666666666,163.03773294705178L155.875,163.12154392938626L157.08333333333331,163.31032109880934L158.29166666666666,163.50551975145632L159.5,163.60577561184581L160.70833333333334,163.56636505260954L161.91666666666666,163.9362903695398L163.125,163.80645243442615L164.33333333333334,163.85435824761726L165.54166666666666,163.83693747621737L166.75,164.09378828645922L167.95833333333334,164.01398983622298L169.16666666666669,164.18936637803736L170.375,164.33551539936556L171.58333333333334,164.58480917190846L172.79166666666666,164.45830718144975L174,164.73108993300914L175.20833333333331,164.65896131443455L176.41666666666666,164.6507225251047L177.625,164.58855725025225L178.83333333333334,164.7819035482114L180.04166666666666,164.92561392675074L181.25,164.99018667304654L182.45833333333334,165.13092134096706L183.66666666666666,165.2262559187322L184.875,165.40258795481378L186.08333333333334,165.50706886328132L187.29166666666669,165.4669492010884L188.5,165.52753210005835L189.70833333333334,165.76518153660103L190.91666666666666,165.9134888709343L192.125,166.04169561629033L193.33333333333331,166.1548304165276L194.54166666666666,166.3674246314092L195.75,166.43417215156097L196.95833333333334,166.51790654693568L198.16666666666666,166.58488919010475L199.375,166.59035997194476L200.58333333333334,166.26757642389794L201.79166666666666,166.33708582825338L203,166.4474474981837L204.20833333333334,166.74897395196035L205.41666666666669,166.69442080332323L206.625,166.55297137572458L207.83333333333334,166.48367487057502L209.04166666666666,166.64504290768178L210.25,166.8671839260976L211.45833333333331,166.85435776406052L212.66666666666666,167.088498026094L213.875,167.1161198049552L215.08333333333334,167.20620718477767L216.29166666666666,167.0959830202377L217.5,167.08433542953227L218.70833333333334,167.14988838765797L219.91666666666666,167.26643577446805L221.125,167.40166664558808L222.33333333333334,167.8443504702339L223.54166666666669,167.6758009795123L224.75,167.64113598488413L225.95833333333334,167.8566862764814L227.16666666666666,167.7361090658819L228.375,167.7148547383377L229.58333333333331,167.76650958730156L230.79166666666666,167.83758093177303L232,167.89876782005445L233.20833333333334,167.96485517087825L234.41666666666666,167.8787372509435L235.625,167.92180371953813L236.83333333333334,168.05169451265792L238.04166666666666,168.22550956773318L239.25,168.32248435835575L240.45833333333334,168.26736353364905L241.66666666666669,168.28721478523207L242.875,168.42986426765557L244.08333333333334,168.36144297578835L245.29166666666666,168.3936640605861L246.5,168.61087908062544L247.70833333333331,168.56026796006086L248.91666666666666,168.5462063469167L250.125,168.64098969654293L251.33333333333334,168.6898766364518L252.54166666666666,168.59206432958624L253.75,168.62735830089557L254.95833333333334,168.67399914020962L256.1666666666667,168.9493405615071L257.375,168.89968036680102L258.58333333333337,168.8009473283212L259.7916666666667,168.95653474847202L261,169.02128587078883L262.2083333333333,169.04967839516303L263.4166666666667,168.85791138855876L264.625,168.93140689461387" style="fill: none;" fill="none"></path></g></g></g></g><g opacity="0.2"><g><g><g><path stroke="rgb(255, 112, 67)" stroke-width="2px" d="M32.625,-9.072990894317654L33.833333333333336,11.863123595714557L35.041666666666664,28.889118552207933L36.25,40.69980677962303L37.458333333333336,53.80407717823981L38.666666666666664,64.20396369695663L39.875,71.05610635876654L41.083333333333336,79.08928883075713L42.29166666666667,86.3774814903736L43.5,91.15935814380644L44.708333333333336,96.26740631461143L45.916666666666664,101.90278854966162L47.125,104.25353129208087L48.33333333333333,108.65347956120968L49.541666666666664,114.7006511390209L50.75,115.70695181190966L51.958333333333336,117.4130794107914L53.166666666666664,121.14476729929447L54.375,122.74100762605666L55.583333333333336,124.40676380693911L56.791666666666664,128.60170316696167L58,129.3322130739689L59.208333333333336,128.60907059907913L60.41666666666667,131.56112064421177L61.625,133.68239161372185L62.833333333333336,135.04793372750282L64.04166666666667,135.2710139453411L65.25,136.57839906215668L66.45833333333333,138.37034229934216L67.66666666666667,139.48783580958843L68.875,139.76714764535427L70.08333333333333,141.4756929576397L71.29166666666666,142.0254238396883L72.5,142.95456428825855L73.70833333333333,143.61008331924677L74.91666666666667,144.45919525623322L76.125,144.07789987325668L77.33333333333333,145.67095101624727L78.54166666666666,146.4337483868003L79.75,146.33636289089918L80.95833333333333,147.6126979738474L82.16666666666667,148.04010574519634L83.375,148.43243249505758L84.58333333333334,149.5419871136546L85.79166666666667,149.66393437981606L87,150.24169535189867L88.20833333333333,149.15700801461935L89.41666666666667,150.9893314614892L90.625,151.25429966300726L91.83333333333333,152.35644508898258L93.04166666666667,151.99163411557674L94.25,152.9082617983222L95.45833333333333,152.97661934792995L96.66666666666666,153.46113131195307L97.875,152.98882000893354L99.08333333333333,154.2405757382512L100.29166666666667,153.47817619144917L101.5,154.74297438561916L102.70833333333334,154.55859076976776L103.91666666666667,155.30846656113863L105.125,156.16180290281773L106.33333333333333,155.5119193419814L107.54166666666667,156.06830552965403L108.75,155.95656760782003L109.95833333333333,156.54998217523098L111.16666666666667,156.46866128593683L112.375,157.30205368995667L113.58333333333333,157.14874428510666L114.79166666666666,157.66445793956518L116,158.1676236614585L117.20833333333333,157.6738254800439L118.41666666666667,158.4575382694602L119.625,158.25994075089693L120.83333333333334,158.71155862510204L122.04166666666667,159.18171266838908L123.25,159.504296079278L124.45833333333333,159.26697223261L125.66666666666667,159.6376428641379L126.875,159.73681746795774L128.08333333333334,160.1171084009111L129.29166666666669,159.59685933589935L130.5,159.61992102488875L131.70833333333334,160.30844843760133L132.91666666666666,160.8974561728537L134.125,161.18806532397866L135.33333333333334,160.56131488457322L136.54166666666666,161.46022182703018L137.75,161.587824344635L138.95833333333334,162.04851853474975L140.16666666666666,161.33737011626363L141.375,161.9248755723238L142.58333333333331,161.67424551025033L143.79166666666666,161.85054407268763L145,162.6904192455113L146.20833333333334,162.3921283595264L147.41666666666666,162.53848683834076L148.625,162.58085177093744L149.83333333333334,162.58247493579984L151.04166666666669,161.9772234633565L152.25,163.6437434218824L153.45833333333334,163.19821928441525L154.66666666666666,163.12689673900604L155.875,163.24726040288806L157.08333333333331,163.5934868529439L158.29166666666666,163.7983177304268L159.5,163.75615940243006L160.70833333333334,163.50724921375513L161.91666666666666,164.49117834493518L163.125,163.6116955317557L164.33333333333334,163.9262169674039L165.54166666666666,163.81080631911755L166.75,164.479064501822L167.95833333333334,163.89429216086864L169.16666666666669,164.45243119075894L170.375,164.55473893135786L171.58333333333334,164.9587498307228L172.79166666666666,164.26855419576168L174,165.14026406034827L175.20833333333331,164.5507683865726L176.41666666666666,164.63836434111L177.625,164.4953093379736L178.83333333333334,165.0719229951501L180.04166666666666,165.14117949455976L181.25,165.08704579249024L182.45833333333334,165.34202334284782L183.66666666666666,165.3692577853799L184.875,165.66708600893617L186.08333333333334,165.66379022598267L187.29166666666669,165.40676970779896L188.5,165.61840644851327L189.70833333333334,166.12165569141507L190.91666666666666,166.13594987243414L192.125,166.23400573432446L193.33333333333331,166.32453261688352L194.54166666666666,166.68631595373154L195.75,166.53429343178868L196.95833333333334,166.64350813999772L198.16666666666666,166.68536315485835L199.375,166.59856614470482L200.58333333333334,165.78340110182762L201.79166666666666,166.44134993478656L203,166.61299000307918L204.20833333333334,167.20126363262534L205.41666666666669,166.61259108036757L206.625,166.3407972343266L207.83333333333334,166.37973011285067L209.04166666666666,166.88709496334195L210.25,167.20039545372128L211.45833333333331,166.83511852100492L212.66666666666666,167.43970841914415L213.875,167.15755247324705L215.08333333333334,167.34133825451136L216.29166666666666,166.93064677342772L217.5,167.0668640434742L218.70833333333334,167.2482178248465L219.91666666666666,167.44125685468316L221.125,167.60451295226812L222.33333333333334,168.50837620720267L223.54166666666669,167.4229767434299L224.75,167.58913849294186L225.95833333333334,168.18001171387732L227.16666666666666,167.5552432499826L228.375,167.68297324702144L229.58333333333331,167.84399186074734L230.79166666666666,167.94418794848025L232,167.99054815247655L233.20833333333334,168.063986197114L234.41666666666666,167.7495603710413L235.625,167.98640342243016L236.83333333333334,168.24653070233762L238.04166666666666,168.48623215034604L239.25,168.4679465442896L240.45833333333334,168.18468229658902L241.66666666666669,168.3169916626066L242.875,168.6438384912908L244.08333333333334,168.25881103798747L245.29166666666666,168.44199568778276L246.5,168.9367016106844L247.70833333333331,168.48435127921402L248.91666666666666,168.52511392720044L250.125,168.7831647209823L251.33333333333334,168.76320704631507L252.54166666666666,168.44534586928785L253.75,168.6802992578596L254.95833333333334,168.74396039918065L256.1666666666667,169.36235269345343L257.375,168.82519007474184L258.58333333333337,168.6528477706015L259.7916666666667,169.18991587869823L261,169.11841255426407L262.2083333333333,169.0922671817243L263.4166666666667,168.57026087865233L264.625,169.04165015369654" style="fill: none;" fill="none"></path></g></g></g></g></g></g><g transform="translate(40, 177)" clip-path="url(#clip_1)"><clipPath id="clip_1"><rect width="290" height="23"></rect></clipPath><g><g><line x1="0" y1="0" x2="0" y2="5" style="visibility: inherit;" fill="rgb(0, 0, 0)" stroke="rgb(204, 204, 204)" stroke-width="1px"></line><line x1="24.166666666666664" y1="0" x2="24.166666666666664" y2="5" style="visibility: inherit;" fill="rgb(0, 0, 0)" stroke="rgb(204, 204, 204)" stroke-width="1px"></line><line x1="48.33333333333333" y1="0" x2="48.33333333333333" y2="5" style="visibility: inherit;" fill="rgb(0, 0, 0)" stroke="rgb(204, 204, 204)" stroke-width="1px"></line><line x1="72.5" y1="0" x2="72.5" y2="5" style="visibility: inherit;" fill="rgb(0, 0, 0)" stroke="rgb(204, 204, 204)" stroke-width="1px"></line><line x1="96.66666666666666" y1="0" x2="96.66666666666666" y2="5" style="visibility: inherit;" fill="rgb(0, 0, 0)" stroke="rgb(204, 204, 204)" stroke-width="1px"></line><line x1="120.83333333333334" y1="0" x2="120.83333333333334" y2="5" style="visibility: inherit;" fill="rgb(0, 0, 0)" stroke="rgb(204, 204, 204)" stroke-width="1px"></line><line x1="145" y1="0" x2="145" y2="5" style="visibility: inherit;" fill="rgb(0, 0, 0)" stroke="rgb(204, 204, 204)" stroke-width="1px"></line><line x1="169.16666666666669" y1="0" x2="169.16666666666669" y2="5" style="visibility: inherit;" fill="rgb(0, 0, 0)" stroke="rgb(204, 204, 204)" stroke-width="1px"></line><line x1="193.33333333333331" y1="0" x2="193.33333333333331" y2="5" style="visibility: inherit;" fill="rgb(0, 0, 0)" stroke="rgb(204, 204, 204)" stroke-width="1px"></line><line x1="217.5" y1="0" x2="217.5" y2="5" style="visibility: inherit;" fill="rgb(0, 0, 0)" stroke="rgb(204, 204, 204)" stroke-width="1px"></line><line x1="241.66666666666669" y1="0" x2="241.66666666666669" y2="5" style="visibility: inherit;" fill="rgb(0, 0, 0)" stroke="rgb(204, 204, 204)" stroke-width="1px"></line><line x1="265.8333333333333" y1="0" x2="265.8333333333333" y2="5" style="visibility: inherit;" fill="rgb(0, 0, 0)" stroke="rgb(204, 204, 204)" stroke-width="1px"></line><line x1="290" y1="0" x2="290" y2="5" style="visibility: inherit;" fill="rgb(0, 0, 0)" stroke="rgb(204, 204, 204)" stroke-width="1px"></line></g><g transform="translate(0, 8)"><text x="0" y="0" dx="0em" dy="0.95em" style="text-anchor: middle; visibility: hidden; font-family: Roboto, sans-serif; font-size: 12px; font-weight: 200;" fill="rgb(33, 33, 33)" stroke="none" stroke-width="1px">-20</text><text x="24.166666666666664" y="0" dx="0em" dy="0.95em" style="text-anchor: middle; visibility: inherit; font-family: Roboto, sans-serif; font-size: 12px; font-weight: 200;" fill="rgb(33, 33, 33)" stroke="none" stroke-width="1px">0</text><text x="48.33333333333333" y="0" dx="0em" dy="0.95em" style="text-anchor: middle; visibility: hidden; font-family: Roboto, sans-serif; font-size: 12px; font-weight: 200;" fill="rgb(33, 33, 33)" stroke="none" stroke-width="1px">20</text><text x="72.5" y="0" dx="0em" dy="0.95em" style="text-anchor: middle; visibility: inherit; font-family: Roboto, sans-serif; font-size: 12px; font-weight: 200;" fill="rgb(33, 33, 33)" stroke="none" stroke-width="1px">40</text><text x="96.66666666666666" y="0" dx="0em" dy="0.95em" style="text-anchor: middle; visibility: hidden; font-family: Roboto, sans-serif; font-size: 12px; font-weight: 200;" fill="rgb(33, 33, 33)" stroke="none" stroke-width="1px">60</text><text x="120.83333333333334" y="0" dx="0em" dy="0.95em" style="text-anchor: middle; visibility: inherit; font-family: Roboto, sans-serif; font-size: 12px; font-weight: 200;" fill="rgb(33, 33, 33)" stroke="none" stroke-width="1px">80</text><text x="145" y="0" dx="0em" dy="0.95em" style="text-anchor: middle; visibility: hidden; font-family: Roboto, sans-serif; font-size: 12px; font-weight: 200;" fill="rgb(33, 33, 33)" stroke="none" stroke-width="1px">100</text><text x="169.16666666666669" y="0" dx="0em" dy="0.95em" style="text-anchor: middle; visibility: inherit; font-family: Roboto, sans-serif; font-size: 12px; font-weight: 200;" fill="rgb(33, 33, 33)" stroke="none" stroke-width="1px">120</text><text x="193.33333333333331" y="0" dx="0em" dy="0.95em" style="text-anchor: middle; visibility: hidden; font-family: Roboto, sans-serif; font-size: 12px; font-weight: 200;" fill="rgb(33, 33, 33)" stroke="none" stroke-width="1px">140</text><text x="217.5" y="0" dx="0em" dy="0.95em" style="text-anchor: middle; visibility: inherit; font-family: Roboto, sans-serif; font-size: 12px; font-weight: 200;" fill="rgb(33, 33, 33)" stroke="none" stroke-width="1px">160</text><text x="241.66666666666669" y="0" dx="0em" dy="0.95em" style="text-anchor: middle; visibility: hidden; font-family: Roboto, sans-serif; font-size: 12px; font-weight: 200;" fill="rgb(33, 33, 33)" stroke="none" stroke-width="1px">180</text><text x="265.8333333333333" y="0" dx="0em" dy="0.95em" style="text-anchor: middle; visibility: inherit; font-family: Roboto, sans-serif; font-size: 12px; font-weight: 200;" fill="rgb(33, 33, 33)" stroke="none" stroke-width="1px">200</text><text x="290" y="0" dx="0em" dy="0.95em" style="text-anchor: middle; visibility: hidden; font-family: Roboto, sans-serif; font-size: 12px; font-weight: 200;" fill="rgb(33, 33, 33)" stroke="none" stroke-width="1px">220</text></g><line x1="0" y1="0" x2="290" y2="0" fill="rgb(0, 0, 0)" stroke="rgb(204, 204, 204)" stroke-width="1px"></line></g></g></g></g></svg>