<svg viewBox="0 0 1007.4000244140625 400" xmlns="http://www.w3.org/2000/svg"><g><g><g><g><g><line x1="40" y1="377" x2="35" y2="377" style="visibility: inherit;" fill="rgb(0, 0, 0)" stroke="rgb(204, 204, 204)" stroke-width="1px"></line><line x1="40" y1="345.5833333333333" x2="35" y2="345.5833333333333" style="visibility: inherit;" fill="rgb(0, 0, 0)" stroke="rgb(204, 204, 204)" stroke-width="1px"></line><line x1="40" y1="314.16666666666663" x2="35" y2="314.16666666666663" style="visibility: inherit;" fill="rgb(0, 0, 0)" stroke="rgb(204, 204, 204)" stroke-width="1px"></line><line x1="40" y1="282.75" x2="35" y2="282.75" style="visibility: inherit;" fill="rgb(0, 0, 0)" stroke="rgb(204, 204, 204)" stroke-width="1px"></line><line x1="40" y1="251.33333333333331" x2="35" y2="251.33333333333331" style="visibility: inherit;" fill="rgb(0, 0, 0)" stroke="rgb(204, 204, 204)" stroke-width="1px"></line><line x1="40" y1="219.91666666666663" x2="35" y2="219.91666666666663" style="visibility: inherit;" fill="rgb(0, 0, 0)" stroke="rgb(204, 204, 204)" stroke-width="1px"></line><line x1="40" y1="188.5" x2="35" y2="188.5" style="visibility: inherit;" fill="rgb(0, 0, 0)" stroke="rgb(204, 204, 204)" stroke-width="1px"></line><line x1="40" y1="157.08333333333331" x2="35" y2="157.08333333333331" style="visibility: inherit;" fill="rgb(0, 0, 0)" stroke="rgb(204, 204, 204)" stroke-width="1px"></line><line x1="40" y1="125.66666666666664" x2="35" y2="125.66666666666664" style="visibility: inherit;" fill="rgb(0, 0, 0)" stroke="rgb(204, 204, 204)" stroke-width="1px"></line><line x1="40" y1="94.25" x2="35" y2="94.25" style="visibility: inherit;" fill="rgb(0, 0, 0)" stroke="rgb(204, 204, 204)" stroke-width="1px"></line><line x1="40" y1="62.83333333333332" x2="35" y2="62.83333333333332" style="visibility: inherit;" fill="rgb(0, 0, 0)" stroke="rgb(204, 204, 204)" stroke-width="1px"></line><line x1="40" y1="31.41666666666664" x2="35" y2="31.41666666666664" style="visibility: inherit;" fill="rgb(0, 0, 0)" stroke="rgb(204, 204, 204)" stroke-width="1px"></line><line x1="40" y1="0" x2="35" y2="0" style="visibility: inherit;" fill="rgb(0, 0, 0)" stroke="rgb(204, 204, 204)" stroke-width="1px"></line></g><g transform="translate(30, 0)"><text x="0" y="377" dx="0em" dy="0.3em" style="text-anchor: end; visibility: hidden; font-family: Roboto, sans-serif; font-size: 12px; font-weight: 200;" fill="rgb(33, 33, 33)" stroke="none" stroke-width="1px">0</text><text x="0" y="345.5833333333333" dx="0em" dy="0.3em" style="text-anchor: end; visibility: inherit; font-family: Roboto, sans-serif; font-size: 12px; font-weight: 200;" fill="rgb(33, 33, 33)" stroke="none" stroke-width="1px">0.1</text><text x="0" y="314.16666666666663" dx="0em" dy="0.3em" style="text-anchor: end; visibility: inherit; font-family: Roboto, sans-serif; font-size: 12px; font-weight: 200;" fill="rgb(33, 33, 33)" stroke="none" stroke-width="1px">0.2</text><text x="0" y="282.75" dx="0em" dy="0.3em" style="text-anchor: end; visibility: inherit; font-family: Roboto, sans-serif; font-size: 12px; font-weight: 200;" fill="rgb(33, 33, 33)" stroke="none" stroke-width="1px">0.3</text><text x="0" y="251.33333333333331" dx="0em" dy="0.3em" style="text-anchor: end; visibility: inherit; font-family: Roboto, sans-serif; font-size: 12px; font-weight: 200;" fill="rgb(33, 33, 33)" stroke="none" stroke-width="1px">0.4</text><text x="0" y="219.91666666666663" dx="0em" dy="0.3em" style="text-anchor: end; visibility: inherit; font-family: Roboto, sans-serif; font-size: 12px; font-weight: 200;" fill="rgb(33, 33, 33)" stroke="none" stroke-width="1px">0.5</text><text x="0" y="188.5" dx="0em" dy="0.3em" style="text-anchor: end; visibility: inherit; font-family: Roboto, sans-serif; font-size: 12px; font-weight: 200;" fill="rgb(33, 33, 33)" stroke="none" stroke-width="1px">0.6</text><text x="0" y="157.08333333333331" dx="0em" dy="0.3em" style="text-anchor: end; visibility: inherit; font-family: Roboto, sans-serif; font-size: 12px; font-weight: 200;" fill="rgb(33, 33, 33)" stroke="none" stroke-width="1px">0.7</text><text x="0" y="125.66666666666664" dx="0em" dy="0.3em" style="text-anchor: end; visibility: inherit; font-family: Roboto, sans-serif; font-size: 12px; font-weight: 200;" fill="rgb(33, 33, 33)" stroke="none" stroke-width="1px">0.8</text><text x="0" y="94.25" dx="0em" dy="0.3em" style="text-anchor: end; visibility: inherit; font-family: Roboto, sans-serif; font-size: 12px; font-weight: 200;" fill="rgb(33, 33, 33)" stroke="none" stroke-width="1px">0.9</text><text x="0" y="62.83333333333332" dx="0em" dy="0.3em" style="text-anchor: end; visibility: inherit; font-family: Roboto, sans-serif; font-size: 12px; font-weight: 200;" fill="rgb(33, 33, 33)" stroke="none" stroke-width="1px">1</text><text x="0" y="31.41666666666664" dx="0em" dy="0.3em" style="text-anchor: end; visibility: inherit; font-family: Roboto, sans-serif; font-size: 12px; font-weight: 200;" fill="rgb(33, 33, 33)" stroke="none" stroke-width="1px">1.1</text><text x="0" y="0" dx="0em" dy="0.3em" style="text-anchor: end; visibility: hidden; font-family: Roboto, sans-serif; font-size: 12px; font-weight: 200;" fill="rgb(33, 33, 33)" stroke="none" stroke-width="1px">1.2</text></g><line x1="40" y1="0" x2="40" y2="377" fill="rgb(0, 0, 0)" stroke="rgb(204, 204, 204)" stroke-width="1px"></line></g></g><g transform="translate(40, 0)" clip-path="url(#clip_0)"><clipPath id="clip_0"><rect width="967" height="377"></rect></clipPath><g><g><g><line x1="0" y1="0" x2="0" y2="377" fill="rgb(0, 0, 0)" stroke="rgb(66, 66, 66)" stroke-width="1px" opacity="0.25"></line><line x1="80.61666666666666" y1="0" x2="80.61666666666666" y2="377" fill="rgb(0, 0, 0)" stroke="rgb(66, 66, 66)" stroke-width="1px" opacity="0.25"></line><line x1="161.23333333333332" y1="0" x2="161.23333333333332" y2="377" fill="rgb(0, 0, 0)" stroke="rgb(66, 66, 66)" stroke-width="1px" opacity="0.25"></line><line x1="241.85" y1="0" x2="241.85" y2="377" fill="rgb(0, 0, 0)" stroke="rgb(66, 66, 66)" stroke-width="1px" opacity="0.25"></line><line x1="322.46666666666664" y1="0" x2="322.46666666666664" y2="377" fill="rgb(0, 0, 0)" stroke="rgb(66, 66, 66)" stroke-width="1px" opacity="0.25"></line><line x1="403.0833333333333" y1="0" x2="403.0833333333333" y2="377" fill="rgb(0, 0, 0)" stroke="rgb(66, 66, 66)" stroke-width="1px" opacity="0.25"></line><line x1="483.7" y1="0" x2="483.7" y2="377" fill="rgb(0, 0, 0)" stroke="rgb(66, 66, 66)" stroke-width="1px" opacity="0.25"></line><line x1="564.3166666666667" y1="0" x2="564.3166666666667" y2="377" fill="rgb(0, 0, 0)" stroke="rgb(66, 66, 66)" stroke-width="1px" opacity="0.25"></line><line x1="644.9333333333333" y1="0" x2="644.9333333333333" y2="377" fill="rgb(0, 0, 0)" stroke="rgb(66, 66, 66)" stroke-width="1px" opacity="0.25"></line><line x1="725.55" y1="0" x2="725.55" y2="377" fill="rgb(0, 0, 0)" stroke="rgb(66, 66, 66)" stroke-width="1px" opacity="0.25"></line><line x1="806.1666666666666" y1="0" x2="806.1666666666666" y2="377" fill="rgb(0, 0, 0)" stroke="rgb(66, 66, 66)" stroke-width="1px" opacity="0.25"></line><line x1="886.7833333333333" y1="0" x2="886.7833333333333" y2="377" fill="rgb(0, 0, 0)" stroke="rgb(66, 66, 66)" stroke-width="1px" opacity="0.25"></line><line x1="967.4" y1="0" x2="967.4" y2="377" fill="rgb(0, 0, 0)" stroke="rgb(66, 66, 66)" stroke-width="1px" opacity="0.25"></line></g><g><line x1="0" y1="377" x2="967.4" y2="377" fill="rgb(0, 0, 0)" stroke="rgb(66, 66, 66)" stroke-width="1px" opacity="0.25"></line><line x1="0" y1="345.5833333333333" x2="967.4" y2="345.5833333333333" fill="rgb(0, 0, 0)" stroke="rgb(66, 66, 66)" stroke-width="1px" opacity="0.25"></line><line x1="0" y1="314.16666666666663" x2="967.4" y2="314.16666666666663" fill="rgb(0, 0, 0)" stroke="rgb(66, 66, 66)" stroke-width="1px" opacity="0.25"></line><line x1="0" y1="282.75" x2="967.4" y2="282.75" fill="rgb(0, 0, 0)" stroke="rgb(66, 66, 66)" stroke-width="1px" opacity="0.25"></line><line x1="0" y1="251.33333333333331" x2="967.4" y2="251.33333333333331" fill="rgb(0, 0, 0)" stroke="rgb(66, 66, 66)" stroke-width="1px" opacity="0.25"></line><line x1="0" y1="219.91666666666663" x2="967.4" y2="219.91666666666663" fill="rgb(0, 0, 0)" stroke="rgb(66, 66, 66)" stroke-width="1px" opacity="0.25"></line><line x1="0" y1="188.5" x2="967.4" y2="188.5" fill="rgb(0, 0, 0)" stroke="rgb(66, 66, 66)" stroke-width="1px" opacity="0.25"></line><line x1="0" y1="157.08333333333331" x2="967.4" y2="157.08333333333331" fill="rgb(0, 0, 0)" stroke="rgb(66, 66, 66)" stroke-width="1px" opacity="0.25"></line><line x1="0" y1="125.66666666666664" x2="967.4" y2="125.66666666666664" fill="rgb(0, 0, 0)" stroke="rgb(66, 66, 66)" stroke-width="1px" opacity="0.25"></line><line x1="0" y1="94.25" x2="967.4" y2="94.25" fill="rgb(0, 0, 0)" stroke="rgb(66, 66, 66)" stroke-width="1px" opacity="0.25"></line><line x1="0" y1="62.83333333333332" x2="967.4" y2="62.83333333333332" fill="rgb(0, 0, 0)" stroke="rgb(66, 66, 66)" stroke-width="1px" opacity="0.25"></line><line x1="0" y1="31.41666666666664" x2="967.4" y2="31.41666666666664" fill="rgb(0, 0, 0)" stroke="rgb(66, 66, 66)" stroke-width="1px" opacity="0.25"></line><line x1="0" y1="0" x2="967.4" y2="0" fill="rgb(0, 0, 0)" stroke="rgb(66, 66, 66)" stroke-width="1px" opacity="0.25"></line></g></g></g><g><g><line x1="0" y1="377" x2="967.4" y2="377" fill="rgb(0, 0, 0)" stroke="rgb(153, 153, 153)" stroke-width="1.5px"></line></g></g><g><g><line x1="80.61666666666666" y1="0" x2="80.61666666666666" y2="377" fill="rgb(0, 0, 0)" stroke="rgb(153, 153, 153)" stroke-width="1.5px"></line></g></g><g><g><g><g><g><path stroke="rgb(255, 112, 67)" stroke-width="2px" d="M116.89416666666666,-16.24700998113814L120.925,25.077032025732304L124.95583333333335,60.96419560371674L128.98666666666665,91.31848830791256L133.0175,115.34812043505413L137.04833333333332,136.60115187253507L141.07916666666668,155.557701170743L145.10999999999999,171.002948106829L149.14083333333335,184.62080653865266L153.17166666666665,197.59214730090994L157.20250000000001,207.37729879003427L161.23333333333332,216.99689943901006L165.26416666666665,227.92064610895625L169.295,235.3321542936723L173.32583333333332,241.23261078988605L177.35666666666665,247.95218958203233L181.3875,253.34388763578949L185.41833333333335,257.9980886562263L189.44916666666666,264.3646019484473L193.48000000000002,268.80688558300085L197.51083333333332,270.85615353358105L201.54166666666666,274.6007942730526L205.5725,278.6548534703745L209.60333333333332,282.25069985906015L213.63416666666666,284.5982668920607L217.665,287.1206696620628L221.69583333333333,290.1608064542492L225.72666666666666,292.9369677320236L229.7575,294.8406318605169L233.78833333333333,297.4384723312056L237.81916666666666,299.4655348987494L241.85,301.473379102834L245.8808333333333,303.2365730249354L249.9116666666667,305.0179135592042L253.9425,305.7618628299289L257.9733333333333,307.56547596509444L262.00416666666666,309.29752996746686L266.035,310.2537921271125L270.06583333333333,311.91495806984256L274.09666666666664,313.2757993977183L278.1275,314.4265577191752L282.15833333333336,316.06232817241204L286.18916666666667,317.1476867592485L290.21999999999997,318.29114120281844L294.2508333333333,318.05308477030434L298.2816666666667,319.47134907909066L302.3125,320.54805458407344L306.3433333333333,322.1330808827527L310.37416666666667,322.77328595693405L314.40500000000003,323.9383550723921L318.43583333333333,324.6956356291293L322.46666666666664,325.56279720709637L326.4975,325.68069559740576L330.5283333333333,326.81790222470494L334.55916666666667,326.8506790165774L338.59,327.9479245701237L342.62083333333334,328.4491812284074L346.65166666666664,329.38881245128005L350.6825,330.6796144636772L354.7133333333333,330.900409563917L358.7441666666667,331.50691508225884L362.775,331.7756202090121L366.8058333333333,332.4424190859995L370.8366666666667,332.7732148522736L374.8675,333.6817238065363L378.8983333333333,334.09621303078103L382.9291666666666,334.7842829443806L386.96000000000004,335.62581071661674L390.99083333333334,335.7100224886741L395.02166666666665,336.4282551374677L399.05249999999995,336.6908461064086L403.0833333333333,337.2331689105423L407.1141666666667,337.95912321295293L411.145,338.66952957045606L415.1758333333333,338.89357883084756L419.20666666666665,339.34381138840683L423.2375,339.69844544416287L427.2683333333333,340.2352251583474L431.2991666666667,340.11405254050914L435.33,340.060997007657L439.36083333333335,340.61577348363534L443.39166666666665,341.4504606487481L447.4225,342.19886537713575L451.4533333333333,342.11393100364666L455.4841666666666,342.82881878024534L459.515,343.36646590753116L463.54583333333335,344.08155522271227L467.57666666666665,343.9047264304215L471.60749999999996,344.29917052665076L475.6383333333333,344.322305835458L479.6691666666667,344.4863894117906L483.7,345.300394224606L487.7308333333333,345.53466001847306L491.7616666666666,345.79991361120693L495.79249999999996,345.99515973202L499.8233333333334,346.1136903042889L503.8541666666667,345.66914807112795L507.885,346.8222600744274L511.91583333333335,347.13455077962715L515.9466666666666,347.26116000586734L519.9775,347.4396726631561L524.0083333333333,347.8417573686504L528.0391666666666,348.257519470616L532.07,348.4710587890727L536.1008333333333,348.3871165244847L540.1316666666667,349.1750365498108L544.1625,348.89848908349524L548.1933333333333,349.00052575904914L552.2241666666666,348.96342050019183L556.255,349.51049821466177L560.2858333333334,349.34053202404556L564.3166666666667,349.714074149831L568.3475,350.02536330825325L572.3783333333333,350.5563449593757L576.4091666666667,350.2869028667037L580.4399999999999,350.86791471607035L584.4708333333333,350.7142848335696L588.5016666666666,350.6967366777654L592.5325,350.5643281544921L596.5633333333334,350.9761448456254L600.5941666666666,351.2822398326838L604.625,351.4197761341161L608.6558333333332,351.7195330256756L612.6866666666666,351.92259029018095L616.7175,352.2981675647729L620.7483333333333,352.5207059969326L624.7791666666667,352.43525338310917L628.8100000000001,352.5642915351525L632.8408333333333,353.0704714084666L636.8716666666667,353.386357651651L640.9024999999999,353.65943077594045L644.9333333333333,353.9004015086492L648.9641666666666,354.3532151753744L652.995,354.4953836222513L657.0258333333334,354.6737331536427L661.0566666666666,354.81640239926264L665.0875,354.8280548554982L669.1183333333333,354.14054413451703L673.1491666666666,354.28859523870915L677.18,354.52365936053815L681.2108333333333,355.16589367168956L685.2416666666667,355.0496985471913L689.2725,354.74841925789923L693.3033333333333,354.60082161698745L697.3341666666666,354.9445264191866L701.365,355.41767423807227L705.3958333333333,355.3903552375752L709.4266666666666,355.88906076744314L713.4575,355.947893595865L717.4883333333333,356.1397746252044L721.5191666666667,355.9050033820882L725.55,355.88019467194164L729.5808333333333,356.0198187691924L733.6116666666666,356.26805811849977L737.6424999999999,356.5560922338232L741.6733333333334,357.49898376993326L745.7041666666667,357.13998287726633L749.735,357.0661483971826L753.7658333333334,357.5252583403022L757.7966666666666,357.268435693997L761.8275,357.22316517713733L765.8583333333332,357.3331870870773L769.8891666666666,357.48456503547135L773.9200000000001,357.61488965062443L777.9508333333333,357.7556519741305L781.9816666666667,357.57222567008864L786.0124999999999,357.66395481506146L790.0433333333333,357.9406148659437L794.0741666666667,358.3108311131944L798.1049999999999,358.51738193841874L802.1358333333334,358.39997769596437L806.1666666666666,358.44225974029655L810.1975,358.7460950785658L814.2283333333334,358.6003615924983L818.2591666666666,358.66899068271726L822.29,359.131646403366L826.3208333333333,359.0238475759488L830.3516666666666,358.9938971343932L834.3825,359.1957803141056L838.4133333333333,359.29990673413744L842.4441666666667,359.0915720466328L846.475,359.166746211512L850.5058333333333,359.2660885641753L854.5366666666666,359.85255023552645L858.5674999999999,359.7467768264632L862.5983333333334,359.53648103263896L866.6291666666667,359.8678734473105L870.66,360.0057896795898L874.6908333333333,360.06626415240936L878.7216666666667,359.6578112626364L882.7524999999999,359.8143525382454" style="fill: none;" fill="none"></path></g></g></g></g><g opacity="0.2"><g><g><g><path stroke="rgb(255, 112, 67)" stroke-width="2px" d="M108.8325,-19.32495800654099L112.86333333333333,25.267783025900496L116.89416666666666,61.532190362612376L120.925,86.68828901648521L124.95583333333335,114.59964461127915L128.98666666666665,136.75081533193588L133.0175,151.34549207488692L137.04833333333332,168.4557168881098L141.07916666666668,183.97915549079573L145.10999999999999,194.1642826000849L149.14083333333335,205.0441366136074L153.17166666666665,217.04718239108718L157.20250000000001,222.05413162211573L161.23333333333332,231.42577285071212L165.26416666666665,244.3059066633383L169.295,246.449270243446L173.32583333333332,250.08322563767433L177.35666666666665,258.03151001036167L181.3875,261.4314117232958L185.41833333333335,264.97937827805674L189.44916666666666,273.91436211268103L193.48000000000002,275.47030694286025L197.51083333333332,273.93005432685214L201.54166666666666,280.21775414049625L205.5725,284.7359414597352L209.60333333333332,287.6444690128167L213.63416666666666,288.11961727341014L217.665,290.9042737086614L221.69583333333333,294.72101156413555L225.72666666666666,297.1012096057335L229.7575,297.69612803558505L233.78833333333333,301.3352330227693L237.81916666666666,302.5061287432909L241.85,304.4851454049349L245.8808333333333,305.8813639059663L249.9116666666667,307.6899243593216L253.9425,306.8777867356936L257.9733333333333,310.27089566737413L262.00416666666666,311.8956109707554L266.035,311.68818536649144L270.06583333333333,314.4067069838444L274.09666666666664,315.31706138948596L278.1275,316.15269520133734L282.15833333333336,318.51598385224736L286.18916666666667,318.7757246394952L290.21999999999997,320.00632286816835L294.2508333333333,317.69600012153387L298.2816666666667,321.5987455422679L302.3125,322.16311284154654L306.3433333333333,324.5106203307708L310.37416666666667,323.73359356820583L314.40500000000003,325.6859587455789L318.43583333333333,325.83155646423495L322.46666666666664,326.8635395740469L326.4975,325.85754318286973L330.5283333333333,328.5237121656537L334.55916666666667,326.89984420438606L338.59,329.5937929004431L342.62083333333334,329.201066215833L346.65166666666664,330.79825928558904L350.6825,332.6158174822728L354.7133333333333,331.2316022142768L358.7441666666667,332.41667335977155L362.775,332.1786778991421L366.8058333333333,333.4426174014807L370.8366666666667,333.26940850168467L374.8675,335.0444872379303L378.8983333333333,334.7179468671481L382.9291666666666,335.81638781478006L386.96000000000004,336.8881023749709L390.99083333333334,335.83634014676016L395.02166666666665,337.50560411065817L399.05249999999995,337.08473255982L403.0833333333333,338.0466531167428L407.1141666666667,339.0480546665688L411.145,339.73513910671073L415.1758333333333,339.22965272143483L419.20666666666665,340.0191602247457L423.2375,340.230396527797L427.2683333333333,341.0403947296242L431.2991666666667,339.9322936137517L435.33,339.98141370837885L439.36083333333335,341.4479381976028L443.39166666666665,342.7024913964172L447.4225,343.32147246971726L451.4533333333333,341.986529443413L455.4841666666666,343.9011504451434L459.515,344.1729365984599L463.54583333333335,345.1541891954839L467.57666666666665,343.63948324198526L471.60749999999996,344.89083667099476L475.6383333333333,344.3570087986688L479.6691666666667,344.73251477628946L483.7,346.5214014438291L487.7308333333333,345.88605870927375L491.7616666666666,346.19779400030774L495.79249999999996,346.28802891323966L499.8233333333334,346.2914861626923L503.8541666666667,345.00233472138643L507.885,348.55192807937664L511.91583333333335,347.60298683742684L515.9466666666666,347.45107384522754L519.9775,347.7074416490893L524.0083333333333,348.4448844268918L528.0391666666666,348.8811626235644L532.07,348.7913677667578L536.1008333333333,348.26120312760276L540.1316666666667,350.3569165877998L544.1625,348.483667884022L548.1933333333333,349.15358077238005L552.2241666666666,348.90776261190575L556.255,350.33111478636664L560.2858333333334,349.08558273812133L564.3166666666667,350.27438733850914L568.3475,350.4922970458865L572.3783333333333,351.3528174360593L576.4091666666667,349.88273972769576L580.4399999999999,351.73943249012035L584.4708333333333,350.4838400098185L588.5016666666666,350.67041444405913L592.5325,350.3657153695822L596.5633333333334,351.59386988232535L600.5941666666666,351.74138231327134L604.625,351.62608058626455L608.6558333333332,352.1691683630149L612.6866666666666,352.22717618693906L616.7175,352.86153347666067L620.7483333333333,352.8545136451721L624.7791666666667,352.30707446237403L628.8100000000001,352.7578487632175L632.8408333333333,353.82974121843773L636.8716666666667,353.8601870164275L640.9024999999999,354.0690404623747L644.9333333333333,354.26185760771233L648.9641666666666,355.03243567546207L652.995,354.70863629256684L657.0258333333334,354.9412574507296L661.0566666666666,355.0304062676926L665.0875,354.8455335398515L669.1183333333333,353.1092780530453L673.1491666666666,354.51067189499736L677.18,354.8762555432816L681.2108333333333,356.1292451384167L685.2416666666667,354.8754058604439L689.2725,354.2965003239612L693.3033333333333,354.3794251556198L697.3341666666666,355.4600836224854L701.365,356.1273959664007L705.3958333333333,355.3493767368297L709.4266666666666,356.6371190622449L713.4575,356.03614283849794L717.4883333333333,356.4275961692135L721.5191666666667,355.55284651741385L725.55,355.8429816067219L729.5808333333333,356.22925491506857L733.6116666666666,356.64041714246076L737.6424999999999,356.9881434068084L741.6733333333334,358.91332107409835L745.7041666666667,356.60148153826594L749.735,356.95539667705697L753.7658333333334,358.21392325498164L757.7966666666666,356.8832017245392L761.8275,357.1552594018479L765.8583333333332,357.49821995198727L769.8891666666666,357.71163195806247L773.9200000000001,357.810376573354L777.9508333333333,357.9667954593897L781.9816666666667,357.2970862140258L786.0124999999999,357.8015485325207L790.0433333333333,358.3556049422671L794.0741666666667,358.86615548407036L798.1049999999999,358.8272081762552L802.1358333333334,358.22387133228284L806.1666666666666,358.5056828067948L810.1975,359.2018480859697L814.2283333333334,358.38176136339706L818.2591666666666,358.7719343180458L822.29,359.82562998433906L826.3208333333333,358.8621493348231L830.3516666666666,358.94897147205967L834.3825,359.4986050836742L838.4133333333333,359.4560963641852L842.4441666666667,358.7790700153758L846.475,359.2795074588309L850.5058333333333,359.4151020931701L854.5366666666666,360.73224274255335L858.5674999999999,359.5881167128682L862.5983333333334,359.2210373419027L866.6291666666667,360.3649620693177L870.66,360.21266402800876L874.6908333333333,360.1569758616388L878.7216666666667,359.045131927977L882.7524999999999,360.0491644516587" style="fill: none;" fill="none"></path></g></g></g></g></g><g><g opacity="1.2431e-06"><span fill="rgb(0, 0, 0)" stroke="none" stroke-width="1px">Alt + Scroll to Zoom</span></g></g></g><g transform="translate(40, 377)" clip-path="url(#clip_1)"><clipPath id="clip_1"><rect width="967" height="23"></rect></clipPath><g><g><line x1="0" y1="0" x2="0" y2="5" style="visibility: inherit;" fill="rgb(0, 0, 0)" stroke="rgb(204, 204, 204)" stroke-width="1px"></line><line x1="80.61666666666666" y1="0" x2="80.61666666666666" y2="5" style="visibility: inherit;" fill="rgb(0, 0, 0)" stroke="rgb(204, 204, 204)" stroke-width="1px"></line><line x1="161.23333333333332" y1="0" x2="161.23333333333332" y2="5" style="visibility: inherit;" fill="rgb(0, 0, 0)" stroke="rgb(204, 204, 204)" stroke-width="1px"></line><line x1="241.85" y1="0" x2="241.85" y2="5" style="visibility: inherit;" fill="rgb(0, 0, 0)" stroke="rgb(204, 204, 204)" stroke-width="1px"></line><line x1="322.46666666666664" y1="0" x2="322.46666666666664" y2="5" style="visibility: inherit;" fill="rgb(0, 0, 0)" stroke="rgb(204, 204, 204)" stroke-width="1px"></line><line x1="403.0833333333333" y1="0" x2="403.0833333333333" y2="5" style="visibility: inherit;" fill="rgb(0, 0, 0)" stroke="rgb(204, 204, 204)" stroke-width="1px"></line><line x1="483.7" y1="0" x2="483.7" y2="5" style="visibility: inherit;" fill="rgb(0, 0, 0)" stroke="rgb(204, 204, 204)" stroke-width="1px"></line><line x1="564.3166666666667" y1="0" x2="564.3166666666667" y2="5" style="visibility: inherit;" fill="rgb(0, 0, 0)" stroke="rgb(204, 204, 204)" stroke-width="1px"></line><line x1="644.9333333333333" y1="0" x2="644.9333333333333" y2="5" style="visibility: inherit;" fill="rgb(0, 0, 0)" stroke="rgb(204, 204, 204)" stroke-width="1px"></line><line x1="725.55" y1="0" x2="725.55" y2="5" style="visibility: inherit;" fill="rgb(0, 0, 0)" stroke="rgb(204, 204, 204)" stroke-width="1px"></line><line x1="806.1666666666666" y1="0" x2="806.1666666666666" y2="5" style="visibility: inherit;" fill="rgb(0, 0, 0)" stroke="rgb(204, 204, 204)" stroke-width="1px"></line><line x1="886.7833333333333" y1="0" x2="886.7833333333333" y2="5" style="visibility: inherit;" fill="rgb(0, 0, 0)" stroke="rgb(204, 204, 204)" stroke-width="1px"></line><line x1="967.4" y1="0" x2="967.4" y2="5" style="visibility: inherit;" fill="rgb(0, 0, 0)" stroke="rgb(204, 204, 204)" stroke-width="1px"></line></g><g transform="translate(0, 8)"><text x="0" y="0" dx="0em" dy="0.95em" style="text-anchor: middle; visibility: hidden; font-family: Roboto, sans-serif; font-size: 12px; font-weight: 200;" fill="rgb(33, 33, 33)" stroke="none" stroke-width="1px">-20</text><text x="80.61666666666666" y="0" dx="0em" dy="0.95em" style="text-anchor: middle; visibility: inherit; font-family: Roboto, sans-serif; font-size: 12px; font-weight: 200;" fill="rgb(33, 33, 33)" stroke="none" stroke-width="1px">0</text><text x="161.23333333333332" y="0" dx="0em" dy="0.95em" style="text-anchor: middle; visibility: inherit; font-family: Roboto, sans-serif; font-size: 12px; font-weight: 200;" fill="rgb(33, 33, 33)" stroke="none" stroke-width="1px">20</text><text x="241.85" y="0" dx="0em" dy="0.95em" style="text-anchor: middle; visibility: inherit; font-family: Roboto, sans-serif; font-size: 12px; font-weight: 200;" fill="rgb(33, 33, 33)" stroke="none" stroke-width="1px">40</text><text x="322.46666666666664" y="0" dx="0em" dy="0.95em" style="text-anchor: middle; visibility: inherit; font-family: Roboto, sans-serif; font-size: 12px; font-weight: 200;" fill="rgb(33, 33, 33)" stroke="none" stroke-width="1px">60</text><text x="403.0833333333333" y="0" dx="0em" dy="0.95em" style="text-anchor: middle; visibility: inherit; font-family: Roboto, sans-serif; font-size: 12px; font-weight: 200;" fill="rgb(33, 33, 33)" stroke="none" stroke-width="1px">80</text><text x="483.7" y="0" dx="0em" dy="0.95em" style="text-anchor: middle; visibility: inherit; font-family: Roboto, sans-serif; font-size: 12px; font-weight: 200;" fill="rgb(33, 33, 33)" stroke="none" stroke-width="1px">100</text><text x="564.3166666666667" y="0" dx="0em" dy="0.95em" style="text-anchor: middle; visibility: inherit; font-family: Roboto, sans-serif; font-size: 12px; font-weight: 200;" fill="rgb(33, 33, 33)" stroke="none" stroke-width="1px">120</text><text x="644.9333333333333" y="0" dx="0em" dy="0.95em" style="text-anchor: middle; visibility: inherit; font-family: Roboto, sans-serif; font-size: 12px; font-weight: 200;" fill="rgb(33, 33, 33)" stroke="none" stroke-width="1px">140</text><text x="725.55" y="0" dx="0em" dy="0.95em" style="text-anchor: middle; visibility: inherit; font-family: Roboto, sans-serif; font-size: 12px; font-weight: 200;" fill="rgb(33, 33, 33)" stroke="none" stroke-width="1px">160</text><text x="806.1666666666666" y="0" dx="0em" dy="0.95em" style="text-anchor: middle; visibility: inherit; font-family: Roboto, sans-serif; font-size: 12px; font-weight: 200;" fill="rgb(33, 33, 33)" stroke="none" stroke-width="1px">180</text><text x="886.7833333333333" y="0" dx="0em" dy="0.95em" style="text-anchor: middle; visibility: inherit; font-family: Roboto, sans-serif; font-size: 12px; font-weight: 200;" fill="rgb(33, 33, 33)" stroke="none" stroke-width="1px">200</text><text x="967.4" y="0" dx="0em" dy="0.95em" style="text-anchor: middle; visibility: hidden; font-family: Roboto, sans-serif; font-size: 12px; font-weight: 200;" fill="rgb(33, 33, 33)" stroke="none" stroke-width="1px">220</text></g><line x1="0" y1="0" x2="967.4" y2="0" fill="rgb(0, 0, 0)" stroke="rgb(204, 204, 204)" stroke-width="1px"></line></g></g></g></g></svg>