<svg viewBox="0 0 1007.4000244140625 400" xmlns="http://www.w3.org/2000/svg"><g><g><g><g><g><line x1="51.5625" y1="377" x2="46.5625" y2="377" style="visibility: inherit;" fill="rgb(0, 0, 0)" stroke="rgb(204, 204, 204)" stroke-width="1px"></line><line x1="51.5625" y1="350.07142857142856" x2="46.5625" y2="350.07142857142856" style="visibility: inherit;" fill="rgb(0, 0, 0)" stroke="rgb(204, 204, 204)" stroke-width="1px"></line><line x1="51.5625" y1="323.14285714285717" x2="46.5625" y2="323.14285714285717" style="visibility: inherit;" fill="rgb(0, 0, 0)" stroke="rgb(204, 204, 204)" stroke-width="1px"></line><line x1="51.5625" y1="296.2142857142857" x2="46.5625" y2="296.2142857142857" style="visibility: inherit;" fill="rgb(0, 0, 0)" stroke="rgb(204, 204, 204)" stroke-width="1px"></line><line x1="51.5625" y1="269.2857142857143" x2="46.5625" y2="269.2857142857143" style="visibility: inherit;" fill="rgb(0, 0, 0)" stroke="rgb(204, 204, 204)" stroke-width="1px"></line><line x1="51.5625" y1="242.35714285714286" x2="46.5625" y2="242.35714285714286" style="visibility: inherit;" fill="rgb(0, 0, 0)" stroke="rgb(204, 204, 204)" stroke-width="1px"></line><line x1="51.5625" y1="215.42857142857144" x2="46.5625" y2="215.42857142857144" style="visibility: inherit;" fill="rgb(0, 0, 0)" stroke="rgb(204, 204, 204)" stroke-width="1px"></line><line x1="51.5625" y1="188.5" x2="46.5625" y2="188.5" style="visibility: inherit;" fill="rgb(0, 0, 0)" stroke="rgb(204, 204, 204)" stroke-width="1px"></line><line x1="51.5625" y1="161.5714285714286" x2="46.5625" y2="161.5714285714286" style="visibility: inherit;" fill="rgb(0, 0, 0)" stroke="rgb(204, 204, 204)" stroke-width="1px"></line><line x1="51.5625" y1="134.64285714285717" x2="46.5625" y2="134.64285714285717" style="visibility: inherit;" fill="rgb(0, 0, 0)" stroke="rgb(204, 204, 204)" stroke-width="1px"></line><line x1="51.5625" y1="107.71428571428575" x2="46.5625" y2="107.71428571428575" style="visibility: inherit;" fill="rgb(0, 0, 0)" stroke="rgb(204, 204, 204)" stroke-width="1px"></line><line x1="51.5625" y1="80.78571428571429" x2="46.5625" y2="80.78571428571429" style="visibility: inherit;" fill="rgb(0, 0, 0)" stroke="rgb(204, 204, 204)" stroke-width="1px"></line><line x1="51.5625" y1="53.85714285714283" x2="46.5625" y2="53.85714285714283" style="visibility: inherit;" fill="rgb(0, 0, 0)" stroke="rgb(204, 204, 204)" stroke-width="1px"></line><line x1="51.5625" y1="26.92857142857146" x2="46.5625" y2="26.92857142857146" style="visibility: inherit;" fill="rgb(0, 0, 0)" stroke="rgb(204, 204, 204)" stroke-width="1px"></line><line x1="51.5625" y1="0" x2="46.5625" y2="0" style="visibility: inherit;" fill="rgb(0, 0, 0)" stroke="rgb(204, 204, 204)" stroke-width="1px"></line></g><g transform="translate(41.5625, 0)"><text x="0" y="377" dx="0em" dy="0.3em" style="text-anchor: end; visibility: hidden; font-family: Roboto, sans-serif; font-size: 12px; font-weight: 200;" fill="rgb(33, 33, 33)" stroke="none" stroke-width="1px">-0.1</text><text x="0" y="350.07142857142856" dx="0em" dy="0.3em" style="text-anchor: end; visibility: inherit; font-family: Roboto, sans-serif; font-size: 12px; font-weight: 200;" fill="rgb(33, 33, 33)" stroke="none" stroke-width="1px">0</text><text x="0" y="323.14285714285717" dx="0em" dy="0.3em" style="text-anchor: end; visibility: inherit; font-family: Roboto, sans-serif; font-size: 12px; font-weight: 200;" fill="rgb(33, 33, 33)" stroke="none" stroke-width="1px">0.1</text><text x="0" y="296.2142857142857" dx="0em" dy="0.3em" style="text-anchor: end; visibility: inherit; font-family: Roboto, sans-serif; font-size: 12px; font-weight: 200;" fill="rgb(33, 33, 33)" stroke="none" stroke-width="1px">0.2</text><text x="0" y="269.2857142857143" dx="0em" dy="0.3em" style="text-anchor: end; visibility: inherit; font-family: Roboto, sans-serif; font-size: 12px; font-weight: 200;" fill="rgb(33, 33, 33)" stroke="none" stroke-width="1px">0.3</text><text x="0" y="242.35714285714286" dx="0em" dy="0.3em" style="text-anchor: end; visibility: inherit; font-family: Roboto, sans-serif; font-size: 12px; font-weight: 200;" fill="rgb(33, 33, 33)" stroke="none" stroke-width="1px">0.4</text><text x="0" y="215.42857142857144" dx="0em" dy="0.3em" style="text-anchor: end; visibility: inherit; font-family: Roboto, sans-serif; font-size: 12px; font-weight: 200;" fill="rgb(33, 33, 33)" stroke="none" stroke-width="1px">0.5</text><text x="0" y="188.5" dx="0em" dy="0.3em" style="text-anchor: end; visibility: inherit; font-family: Roboto, sans-serif; font-size: 12px; font-weight: 200;" fill="rgb(33, 33, 33)" stroke="none" stroke-width="1px">0.6</text><text x="0" y="161.5714285714286" dx="0em" dy="0.3em" style="text-anchor: end; visibility: inherit; font-family: Roboto, sans-serif; font-size: 12px; font-weight: 200;" fill="rgb(33, 33, 33)" stroke="none" stroke-width="1px">0.7</text><text x="0" y="134.64285714285717" dx="0em" dy="0.3em" style="text-anchor: end; visibility: inherit; font-family: Roboto, sans-serif; font-size: 12px; font-weight: 200;" fill="rgb(33, 33, 33)" stroke="none" stroke-width="1px">0.8</text><text x="0" y="107.71428571428575" dx="0em" dy="0.3em" style="text-anchor: end; visibility: inherit; font-family: Roboto, sans-serif; font-size: 12px; font-weight: 200;" fill="rgb(33, 33, 33)" stroke="none" stroke-width="1px">0.9</text><text x="0" y="80.78571428571429" dx="0em" dy="0.3em" style="text-anchor: end; visibility: inherit; font-family: Roboto, sans-serif; font-size: 12px; font-weight: 200;" fill="rgb(33, 33, 33)" stroke="none" stroke-width="1px">1</text><text x="0" y="53.85714285714283" dx="0em" dy="0.3em" style="text-anchor: end; visibility: inherit; font-family: Roboto, sans-serif; font-size: 12px; font-weight: 200;" fill="rgb(33, 33, 33)" stroke="none" stroke-width="1px">1.1</text><text x="0" y="26.92857142857146" dx="0em" dy="0.3em" style="text-anchor: end; visibility: inherit; font-family: Roboto, sans-serif; font-size: 12px; font-weight: 200;" fill="rgb(33, 33, 33)" stroke="none" stroke-width="1px">1.2</text><text x="0" y="0" dx="0em" dy="0.3em" style="text-anchor: end; visibility: hidden; font-family: Roboto, sans-serif; font-size: 12px; font-weight: 200;" fill="rgb(33, 33, 33)" stroke="none" stroke-width="1px">1.3</text></g><line x1="51.5625" y1="0" x2="51.5625" y2="377" fill="rgb(0, 0, 0)" stroke="rgb(204, 204, 204)" stroke-width="1px"></line></g></g><g transform="translate(51, 0)" clip-path="url(#clip_0)"><clipPath id="clip_0"><rect width="955" height="377"></rect></clipPath><g><g><g><line x1="0" y1="0" x2="0" y2="377" fill="rgb(0, 0, 0)" stroke="rgb(66, 66, 66)" stroke-width="1px" opacity="0.25"></line><line x1="79.65312499999999" y1="0" x2="79.65312499999999" y2="377" fill="rgb(0, 0, 0)" stroke="rgb(66, 66, 66)" stroke-width="1px" opacity="0.25"></line><line x1="159.30624999999998" y1="0" x2="159.30624999999998" y2="377" fill="rgb(0, 0, 0)" stroke="rgb(66, 66, 66)" stroke-width="1px" opacity="0.25"></line><line x1="238.959375" y1="0" x2="238.959375" y2="377" fill="rgb(0, 0, 0)" stroke="rgb(66, 66, 66)" stroke-width="1px" opacity="0.25"></line><line x1="318.61249999999995" y1="0" x2="318.61249999999995" y2="377" fill="rgb(0, 0, 0)" stroke="rgb(66, 66, 66)" stroke-width="1px" opacity="0.25"></line><line x1="398.265625" y1="0" x2="398.265625" y2="377" fill="rgb(0, 0, 0)" stroke="rgb(66, 66, 66)" stroke-width="1px" opacity="0.25"></line><line x1="477.91875" y1="0" x2="477.91875" y2="377" fill="rgb(0, 0, 0)" stroke="rgb(66, 66, 66)" stroke-width="1px" opacity="0.25"></line><line x1="557.571875" y1="0" x2="557.571875" y2="377" fill="rgb(0, 0, 0)" stroke="rgb(66, 66, 66)" stroke-width="1px" opacity="0.25"></line><line x1="637.2249999999999" y1="0" x2="637.2249999999999" y2="377" fill="rgb(0, 0, 0)" stroke="rgb(66, 66, 66)" stroke-width="1px" opacity="0.25"></line><line x1="716.878125" y1="0" x2="716.878125" y2="377" fill="rgb(0, 0, 0)" stroke="rgb(66, 66, 66)" stroke-width="1px" opacity="0.25"></line><line x1="796.53125" y1="0" x2="796.53125" y2="377" fill="rgb(0, 0, 0)" stroke="rgb(66, 66, 66)" stroke-width="1px" opacity="0.25"></line><line x1="876.1843749999999" y1="0" x2="876.1843749999999" y2="377" fill="rgb(0, 0, 0)" stroke="rgb(66, 66, 66)" stroke-width="1px" opacity="0.25"></line><line x1="955.8375" y1="0" x2="955.8375" y2="377" fill="rgb(0, 0, 0)" stroke="rgb(66, 66, 66)" stroke-width="1px" opacity="0.25"></line></g><g><line x1="0" y1="377" x2="955.8375" y2="377" fill="rgb(0, 0, 0)" stroke="rgb(66, 66, 66)" stroke-width="1px" opacity="0.25"></line><line x1="0" y1="350.07142857142856" x2="955.8375" y2="350.07142857142856" fill="rgb(0, 0, 0)" stroke="rgb(66, 66, 66)" stroke-width="1px" opacity="0.25"></line><line x1="0" y1="323.14285714285717" x2="955.8375" y2="323.14285714285717" fill="rgb(0, 0, 0)" stroke="rgb(66, 66, 66)" stroke-width="1px" opacity="0.25"></line><line x1="0" y1="296.2142857142857" x2="955.8375" y2="296.2142857142857" fill="rgb(0, 0, 0)" stroke="rgb(66, 66, 66)" stroke-width="1px" opacity="0.25"></line><line x1="0" y1="269.2857142857143" x2="955.8375" y2="269.2857142857143" fill="rgb(0, 0, 0)" stroke="rgb(66, 66, 66)" stroke-width="1px" opacity="0.25"></line><line x1="0" y1="242.35714285714286" x2="955.8375" y2="242.35714285714286" fill="rgb(0, 0, 0)" stroke="rgb(66, 66, 66)" stroke-width="1px" opacity="0.25"></line><line x1="0" y1="215.42857142857144" x2="955.8375" y2="215.42857142857144" fill="rgb(0, 0, 0)" stroke="rgb(66, 66, 66)" stroke-width="1px" opacity="0.25"></line><line x1="0" y1="188.5" x2="955.8375" y2="188.5" fill="rgb(0, 0, 0)" stroke="rgb(66, 66, 66)" stroke-width="1px" opacity="0.25"></line><line x1="0" y1="161.5714285714286" x2="955.8375" y2="161.5714285714286" fill="rgb(0, 0, 0)" stroke="rgb(66, 66, 66)" stroke-width="1px" opacity="0.25"></line><line x1="0" y1="134.64285714285717" x2="955.8375" y2="134.64285714285717" fill="rgb(0, 0, 0)" stroke="rgb(66, 66, 66)" stroke-width="1px" opacity="0.25"></line><line x1="0" y1="107.71428571428575" x2="955.8375" y2="107.71428571428575" fill="rgb(0, 0, 0)" stroke="rgb(66, 66, 66)" stroke-width="1px" opacity="0.25"></line><line x1="0" y1="80.78571428571429" x2="955.8375" y2="80.78571428571429" fill="rgb(0, 0, 0)" stroke="rgb(66, 66, 66)" stroke-width="1px" opacity="0.25"></line><line x1="0" y1="53.85714285714283" x2="955.8375" y2="53.85714285714283" fill="rgb(0, 0, 0)" stroke="rgb(66, 66, 66)" stroke-width="1px" opacity="0.25"></line><line x1="0" y1="26.92857142857146" x2="955.8375" y2="26.92857142857146" fill="rgb(0, 0, 0)" stroke="rgb(66, 66, 66)" stroke-width="1px" opacity="0.25"></line><line x1="0" y1="0" x2="955.8375" y2="0" fill="rgb(0, 0, 0)" stroke="rgb(66, 66, 66)" stroke-width="1px" opacity="0.25"></line></g></g></g><g><g><line x1="0" y1="350.07142857142856" x2="955.8375" y2="350.07142857142856" fill="rgb(0, 0, 0)" stroke="rgb(153, 153, 153)" stroke-width="1.5px"></line></g></g><g><g><line x1="79.65312499999999" y1="0" x2="79.65312499999999" y2="377" fill="rgb(0, 0, 0)" stroke="rgb(153, 153, 153)" stroke-width="1.5px"></line></g></g><g><g><g><g><g><path stroke="rgb(255, 112, 67)" stroke-width="2px" d="M115.49703124999999,-14.807850491178655L119.4796875,23.23945700201761L123.46234375000002,55.40793646127624L127.445,82.7605755365849L131.42765625,104.39875954843998L135.4103125,123.56282104027584L139.39296875,140.85773915814949L143.37562499999999,155.62683919554235L147.35828125,169.1194983993585L151.3409375,181.69395837770145L155.32359375000001,194.60508384572947L159.30624999999998,204.66461609283965L163.28890625,213.8877758846823L167.2715625,222.27041632834232L171.25421875,228.41932827716218L175.23687499999997,233.62605702704522L179.21953125,238.44618545348874L183.2021875,243.18841452832817L187.18484375,247.97702827928472L191.16750000000002,251.55265609824815L195.15015624999998,254.91519696188553L199.1328125,257.8666010145396L203.11546875,260.991834937836L207.098125,263.5395114697625L211.08078125,266.8252269608555L215.0634375,269.1849028744302L219.04609374999998,270.93022884692624L223.02875,273.7789334187043L227.01140625,276.4886238888806L230.99406249999998,278.93344013053195L234.97671874999997,280.78705173051026L238.959375,281.42164998549003L242.94203124999999,282.67305877872167L246.92468750000003,284.6169173437648L250.90734375,286.34131620835524L254.89,288.31682387915674L258.87265625,290.23049065439375L262.8553125,291.65166783319347L266.83796875,292.1648155986569L270.820625,293.4034638922306L274.80328125,294.4700772672658L278.7859375,295.9787883117302L282.76859375,296.8097099234531L286.75124999999997,298.14472157350065L290.73390624999996,299.0918507381314L294.7165625,299.8911215886755L298.69921875,300.5244303462932L302.681875,301.49483663036335L306.66453125000004,302.29161699104094L310.64718750000003,302.691118737131L314.62984374999996,303.3988768552446L318.61249999999995,304.22285497242154L322.59515625,305.6361978074292L326.5778125,306.25687452676175L330.56046875,306.6033362402711L334.543125,307.39493153418266L338.52578125,308.18753486486514L342.5084375,309.2194005687626L346.49109375,309.11283828170934L350.47374999999994,310.05138781961614L354.45640625,310.691342513968L358.4390625,311.6254331042482L362.42171874999997,311.97148890402315L366.404375,312.24564281935756L370.38703125,312.6210218343112L374.3696875,313.8934453207324L378.35234375,315.0609672397076L382.33500000000004,314.39599773720244L386.31765624999997,314.4933223018028L390.30031249999996,314.99205619286505L394.28296874999995,316.05834485023115L398.265625,316.55650691347654L402.24828125,316.7304825166305L406.2309375,316.9404813486004L410.21359375,317.68078829828033L414.19625,317.8648037964803L418.17890625,318.6256797163224L422.1615625,319.212157988461L426.14421875,319.0695371642611L430.126875,319.65857793266696L434.10953125,319.1853193769505L438.09218749999997,319.61794842786065L442.07484375,319.65996130751313L446.0575,319.93789340183326L450.04015625,320.1177981648073L454.0228125,320.71404281490686L458.00546875000003,321.1961887901472L461.98812499999997,321.083922084554L465.97078124999996,321.70966410165926L469.95343749999995,321.6447163898445L473.93609375,321.9505885831022L477.91875,322.2654570157232L481.90140625,323.30949085784226L485.88406249999997,323.2561055054204L489.86671874999996,322.87458680195084L493.84937500000007,323.0564124642588L497.83203125,323.7092238218566L501.8146875,323.9250738391439L505.79734375,324.2204178634211L509.78,324.4788872624335L513.76265625,324.78244571110423L517.7453125,325.17510630577436L521.72796875,325.18472514810514L525.710625,325.42680739533597L529.69328125,325.1638269753983L533.6759375,325.76152574183357L537.65859375,325.71698082781916L541.64125,326.10189441704716L545.62390625,326.03073427638645L549.6065625,326.8350782853609L553.58921875,327.04370922476664L557.571875,326.7251707706403L561.55453125,327.1662374105186L565.5371875,326.7782664027633L569.51984375,327.7335414400079L573.5024999999999,327.4852864633513L577.4851562499999,327.4274234902313L581.4678124999999,327.8317471612364L585.45046875,328.55314998185713L589.433125,328.64270215204147L593.41578125,328.23049748096764L597.3984375,328.74188226553144L601.38109375,328.58583160736424L605.36375,328.64941922169737L609.34640625,328.65069294690466L613.3290625000001,328.8148787788286L617.3117187500001,329.1631573068426L621.2943750000001,329.53088490316935L625.2770312499999,329.7652271360565L629.2596874999999,330.01250288310104L633.2423437499999,329.9815677974541L637.2249999999999,329.9976689906413L641.2076562499999,330.1899045790132L645.1903125,329.73609927547216L649.17296875,329.8920409954153L653.155625,329.91742514913375L657.13828125,330.0715550102639L661.1209375,330.3457089613585L665.10359375,330.5922058578471L669.08625,331.0311004046285L673.06890625,330.93138200143227L677.0515625,330.8358293701025L681.03421875,331.2172880530501L685.016875,331.2539411295398L688.99953125,331.1605189605492L692.9821875,331.560146853307L696.96484375,331.4511359065647L700.9474999999999,331.9791911692204L704.93015625,331.81863057618034L708.9128125,332.1573791827754L712.89546875,332.31313920176L716.878125,332.20189046654684L720.86078125,331.84659736033433L724.8434374999999,331.8886112474825L728.8260937499999,332.0756120326177L732.80875,332.19910415661667L736.79140625,332.24743648560246L740.7740625,332.0629698730706L744.75671875,332.49591999463007L748.739375,332.7350320407172L752.72203125,333.10152666797757L756.7046875,332.8220418680682L760.68734375,332.92790351870076L764.6700000000001,332.64898408049936L768.6526562500001,332.5109321301853L772.6353124999999,332.923512801994L776.6179687499999,333.39290165694985L780.6006249999999,333.2946246190131L784.5832812499999,333.39779192603334L788.5659374999999,333.4046216268854L792.54859375,333.8256996447837L796.53125,334.03328818593684L800.51390625,334.23910269000686L804.4965625,334.14321030592055L808.47921875,334.0239776691419L812.461875,334.09355325225727L816.44453125,334.18950977160773L820.4271875,334.0004216582773L824.40984375,334.5558178529857L828.3925,334.5918872734481L832.37515625,334.65434580329503L836.3578125,334.6870502580354L840.34046875,335.24471898861486L844.323125,334.94770633272975L848.3057812499999,335.13738191481025L852.2884375,335.2874204688746L856.27109375,335.5252402630393L860.25375,335.40684416527074L864.23640625,335.6213420731184L868.2190625,335.5380598970098L872.2017187499999,335.0845050871364" style="fill: none;" fill="none"></path></g></g></g></g><g opacity="0.2"><g><g><g><path stroke="rgb(255, 112, 67)" stroke-width="2px" d="M107.53171875,-31.378359045301153L111.514375,15.37877864497051L115.49703124999999,51.69661869321551L119.4796875,79.96533196313042L123.46234375000002,103.485596205507L127.445,123.7002230371748L131.42765625,136.8136441111565L135.4103125,152.28638664313726L139.39296875,166.78791861874717L143.37562499999999,177.7742394634656L147.35828125,189.35506142037258L151.3409375,200.5537327528L155.32359375000001,213.9705919197628L159.30624999999998,219.75336277484894L163.28890625,227.72221208044462L167.2715625,234.84421149321966L171.25421875,237.6426233606679L175.23687499999997,241.4361131446702L179.21953125,245.676357537508L183.2021875,250.30174600652285L187.18484375,255.15994155406952L191.16750000000002,256.91609453303477L195.15015624999998,259.95900639891624L199.1328125,262.29370611480306L203.11546875,265.6796852009637L207.098125,267.36102596351077L211.08078125,271.75379996214593L215.0634375,272.7244166433811L219.04609374999998,273.54821776066507L223.02875,278.0519902322974L227.01140625,280.55315956899096L230.99406249999998,282.6006644793919L234.97671874999997,283.5674691242831L238.959375,282.37354736668726L242.94203124999999,284.55017196706365L246.92468750000003,287.5327051899263L250.90734375,288.92791450449397L254.89,291.28008538484573L258.87265625,293.1009908169508L262.8553125,293.7834336012602L266.83796875,292.9345372468233L270.820625,295.26143633254935L274.80328125,296.06999732979705L278.7859375,298.24185487840856L282.76859375,298.05609234103133L286.75124999999997,300.1472390485661L290.73390624999996,300.5125444850751L294.7165625,301.09002786449025L298.69921875,301.47439348271917L302.681875,302.95044605646814L306.66453125000004,303.48678753205706L310.64718750000003,303.2903713562659L314.62984374999996,304.460514032415L318.61249999999995,305.4588221481868L322.59515625,307.7562120599406L326.5778125,307.1878896057606L330.56046875,307.1230288105352L334.543125,308.58232447505L338.52578125,309.3764398608889L342.5084375,310.76719912460874L346.49109375,308.9529948511294L350.47374999999994,311.4592121264764L354.45640625,311.65127455549583L358.4390625,313.0265689896686L362.42171874999997,312.4905726036855L366.404375,312.6568736923592L370.38703125,313.18409035674165L374.3696875,315.8020805503641L378.35234375,316.8122501181705L382.33500000000004,313.39854348344466L386.31765624999997,314.6393091487033L390.30031249999996,315.7401570294585L394.28296874999995,317.6577778362802L398.265625,317.30375000834465L402.24828125,316.99144592136145L406.2309375,317.25547959655523L410.21359375,318.7912487228002L414.19625,318.1408270437803L418.17890625,319.7669935960855L422.1615625,320.0918753966689L426.14421875,318.8556059279612L430.126875,320.5421390852758L434.10953125,318.47543154337575L438.09218749999997,320.26689200422595L442.07484375,319.72298062699184L446.0575,320.35479154331347L450.04015625,320.38765530926844L454.0228125,321.6084097900561L458.00546875000003,321.91940775300776L461.98812499999997,320.9155220261642L465.97078124999996,322.64827712731704L469.95343749999995,321.54729482212235L473.93609375,322.4093968729888L477.91875,322.73775966465473L481.90140625,324.8755416210209L485.88406249999997,323.17602747678757L489.86671874999996,322.30230874674663L493.84937500000007,323.3291509577206L497.83203125,324.68844085825344L501.8146875,324.24884886507476L505.79734375,324.6634338998369L509.78,324.86659136095216L513.76265625,325.23778338411023L517.7453125,325.7640971977796L521.72796875,325.1991534116013L525.710625,325.7899307661823L529.69328125,324.76935634549176L533.6759375,326.6580738914864L537.65859375,325.6501634567976L541.64125,326.67926480088914L545.62390625,325.92399406539545L549.6065625,328.04159429882253L553.58921875,327.35665563387533L557.571875,326.2473630894508L561.55453125,327.82783737033606L565.5371875,326.1963098911302L569.51984375,329.166453995875L573.5024999999999,327.11290399836645L577.4851562499999,327.3406290305512L581.4678124999999,328.43823266774416L585.45046875,329.6352542127882L589.433125,328.7770304073181L593.41578125,327.6121904743569L597.3984375,329.5089594423771L601.38109375,328.35175562011347L605.36375,328.74480064319715L609.34640625,328.6526035347155L613.3290625000001,329.06115752671445L617.3117187500001,329.6855750988637L621.2943750000001,330.0824762976595L625.2770312499999,330.1167404853872L629.2596874999999,330.38341650366783L633.2423437499999,329.9351651689836L637.2249999999999,330.021820780422L641.2076562499999,330.4782579615712L645.1903125,329.0553913201605L649.17296875,330.12595357533013L653.155625,329.9555013797113L657.13828125,330.3027498019593L661.1209375,330.7569398880005L665.10359375,330.96195120257994L669.08625,331.6894422248006L673.06890625,330.7818043966379L677.0515625,330.69250042310784L681.03421875,331.7894760774715L685.016875,331.30892074427436L688.99953125,331.0203857070633L692.9821875,332.1595886924437L696.96484375,331.28761948645115L700.9474999999999,332.77127406320403L704.93015625,331.57778968662024L708.9128125,332.665502092668L712.89546875,332.546779230237L716.878125,332.0350173637271L720.86078125,331.3136577010155L724.8434374999999,331.95163207820485L728.8260937499999,332.3561132103205L732.80875,332.3843423426151L736.79140625,332.31993497908115L740.7740625,331.7862699542727L744.75671875,333.1453451769693L748.739375,333.093700109848L752.72203125,333.6512686088681L756.7046875,332.4028146682041L760.68734375,333.08669599464963L764.6700000000001,332.23060492319723L768.6526562500001,332.3038542047143L772.6353124999999,333.542383809707L776.6179687499999,334.0969849393836L780.6006249999999,333.147209062108L784.5832812499999,333.55254288656374L788.5659374999999,333.4148661781635L792.54859375,334.4573166716312L796.53125,334.34467099766647L800.51390625,334.5478244461119L804.4965625,333.99937172979116L808.47921875,333.84512871397396L812.461875,334.19791662693024L816.44453125,334.33344455063343L820.4271875,333.7167894882815L824.40984375,335.3889121450484L828.3925,334.6459914041417L832.37515625,334.7480335980654L836.3578125,334.736106940146L840.34046875,336.08122208448395L844.323125,334.5021873489022L848.3057812499999,335.42189528793097L852.2884375,335.5124782999711L856.27109375,335.8819699542863L860.25375,335.22925001861796L864.23640625,335.9430889348899L868.2190625,335.41313663284694L872.2017187499999,334.4041728723262" style="fill: none;" fill="none"></path></g></g></g></g></g><g><g opacity="0.0461131"><span fill="rgb(0, 0, 0)" stroke="none" stroke-width="1px">Alt + Scroll to Zoom</span></g></g></g><g transform="translate(51, 377)" clip-path="url(#clip_1)"><clipPath id="clip_1"><rect width="955" height="23"></rect></clipPath><g><g><line x1="0" y1="0" x2="0" y2="5" style="visibility: inherit;" fill="rgb(0, 0, 0)" stroke="rgb(204, 204, 204)" stroke-width="1px"></line><line x1="79.65312499999999" y1="0" x2="79.65312499999999" y2="5" style="visibility: inherit;" fill="rgb(0, 0, 0)" stroke="rgb(204, 204, 204)" stroke-width="1px"></line><line x1="159.30624999999998" y1="0" x2="159.30624999999998" y2="5" style="visibility: inherit;" fill="rgb(0, 0, 0)" stroke="rgb(204, 204, 204)" stroke-width="1px"></line><line x1="238.959375" y1="0" x2="238.959375" y2="5" style="visibility: inherit;" fill="rgb(0, 0, 0)" stroke="rgb(204, 204, 204)" stroke-width="1px"></line><line x1="318.61249999999995" y1="0" x2="318.61249999999995" y2="5" style="visibility: inherit;" fill="rgb(0, 0, 0)" stroke="rgb(204, 204, 204)" stroke-width="1px"></line><line x1="398.265625" y1="0" x2="398.265625" y2="5" style="visibility: inherit;" fill="rgb(0, 0, 0)" stroke="rgb(204, 204, 204)" stroke-width="1px"></line><line x1="477.91875" y1="0" x2="477.91875" y2="5" style="visibility: inherit;" fill="rgb(0, 0, 0)" stroke="rgb(204, 204, 204)" stroke-width="1px"></line><line x1="557.571875" y1="0" x2="557.571875" y2="5" style="visibility: inherit;" fill="rgb(0, 0, 0)" stroke="rgb(204, 204, 204)" stroke-width="1px"></line><line x1="637.2249999999999" y1="0" x2="637.2249999999999" y2="5" style="visibility: inherit;" fill="rgb(0, 0, 0)" stroke="rgb(204, 204, 204)" stroke-width="1px"></line><line x1="716.878125" y1="0" x2="716.878125" y2="5" style="visibility: inherit;" fill="rgb(0, 0, 0)" stroke="rgb(204, 204, 204)" stroke-width="1px"></line><line x1="796.53125" y1="0" x2="796.53125" y2="5" style="visibility: inherit;" fill="rgb(0, 0, 0)" stroke="rgb(204, 204, 204)" stroke-width="1px"></line><line x1="876.1843749999999" y1="0" x2="876.1843749999999" y2="5" style="visibility: inherit;" fill="rgb(0, 0, 0)" stroke="rgb(204, 204, 204)" stroke-width="1px"></line><line x1="955.8375" y1="0" x2="955.8375" y2="5" style="visibility: inherit;" fill="rgb(0, 0, 0)" stroke="rgb(204, 204, 204)" stroke-width="1px"></line></g><g transform="translate(0, 8)"><text x="0" y="0" dx="0em" dy="0.95em" style="text-anchor: middle; visibility: hidden; font-family: Roboto, sans-serif; font-size: 12px; font-weight: 200;" fill="rgb(33, 33, 33)" stroke="none" stroke-width="1px">-20</text><text x="79.65312499999999" y="0" dx="0em" dy="0.95em" style="text-anchor: middle; visibility: inherit; font-family: Roboto, sans-serif; font-size: 12px; font-weight: 200;" fill="rgb(33, 33, 33)" stroke="none" stroke-width="1px">0</text><text x="159.30624999999998" y="0" dx="0em" dy="0.95em" style="text-anchor: middle; visibility: inherit; font-family: Roboto, sans-serif; font-size: 12px; font-weight: 200;" fill="rgb(33, 33, 33)" stroke="none" stroke-width="1px">20</text><text x="238.959375" y="0" dx="0em" dy="0.95em" style="text-anchor: middle; visibility: inherit; font-family: Roboto, sans-serif; font-size: 12px; font-weight: 200;" fill="rgb(33, 33, 33)" stroke="none" stroke-width="1px">40</text><text x="318.61249999999995" y="0" dx="0em" dy="0.95em" style="text-anchor: middle; visibility: inherit; font-family: Roboto, sans-serif; font-size: 12px; font-weight: 200;" fill="rgb(33, 33, 33)" stroke="none" stroke-width="1px">60</text><text x="398.265625" y="0" dx="0em" dy="0.95em" style="text-anchor: middle; visibility: inherit; font-family: Roboto, sans-serif; font-size: 12px; font-weight: 200;" fill="rgb(33, 33, 33)" stroke="none" stroke-width="1px">80</text><text x="477.91875" y="0" dx="0em" dy="0.95em" style="text-anchor: middle; visibility: inherit; font-family: Roboto, sans-serif; font-size: 12px; font-weight: 200;" fill="rgb(33, 33, 33)" stroke="none" stroke-width="1px">100</text><text x="557.571875" y="0" dx="0em" dy="0.95em" style="text-anchor: middle; visibility: inherit; font-family: Roboto, sans-serif; font-size: 12px; font-weight: 200;" fill="rgb(33, 33, 33)" stroke="none" stroke-width="1px">120</text><text x="637.2249999999999" y="0" dx="0em" dy="0.95em" style="text-anchor: middle; visibility: inherit; font-family: Roboto, sans-serif; font-size: 12px; font-weight: 200;" fill="rgb(33, 33, 33)" stroke="none" stroke-width="1px">140</text><text x="716.878125" y="0" dx="0em" dy="0.95em" style="text-anchor: middle; visibility: inherit; font-family: Roboto, sans-serif; font-size: 12px; font-weight: 200;" fill="rgb(33, 33, 33)" stroke="none" stroke-width="1px">160</text><text x="796.53125" y="0" dx="0em" dy="0.95em" style="text-anchor: middle; visibility: inherit; font-family: Roboto, sans-serif; font-size: 12px; font-weight: 200;" fill="rgb(33, 33, 33)" stroke="none" stroke-width="1px">180</text><text x="876.1843749999999" y="0" dx="0em" dy="0.95em" style="text-anchor: middle; visibility: inherit; font-family: Roboto, sans-serif; font-size: 12px; font-weight: 200;" fill="rgb(33, 33, 33)" stroke="none" stroke-width="1px">200</text><text x="955.8375" y="0" dx="0em" dy="0.95em" style="text-anchor: middle; visibility: hidden; font-family: Roboto, sans-serif; font-size: 12px; font-weight: 200;" fill="rgb(33, 33, 33)" stroke="none" stroke-width="1px">220</text></g><line x1="0" y1="0" x2="955.8375" y2="0" fill="rgb(0, 0, 0)" stroke="rgb(204, 204, 204)" stroke-width="1px"></line></g></g></g></g></svg>