<svg viewBox="0 0 330 200" xmlns="http://www.w3.org/2000/svg"><g><g><g><g><g><line x1="50" y1="177" x2="45" y2="177" style="visibility: inherit;" fill="rgb(0, 0, 0)" stroke="rgb(204, 204, 204)" stroke-width="1px"></line><line x1="50" y1="164.35714285714286" x2="45" y2="164.35714285714286" style="visibility: inherit;" fill="rgb(0, 0, 0)" stroke="rgb(204, 204, 204)" stroke-width="1px"></line><line x1="50" y1="151.71428571428572" x2="45" y2="151.71428571428572" style="visibility: inherit;" fill="rgb(0, 0, 0)" stroke="rgb(204, 204, 204)" stroke-width="1px"></line><line x1="50" y1="139.07142857142856" x2="45" y2="139.07142857142856" style="visibility: inherit;" fill="rgb(0, 0, 0)" stroke="rgb(204, 204, 204)" stroke-width="1px"></line><line x1="50" y1="126.42857142857143" x2="45" y2="126.42857142857143" style="visibility: inherit;" fill="rgb(0, 0, 0)" stroke="rgb(204, 204, 204)" stroke-width="1px"></line><line x1="50" y1="113.78571428571429" x2="45" y2="113.78571428571429" style="visibility: inherit;" fill="rgb(0, 0, 0)" stroke="rgb(204, 204, 204)" stroke-width="1px"></line><line x1="50" y1="101.14285714285715" x2="45" y2="101.14285714285715" style="visibility: inherit;" fill="rgb(0, 0, 0)" stroke="rgb(204, 204, 204)" stroke-width="1px"></line><line x1="50" y1="88.5" x2="45" y2="88.5" style="visibility: inherit;" fill="rgb(0, 0, 0)" stroke="rgb(204, 204, 204)" stroke-width="1px"></line><line x1="50" y1="75.85714285714288" x2="45" y2="75.85714285714288" style="visibility: inherit;" fill="rgb(0, 0, 0)" stroke="rgb(204, 204, 204)" stroke-width="1px"></line><line x1="50" y1="63.21428571428572" x2="45" y2="63.21428571428572" style="visibility: inherit;" fill="rgb(0, 0, 0)" stroke="rgb(204, 204, 204)" stroke-width="1px"></line><line x1="50" y1="50.57142857142859" x2="45" y2="50.57142857142859" style="visibility: inherit;" fill="rgb(0, 0, 0)" stroke="rgb(204, 204, 204)" stroke-width="1px"></line><line x1="50" y1="37.92857142857143" x2="45" y2="37.92857142857143" style="visibility: inherit;" fill="rgb(0, 0, 0)" stroke="rgb(204, 204, 204)" stroke-width="1px"></line><line x1="50" y1="25.285714285714274" x2="45" y2="25.285714285714274" style="visibility: inherit;" fill="rgb(0, 0, 0)" stroke="rgb(204, 204, 204)" stroke-width="1px"></line><line x1="50" y1="12.642857142857157" x2="45" y2="12.642857142857157" style="visibility: inherit;" fill="rgb(0, 0, 0)" stroke="rgb(204, 204, 204)" stroke-width="1px"></line><line x1="50" y1="0" x2="45" y2="0" style="visibility: inherit;" fill="rgb(0, 0, 0)" stroke="rgb(204, 204, 204)" stroke-width="1px"></line></g><g transform="translate(40, 0)"><text x="0" y="177" dx="0em" dy="0.3em" style="text-anchor: end; visibility: hidden; font-family: Roboto, sans-serif; font-size: 12px; font-weight: 200;" fill="rgb(33, 33, 33)" stroke="none" stroke-width="1px">-0.1</text><text x="0" y="164.35714285714286" dx="0em" dy="0.3em" style="text-anchor: end; visibility: inherit; font-family: Roboto, sans-serif; font-size: 12px; font-weight: 200;" fill="rgb(33, 33, 33)" stroke="none" stroke-width="1px">0</text><text x="0" y="151.71428571428572" dx="0em" dy="0.3em" style="text-anchor: end; visibility: hidden; font-family: Roboto, sans-serif; font-size: 12px; font-weight: 200;" fill="rgb(33, 33, 33)" stroke="none" stroke-width="1px">0.1</text><text x="0" y="139.07142857142856" dx="0em" dy="0.3em" style="text-anchor: end; visibility: inherit; font-family: Roboto, sans-serif; font-size: 12px; font-weight: 200;" fill="rgb(33, 33, 33)" stroke="none" stroke-width="1px">0.2</text><text x="0" y="126.42857142857143" dx="0em" dy="0.3em" style="text-anchor: end; visibility: hidden; font-family: Roboto, sans-serif; font-size: 12px; font-weight: 200;" fill="rgb(33, 33, 33)" stroke="none" stroke-width="1px">0.3</text><text x="0" y="113.78571428571429" dx="0em" dy="0.3em" style="text-anchor: end; visibility: inherit; font-family: Roboto, sans-serif; font-size: 12px; font-weight: 200;" fill="rgb(33, 33, 33)" stroke="none" stroke-width="1px">0.4</text><text x="0" y="101.14285714285715" dx="0em" dy="0.3em" style="text-anchor: end; visibility: hidden; font-family: Roboto, sans-serif; font-size: 12px; font-weight: 200;" fill="rgb(33, 33, 33)" stroke="none" stroke-width="1px">0.5</text><text x="0" y="88.5" dx="0em" dy="0.3em" style="text-anchor: end; visibility: inherit; font-family: Roboto, sans-serif; font-size: 12px; font-weight: 200;" fill="rgb(33, 33, 33)" stroke="none" stroke-width="1px">0.6</text><text x="0" y="75.85714285714288" dx="0em" dy="0.3em" style="text-anchor: end; visibility: hidden; font-family: Roboto, sans-serif; font-size: 12px; font-weight: 200;" fill="rgb(33, 33, 33)" stroke="none" stroke-width="1px">0.7</text><text x="0" y="63.21428571428572" dx="0em" dy="0.3em" style="text-anchor: end; visibility: inherit; font-family: Roboto, sans-serif; font-size: 12px; font-weight: 200;" fill="rgb(33, 33, 33)" stroke="none" stroke-width="1px">0.8</text><text x="0" y="50.57142857142859" dx="0em" dy="0.3em" style="text-anchor: end; visibility: hidden; font-family: Roboto, sans-serif; font-size: 12px; font-weight: 200;" fill="rgb(33, 33, 33)" stroke="none" stroke-width="1px">0.9</text><text x="0" y="37.92857142857143" dx="0em" dy="0.3em" style="text-anchor: end; visibility: inherit; font-family: Roboto, sans-serif; font-size: 12px; font-weight: 200;" fill="rgb(33, 33, 33)" stroke="none" stroke-width="1px">1</text><text x="0" y="25.285714285714274" dx="0em" dy="0.3em" style="text-anchor: end; visibility: hidden; font-family: Roboto, sans-serif; font-size: 12px; font-weight: 200;" fill="rgb(33, 33, 33)" stroke="none" stroke-width="1px">1.1</text><text x="0" y="12.642857142857157" dx="0em" dy="0.3em" style="text-anchor: end; visibility: inherit; font-family: Roboto, sans-serif; font-size: 12px; font-weight: 200;" fill="rgb(33, 33, 33)" stroke="none" stroke-width="1px">1.2</text><text x="0" y="0" dx="0em" dy="0.3em" style="text-anchor: end; visibility: hidden; font-family: Roboto, sans-serif; font-size: 12px; font-weight: 200;" fill="rgb(33, 33, 33)" stroke="none" stroke-width="1px">1.3</text></g><line x1="50" y1="0" x2="50" y2="177" fill="rgb(0, 0, 0)" stroke="rgb(204, 204, 204)" stroke-width="1px"></line></g></g><g transform="translate(50, 0)" clip-path="url(#clip_0)"><clipPath id="clip_0"><rect width="280" height="177"></rect></clipPath><g><g><g><line x1="0" y1="0" x2="0" y2="177" fill="rgb(0, 0, 0)" stroke="rgb(66, 66, 66)" stroke-width="1px" opacity="0.25"></line><line x1="23.333333333333332" y1="0" x2="23.333333333333332" y2="177" fill="rgb(0, 0, 0)" stroke="rgb(66, 66, 66)" stroke-width="1px" opacity="0.25"></line><line x1="46.666666666666664" y1="0" x2="46.666666666666664" y2="177" fill="rgb(0, 0, 0)" stroke="rgb(66, 66, 66)" stroke-width="1px" opacity="0.25"></line><line x1="70" y1="0" x2="70" y2="177" fill="rgb(0, 0, 0)" stroke="rgb(66, 66, 66)" stroke-width="1px" opacity="0.25"></line><line x1="93.33333333333333" y1="0" x2="93.33333333333333" y2="177" fill="rgb(0, 0, 0)" stroke="rgb(66, 66, 66)" stroke-width="1px" opacity="0.25"></line><line x1="116.66666666666667" y1="0" x2="116.66666666666667" y2="177" fill="rgb(0, 0, 0)" stroke="rgb(66, 66, 66)" stroke-width="1px" opacity="0.25"></line><line x1="140" y1="0" x2="140" y2="177" fill="rgb(0, 0, 0)" stroke="rgb(66, 66, 66)" stroke-width="1px" opacity="0.25"></line><line x1="163.33333333333334" y1="0" x2="163.33333333333334" y2="177" fill="rgb(0, 0, 0)" stroke="rgb(66, 66, 66)" stroke-width="1px" opacity="0.25"></line><line x1="186.66666666666666" y1="0" x2="186.66666666666666" y2="177" fill="rgb(0, 0, 0)" stroke="rgb(66, 66, 66)" stroke-width="1px" opacity="0.25"></line><line x1="210" y1="0" x2="210" y2="177" fill="rgb(0, 0, 0)" stroke="rgb(66, 66, 66)" stroke-width="1px" opacity="0.25"></line><line x1="233.33333333333334" y1="0" x2="233.33333333333334" y2="177" fill="rgb(0, 0, 0)" stroke="rgb(66, 66, 66)" stroke-width="1px" opacity="0.25"></line><line x1="256.66666666666663" y1="0" x2="256.66666666666663" y2="177" fill="rgb(0, 0, 0)" stroke="rgb(66, 66, 66)" stroke-width="1px" opacity="0.25"></line><line x1="280" y1="0" x2="280" y2="177" fill="rgb(0, 0, 0)" stroke="rgb(66, 66, 66)" stroke-width="1px" opacity="0.25"></line></g><g><line x1="0" y1="177" x2="280" y2="177" fill="rgb(0, 0, 0)" stroke="rgb(66, 66, 66)" stroke-width="1px" opacity="0.25"></line><line x1="0" y1="164.35714285714286" x2="280" y2="164.35714285714286" fill="rgb(0, 0, 0)" stroke="rgb(66, 66, 66)" stroke-width="1px" opacity="0.25"></line><line x1="0" y1="151.71428571428572" x2="280" y2="151.71428571428572" fill="rgb(0, 0, 0)" stroke="rgb(66, 66, 66)" stroke-width="1px" opacity="0.25"></line><line x1="0" y1="139.07142857142856" x2="280" y2="139.07142857142856" fill="rgb(0, 0, 0)" stroke="rgb(66, 66, 66)" stroke-width="1px" opacity="0.25"></line><line x1="0" y1="126.42857142857143" x2="280" y2="126.42857142857143" fill="rgb(0, 0, 0)" stroke="rgb(66, 66, 66)" stroke-width="1px" opacity="0.25"></line><line x1="0" y1="113.78571428571429" x2="280" y2="113.78571428571429" fill="rgb(0, 0, 0)" stroke="rgb(66, 66, 66)" stroke-width="1px" opacity="0.25"></line><line x1="0" y1="101.14285714285715" x2="280" y2="101.14285714285715" fill="rgb(0, 0, 0)" stroke="rgb(66, 66, 66)" stroke-width="1px" opacity="0.25"></line><line x1="0" y1="88.5" x2="280" y2="88.5" fill="rgb(0, 0, 0)" stroke="rgb(66, 66, 66)" stroke-width="1px" opacity="0.25"></line><line x1="0" y1="75.85714285714288" x2="280" y2="75.85714285714288" fill="rgb(0, 0, 0)" stroke="rgb(66, 66, 66)" stroke-width="1px" opacity="0.25"></line><line x1="0" y1="63.21428571428572" x2="280" y2="63.21428571428572" fill="rgb(0, 0, 0)" stroke="rgb(66, 66, 66)" stroke-width="1px" opacity="0.25"></line><line x1="0" y1="50.57142857142859" x2="280" y2="50.57142857142859" fill="rgb(0, 0, 0)" stroke="rgb(66, 66, 66)" stroke-width="1px" opacity="0.25"></line><line x1="0" y1="37.92857142857143" x2="280" y2="37.92857142857143" fill="rgb(0, 0, 0)" stroke="rgb(66, 66, 66)" stroke-width="1px" opacity="0.25"></line><line x1="0" y1="25.285714285714274" x2="280" y2="25.285714285714274" fill="rgb(0, 0, 0)" stroke="rgb(66, 66, 66)" stroke-width="1px" opacity="0.25"></line><line x1="0" y1="12.642857142857157" x2="280" y2="12.642857142857157" fill="rgb(0, 0, 0)" stroke="rgb(66, 66, 66)" stroke-width="1px" opacity="0.25"></line><line x1="0" y1="0" x2="280" y2="0" fill="rgb(0, 0, 0)" stroke="rgb(66, 66, 66)" stroke-width="1px" opacity="0.25"></line></g></g></g><g><g><line x1="0" y1="164.35714285714286" x2="280" y2="164.35714285714286" fill="rgb(0, 0, 0)" stroke="rgb(153, 153, 153)" stroke-width="1.5px"></line></g></g><g><g><line x1="23.333333333333332" y1="0" x2="23.333333333333332" y2="177" fill="rgb(0, 0, 0)" stroke="rgb(153, 153, 153)" stroke-width="1.5px"></line></g></g><g><g><g><g><g><path stroke="rgb(255, 112, 67)" stroke-width="2px" d="M33.833333333333336,-6.952226888431358L35,10.910832597764236L36.16666666666667,26.01380571258858L37.333333333333336,38.855760928317046L38.5,49.01480222831267L39.666666666666664,58.01225284914808L40.833333333333336,66.1321480928182L42,73.06618179737664L43.16666666666667,79.40093160924789L44.33333333333333,85.30459053807203L45.5,91.36631257478545L46.666666666666664,96.08922294013958L47.833333333333336,100.41945976548745L49,104.35507610110501L50.166666666666664,107.24196579590904L51.33333333333333,109.68650422755174L52.5,111.94953534553716L53.66666666666667,114.17599302788882L54.833333333333336,116.42422813112307L56,118.10297116549052L57.166666666666664,119.68167072215846L58.333333333333336,121.06734318189258L59.5,122.53462807426253L60.66666666666667,123.73075206935798L61.83333333333333,125.2733824192876L63,126.38124087207996L64.16666666666666,127.20066447189905L65.33333333333333,128.53811993398054L66.5,129.81030882846648L67.66666666666667,130.9581403265362L68.83333333333333,131.82840359761354L70,132.12634495339984L71.16666666666666,132.71387640274202L72.33333333333334,133.62651026484448L73.5,134.43610867076626L74.66666666666667,135.36360166209747L75.83333333333333,136.26206059901244L77,136.92929762990784L78.16666666666667,137.1702184640909L79.33333333333333,137.7517589096149L80.5,138.25252964537415L81.66666666666667,138.9608634779211L82.83333333333333,139.35097786857082L84,139.9777605265507L85.16666666666666,140.42243390092645L86.33333333333334,140.7976883851341L87.5,141.0950243270395L88.66666666666666,141.5506262163775L89.83333333333334,141.92471142550198L91,142.11227590576175L92.16666666666667,142.44456552620238L93.33333333333333,142.83141997378942L94.5,143.49497881144555L95.66666666666667,143.78638406163617L96.83333333333333,143.94904645763393L98,144.320697298542L99.16666666666667,144.69282140870328L100.33333333333333,145.17727825111666L101.5,145.12724768133302L102.66666666666666,145.5678929550983L103.83333333333334,145.86834913785765L105,146.3069009534534L106.16666666666666,146.4693727745679L107.33333333333334,146.59808694701934L108.5,146.77432590098962L109.66666666666667,147.37172366517143L110.83333333333333,147.91987056081763L112,147.6076700251587L113.16666666666667,147.65336352100556L114.33333333333333,147.88751709850695L115.5,148.38813538061248L116.66666666666667,148.62202048722904L117.83333333333333,148.7037013406992L119,148.80229495676994L120.16666666666666,149.1498661241263L121.33333333333334,149.23626066837406L122.5,149.59348888538213L123.66666666666666,149.86883810068326L124.83333333333334,149.80187819117828L126,150.0784304882813L127.16666666666667,149.856237479364L128.33333333333331,150.0593550974306L129.5,150.07907997726744L130.66666666666666,150.2095679897201L131.83333333333334,150.294032560135L133,150.57396705103054L134.16666666666669,150.8003326680532L135.33333333333334,150.7476238964617L136.5,151.04140728380287L137.66666666666666,151.0109145915185L138.83333333333334,151.15452036925487L140,151.30234984557828L141.16666666666666,151.79251958047237L142.33333333333331,151.76745536991888L143.5,151.58833385661885L144.66666666666669,151.67370028162813L145.83333333333334,151.98019261662765L147,152.08153334092432L148.16666666666666,152.2201961852136L149.33333333333334,152.34154653965712L150.5,152.4840660235158L151.66666666666666,152.66841861040334L152.83333333333331,152.67293461860638L154,152.7865912704893L155.16666666666669,152.66312300966976L156.33333333333334,152.9437402023993L157.5,152.92282654250397L158.66666666666666,153.10354194116007L159.83333333333331,153.07013253825042L161,153.4477688501562L162.16666666666669,153.5457202461106L163.33333333333334,153.39616770929265L164.5,153.60324674180845L165.66666666666666,153.42109589731857L166.83333333333334,153.86959372647587L168,153.75303900268747L169.16666666666666,153.72587256703167L170.33333333333331,153.91570092185373L171.5,154.2543966758321L172.66666666666669,154.2964410634253L173.83333333333334,154.10291261042778L175,154.343005732093L176.16666666666666,154.26974056897473L177.33333333333331,154.29959470090301L178.5,154.30019270981995L179.66666666666669,154.37727730464897L180.83333333333334,154.54079268782797L182,154.71343933119624L183.16666666666666,154.8234620771406L184.33333333333334,154.93955705652223L185.5,154.9250331568949L186.66666666666666,154.93259260303316L187.83333333333331,155.02284644691073L189,154.80978666248959L190.16666666666669,154.88300067954512L191.33333333333334,154.89491843871795L192.5,154.9672817952698L193.66666666666666,155.09599598451052L194.83333333333331,155.211725296655L196,155.4177845401041L197.16666666666669,155.37096714656101L198.33333333333334,155.3261055663346L199.5,155.50519890023836L200.66666666666666,155.52240737381575L201.83333333333334,155.4785460371809L203,155.6661697427993L204.16666666666666,155.61498953703435L205.33333333333331,155.86290938183558L206.5,155.7875268222385L207.66666666666669,155.94656794522876L208.83333333333334,156.01969665440723L210,155.96746581585887L211.16666666666666,155.80065711612514L212.33333333333331,155.82038246897721L213.5,155.9081785935632L214.66666666666669,155.96615765443275L215.83333333333334,155.9888494905879L217,155.9022431499562L218.16666666666666,156.10551150941518L219.33333333333334,156.2177736636789L220.5,156.3898414329762L221.66666666666666,156.25862443142725L222.83333333333331,156.30832605519902L224,156.1773744887225L225.16666666666669,156.11255964732837L226.33333333333334,156.3062646311749L227.5,156.52664083098176L228.66666666666666,156.48050015269314L229.83333333333331,156.52893679285916L231,156.5321433102353L232.16666666666669,156.72983776426184L233.33333333333334,156.82729975838413L234.5,156.9239288491544L235.66666666666666,156.87890775636058L236.83333333333334,156.82292850779342L238,156.85559396724014L239.16666666666666,156.90064517128533L240.33333333333331,156.81186905441663L241.5,157.07262535803306L242.66666666666669,157.0895598074279L243.83333333333334,157.11888383868228L245,157.13423845005906L246.16666666666666,157.396061700225L247.33333333333331,157.25661544003492L248.5,157.34566737114434L249.66666666666669,157.41610987530717L250.83333333333334,157.5277653224349L252,157.47217882560457L253.16666666666666,157.57288473989908L254.33333333333334,157.53378408957755L255.5,157.3208419109367" style="fill: none;" fill="none"></path></g></g></g></g><g opacity="0.2"><g><g><g><path stroke="rgb(255, 112, 67)" stroke-width="2px" d="M31.5,-14.732014724186483L32.666666666666664,7.220275385039205L33.833333333333336,24.271356787000386L35,37.54340519223895L36.16666666666667,48.586075672081535L37.333333333333336,58.076762539999834L38.5,64.23346155881883L39.666666666666664,71.49785261494773L40.833333333333336,78.3062641790935L42,83.46429810353689L43.16666666666667,88.90144793476378L44.33333333333333,94.15917956829071L45.5,100.45834156445096L46.666666666666664,103.17332947254181L47.833333333333336,106.91467251522201L49,110.2584229026522L50.166666666666664,111.57226614015443L51.33333333333333,113.35329450028283L52.5,115.34407237172127L53.66666666666667,117.51567385452134L54.833333333333336,119.79657733440399L56,120.6210841706821L57.166666666666664,122.04971918463707L58.333333333333336,123.14585141198975L59.5,124.73555512087685L60.66666666666667,125.52493791920799L61.83333333333333,127.58732783368656L63,128.0430285036564L64.16666666666666,128.42979985049794L65.33333333333333,130.54430310641018L66.5,131.7185921583857L67.66666666666667,132.67988756724768L68.83333333333333,133.13379850132125L70,132.57325698648182L71.16666666666666,133.59517357604847L72.33333333333334,134.9954610573394L73.5,135.65050627929824L74.66666666666667,136.7548411488533L75.83333333333333,137.6097490042448L77,137.93015317618847L78.16666666666667,137.53159971535206L79.33333333333333,138.62406957788127L80.5,139.00368574900287L81.66666666666667,140.02336422673295L82.83333333333333,139.93614945454257L84,140.9179345135178L85.16666666666666,141.08944396248887L86.33333333333334,141.360570111445L87.5,141.54102823989732L88.66666666666666,142.23402905038427L89.83333333333334,142.4858392391886L91,142.39362262615137L92.16666666666667,142.94299995686328L93.33333333333333,143.41170164516996L94.5,144.49031706792968L95.66666666666667,144.22349193692207L96.83333333333333,144.19304005163056L98,144.8781735599041L99.16666666666667,145.2510075739452L100.33333333333333,145.90396351473672L101.5,145.05220182665758L102.66666666666666,146.22886086574624L103.83333333333334,146.3190334119967L105,146.96472867684705L106.16666666666666,146.71308050623963L107.33333333333334,146.79115820569652L108.5,147.038684331945L109.66666666666667,148.26782031144415L110.83333333333333,148.74209090428693L112,147.1393692216703L113.16666666666667,147.72190376477582L114.33333333333333,148.23874746475903L115.5,149.1390628037708L116.66666666666667,148.97284814715385L117.83333333333333,148.82622262090445L119,148.95018538087606L120.16666666666666,149.67122287516085L121.33333333333334,149.36585248474566L122.5,150.12933121089426L123.66666666666666,150.281861923635L124.83333333333334,149.70143832692077L126,150.49325893393586L127.16666666666667,149.5229479659881L128.33333333333331,150.36403152453047L129.5,150.1086672970227L130.66666666666666,150.40530000839917L131.83333333333334,150.42072941575734L133,150.9938687873738L134.16666666666669,151.13988109358718L135.33333333333334,150.66856073907445L136.5,151.48208236481463L137.66666666666666,150.96517555309194L138.83333333333334,151.36992903585946L140,151.52409406006336L141.16666666666666,152.52777418281352L142.33333333333331,151.7298590540886L143.5,151.31965158666884L144.66666666666669,151.80174991914203L145.83333333333334,152.43993111912695L147,152.23354442736934L148.16666666666666,152.42819045164754L149.33333333333334,152.52357207132238L150.5,152.69784524930375L151.66666666666666,152.94494749073473L152.83333333333331,152.67970863091094L154,152.95707624831368L155.16666666666669,152.4779206184404L156.33333333333334,153.36466599149364L157.5,152.89145605266094L158.66666666666666,153.37461503914426L159.83333333333331,153.02001843388592L161,154.01422331801484L162.16666666666669,153.69264734004227L163.33333333333334,153.17183890406577L164.5,153.91386529058218L165.66666666666666,153.1478696305837L166.83333333333334,154.54234047021185L168,153.57820691700493L169.16666666666666,153.68512291354793L170.33333333333331,154.20044345408678L171.5,154.76244030679976L172.66666666666669,154.35950764481512L173.83333333333334,153.8126199309315L175,154.70314541459084L176.16666666666666,154.1598428242973L177.33333333333331,154.34437589879548L178.5,154.30108972319533L179.66666666666669,154.49290419689248L180.83333333333334,154.78606576259648L182,154.97240929624866L183.16666666666666,154.9884961960571L184.33333333333334,155.1136995255947L185.5,154.90324730745385L186.66666666666666,154.94393177224057L187.83333333333331,155.15822721272707L189,154.49019698585784L190.16666666666669,154.99282170512845L191.33333333333334,154.9127950774772L192.5,155.0758268300976L193.66666666666666,155.28906726837158L194.83333333333331,155.38531926487175L196,155.72687340527773L197.16666666666669,155.30074105624644L198.33333333333334,155.25881319599492L199.5,155.77383890109402L200.66666666666666,155.54822008418185L201.83333333333334,155.4127540322287L203,155.94760530122687L204.16666666666666,155.53821922838688L205.33333333333331,156.23478914903743L206.5,155.67445298284292L207.66666666666669,156.18512962971417L208.83333333333334,156.12938971817493L210,155.88911955803633L211.16666666666666,155.5504440665245L212.33333333333331,155.84997049825532L213.5,156.03987278044224L214.66666666666669,156.05312624573708L215.83333333333334,156.0228872448206L217,155.77233363900868L218.16666666666666,156.4104140486036L219.33333333333334,156.38616689507452L220.5,156.64794308692217L221.66666666666666,156.0617989291038L222.83333333333331,156.3828784908567L224,155.98094713900772L225.16666666666669,156.01533738523722L226.33333333333334,156.59682210694467L227.5,156.85720513069202L228.66666666666666,156.41128913526026L229.83333333333331,156.60159175310818L231,156.53695308629958L232.16666666666669,157.02637944530164L233.33333333333334,156.97349274956753L234.5,157.06887248530984L235.66666666666666,156.81137611716986L236.83333333333334,156.7389596349427L238,156.90459215641022L239.16666666666666,156.9682219773531L240.33333333333331,156.6787048791136L241.5,157.46375981345773L242.66666666666669,157.1149614815201L243.83333333333334,157.16286988556385L245,157.15727036712426L246.16666666666666,157.7887965754739L247.33333333333331,157.04744604974985L248.5,157.47924526780844L249.66666666666669,157.52177363155144L250.83333333333334,157.69524849312646L252,157.3887990803591L253.16666666666666,157.72394361134087L254.33333333333334,157.47513311409523L255.5,157.00142864297544" style="fill: none;" fill="none"></path></g></g></g></g></g></g><g transform="translate(50, 177)" clip-path="url(#clip_1)"><clipPath id="clip_1"><rect width="280" height="23"></rect></clipPath><g><g><line x1="0" y1="0" x2="0" y2="5" style="visibility: inherit;" fill="rgb(0, 0, 0)" stroke="rgb(204, 204, 204)" stroke-width="1px"></line><line x1="23.333333333333332" y1="0" x2="23.333333333333332" y2="5" style="visibility: inherit;" fill="rgb(0, 0, 0)" stroke="rgb(204, 204, 204)" stroke-width="1px"></line><line x1="46.666666666666664" y1="0" x2="46.666666666666664" y2="5" style="visibility: inherit;" fill="rgb(0, 0, 0)" stroke="rgb(204, 204, 204)" stroke-width="1px"></line><line x1="70" y1="0" x2="70" y2="5" style="visibility: inherit;" fill="rgb(0, 0, 0)" stroke="rgb(204, 204, 204)" stroke-width="1px"></line><line x1="93.33333333333333" y1="0" x2="93.33333333333333" y2="5" style="visibility: inherit;" fill="rgb(0, 0, 0)" stroke="rgb(204, 204, 204)" stroke-width="1px"></line><line x1="116.66666666666667" y1="0" x2="116.66666666666667" y2="5" style="visibility: inherit;" fill="rgb(0, 0, 0)" stroke="rgb(204, 204, 204)" stroke-width="1px"></line><line x1="140" y1="0" x2="140" y2="5" style="visibility: inherit;" fill="rgb(0, 0, 0)" stroke="rgb(204, 204, 204)" stroke-width="1px"></line><line x1="163.33333333333334" y1="0" x2="163.33333333333334" y2="5" style="visibility: inherit;" fill="rgb(0, 0, 0)" stroke="rgb(204, 204, 204)" stroke-width="1px"></line><line x1="186.66666666666666" y1="0" x2="186.66666666666666" y2="5" style="visibility: inherit;" fill="rgb(0, 0, 0)" stroke="rgb(204, 204, 204)" stroke-width="1px"></line><line x1="210" y1="0" x2="210" y2="5" style="visibility: inherit;" fill="rgb(0, 0, 0)" stroke="rgb(204, 204, 204)" stroke-width="1px"></line><line x1="233.33333333333334" y1="0" x2="233.33333333333334" y2="5" style="visibility: inherit;" fill="rgb(0, 0, 0)" stroke="rgb(204, 204, 204)" stroke-width="1px"></line><line x1="256.66666666666663" y1="0" x2="256.66666666666663" y2="5" style="visibility: inherit;" fill="rgb(0, 0, 0)" stroke="rgb(204, 204, 204)" stroke-width="1px"></line><line x1="280" y1="0" x2="280" y2="5" style="visibility: inherit;" fill="rgb(0, 0, 0)" stroke="rgb(204, 204, 204)" stroke-width="1px"></line></g><g transform="translate(0, 8)"><text x="0" y="0" dx="0em" dy="0.95em" style="text-anchor: middle; visibility: hidden; font-family: Roboto, sans-serif; font-size: 12px; font-weight: 200;" fill="rgb(33, 33, 33)" stroke="none" stroke-width="1px">-20</text><text x="23.333333333333332" y="0" dx="0em" dy="0.95em" style="text-anchor: middle; visibility: inherit; font-family: Roboto, sans-serif; font-size: 12px; font-weight: 200;" fill="rgb(33, 33, 33)" stroke="none" stroke-width="1px">0</text><text x="46.666666666666664" y="0" dx="0em" dy="0.95em" style="text-anchor: middle; visibility: hidden; font-family: Roboto, sans-serif; font-size: 12px; font-weight: 200;" fill="rgb(33, 33, 33)" stroke="none" stroke-width="1px">20</text><text x="70" y="0" dx="0em" dy="0.95em" style="text-anchor: middle; visibility: inherit; font-family: Roboto, sans-serif; font-size: 12px; font-weight: 200;" fill="rgb(33, 33, 33)" stroke="none" stroke-width="1px">40</text><text x="93.33333333333333" y="0" dx="0em" dy="0.95em" style="text-anchor: middle; visibility: hidden; font-family: Roboto, sans-serif; font-size: 12px; font-weight: 200;" fill="rgb(33, 33, 33)" stroke="none" stroke-width="1px">60</text><text x="116.66666666666667" y="0" dx="0em" dy="0.95em" style="text-anchor: middle; visibility: inherit; font-family: Roboto, sans-serif; font-size: 12px; font-weight: 200;" fill="rgb(33, 33, 33)" stroke="none" stroke-width="1px">80</text><text x="140" y="0" dx="0em" dy="0.95em" style="text-anchor: middle; visibility: hidden; font-family: Roboto, sans-serif; font-size: 12px; font-weight: 200;" fill="rgb(33, 33, 33)" stroke="none" stroke-width="1px">100</text><text x="163.33333333333334" y="0" dx="0em" dy="0.95em" style="text-anchor: middle; visibility: inherit; font-family: Roboto, sans-serif; font-size: 12px; font-weight: 200;" fill="rgb(33, 33, 33)" stroke="none" stroke-width="1px">120</text><text x="186.66666666666666" y="0" dx="0em" dy="0.95em" style="text-anchor: middle; visibility: hidden; font-family: Roboto, sans-serif; font-size: 12px; font-weight: 200;" fill="rgb(33, 33, 33)" stroke="none" stroke-width="1px">140</text><text x="210" y="0" dx="0em" dy="0.95em" style="text-anchor: middle; visibility: inherit; font-family: Roboto, sans-serif; font-size: 12px; font-weight: 200;" fill="rgb(33, 33, 33)" stroke="none" stroke-width="1px">160</text><text x="233.33333333333334" y="0" dx="0em" dy="0.95em" style="text-anchor: middle; visibility: hidden; font-family: Roboto, sans-serif; font-size: 12px; font-weight: 200;" fill="rgb(33, 33, 33)" stroke="none" stroke-width="1px">180</text><text x="256.66666666666663" y="0" dx="0em" dy="0.95em" style="text-anchor: middle; visibility: inherit; font-family: Roboto, sans-serif; font-size: 12px; font-weight: 200;" fill="rgb(33, 33, 33)" stroke="none" stroke-width="1px">200</text><text x="280" y="0" dx="0em" dy="0.95em" style="text-anchor: middle; visibility: hidden; font-family: Roboto, sans-serif; font-size: 12px; font-weight: 200;" fill="rgb(33, 33, 33)" stroke="none" stroke-width="1px">220</text></g><line x1="0" y1="0" x2="280" y2="0" fill="rgb(0, 0, 0)" stroke="rgb(204, 204, 204)" stroke-width="1px"></line></g></g></g></g></svg>