<svg viewBox="0 0 330 200" xmlns="http://www.w3.org/2000/svg"><g><g><g><g><g><line x1="40" y1="177" x2="35" y2="177" style="visibility: inherit;" fill="rgb(0, 0, 0)" stroke="rgb(204, 204, 204)" stroke-width="1px"></line><line x1="40" y1="159.3" x2="35" y2="159.3" style="visibility: inherit;" fill="rgb(0, 0, 0)" stroke="rgb(204, 204, 204)" stroke-width="1px"></line><line x1="40" y1="141.6" x2="35" y2="141.6" style="visibility: inherit;" fill="rgb(0, 0, 0)" stroke="rgb(204, 204, 204)" stroke-width="1px"></line><line x1="40" y1="123.89999999999999" x2="35" y2="123.89999999999999" style="visibility: inherit;" fill="rgb(0, 0, 0)" stroke="rgb(204, 204, 204)" stroke-width="1px"></line><line x1="40" y1="106.20000000000002" x2="35" y2="106.20000000000002" style="visibility: inherit;" fill="rgb(0, 0, 0)" stroke="rgb(204, 204, 204)" stroke-width="1px"></line><line x1="40" y1="88.5" x2="35" y2="88.5" style="visibility: inherit;" fill="rgb(0, 0, 0)" stroke="rgb(204, 204, 204)" stroke-width="1px"></line><line x1="40" y1="70.79999999999998" x2="35" y2="70.79999999999998" style="visibility: inherit;" fill="rgb(0, 0, 0)" stroke="rgb(204, 204, 204)" stroke-width="1px"></line><line x1="40" y1="53.10000000000001" x2="35" y2="53.10000000000001" style="visibility: inherit;" fill="rgb(0, 0, 0)" stroke="rgb(204, 204, 204)" stroke-width="1px"></line><line x1="40" y1="35.39999999999999" x2="35" y2="35.39999999999999" style="visibility: inherit;" fill="rgb(0, 0, 0)" stroke="rgb(204, 204, 204)" stroke-width="1px"></line><line x1="40" y1="17.699999999999978" x2="35" y2="17.699999999999978" style="visibility: inherit;" fill="rgb(0, 0, 0)" stroke="rgb(204, 204, 204)" stroke-width="1px"></line><line x1="40" y1="0" x2="35" y2="0" style="visibility: inherit;" fill="rgb(0, 0, 0)" stroke="rgb(204, 204, 204)" stroke-width="1px"></line></g><g transform="translate(30, 0)"><text x="0" y="177" dx="0em" dy="0.3em" style="text-anchor: end; visibility: hidden; font-family: Roboto, sans-serif; font-size: 12px; font-weight: 200;" fill="rgb(33, 33, 33)" stroke="none" stroke-width="1px">0.4</text><text x="0" y="159.3" dx="0em" dy="0.3em" style="text-anchor: end; visibility: inherit; font-family: Roboto, sans-serif; font-size: 12px; font-weight: 200;" fill="rgb(33, 33, 33)" stroke="none" stroke-width="1px">0.6</text><text x="0" y="141.6" dx="0em" dy="0.3em" style="text-anchor: end; visibility: hidden; font-family: Roboto, sans-serif; font-size: 12px; font-weight: 200;" fill="rgb(33, 33, 33)" stroke="none" stroke-width="1px">0.8</text><text x="0" y="123.89999999999999" dx="0em" dy="0.3em" style="text-anchor: end; visibility: inherit; font-family: Roboto, sans-serif; font-size: 12px; font-weight: 200;" fill="rgb(33, 33, 33)" stroke="none" stroke-width="1px">1</text><text x="0" y="106.20000000000002" dx="0em" dy="0.3em" style="text-anchor: end; visibility: hidden; font-family: Roboto, sans-serif; font-size: 12px; font-weight: 200;" fill="rgb(33, 33, 33)" stroke="none" stroke-width="1px">1.2</text><text x="0" y="88.5" dx="0em" dy="0.3em" style="text-anchor: end; visibility: inherit; font-family: Roboto, sans-serif; font-size: 12px; font-weight: 200;" fill="rgb(33, 33, 33)" stroke="none" stroke-width="1px">1.4</text><text x="0" y="70.79999999999998" dx="0em" dy="0.3em" style="text-anchor: end; visibility: hidden; font-family: Roboto, sans-serif; font-size: 12px; font-weight: 200;" fill="rgb(33, 33, 33)" stroke="none" stroke-width="1px">1.6</text><text x="0" y="53.10000000000001" dx="0em" dy="0.3em" style="text-anchor: end; visibility: inherit; font-family: Roboto, sans-serif; font-size: 12px; font-weight: 200;" fill="rgb(33, 33, 33)" stroke="none" stroke-width="1px">1.8</text><text x="0" y="35.39999999999999" dx="0em" dy="0.3em" style="text-anchor: end; visibility: hidden; font-family: Roboto, sans-serif; font-size: 12px; font-weight: 200;" fill="rgb(33, 33, 33)" stroke="none" stroke-width="1px">2</text><text x="0" y="17.699999999999978" dx="0em" dy="0.3em" style="text-anchor: end; visibility: inherit; font-family: Roboto, sans-serif; font-size: 12px; font-weight: 200;" fill="rgb(33, 33, 33)" stroke="none" stroke-width="1px">2.2</text><text x="0" y="0" dx="0em" dy="0.3em" style="text-anchor: end; visibility: hidden; font-family: Roboto, sans-serif; font-size: 12px; font-weight: 200;" fill="rgb(33, 33, 33)" stroke="none" stroke-width="1px">2.4</text></g><line x1="40" y1="0" x2="40" y2="177" fill="rgb(0, 0, 0)" stroke="rgb(204, 204, 204)" stroke-width="1px"></line></g></g><g transform="translate(40, 0)" clip-path="url(#clip_0)"><clipPath id="clip_0"><rect width="278" height="177"></rect></clipPath><g><g><g><line x1="0" y1="0" x2="0" y2="177" fill="rgb(0, 0, 0)" stroke="rgb(66, 66, 66)" stroke-width="1px" opacity="0.25"></line><line x1="23.21666666666667" y1="0" x2="23.21666666666667" y2="177" fill="rgb(0, 0, 0)" stroke="rgb(66, 66, 66)" stroke-width="1px" opacity="0.25"></line><line x1="46.43333333333334" y1="0" x2="46.43333333333334" y2="177" fill="rgb(0, 0, 0)" stroke="rgb(66, 66, 66)" stroke-width="1px" opacity="0.25"></line><line x1="69.65" y1="0" x2="69.65" y2="177" fill="rgb(0, 0, 0)" stroke="rgb(66, 66, 66)" stroke-width="1px" opacity="0.25"></line><line x1="92.86666666666667" y1="0" x2="92.86666666666667" y2="177" fill="rgb(0, 0, 0)" stroke="rgb(66, 66, 66)" stroke-width="1px" opacity="0.25"></line><line x1="116.08333333333334" y1="0" x2="116.08333333333334" y2="177" fill="rgb(0, 0, 0)" stroke="rgb(66, 66, 66)" stroke-width="1px" opacity="0.25"></line><line x1="139.3" y1="0" x2="139.3" y2="177" fill="rgb(0, 0, 0)" stroke="rgb(66, 66, 66)" stroke-width="1px" opacity="0.25"></line><line x1="162.51666666666668" y1="0" x2="162.51666666666668" y2="177" fill="rgb(0, 0, 0)" stroke="rgb(66, 66, 66)" stroke-width="1px" opacity="0.25"></line><line x1="185.73333333333335" y1="0" x2="185.73333333333335" y2="177" fill="rgb(0, 0, 0)" stroke="rgb(66, 66, 66)" stroke-width="1px" opacity="0.25"></line><line x1="208.95000000000002" y1="0" x2="208.95000000000002" y2="177" fill="rgb(0, 0, 0)" stroke="rgb(66, 66, 66)" stroke-width="1px" opacity="0.25"></line><line x1="232.16666666666669" y1="0" x2="232.16666666666669" y2="177" fill="rgb(0, 0, 0)" stroke="rgb(66, 66, 66)" stroke-width="1px" opacity="0.25"></line><line x1="255.38333333333335" y1="0" x2="255.38333333333335" y2="177" fill="rgb(0, 0, 0)" stroke="rgb(66, 66, 66)" stroke-width="1px" opacity="0.25"></line><line x1="278.6" y1="0" x2="278.6" y2="177" fill="rgb(0, 0, 0)" stroke="rgb(66, 66, 66)" stroke-width="1px" opacity="0.25"></line></g><g><line x1="0" y1="177" x2="278.6" y2="177" fill="rgb(0, 0, 0)" stroke="rgb(66, 66, 66)" stroke-width="1px" opacity="0.25"></line><line x1="0" y1="159.3" x2="278.6" y2="159.3" fill="rgb(0, 0, 0)" stroke="rgb(66, 66, 66)" stroke-width="1px" opacity="0.25"></line><line x1="0" y1="141.6" x2="278.6" y2="141.6" fill="rgb(0, 0, 0)" stroke="rgb(66, 66, 66)" stroke-width="1px" opacity="0.25"></line><line x1="0" y1="123.89999999999999" x2="278.6" y2="123.89999999999999" fill="rgb(0, 0, 0)" stroke="rgb(66, 66, 66)" stroke-width="1px" opacity="0.25"></line><line x1="0" y1="106.20000000000002" x2="278.6" y2="106.20000000000002" fill="rgb(0, 0, 0)" stroke="rgb(66, 66, 66)" stroke-width="1px" opacity="0.25"></line><line x1="0" y1="88.5" x2="278.6" y2="88.5" fill="rgb(0, 0, 0)" stroke="rgb(66, 66, 66)" stroke-width="1px" opacity="0.25"></line><line x1="0" y1="70.79999999999998" x2="278.6" y2="70.79999999999998" fill="rgb(0, 0, 0)" stroke="rgb(66, 66, 66)" stroke-width="1px" opacity="0.25"></line><line x1="0" y1="53.10000000000001" x2="278.6" y2="53.10000000000001" fill="rgb(0, 0, 0)" stroke="rgb(66, 66, 66)" stroke-width="1px" opacity="0.25"></line><line x1="0" y1="35.39999999999999" x2="278.6" y2="35.39999999999999" fill="rgb(0, 0, 0)" stroke="rgb(66, 66, 66)" stroke-width="1px" opacity="0.25"></line><line x1="0" y1="17.699999999999978" x2="278.6" y2="17.699999999999978" fill="rgb(0, 0, 0)" stroke="rgb(66, 66, 66)" stroke-width="1px" opacity="0.25"></line><line x1="0" y1="0" x2="278.6" y2="0" fill="rgb(0, 0, 0)" stroke="rgb(66, 66, 66)" stroke-width="1px" opacity="0.25"></line></g></g></g><g><g><line x1="0" y1="212.4" x2="278.6" y2="212.4" fill="rgb(0, 0, 0)" stroke="rgb(153, 153, 153)" stroke-width="1.5px"></line></g></g><g><g><line x1="23.21666666666667" y1="0" x2="23.21666666666667" y2="177" fill="rgb(0, 0, 0)" stroke="rgb(153, 153, 153)" stroke-width="1.5px"></line></g></g><g><g><g><g><g><path stroke="rgb(255, 112, 67)" stroke-width="2px" d="M33.66416666666667,-2.186117058092285L34.825,8.635204442975208L35.98583333333334,20.514667938983496L37.14666666666667,31.265399094256765L38.307500000000005,40.81850091537629L39.468333333333334,49.29939792263621L40.62916666666667,57.535474728780876L41.79,65.10090230355765L42.950833333333335,71.77342028998743L44.11166666666667,77.42805203508912L45.27250000000001,82.49243661956541L46.43333333333334,86.81305787833026L47.59416666666667,90.80087774728409L48.755,94.18830551802199L49.91583333333334,97.61770120835624L51.07666666666667,102.22774875212785L52.237500000000004,105.98991211853941L53.39833333333334,109.1740897236336L54.55916666666667,112.01723782959166L55.720000000000006,114.63201453673588L56.880833333333335,116.37671087204586L58.04166666666667,118.02634833055882L59.2025,119.64156978705681L60.36333333333334,121.24342119581885L61.52416666666667,123.01877217305463L62.68500000000001,124.1380663611945L63.84583333333334,125.57720761939862L65.00666666666667,126.39529139932623L66.1675,127.44674663181098L67.32833333333333,128.49661178843624L68.48916666666666,129.4560397223927L69.65,130.01193629048927L70.81083333333333,130.8490647674218L71.97166666666668,131.576299975165L73.13250000000001,132.29028181198584L74.29333333333334,132.7292019460857L75.45416666666667,133.5793124970883L76.61500000000001,134.17988324746293L77.77583333333334,134.649179996172L78.93666666666667,135.15242245026278L80.0975,135.5388567199014L81.25833333333334,136.14162229953715L82.41916666666667,136.80835030710003L83.58,137.18038946292046L84.74083333333333,137.56575624645538L85.90166666666667,137.84976862729084L87.0625,138.2754802612097L88.22333333333334,138.67887552187636L89.38416666666669,139.13120837930325L90.54500000000002,140.6082435221881L91.70583333333335,141.97146908828088L92.86666666666667,143.0952558993606L94.02750000000002,143.89392118688278L95.18833333333335,144.35467470071228L96.34916666666668,144.57750526655622L97.51,145.14276703112668L98.67083333333335,145.661571976622L99.83166666666668,145.9132219988585L100.9925,146.14854466906075L102.15333333333334,146.5875738357954L103.31416666666668,146.6137740883501L104.47500000000001,147.01776881416274L105.63583333333334,147.19335446953554L106.79666666666668,147.73867132544385L107.95750000000001,148.70802440571705L109.11833333333334,149.28853905157996L110.27916666666667,149.8122546169564L111.44000000000001,150.17051552852422L112.60083333333334,150.44581820202131L113.76166666666667,150.7442381455437L114.9225,150.99195387565706L116.08333333333334,151.2003681791044L117.24416666666667,151.23310406757693L118.405,151.60287762494863L119.56583333333333,151.97058315522662L120.72666666666667,152.30171373514645L121.88750000000002,152.25718453304955L123.04833333333335,152.35419767127627L124.20916666666669,152.7446384109628L125.37000000000002,152.81899616942238L126.53083333333335,153.0239711608018L127.69166666666668,153.22182755264794L128.85250000000002,154.41004355068895L130.01333333333335,156.62042429993087L131.17416666666668,158.06017942756137L132.335,159.00992023426127L133.49583333333334,159.65071150706905L134.65666666666667,160.16661000637234L135.8175,160.56418060057175L136.97833333333332,160.82387997146137L138.13916666666668,161.021015590642L139.3,161.2653718365515L140.46083333333334,161.2014493425658L141.62166666666667,161.52254565000362L142.7825,161.62773109102145L143.94333333333336,161.7475128544801L145.10416666666669,161.86381860574684L146.26500000000001,161.89217211962105L147.42583333333334,161.97432006454682L148.58666666666667,162.08799350652825L149.7475,162.17444910999376L150.90833333333333,162.3194221973195L152.06916666666666,162.58153219698514L153.23000000000002,163.23228181170612L154.39083333333335,163.59481200198644L155.55166666666668,163.96610512864777L156.7125,164.1279841669332L157.87333333333333,164.35701218652315L159.03416666666666,164.47346610431424L160.195,164.80963578346103L161.35583333333335,165.02504417969425L162.51666666666668,165.0890035705187L163.6775,165.12899757840742L164.83833333333334,165.3092630208642L165.99916666666667,165.4652814067072L167.16,165.44589959124724L168.32083333333333,165.48039097869395L169.48166666666665,165.4204815321207L170.6425,165.59323640185835L171.80333333333334,165.6953215904131L172.96416666666667,165.9071890394148L174.125,165.89837458373648L175.28583333333336,165.97189035559617L176.4466666666667,165.94028863993242L177.60750000000002,166.06824299864147L178.76833333333337,166.13037218315705L179.9291666666667,166.1126861885983L181.09000000000003,166.21536494945278L182.25083333333336,166.31034614595646L183.4116666666667,166.3678602549605L184.57250000000002,166.43217042286233L185.73333333333335,166.455256431097L186.89416666666668,166.4567835001911L188.05500000000004,166.5733406441668L189.21583333333336,166.64319264037965L190.3766666666667,166.65178475823137L191.53750000000002,166.76134093788943L192.69833333333335,166.82873310916233L193.85916666666668,167.01112739963895L195.02,167.04456161453464L196.18083333333337,167.11295390483227L197.3416666666667,167.27437347147753L198.50250000000003,167.34170202954942L199.66333333333336,167.27262158479888L200.82416666666668,167.36967611841322L201.985,167.496410132241L203.14583333333334,167.51816434669004L204.30666666666667,167.51288515691462L205.46750000000003,167.48267582633795L206.62833333333336,167.4472587417287L207.7891666666667,167.56673734609618L208.95000000000002,167.53266686692436L210.11083333333335,167.63418916520237L211.27166666666668,167.65005816970324L212.4325,167.6517493459824L213.59333333333336,167.64361296255848L214.7541666666667,167.67955549811995L215.91500000000002,167.87330793056296L217.07583333333335,167.9773403544033L218.23666666666668,168.01133171908882L219.3975,168.10936942573088L220.55833333333334,168.19638065383253L221.71916666666667,168.3197799949969L222.88000000000002,168.16563422615081L224.04083333333335,168.24916544398516L225.20166666666668,168.2177694287351L226.3625,168.36970291772192L227.52333333333334,168.26787884139245L228.68416666666667,168.37869489612117L229.845,168.5425686181899L231.00583333333336,168.52528254397606L232.16666666666669,168.5509750950807L233.32750000000001,168.36265070846522L234.48833333333334,168.39403101927545L235.64916666666667,168.56798462108674L236.81,168.55998849651758L237.97083333333333,168.6242523216101L239.13166666666666,168.5771750320728L240.29250000000002,168.68448272763106L241.45333333333335,168.7977139474059L242.61416666666668,168.76250511295228L243.77500000000003,168.71882597498077L244.93583333333336,168.85087198908315L246.0966666666667,168.79444741305818L247.25750000000002,168.80715413509077L248.41833333333338,169.5515864385263L249.5791666666667,175.73039989191864L250.74000000000004,179.40927253436195" style="fill: none;" fill="none"></path></g></g></g></g><g opacity="0.2"><g><g><g><path stroke="rgb(255, 112, 67)" stroke-width="2px" d="M31.342500000000005,-5.062879657745369L32.50333333333334,5.33541204929351L33.66416666666667,15.823336744308463L34.825,24.769038105010978L35.98583333333334,38.269215667247764L37.14666666666667,47.3563928246498L38.307500000000005,55.12943812608718L39.468333333333334,62.01077445745467L40.62916666666667,69.88378121852874L41.79,76.44584223031997L42.950833333333335,81.78050311803817L44.11166666666667,85.90913822650909L45.27250000000001,90.0885505914688L46.43333333333334,93.29375281333922L47.59416666666667,96.78247632980346L48.755,99.26938029527663L49.91583333333334,102.7617541193962L51.07666666666667,109.14278730154037L52.237500000000004,111.6331411242485L53.39833333333334,113.95034798383712L54.55916666666667,116.2819556236267L55.720000000000006,118.55417718887328L56.880833333333335,118.9937544107437L58.04166666666667,120.50080397129058L59.2025,122.06440165042876L60.36333333333334,123.646198117733L61.52416666666667,125.68179851174354L62.68500000000001,125.81700759530067L63.84583333333334,127.73591946959495L65.00666666666667,127.62241705656051L66.1675,129.02392947077752L67.32833333333333,130.07140951752663L68.48916666666666,130.895181620121L69.65,130.84578114151955L70.81083333333333,132.10475748181344L71.97166666666668,132.6671527862549L73.13250000000001,133.3612545669079L74.29333333333334,133.38758214712144L75.45416666666667,134.85447832345963L76.61500000000001,135.08073937296868L77.77583333333334,135.3531251192093L78.93666666666667,135.907286131382L80.0975,136.1185081243515L81.25833333333334,137.04577066898347L82.41916666666667,137.8084423184395L83.58,137.73844819664956L84.74083333333333,138.14380642175675L85.90166666666667,138.27578719854355L87.0625,138.91404771208764L88.22333333333334,139.28396841287613L89.38416666666669,139.80970766544343L90.54500000000002,142.82379623651505L91.70583333333335,144.0163074374199L92.86666666666667,144.78093611598015L94.02750000000002,145.09191911816598L95.18833333333335,145.04580497145653L96.34916666666668,144.91175111532212L97.51,145.99065967798234L98.67083333333335,146.43977939486504L99.83166666666668,146.29069703221322L100.9925,146.5015286743641L102.15333333333334,147.24611758589745L103.31416666666668,146.65307446718217L104.47500000000001,147.62376090288163L105.63583333333334,147.45673295259476L106.79666666666668,148.55664660930634L107.95750000000001,150.16205402612687L109.11833333333334,150.1593110203743L110.27916666666667,150.59782796502114L111.44000000000001,150.70790689587594L112.60083333333334,150.85877221226693L113.76166666666667,151.19186806082726L114.9225,151.3635274708271L116.08333333333334,151.51298963427544L117.24416666666667,151.28220790028573L118.405,152.15753796100617L119.56583333333333,152.52214145064355L120.72666666666667,152.79840960502625L121.88750000000002,152.19039072990418L123.04833333333335,152.49971737861634L124.20916666666669,153.33029952049256L125.37000000000002,152.93053280711175L126.53083333333335,153.33143364787102L127.69166666666668,153.5186121404171L128.85250000000002,156.19236754775048L130.01333333333335,159.9359954237938L131.17416666666668,160.21981211900712L132.335,160.43453144431115L133.49583333333334,160.61189841628075L134.65666666666667,160.94045775532723L135.8175,161.1605364918709L136.97833333333332,161.2134290277958L138.13916666666668,161.316719019413L139.3,161.63190620541573L140.46083333333334,161.1055656015873L141.62166666666667,162.00419011116028L142.7825,161.78550925254822L143.94333333333336,161.92718549966813L145.10416666666669,162.03827723264695L146.26500000000001,161.93470239043236L147.42583333333334,162.0975419819355L148.58666666666667,162.25850366950036L149.7475,162.30413251519204L150.90833333333333,162.5368818283081L152.06916666666666,162.97469719648362L153.23000000000002,164.20840623378754L154.39083333333335,164.13860728740693L155.55166666666668,164.52304481863976L156.7125,164.37080272436143L157.87333333333333,164.70055421590806L159.03416666666666,164.6481469810009L160.195,165.31389030218125L161.35583333333335,165.34815677404404L162.51666666666668,165.18494265675545L163.6775,165.18898859024048L164.83833333333334,165.57966118454934L165.99916666666667,165.69930898547173L167.16,165.41682686805726L168.32083333333333,165.53212805986405L169.48166666666665,165.33061736226082L170.6425,165.85236870646477L171.80333333333334,165.84844937324524L172.96416666666667,166.22499021291733L174.125,165.88515290021897L175.28583333333336,166.08216401338578L176.4466666666667,165.89288606643677L177.60750000000002,166.26017453670502L178.76833333333337,166.22356595993043L179.9291666666667,166.08615719676018L181.09000000000003,166.3693830907345L182.25083333333336,166.45281794071198L183.4116666666667,166.45413141846657L184.57250000000002,166.52863567471505L185.73333333333335,166.48988544344903L186.89416666666668,166.45907410383225L188.05500000000004,166.74817636013032L189.21583333333336,166.74797063469887L190.3766666666667,166.664672935009L191.53750000000002,166.92567520737649L192.69833333333335,166.9298213660717L193.85916666666668,167.28471883535386L195.02,167.0947129368782L196.18083333333337,167.21554234027863L197.3416666666667,167.51650282144547L198.50250000000003,167.44269486665726L199.66333333333336,167.16900091767312L200.82416666666668,167.5152579188347L201.985,167.68651115298272L203.14583333333334,167.55079566836358L204.30666666666667,167.50496637225152L205.46750000000003,167.43736183047295L206.62833333333336,167.39413311481476L207.7891666666667,167.7459552526474L208.95000000000002,167.48156114816666L210.11083333333335,167.7864726126194L211.27166666666668,167.67386167645455L212.4325,167.65428611040116L213.59333333333336,167.63140838742257L214.7541666666667,167.73346930146218L215.91500000000002,168.16393657922745L217.07583333333335,168.1333889901638L218.23666666666668,168.0623187661171L219.3975,168.25642598569394L220.55833333333334,168.32689749598504L221.71916666666667,168.50487900674344L222.88000000000002,167.9344155728817L224.04083333333335,168.3744622707367L225.20166666666668,168.17067540585995L226.3625,168.5976031512022L227.52333333333334,168.1151427268982L228.68416666666667,168.54491897821427L229.845,168.788379201293L231.00583333333336,168.49935343265534L232.16666666666669,168.58951392173768L233.32750000000001,168.08016412854195L234.48833333333334,168.4411014854908L235.64916666666667,168.82891502380372L236.81,168.54799430966378L237.97083333333333,168.72064805924893L239.13166666666666,168.50655909776688L240.29250000000002,168.84544427096844L241.45333333333335,168.96756077706814L242.61416666666668,168.70969186127186L243.77500000000003,168.6533072680235L244.93583333333336,169.04894101023675L246.0966666666667,168.70981054902077L247.25750000000002,168.82621421813965L248.41833333333338,170.66823489367962L249.5791666666667,184.99862007200718" style="fill: none;" fill="none"></path></g></g></g></g></g></g><g transform="translate(40, 177)" clip-path="url(#clip_1)"><clipPath id="clip_1"><rect width="278" height="23"></rect></clipPath><g><g><line x1="0" y1="0" x2="0" y2="5" style="visibility: inherit;" fill="rgb(0, 0, 0)" stroke="rgb(204, 204, 204)" stroke-width="1px"></line><line x1="23.21666666666667" y1="0" x2="23.21666666666667" y2="5" style="visibility: inherit;" fill="rgb(0, 0, 0)" stroke="rgb(204, 204, 204)" stroke-width="1px"></line><line x1="46.43333333333334" y1="0" x2="46.43333333333334" y2="5" style="visibility: inherit;" fill="rgb(0, 0, 0)" stroke="rgb(204, 204, 204)" stroke-width="1px"></line><line x1="69.65" y1="0" x2="69.65" y2="5" style="visibility: inherit;" fill="rgb(0, 0, 0)" stroke="rgb(204, 204, 204)" stroke-width="1px"></line><line x1="92.86666666666667" y1="0" x2="92.86666666666667" y2="5" style="visibility: inherit;" fill="rgb(0, 0, 0)" stroke="rgb(204, 204, 204)" stroke-width="1px"></line><line x1="116.08333333333334" y1="0" x2="116.08333333333334" y2="5" style="visibility: inherit;" fill="rgb(0, 0, 0)" stroke="rgb(204, 204, 204)" stroke-width="1px"></line><line x1="139.3" y1="0" x2="139.3" y2="5" style="visibility: inherit;" fill="rgb(0, 0, 0)" stroke="rgb(204, 204, 204)" stroke-width="1px"></line><line x1="162.51666666666668" y1="0" x2="162.51666666666668" y2="5" style="visibility: inherit;" fill="rgb(0, 0, 0)" stroke="rgb(204, 204, 204)" stroke-width="1px"></line><line x1="185.73333333333335" y1="0" x2="185.73333333333335" y2="5" style="visibility: inherit;" fill="rgb(0, 0, 0)" stroke="rgb(204, 204, 204)" stroke-width="1px"></line><line x1="208.95000000000002" y1="0" x2="208.95000000000002" y2="5" style="visibility: inherit;" fill="rgb(0, 0, 0)" stroke="rgb(204, 204, 204)" stroke-width="1px"></line><line x1="232.16666666666669" y1="0" x2="232.16666666666669" y2="5" style="visibility: inherit;" fill="rgb(0, 0, 0)" stroke="rgb(204, 204, 204)" stroke-width="1px"></line><line x1="255.38333333333335" y1="0" x2="255.38333333333335" y2="5" style="visibility: inherit;" fill="rgb(0, 0, 0)" stroke="rgb(204, 204, 204)" stroke-width="1px"></line><line x1="278.6" y1="0" x2="278.6" y2="5" style="visibility: inherit;" fill="rgb(0, 0, 0)" stroke="rgb(204, 204, 204)" stroke-width="1px"></line></g><g transform="translate(0, 8)"><text x="0" y="0" dx="0em" dy="0.95em" style="text-anchor: middle; visibility: hidden; font-family: Roboto, sans-serif; font-size: 12px; font-weight: 200;" fill="rgb(33, 33, 33)" stroke="none" stroke-width="1px">-20</text><text x="23.21666666666667" y="0" dx="0em" dy="0.95em" style="text-anchor: middle; visibility: inherit; font-family: Roboto, sans-serif; font-size: 12px; font-weight: 200;" fill="rgb(33, 33, 33)" stroke="none" stroke-width="1px">0</text><text x="46.43333333333334" y="0" dx="0em" dy="0.95em" style="text-anchor: middle; visibility: hidden; font-family: Roboto, sans-serif; font-size: 12px; font-weight: 200;" fill="rgb(33, 33, 33)" stroke="none" stroke-width="1px">20</text><text x="69.65" y="0" dx="0em" dy="0.95em" style="text-anchor: middle; visibility: inherit; font-family: Roboto, sans-serif; font-size: 12px; font-weight: 200;" fill="rgb(33, 33, 33)" stroke="none" stroke-width="1px">40</text><text x="92.86666666666667" y="0" dx="0em" dy="0.95em" style="text-anchor: middle; visibility: hidden; font-family: Roboto, sans-serif; font-size: 12px; font-weight: 200;" fill="rgb(33, 33, 33)" stroke="none" stroke-width="1px">60</text><text x="116.08333333333334" y="0" dx="0em" dy="0.95em" style="text-anchor: middle; visibility: inherit; font-family: Roboto, sans-serif; font-size: 12px; font-weight: 200;" fill="rgb(33, 33, 33)" stroke="none" stroke-width="1px">80</text><text x="139.3" y="0" dx="0em" dy="0.95em" style="text-anchor: middle; visibility: hidden; font-family: Roboto, sans-serif; font-size: 12px; font-weight: 200;" fill="rgb(33, 33, 33)" stroke="none" stroke-width="1px">100</text><text x="162.51666666666668" y="0" dx="0em" dy="0.95em" style="text-anchor: middle; visibility: inherit; font-family: Roboto, sans-serif; font-size: 12px; font-weight: 200;" fill="rgb(33, 33, 33)" stroke="none" stroke-width="1px">120</text><text x="185.73333333333335" y="0" dx="0em" dy="0.95em" style="text-anchor: middle; visibility: hidden; font-family: Roboto, sans-serif; font-size: 12px; font-weight: 200;" fill="rgb(33, 33, 33)" stroke="none" stroke-width="1px">140</text><text x="208.95000000000002" y="0" dx="0em" dy="0.95em" style="text-anchor: middle; visibility: inherit; font-family: Roboto, sans-serif; font-size: 12px; font-weight: 200;" fill="rgb(33, 33, 33)" stroke="none" stroke-width="1px">160</text><text x="232.16666666666669" y="0" dx="0em" dy="0.95em" style="text-anchor: middle; visibility: hidden; font-family: Roboto, sans-serif; font-size: 12px; font-weight: 200;" fill="rgb(33, 33, 33)" stroke="none" stroke-width="1px">180</text><text x="255.38333333333335" y="0" dx="0em" dy="0.95em" style="text-anchor: middle; visibility: inherit; font-family: Roboto, sans-serif; font-size: 12px; font-weight: 200;" fill="rgb(33, 33, 33)" stroke="none" stroke-width="1px">200</text><text x="278.6" y="0" dx="0em" dy="0.95em" style="text-anchor: middle; visibility: hidden; font-family: Roboto, sans-serif; font-size: 12px; font-weight: 200;" fill="rgb(33, 33, 33)" stroke="none" stroke-width="1px">220</text></g><line x1="0" y1="0" x2="278.6" y2="0" fill="rgb(0, 0, 0)" stroke="rgb(204, 204, 204)" stroke-width="1px"></line></g></g></g></g></svg>